**ABCDEFGHIJKLMNOPQRSTUVWXYZabcdefghijklmnopqrstuvwxyz**************************
**PARASOLID !"#$%&'()*+,-./:;<=>?@[\]^_`{|}~0123456789**************************
**PART1;
MC=unknown;
MC_MODEL=unknown;
MC_ID=unknown;
OS=unknown;
OS_RELEASE=unknown;
FRU=FUJITSU iCAD SX DEV.;
APPL=iCAD SX;
SITE=unknown;
USER=unknown;
FORMAT=text;
GUISE=transmit;
KEY=Loadcell_straight_bar_10kg_20Kg;
FILE=C:\Users\sekik\OneDrive\デスクトップ\GRABCAD用データ\Loadcell_straight_bar_10kg_20Kg\Loadcell_straight_bar_10kg_20Kg.xmt_txt;
DATE=unknown;
**PART2;
SCH=SCH_3000310_30000;
USFLD_SIZE=0;
**PART3;
**END_OF_HEADER*****************************************************************
T51 : TRANSMIT FILE created by modeller version 300031017 SCH_1302000_130060 10
 1 6 0 0 0 0 0 0 0 1e3 1e-8 0 0 0 1 0 1 2 11 2 6 0 1 3 0 1 4 0 0 0 12 3 2334 0 5
 0 0 0 0 1e3 1e-8 2 6 0 1 0 1 1 7 8 9 10 11 12 13 11 4 5 0 1 14 0 1 15 2 0 0 12
 14 343 0 16 0 0 0 0 1e3 1e-8 4 17 6 1 0 1 1 18 19 20 21 22 23 24 11 15 4 0 1 25
 0 1 26 4 0 0 12 25 21 0 27 0 0 0 0 1e3 1e-8 15 28 17 1 0 1 1 29 30 31 0 32 33 0
 11 26 3 0 1 28 0 1 34 15 0 0 12 28 21 0 35 0 0 0 0 1e3 1e-8 26 36 25 1 0 1 1 37
 38 39 0 40 41 0 11 34 2 0 1 36 0 1 42 26 0 0 12 36 21 0 43 0 0 0 0 1e3 1e-8 34
 44 28 1 0 1 1 45 46 47 0 48 49 0 11 42 1 0 1 44 0 1 0 34 0 0 12 44 21 0 50 0 0
 0 0 1e3 1e-8 42 0 36 1 0 1 1 51 52 53 0 54 55 0 70 50 0 44 0 0 4 1 20 4 56 56 1
 T13 51 3 0 44 0 57 0 0 58 0 51 52 18 0 59 60 0 0 +.450981938091113 -.02235 -.02
47319707502337 0 0 -1 4e-4 -1 0 0 31 53 16 0 55 61 0 0 +.450981938091113 -.02235
 -.0447319707502337 0 0 1 1 0 0 4e-4 19 54 1 0 44 58 0 62 V16 55 12 0 ?63 0 64 5
3 0 0 44 17 63 0 65 63 63 0 66 55 0 0 +16 64 6 0 ?67 55 0 61 0 0 44 17 67 0 68 6
7 67 0 69 64 0 0 +31 61 10 0 64 0 53 0 +.450981938091113 -.02235 -.0247319707502
337 0 0 -1 -1 0 0 4e-4 15 68 7 0 67 59 0 17 69 0 70 69 69 0 67 64 0 0 -15 70 8 0
 69 71 0 14 71 9 72 ?59 57 70 51 73 +0 0 59 57 62 81 1 72 20 74 71 0 0 75 76 77
 14 59 2 76 ?0 71 65 51 52 +0 0 0 71 62 14 57 15 75 ?71 0 78 51 60 +0 0 71 0 62
 50 73 11 0 71 0 60 0 +.450981938091113 -.02235 -.0247319707502337 0 0 1 1 0 0 1
3 62 4 0 0 0 0 0 0 54 57 50 60 17 0 57 73 52 0 +.450981938091113 -.02235 -.04473
19707502337 0 0 -1 -1 0 0 81 1 75 19 74 57 0 0 0 72 79 15 78 14 0 66 57 0 17 66
 0 78 66 66 0 63 55 0 0 -80 1 74 0 80 8001 0 0 0 0 3 5 0 0 0 FFFFTFTFFFFFFF2 83
 3 79 .1098039215686274 .643137254901961 .176470588235294 79 15 80 SDL/TYSA_COLO
UR81 1 76 21 74 59 0 0 72 0 81 15 65 13 0 63 59 68 83 3 81 .1098039215686274 .64
3137254901961 .176470588235294 83 3 77 .1098039215686274 .643137254901961 .17647
0588235294 19 58 5 0 44 0 54 51 S74 20 56 1 0 76 0 0 0 0 0 0 0 0 0 0 0 0 0 0 0 0
 0 0 0 70 43 0 36 0 0 4 1 20 4 82 82 1 T13 45 3 0 36 0 83 0 0 84 0 51 46 18 0 85
 86 0 0 +.450981938091113 -.02435 -.0247319707502337 0 0 -1 4e-4 -1 0 0 31 47 16
 0 49 87 0 0 +.450981938091113 -.02435 -.0447319707502337 0 0 1 1 0 0 4e-4 19 48
 1 0 36 84 0 88 V16 49 12 0 ?89 0 90 47 0 0 36 17 89 0 91 89 89 0 92 49 0 0 +16
 90 6 0 ?93 49 0 87 0 0 36 17 93 0 94 93 93 0 95 90 0 0 +31 87 10 0 90 0 47 0 +.
450981938091113 -.02435 -.0247319707502337 0 0 -1 -1 0 0 4e-4 15 94 7 0 93 85 0
 17 95 0 96 95 95 0 93 90 0 0 -15 96 8 0 95 97 0 14 97 9 98 ?85 83 96 45 99 +0 0
 85 83 88 81 1 98 20 74 97 0 0 100 101 102 14 85 2 101 ?0 97 91 45 46 +0 0 0 97
 88 14 83 15 100 ?97 0 103 45 86 +0 0 97 0 88 50 99 11 0 97 0 86 0 +.45098193809
1113 -.02435 -.0247319707502337 0 0 1 1 0 0 13 88 4 0 0 0 0 0 0 48 83 50 86 17 0
 83 99 46 0 +.450981938091113 -.02435 -.0447319707502337 0 0 -1 -1 0 0 81 1 100
 19 74 83 0 0 0 98 104 15 103 14 0 92 83 0 17 92 0 103 92 92 0 89 49 0 0 -83 3 1
04 1 1 1 81 1 101 21 74 85 0 0 98 0 105 15 91 13 0 89 85 94 83 3 105 1 1 1 83 3
 102 1 1 1 19 84 5 0 36 0 48 45 S74 20 82 1 0 101 0 0 0 0 0 0 0 0 0 0 0 0 0 0 0
 0 0 0 0 70 35 0 28 0 0 4 1 20 4 106 106 1 T13 37 3 0 28 0 107 0 0 108 0 51 38 1
8 0 109 110 0 0 +.450981938091113 -.02635 -.0247319707502337 0 0 -1 4e-4 -1 0 0
 31 39 16 0 41 111 0 0 +.450981938091113 -.02635 -.0447319707502337 0 0 1 1 0 0
 4e-4 19 40 1 0 28 108 0 112 V16 41 12 0 ?113 0 114 39 0 0 28 17 113 0 115 113 1
13 0 116 41 0 0 +16 114 6 0 ?117 41 0 111 0 0 28 17 117 0 118 117 117 0 119 114
 0 0 +31 111 10 0 114 0 39 0 +.450981938091113 -.02635 -.0247319707502337 0 0 -1
 -1 0 0 4e-4 15 118 7 0 117 109 0 17 119 0 120 119 119 0 117 114 0 0 -15 120 8 0
 119 121 0 14 121 9 122 ?109 107 120 37 123 +0 0 109 107 112 81 1 122 20 74 121
 0 0 124 125 126 14 109 2 125 ?0 121 115 37 38 +0 0 0 121 112 14 107 15 124 ?121
 0 127 37 110 +0 0 121 0 112 50 123 11 0 121 0 110 0 +.450981938091113 -.02635 -
.0247319707502337 0 0 1 1 0 0 13 112 4 0 0 0 0 0 0 40 107 50 110 17 0 107 123 38
 0 +.450981938091113 -.02635 -.0447319707502337 0 0 -1 -1 0 0 81 1 124 19 74 107
 0 0 0 122 128 15 127 14 0 116 107 0 17 116 0 127 116 116 0 113 41 0 0 -83 3 128
 .874509803921569 .1333333333333332 .1333333333333332 81 1 125 21 74 109 0 0 122
 0 129 15 115 13 0 113 109 118 83 3 129 .874509803921569 .1333333333333332 .1333
333333333332 83 3 126 .874509803921569 .1333333333333332 .1333333333333332 19 10
8 5 0 28 0 40 37 S74 20 106 1 0 125 0 0 0 0 0 0 0 0 0 0 0 0 0 0 0 0 0 0 0 70 27
 0 25 0 0 4 1 20 4 130 130 1 T13 29 3 0 25 0 131 0 0 132 0 51 30 18 0 133 134 0
 0 +.450981938091113 -.02035 -.0247319707502337 0 0 -1 4e-4 -1 0 0 31 31 16 0 33
 135 0 0 +.450981938091113 -.02035 -.0447319707502337 0 0 1 1 0 0 4e-4 19 32 1 0
 25 132 0 136 V16 33 12 0 ?137 0 138 31 0 0 25 17 137 0 139 137 137 0 140 33 0 0
 +16 138 6 0 ?141 33 0 135 0 0 25 17 141 0 142 141 141 0 143 138 0 0 +31 135 10
 0 138 0 31 0 +.450981938091113 -.02035 -.0247319707502337 0 0 -1 -1 0 0 4e-4 15
 142 7 0 141 133 0 17 143 0 144 143 143 0 141 138 0 0 -15 144 8 0 143 145 0 14 1
45 9 146 ?133 131 144 29 147 +0 0 133 131 136 81 1 146 20 74 145 0 0 148 149 150
 14 133 2 149 ?0 145 139 29 30 +0 0 0 145 136 14 131 15 148 ?145 0 151 29 134 +0
 0 145 0 136 50 147 11 0 145 0 134 0 +.450981938091113 -.02035 -.024731970750233
7 0 0 1 1 0 0 13 136 4 0 0 0 0 0 0 32 131 50 134 17 0 131 147 30 0 +.45098193809
1113 -.02035 -.0447319707502337 0 0 -1 -1 0 0 81 1 148 19 74 131 0 0 0 146 152 1
5 151 14 0 140 131 0 17 140 0 151 140 140 0 137 33 0 0 -83 3 152 .19607843137254
9 .196078431372549 .196078431372549 81 1 149 21 74 133 0 0 146 0 153 15 139 13 0
 137 133 142 83 3 153 .196078431372549 .196078431372549 .196078431372549 83 3 15
0 .196078431372549 .196078431372549 .196078431372549 19 132 5 0 25 0 32 29 S74 2
0 130 1 0 149 0 0 0 0 0 0 0 0 0 0 0 0 0 0 0 0 0 0 0 70 16 0 14 0 0 4 1 20 4 154
 154 1 T13 18 3 0 14 0 155 0 0 156 0 50 19 54 0 157 158 0 0 +.444131938091113 -.
02335 .0302680292497663 0 0 1 0 1 0 30 20 272 0 23 159 0 0 +.444131938091113 -.0
199958980337503 -.00973197075023371 1 0 0 29 21 267 0 24 160 0 .437781938091113
 -.0267041019662497 -.00973197075023371 19 22 1 0 14 156 0 161 V16 23 270 0 ?162
 0 163 20 0 0 14 18 24 264 0 164 0 165 21 ?14 17 164 0 166 167 168 24 169 170 0
 171 -18 165 23 0 172 24 173 160 ?14 17 172 0 174 175 176 165 177 178 0 179 +18
 173 21 0 180 165 181 182 ?14 29 160 58 0 165 182 21 .450481938091113 -.0297 .03
02680292497663 29 182 57 0 173 183 160 .437781938091113 -.0297 .0302680292497663
 29 183 56 0 181 184 182 .437781938091113 -.017 .0302680292497663 18 181 19 0 18
5 173 186 183 ?14 29 184 55 0 186 187 183 .450481938091113 -.017 .03026802924976
63 18 186 17 0 177 181 188 184 ?14 29 187 41 0 189 190 184 .450481938091113 -.02
97 -.0497319707502337 18 189 11 0 175 191 192 187 ?14 29 190 40 0 191 193 187 .4
37781938091113 -.0297 -.0497319707502337 18 191 13 0 194 188 189 190 ?14 29 193
 39 0 188 195 190 .437781938091113 -.017 -.0497319707502337 18 188 15 0 196 186
 191 193 ?14 29 195 38 0 192 197 193 .450481938091113 -.017 -.0497319707502337 1
8 192 10 0 198 189 199 195 ?14 29 197 326 0 199 200 195 .437781938091113 -.01999
58980337503 -.00973197075023371 18 199 297 0 168 192 201 197 ?14 29 200 327 0 20
1 202 197 .450481938091113 -.0267041019662497 -.00973197075023371 18 201 296 0 1
67 199 203 200 ?14 29 202 328 0 203 0 200 .450481938091113 -.0199958980337503 -.
00973197075023371 18 203 298 0 204 201 0 202 ?14 17 204 0 166 168 167 203 205 20
6 0 162 -15 166 308 0 164 207 0 17 168 0 166 164 204 199 162 23 0 169 -17 167 0
 166 204 164 201 171 163 0 205 -17 205 0 208 209 209 201 204 206 0 210 +16 206 2
89 0 ?205 211 170 212 0 0 14 17 162 0 213 210 214 203 168 23 0 209 +15 213 246 0
 214 215 0 17 210 0 213 171 162 201 209 216 0 0 -17 214 0 213 162 171 199 217 21
1 0 0 -17 209 0 208 205 205 203 210 216 0 0 +15 208 229 0 209 155 0 16 216 234 0
 ?209 218 211 219 0 0 14 16 218 201 0 ?220 221 216 222 0 0 14 16 211 236 0 ?217
 216 206 223 0 0 14 31 219 253 0 216 223 222 0 +.450481938091113 -.02335 -.00673
197075023371 -1 0 0 0 0 1 .0045 31 223 254 0 211 212 219 0 +.437781938091113 -.0
2335 -.00673197075023371 1 0 0 0 0 -1 .0045 31 222 219 0 218 219 224 0 +.4441319
38091113 -.017 -.0297319707502337 0 -1 0 0 0 1 .0025 31 224 218 0 221 222 225 0
 +.444131938091113 -.0297 -.0297319707502337 0 1 0 0 0 -1 .0025 16 221 199 0 ?22
6 227 218 224 0 0 14 31 225 184 0 227 224 228 0 +.444131938091113 -.017 .0102680
2924976632 0 -1 0 0 0 1 .002 16 227 166 0 ?229 230 221 225 0 0 14 31 228 183 0 2
30 225 231 0 +.444131938091113 -.0297 .01026802924976632 0 1 0 0 0 -1 .002 16 23
0 164 0 ?232 233 227 228 0 0 14 31 231 149 0 233 228 234 0 +.444131938091113 -.0
17 -.0447319707502337 0 -1 0 0 0 1 .0025 16 233 131 0 ?235 236 230 231 0 0 14 31
 234 148 0 236 231 237 0 +.444131938091113 -.0297 -.0447319707502337 0 1 0 0 0 -
1 .0025 16 236 129 0 ?238 239 233 234 0 0 14 31 237 114 0 239 234 240 0 +.444131
938091113 -.017 .02526802924976635 0 -1 0 0 0 1 .002 16 239 96 0 ?241 242 236 23
7 0 0 14 31 240 113 0 242 237 243 0 +.444131938091113 -.0297 .02526802924976635
 0 1 0 0 0 -1 .002 16 242 94 0 ?244 245 239 240 0 0 14 30 243 42 0 245 240 246 0
 +.450481938091113 -.02335 -.0497319707502337 0 1 0 16 245 12 0 ?247 248 242 243
 0 0 14 30 246 43 0 249 243 250 0 +.444131938091113 -.017 -.0497319707502337 -1
 0 0 16 249 6 0 ?251 252 253 246 0 0 14 30 250 44 0 253 246 254 0 +.437781938091
113 -.02335 -.0497319707502337 0 -1 0 16 253 16 0 ?255 249 248 250 0 0 14 30 254
 45 0 248 250 256 0 +.444131938091113 -.0297 -.0497319707502337 1 0 0 16 248 14
 0 ?257 253 245 254 0 0 14 30 256 50 0 252 254 258 0 +.450481938091113 -.017 -.0
497319707502337 0 0 1 16 252 18 0 ?176 259 249 256 0 0 14 30 258 51 0 259 256 26
0 0 +.437781938091113 -.017 -.0497319707502337 0 0 1 16 259 20 0 ?261 262 252 25
8 0 0 14 30 260 52 0 262 258 263 0 +.437781938091113 -.0297 -.0497319707502337 0
 0 1 16 262 22 0 ?264 265 259 260 0 0 14 30 263 53 0 265 260 266 0 +.45048193809
1113 -.0297 -.0497319707502337 0 0 1 16 265 24 0 ?267 268 262 263 0 0 14 30 266
 59 0 268 263 269 0 +.444131938091113 -.017 .0302680292497663 1 0 0 16 268 25 0
 ?270 271 265 266 0 0 14 30 269 60 0 271 266 272 0 +.437781938091113 -.02335 .03
02680292497663 0 1 0 16 271 28 0 ?185 273 268 269 0 0 14 30 272 61 0 273 269 274
 0 +.444131938091113 -.0297 .0302680292497663 -1 0 0 16 273 31 0 ?180 178 271 27
2 0 0 14 30 274 62 0 178 272 159 0 +.450481938091113 -.02335 .0302680292497663 0
 -1 0 16 178 34 0 ?172 163 273 274 0 0 14 30 159 269 0 163 274 20 0 -.4441319380
91113 -.0267041019662497 -.00973197075023371 1 0 0 16 163 268 0 ?171 23 178 159
 0 0 14 17 171 0 213 214 210 24 167 163 0 217 +17 217 0 275 169 169 24 214 211 0
 0 +15 275 223 0 217 276 0 17 169 0 275 217 217 199 164 170 0 214 +16 170 292 0
 ?169 206 0 277 0 0 14 31 277 324 0 170 0 212 0 +.437781938091113 -.02335 -.0127
319707502337 1 0 0 0 0 -1 .0045 31 212 323 0 206 277 223 0 +.450481938091113 -.0
2335 -.0127319707502337 -1 0 0 0 0 1 .0045 14 276 27 278 ?157 155 279 18 280 +0
 0 157 155 161 81 1 278 333 74 276 0 0 281 282 283 14 157 36 282 ?284 276 285 18
 19 +0 0 284 276 161 14 155 33 281 ?276 0 174 18 158 +0 0 276 0 161 15 279 26 0
 264 276 275 50 280 47 0 276 286 287 0 +.437781938091113 -.02335 -.0497319707502
337 -1 0 0 0 0 1 13 161 4 0 0 0 0 0 0 22 155 50 286 46 0 288 289 280 0 +.4441319
38091113 -.017 -.0497319707502337 0 1 0 0 0 -1 50 287 48 0 284 280 158 0 +.44413
1938091113 -.0297 -.0497319707502337 0 -1 0 0 0 1 14 284 30 290 ?291 157 292 18
 287 +0 0 291 157 161 50 158 49 0 155 287 19 0 +.450481938091113 -.02335 -.04973
19707502337 1 0 0 0 0 -1 81 1 290 335 74 284 0 0 282 293 294 14 291 9 293 ?288 2
84 295 18 289 +0 0 288 284 161 15 292 194 0 226 284 296 17 226 0 292 226 226 0 2
97 221 0 0 +15 296 159 0 232 284 298 17 232 0 296 232 232 0 299 230 0 0 +15 298
 124 0 238 284 300 17 238 0 298 238 238 0 301 236 0 0 +15 300 89 0 244 284 302 1
7 244 0 300 244 244 0 303 242 0 0 +15 302 29 0 267 284 0 17 267 0 302 180 257 16
5 175 265 0 0 +17 180 0 302 194 267 173 179 273 0 304 +17 257 0 302 267 194 189
 305 248 0 306 +17 175 0 174 247 172 189 267 265 0 257 -15 174 32 0 176 155 208
 17 247 0 174 176 175 192 306 245 0 307 +17 176 0 174 172 247 186 198 252 0 0 +1
7 306 0 295 305 307 189 247 245 0 0 -17 307 0 295 306 308 192 251 249 0 0 -15 29
5 8 0 307 291 0 17 308 0 295 307 305 188 255 253 0 251 -17 251 0 309 261 198 188
 307 249 0 0 +15 309 7 0 251 288 0 17 261 0 309 270 251 181 196 259 0 0 +17 198
 0 309 251 270 192 176 252 0 247 -17 270 0 309 198 261 186 310 268 0 176 +17 310
 0 285 304 177 181 270 268 0 261 -15 285 35 0 177 157 0 17 304 0 285 179 310 173
 185 271 0 264 -17 177 0 285 310 179 186 172 178 0 270 -17 179 0 285 177 304 165
 180 273 0 267 -17 185 0 279 196 264 181 304 271 0 310 +17 264 0 279 185 255 173
 194 262 0 0 +17 255 0 279 264 196 191 308 253 0 305 +17 194 0 302 257 180 191 2
64 262 0 255 -17 196 0 279 255 185 188 261 259 0 308 -17 305 0 295 308 306 191 2
57 248 0 0 -14 288 2 311 ?312 291 313 18 286 +0 0 312 291 161 81 1 311 337 74 28
8 0 0 293 314 315 14 312 104 314 ?316 288 317 18 318 -0 0 316 288 161 15 313 188
 0 220 288 319 17 220 0 313 220 220 0 320 218 0 0 +15 319 153 0 229 288 321 17 2
29 0 319 229 229 0 322 227 0 0 +15 321 118 0 235 288 323 17 235 0 321 235 235 0
 324 233 0 0 +15 323 83 0 241 288 309 17 241 0 323 241 241 0 325 239 0 0 +17 325
 0 326 325 325 0 241 239 0 0 -15 326 107 0 325 312 0 17 324 0 327 324 324 0 235
 233 0 0 -15 327 142 0 324 316 0 14 316 139 328 ?329 312 330 18 331 -0 0 329 312
 161 81 1 328 339 74 316 0 0 314 332 333 14 329 174 332 ?334 316 335 18 336 -0 0
 334 316 161 15 330 141 0 301 316 327 51 331 145 0 316 336 318 0 +.4441319380911
13 -.017 -.0447319707502337 0 -1 0 .0025 0 0 1 51 336 180 0 329 337 331 0 +.4441
31938091113 -.017 .01026802924976632 0 -1 0 .002 0 0 1 51 318 110 0 312 331 289
 0 +.444131938091113 -.017 .02526802924976635 0 -1 0 .002 0 0 1 50 289 37 0 291
 318 286 0 +.444131938091113 -.02335 -.0497319707502337 0 0 -1 0 -1 0 51 337 215
 0 334 338 336 0 +.444131938091113 -.017 -.0297319707502337 0 -1 0 .0025 0 0 1 1
4 334 209 339 ?215 329 340 18 337 -0 0 215 329 161 51 338 250 0 215 341 337 0 +.
437781938091113 -.02335 -.00673197075023371 1 0 0 .0045 0 0 -1 14 215 244 342 ?2
07 334 213 18 338 -0 0 207 334 161 51 341 320 0 207 0 338 0 +.437781938091113 -.
02335 -.0127319707502337 1 0 0 .0045 0 0 -1 14 207 315 343 ?0 215 166 18 341 -0
 0 0 215 161 81 1 343 343 74 207 0 0 342 0 344 81 1 342 342 74 215 0 0 339 343 3
45 83 3 344 .666666666666667 .666666666666667 .666666666666667 81 1 339 341 74 3
34 0 0 332 342 346 83 3 345 .666666666666667 .666666666666667 .666666666666667 8
1 1 332 340 74 329 0 0 328 339 347 83 3 346 .666666666666667 .666666666666667 .6
66666666666667 83 3 347 .666666666666667 .666666666666667 .666666666666667 15 34
0 211 0 297 334 348 17 297 0 340 297 297 0 226 221 0 0 -15 348 212 0 320 334 0 1
7 320 0 348 320 320 0 220 218 0 0 -17 301 0 330 301 301 0 238 236 0 0 -15 335 17
6 0 299 329 349 17 299 0 335 299 299 0 232 230 0 0 -15 349 177 0 322 329 0 17 32
2 0 349 322 322 0 229 227 0 0 -81 1 314 338 74 312 0 0 311 328 350 83 3 333 .666
666666666667 .666666666666667 .666666666666667 83 3 350 .666666666666667 .666666
666666667 .666666666666667 15 317 106 0 303 312 326 17 303 0 317 303 303 0 244 2
42 0 0 -81 1 293 336 74 291 0 0 290 311 351 83 3 315 .666666666666667 .666666666
666667 .666666666666667 83 3 351 .666666666666667 .666666666666667 .666666666666
667 81 1 282 334 74 157 0 0 278 290 352 83 3 294 .666666666666667 .6666666666666
67 .666666666666667 83 3 352 .666666666666667 .666666666666667 .666666666666667
 81 1 281 332 74 155 0 0 0 278 353 83 3 353 .666666666666667 .666666666666667 .6
66666666666667 83 3 283 .666666666666667 .666666666666667 .666666666666667 19 15
6 5 0 14 0 22 18 S74 20 154 1 0 343 0 0 0 0 0 0 0 0 0 0 0 0 0 0 0 0 0 0 0 70 5 0
 3 0 0 4 1 20 4 354 354 1 T13 7 3 0 3 0 355 0 0 356 0 51 8 2285 0 357 358 0 359
 +.450981938091113 -.0247 -.0162852900130852 -1 0 0 .006 0 0 1 32 9 2254 0 12 36
0 0 0 +.447165313300758 -.0247 -.0162852900130852 -.707106781186548 0 .707106781
186548 -.707106781186548 0 -.707106781186548 .00848528137423857 .006 29 10 2253
 0 13 361 0 .450481938091113 -.0297 -.01296866522272978 19 11 1 0 3 356 0 362 V1
6 12 2193 0 ?363 0 364 9 0 0 3 18 13 2250 0 365 0 366 10 ?3 17 365 0 367 368 369
 13 370 371 0 372 +18 366 2173 0 373 13 374 361 ?3 17 373 0 375 363 376 366 377
 378 0 379 -18 374 2163 0 380 366 381 382 ?3 29 361 2175 0 366 382 10 .447165313
300758 -.0307 -.0162852900130852 29 382 2166 0 374 383 361 .451481938091113 -.03
07 -.0162852900130852 29 383 2157 0 381 384 382 .451481938091113 -.0306513729949
993 -.01552295185032985 18 381 2154 0 385 374 386 383 ?3 29 384 2118 0 386 387 3
83 .438073833599542 -.0298817962880699 -.01641534595987825 18 386 2115 0 388 381
 389 384 ?3 29 387 2109 0 389 390 384 .4410985628814685 -.0298817962880699 -.019
440075241805 18 389 2106 0 391 386 392 387 ?3 29 390 2054 0 392 393 387 .4380738
33599542 -.0298817962880699 -.003048595540589105 18 392 2051 0 394 389 395 390 ?
3 29 393 2045 0 395 396 390 .4410985628814685 -.0298817962880699 -23866258662380
55e-20 18 395 2042 0 397 392 398 393 ?3 29 396 1990 0 398 399 393 .4501900425826
85 -.0298817962880699 -.003048595540589105 18 398 1987 0 400 395 401 396 ?3 29 3
99 1981 0 401 402 396 .447165313300758 -.0298817962880699 -2386625866238055e-20
 18 401 1978 0 403 398 404 399 ?3 29 402 1852 0 404 405 399 .447165313300758 -.0
307 -.003048595540589105 18 404 1849 0 376 401 406 402 ?3 29 405 1793 0 406 407
 402 .451255731110106 -.0171653415615735 -.0127319707502337 18 406 1790 0 408 40
4 409 405 ?3 29 407 1779 0 409 410 405 .451255731110106 -.0295346584384265 -.012
7319707502337 18 409 1776 0 411 406 412 407 ?3 29 410 1755 0 412 413 407 .451481
938091113 -.0160486270050007 -.01552295185032985 18 412 1752 0 414 409 415 410 ?
3 29 413 1714 0 415 416 410 .450190042582685 -.0168182037119301 -.00304859554058
91 18 415 1711 0 417 412 418 413 ?3 29 416 1705 0 418 419 413 .447165313300758 -
.0168182037119301 -238662586623823e-19 18 418 1702 0 420 415 421 416 ?3 29 419 1
645 0 421 422 416 .450481938091113 -.017 -.0129686652227298 18 421 1569 0 423 41
8 424 419 ?3 29 422 1561 0 424 425 419 .447165313300758 -.016 -.0162852900130852
 18 424 1559 0 426 421 427 422 ?3 29 425 1558 0 427 428 422 .451481938091113 -.0
16 -.0162852900130852 18 427 1555 0 429 424 430 425 ?3 29 428 1445 0 430 431 425
 .447165313300758 -.016 -.0030485955405891 18 430 1442 0 432 427 433 428 ?3 29 4
31 1406 0 433 434 428 .438073833599542 -.0168182037119301 -.0030485955405891 18
 433 1403 0 435 430 436 431 ?3 29 434 1397 0 436 437 431 .4410985628814685 -.016
8182037119301 -238662586623823e-19 18 436 1394 0 438 433 439 434 ?3 29 437 1342
 0 439 440 434 .438073833599542 -.0168182037119301 -.0164153459598783 18 439 133
9 0 441 436 442 437 ?3 29 440 1333 0 442 443 437 .4410985628814685 -.01681820371
19301 -.019440075241805 18 442 1330 0 444 439 445 440 ?3 29 443 1240 0 445 446 4
40 .4410985628814685 -.016 -.0030485955405891 18 445 1237 0 447 442 448 443 ?3 2
9 446 1236 0 448 449 443 .4410985628814685 -.016 -.0164153459598783 18 448 1233
 0 450 445 451 446 ?3 29 449 1159 0 451 452 446 .4410985628814685 -.0307 -.00304
8595540589105 18 451 1156 0 453 448 454 449 ?3 29 452 1155 0 454 455 449 .441098
5628814685 -.0307 -.01641534595987825 18 454 1152 0 456 451 457 452 ?3 29 455 11
05 0 457 458 452 .451481938091113 -.0307 -.01641534595987825 18 457 1102 0 459 4
54 460 455 ?3 29 458 983 0 460 461 455 .451481938091113 -.016 -.0164153459598783
 18 460 980 0 462 457 463 458 ?3 29 461 883 0 463 464 458 .450481938091113 -.027
7 -.0247319707502337 18 463 880 0 465 460 466 461 ?3 29 464 873 0 466 467 461 .4
51481938091113 -.0277 -.0247319707502337 18 466 870 0 468 463 469 464 ?3 29 467
 864 0 469 470 464 .450481938091113 -.0297 -.0227319707502337 18 469 861 0 471 4
66 472 467 ?3 29 470 860 0 472 473 467 .451481938091113 -.0297 -.022731970750233
7 18 472 857 0 474 469 475 470 ?3 29 473 813 0 475 476 470 .450481938091113 -.01
7 -.0227319707502337 18 475 810 0 477 472 478 473 ?3 29 476 803 0 478 479 473 .4
51481938091113 -.017 -.0227319707502337 18 478 800 0 480 475 481 476 ?3 29 479 7
94 0 481 482 476 .451481938091113 -.019 -.0247319707502337 18 481 791 0 483 478
 484 479 ?3 29 482 790 0 484 485 479 .450481938091113 -.019 -.0247319707502337 1
8 484 787 0 486 481 487 482 ?3 29 485 743 0 487 488 482 .450481938091113 -.02953
46584384265 -.0127319707502337 18 487 740 0 489 484 490 485 ?3 29 488 724 0 490
 491 485 .450481938091113 -.02763168661121835 -.0141165861348491 18 490 721 0 49
2 487 493 488 ?3 29 491 659 0 493 494 488 .450481938091113 -.0171653415615735 -.
0127319707502337 18 493 656 0 495 490 496 491 ?3 29 494 650 0 496 497 491 .45048
1938091113 -.01906831338878165 -.0141165861348491 18 496 647 0 498 493 499 494 ?
3 29 497 239 0 499 500 494 .437781938091113 -.017 -.0147319707502337 18 499 236
 0 501 496 502 497 ?3 29 500 221 0 502 503 497 .442781938091113 -.017 -.01973197
07502337 18 502 218 0 504 499 505 500 ?3 29 503 164 0 505 506 500 .4377819380911
13 -.017 -.0047319707502337 18 505 161 0 507 502 508 503 ?3 29 506 151 0 508 509
 503 .442781938091113 -.017 .000268029249766301 18 508 148 0 510 505 511 506 ?3
 29 509 107 0 511 512 506 .450481938091113 -.017 -.0047319707502337 18 511 104 0
 513 508 514 509 ?3 29 512 85 0 514 515 509 .445481938091113 -.017 .000268029249
766301 18 514 82 0 516 511 517 512 ?3 29 515 55 0 517 518 512 .450481938091113 -
.017 -.0197319707502337 18 517 17 0 519 514 520 515 ?3 29 518 586 0 520 521 515
 .451481938091113 -.017 -.0197319707502337 18 520 415 0 522 517 523 518 ?3 29 52
1 592 0 523 524 518 .451481938091113 -.0297 -.01973197075023365 18 523 424 0 525
 520 526 521 ?3 29 524 607 0 526 527 521 .450481938091113 -.0297 -.0047319707502
337 18 526 434 0 528 523 529 524 ?3 29 527 609 0 529 530 524 .445481938091113 -.
0297 .000268029249766301 18 529 440 0 531 526 532 527 ?3 29 530 610 0 532 533 52
7 .437781938091113 -.0297 -.0047319707502337 18 532 437 0 534 529 535 530 ?3 29
 533 612 0 535 536 530 .442781938091113 -.0297 .000268029249766301 18 535 436 0
 537 532 538 533 ?3 29 536 615 0 538 539 533 .437781938091113 -.0297 -.014731970
7502337 18 538 435 0 540 535 541 536 ?3 29 539 617 0 541 542 536 .44278193809111
3 -.0297 -.0197319707502337 18 541 438 0 543 538 544 539 ?3 29 542 618 0 544 0 5
39 .450481938091113 -.0297 -.0197319707502337 18 544 408 0 368 541 0 542 ?3 17 3
68 0 367 545 365 544 372 546 0 547 +15 367 497 0 548 549 0 17 545 0 367 550 368
 541 547 551 0 552 -17 372 0 553 489 554 13 368 546 0 363 -16 546 2184 0 ?368 55
5 556 557 371 371 3 17 547 0 558 559 552 544 545 551 0 560 +15 558 1127 0 561 56
2 0 17 559 0 558 563 547 523 560 564 0 0 +17 552 0 558 547 565 541 566 567 0 0 -
16 551 402 0 ?547 568 569 570 0 0 3 17 560 0 571 572 573 544 559 564 0 554 -15 5
71 449 0 572 574 0 17 572 0 571 575 560 469 554 555 0 576 +17 573 0 571 560 575
 523 577 578 0 559 +16 564 349 0 ?559 579 580 581 0 0 3 17 554 0 553 372 471 544
 572 555 0 0 -15 553 455 0 372 582 0 17 471 0 553 554 583 469 584 585 0 572 +16
 555 301 0 ?572 586 546 587 0 0 3 16 586 811 0 ?588 589 555 590 0 0 3 30 587 547
 0 555 591 592 0 +.450481938091113 -.0297 -.0222319707502337 0 0 -1 30 591 550 0
 556 593 587 0 +.451481938091113 -.0307 -.01623197075023365 0 0 -1 30 592 546 0
 589 587 590 0 +.450481938091113 -.02335 -.0247319707502337 0 1 0 16 589 881 0 ?
486 580 586 592 0 0 3 30 590 545 0 586 592 594 0 +.450481938091113 -.017 -.02223
19707502337 0 0 1 30 594 541 0 580 590 581 0 +.450481938091113 -.017 -.019731970
7502337 1 0 0 16 580 303 0 ?595 564 589 594 0 0 3 30 581 540 0 564 594 596 0 +.4
50481938091113 -.0297 -.0197319707502337 1 0 0 30 596 539 0 579 581 597 0 +.4514
81938091113 -.02335 -.0247319707502337 0 -1 0 16 579 792 0 ?598 599 564 596 0 0
 3 30 597 538 0 599 596 600 0 +.451481938091113 -.017 -.0222319707502337 0 0 -1
 16 599 305 0 ?601 578 579 597 0 0 3 30 600 536 0 578 597 602 0 +.45148193809111
3 -.0297 -.0222319707502337 0 0 1 16 578 858 0 ?573 603 599 600 0 0 3 30 602 42
 0 603 600 604 0 +.437781938091113 -.017 -.0097319707502337 0 0 -1 16 603 162 0
 ?501 605 578 602 0 0 3 30 604 50 0 605 602 606 0 +.437781938091113 -.017 -.0197
319707502337 1 0 0 16 605 219 0 ?607 608 603 604 0 0 3 30 606 53 0 608 604 609 0
 +.437781938091113 -.017 .000268029249766301 1 0 0 16 608 149 0 ?610 611 605 606
 0 0 3 30 609 62 0 612 606 613 0 +.450481938091113 -.017 -.0097319707502337 0 0
 1 16 612 34 0 ?614 615 611 609 611 611 3 31 613 115 0 615 609 616 0 +.445481938
091113 -.017 -.0047319707502337 0 -1 0 -1 0 0 .005 16 615 113 0 ?617 618 612 613
 0 0 3 31 616 167 0 618 613 619 0 +.442781938091113 -.017 -.0047319707502337 0 -
1 0 -1 0 0 .005 16 618 165 0 ?620 621 615 616 0 0 3 31 619 247 0 621 616 622 0 +
.442781938091113 -.017 -.0147319707502337 0 -1 0 -1 0 0 .005 16 621 245 0 ?623 6
24 618 619 0 0 3 31 622 662 0 624 619 625 0 +.450481938091113 -.0171653415615735
 -.0147319707502337 -1 0 0 0 0 1 .002 16 624 660 0 ?626 627 621 622 0 0 3 30 625
 672 0 627 622 628 0 -.451481938091113 -.0171653415615735 -.0127319707502337 -1
 0 0 16 627 670 0 ?629 630 624 625 0 0 3 30 628 746 0 630 625 631 0 +.4504819380
91113 -.0295346584384265 -.0127319707502337 -1 0 0 16 630 1777 0 ?632 633 627 62
8 0 0 3 31 631 751 0 633 628 634 0 +.450481938091113 -.0295346584384265 -.014731
9707502337 -1 0 0 0 0 1 .002 16 633 749 0 ?635 636 630 631 0 0 3 30 634 797 0 63
6 631 637 0 +.450481938091113 -.019 -.0247319707502337 1 0 0 16 636 795 0 ?638 6
39 633 634 0 0 3 31 637 806 0 639 634 640 0 +.451481938091113 -.019 -.0227319707
502337 1 0 0 0 0 -1 .002 16 639 804 0 ?480 641 636 637 0 0 3 30 640 816 0 641 63
7 642 0 -.450481938091113 -.017 -.0227319707502337 1 0 0 16 641 814 0 ?477 643 6
39 640 0 0 3 31 642 821 0 643 640 644 0 +.450481938091113 -.019 -.02273197075023
37 -1 0 0 0 0 1 .002 16 643 819 0 ?645 646 641 642 0 0 3 30 644 867 0 646 642 64
7 0 +.450481938091113 -.0297 -.0227319707502337 1 0 0 16 646 865 0 ?575 648 643
 644 0 0 3 31 647 876 0 648 644 649 0 +.451481938091113 -.0277 -.022731970750233
7 1 0 0 0 0 -1 .002 16 648 874 0 ?468 650 646 647 0 0 3 30 649 886 0 650 647 651
 0 -.450481938091113 -.0277 -.0247319707502337 1 0 0 16 650 884 0 ?465 585 648 6
49 0 0 3 31 651 891 0 585 649 652 0 +.450481938091113 -.0277 -.0227319707502337
 -1 0 0 0 0 1 .002 16 585 889 0 ?471 653 650 651 0 0 3 30 652 937 0 653 651 654
 0 -.445481938091113 -.016 -.0030485955405891 -1 0 0 16 653 1238 0 ?655 656 585
 652 0 0 3 38 654 943 0 656 652 657 0 +658 659 660 661 662 16 656 1703 0 ?516 66
3 653 654 0 0 3 38 657 948 0 663 654 664 0 +665 659 666 667 668 51 658 136 0 669
 670 665 671 +.445481938091113 -.0165 -.0047319707502337 0 1 0 .005 1 0 0 51 659
 969 0 672 673 674 675 +.437781938091113 -.022 -.0030485955405891 1 0 0 .006 0 0
 -1 40 5 660 0 1 5 .0002979864278475665 .3584723061021455 ??.450190042582685 -.0
16 -.0030485955405891 .449451567469447 -.01615539807497605 -.00169189795527162 .
4483668822392805 -.01650107719982975 -.000648210563597297 .4468543489895455 -.01
68777969522669 759901819977343e-19 .445481938091113 -.017 .000268029249766301 41
 1 661 L.450190042582685 -.016 -.0030485955405891 41 1 662 L.445481938091113 -.0
17 .000268029249766301 14 672 957 676 ?677 678 679 7 659 +0 0 677 678 362 51 673
 915 0 678 680 659 0 +.450481938091113 -.0277 -.0227319707502337 1 0 0 .002 0 0
 -1 51 674 1027 0 677 659 681 682 +.437781938091113 -.022 -.0164153459598783 -1
 0 0 .006 0 0 1 141 675 654 683 683 659 141 683 657 675 675 659 14 677 1013 684
 ?685 672 686 7 674 +0 0 685 672 362 51 681 1082 0 685 674 687 688 +.43778193809
1113 -.0247 -.003048595540589105 -1 0 0 .006 0 0 1 141 682 689 682 682 674 38 68
9 1002 0 690 691 692 0 +693 674 694 695 696 16 690 1331 0 ?504 697 698 689 0 0 3
 30 691 996 0 698 664 689 0 -.442781938091113 -.016 -.0164153459598783 1 0 0 38
 692 1045 0 697 689 699 0 +700 681 701 702 703 51 693 268 0 704 665 705 706 +.44
2781938091113 -.0165 -.0147319707502337 0 1 0 .005 1 0 0 40 5 694 0 1 5 .0002979
86427847566 .358472306102145 ??.438073833599542 -.016 -.0164153459598783 .438812
3087127795 -.01615539807497605 -.0177720435451958 .439896993942946 -.01650107719
982975 -.0188157309368701 .441409527192681 -.0168777969522669 -.0195399316824651
5 .442781938091113 -.017 -.0197319707502337 41 1 695 L.438073833599542 -.016 -.0
164153459598783 41 1 696 L.442781938091113 -.017 -.0197319707502337 14 704 256 7
07 ?708 709 710 7 693 +0 0 708 709 362 51 665 202 0 709 658 693 711 +.4427819380
91113 -.0165 -.0047319707502337 0 -1 0 .005 -1 0 0 51 705 701 0 712 693 713 714
 +.450481938091113 -.0171653415615735 -.0147319707502337 1 0 0 .002 0 0 -1 141 7
06 689 715 716 693 141 715 717 716 706 693 141 716 718 706 715 693 38 718 1267 0
 719 720 721 0 +693 722 723 724 725 16 719 1265 0 ?726 727 728 718 0 0 3 38 720
 1258 0 728 729 718 0 +665 722 730 731 732 31 721 1336 0 727 718 733 0 -.4410985
628814685 -.022 -.0164153459598783 -1 0 0 0 0 1 .006 51 722 1299 0 734 735 736 7
37 +.4410985628814685 -.022 -.0097319707502337 0 0 1 .006 1 0 0 40 4 723 0 1 4 .
000282169710439312 .3575689469291125 ??.437781938091113 -.017 -.0147319707502337
 .438020682123416 -.0168495970993321 -.0162585491498141 .4386911727705255 -.0165
0414038991785 -.0176069732009936 .4392464041851805 -.01629302986132185 -.0182675
0465616645 41 1 724 L.437781938091113 -.017 -.0147319707502337 41 1 725 L.439246
4041851805 -.01629302986132185 -.01826750465616645 14 734 1283 738 ?739 740 741
 7 722 +0 0 739 740 362 51 735 1218 0 740 687 722 742 +.4410985628814685 -.0247
 -.0097319707502337 0 0 -1 .006 -1 0 0 53 736 1368 0 739 722 743 744 +.441098562
8814685 -.022 -.0164153459598783 .006 1 0 0 0 0 -1 141 737 720 745 745 722 141 7
45 718 737 737 722 14 739 1358 746 ?747 734 748 7 736 +0 0 747 734 362 53 743 14
32 0 747 736 749 750 +.4410985628814685 -.022 -.0030485955405891 .006 1 0 0 0 0
 -1 141 744 717 744 744 736 38 717 1350 0 751 733 752 0 +693 736 753 754 755 16
 751 1348 0 ?444 756 757 717 0 0 3 31 733 1345 0 757 721 717 0 +.441098562881468
5 -.022 -.0164153459598783 0 0 1 1 0 0 .006 31 752 1400 0 756 717 758 0 +.441098
5628814685 -.022 -.0030485955405891 1 0 0 0 0 -1 .006 40 4 753 0 1 4 .0002634619
906194995 .3406661336097005 ??.438073833599542 -.0168182037119301 -.016415345959
8783 .4388094509342795 -.01662138871389025 -.01776830831196675 .4399330920736425
 -.01663736008646715 -.01884099452343595 .4410985628814685 -.0168182037119301 -.
019440075241805 41 1 754 L.438073833599542 -.0168182037119301 -.0164153459598783
 41 1 755 L.4410985628814685 -.0168182037119301 -.019440075241805 16 756 1398 0
 ?759 760 751 752 0 0 3 38 758 1409 0 760 752 761 0 +665 743 762 763 764 16 760
 1407 0 ?435 765 756 758 0 0 3 31 761 1414 0 765 758 766 0 -.4410985628814685 -.
022 -.0030485955405891 0 0 1 1 0 0 .006 40 4 762 0 1 4 .0002634619906195 .340666
1336097 ??.4410985628814685 -.0168182037119301 -238662586623823e-19 .43974560052
938 -.01662138871389025 -.00075948359339997 .438672914317911 -.01663736008646715
 -.001883124732763 .438073833599542 -.0168182037119301 -.0030485955405891 41 1 7
63 L.4410985628814685 -.0168182037119301 -238662586623823e-19 41 1 764 L.4380738
33599542 -.0168182037119301 -.0030485955405891 16 765 1412 0 ?447 767 760 761 0
 0 3 30 766 1452 0 767 761 768 0 -.447165313300758 -.016 -.0127319707502337 0 0
 1 16 767 1450 0 ?426 769 765 766 0 0 3 38 768 1462 0 769 766 770 0 +658 749 771
 772 773 16 769 1460 0 ?774 775 767 768 0 0 3 30 770 1562 0 775 768 776 0 +.4514
81938091113 -.016 -.0162852900130852 1 0 0 51 749 1542 0 777 743 778 779 +.44716
5313300758 -.022 -.0097319707502337 0 0 -1 .006 -1 0 0 40 4 771 0 1 4 .000282169
710439311 .3575689469291125 ??.450481938091113 -.017 -.0047319707502337 .4502431
94058811 -.0168495970993321 -.00320539235065329 .449572703411701 -.0165041403899
1785 -.001856968299473795 .449017471997046 -.01629302986132185 -.001196436844300
96 41 1 772 L.450481938091113 -.017 -.0047319707502337 41 1 773 L.44901747199704
6 -.01629302986132185 -.00119643684430096 14 777 1528 780 ?781 747 782 7 749 +0
 0 781 747 362 51 778 1673 0 781 749 783 784 +.450981938091113 -.022 -.016285290
0130852 -1 0 0 .006 0 0 1 141 779 768 779 779 749 14 781 1659 785 ?786 777 787 7
 778 +0 0 786 777 362 53 783 1740 0 786 778 788 789 +.447165313300758 -.022 -.00
30485955405891 .006 1 0 0 0 0 -1 141 784 790 784 784 778 38 790 1801 0 791 792 7
93 0 +778 788 794 795 796 16 791 1799 0 ?414 378 797 790 0 0 3 38 792 1796 0 797
 798 790 0 +705 788 799 800 801 30 793 1859 0 378 790 802 0 -.447165313300758 -.
0307 -.0047319707502337 0 0 -1 54 788 1832 0 803 783 804 805 +.4454819380911135
 -.02335 -.01273197075023372 1 0 0 .0078166247903554 .006 0 0 -1 40 3 794 0 1 3
 .000223267615077728 .2807989585703055 ??.451255731110106 -.0171653415615735 -.0
127319707502337 .451436806780876 -.0164049443444495 -.01411841387188742 .4514819
38091113 -.0160486270050007 -.01552295185032985 41 1 795 L.451255731110106 -.017
1653415615735 -.0127319707502337 41 1 796 L.451481938091113 -.0160486270050007 -
.01552295185032985 14 803 1814 806 ?807 786 808 7 788 +0 0 807 786 362 51 804 19
49 0 807 788 809 810 +.447165313300758 -.0247 -.0097319707502337 0 0 1 .006 1 0
 0 141 805 811 812 813 788 38 811 2160 0 814 815 816 0 +788 8 817 818 819 141 81
2 790 820 805 788 141 813 798 805 820 788 38 798 1787 0 821 822 792 0 +713 788 8
23 824 825 141 820 792 813 812 788 16 821 1785 0 ?492 797 826 798 0 0 3 31 822 1
762 0 826 827 798 0 -.451481938091113 -.02335 -.01273197075023372 1 0 0 0 0 -1 .
0078166247903554 51 713 775 0 828 705 680 829 +.450481938091113 -.02953465843842
65 -.0147319707502337 1 0 0 .002 0 0 -1 40 5 823 0 1 5 .0001282315055011854 .344
937196488541 ??.451255731110106 -.0295346584384265 -.0127319707502337 .451017363
301986 -.0288503341909295 -.01285268888625276 .450743067045589 -.028260764800023
3 -.01319015526255824 .450544829729047 -.02785496894642245 -.01364631739374686 .
450481938091113 -.02763168661121835 -.0141165861348491 41 1 824 L.45125573111010
6 -.0295346584384265 -.0127319707502337 41 1 825 L.450481938091113 -.02763168661
121835 -.0141165861348491 14 828 763 830 ?831 712 832 7 713 +0 0 831 712 362 51
 680 845 0 831 713 673 0 +.450481938091113 -.019 -.0227319707502337 1 0 0 .002 0
 0 -1 141 829 798 829 829 713 14 831 833 833 ?678 828 834 7 680 +0 0 678 828 362
 81 1 833 2316 74 831 0 0 830 835 836 14 678 903 835 ?672 831 837 7 673 +0 0 672
 831 362 15 834 834 0 838 831 0 13 362 4 0 0 0 0 0 0 11 355 14 355 33 839 ?840 0
 841 7 670 +0 0 840 0 362 81 1 839 2299 74 355 0 0 0 842 843 14 840 27 842 ?669
 355 844 7 845 +0 0 669 355 362 15 841 32 0 501 355 0 50 670 49 0 355 845 658 0
 +.437781938091113 -.017 -.0097319707502337 0 -1 0 -1 0 0 50 845 47 0 840 846 67
0 0 +.437781938091113 -.016 -.0097319707502337 0 1 0 1 0 0 50 846 515 0 708 847
 845 0 +.451481938091113 -.02335 -.0222319707502337 1 0 0 0 0 -1 14 708 444 848
 ?574 704 849 7 846 +0 0 574 704 362 50 847 516 0 574 850 846 0 +.45048193809111
3 -.0297 -.0222319707502337 0 -1 0 -1 0 0 14 574 447 851 ?852 708 571 7 847 +0 0
 852 708 362 50 850 517 0 852 853 847 0 +.450481938091113 -.017 -.02223197075023
37 0 1 0 1 0 0 14 852 450 854 ?582 574 855 7 850 +0 0 582 574 362 50 853 518 0 8
56 857 850 0 +.450481938091113 -.02335 -.0247319707502337 0 0 -1 -1 0 0 14 856 4
56 858 ?859 582 860 7 853 +0 0 859 582 362 50 857 519 0 582 861 853 0 +.45048193
8091113 -.02335 -.0222319707502337 -1 0 0 0 0 1 14 582 453 862 ?856 852 553 7 85
7 +0 0 856 852 362 50 861 520 0 859 700 857 0 +.450981938091113 -.0307 -.0162319
7075023365 0 -1 0 0 0 -1 14 859 471 863 ?549 856 864 7 861 +0 0 549 856 362 51 7
00 527 0 865 866 861 867 +.445481938091113 -.0302 -.0047319707502337 0 1 0 .005
 1 0 0 14 865 510 868 ?712 869 870 7 700 +0 0 712 869 362 51 866 528 0 869 871 7
00 872 +.442781938091113 -.0302 -.0047319707502337 0 -1 0 .005 -1 0 0 141 867 69
2 873 874 700 141 873 875 874 867 700 141 874 802 867 873 700 38 802 1874 0 876
 793 877 0 +700 804 878 879 880 16 876 1988 0 ?528 881 378 802 0 0 3 31 877 1984
 0 881 802 875 0 +.447165313300758 -.0247 -.003048595540589105 -1 0 0 0 0 1 .006
 40 4 878 0 1 4 .0003382871354249635 .3780521034046065 ??.449017471997046 -.0304
0697013867815 -.00119643684430096 .4499920347997305 -.02999241396408525 -.002573
492657012 .450456680162452 -.02971666265377105 -.004230033180757585 .45048193809
1113 -.0297 -.0047319707502337 41 1 879 L.449017471997046 -.03040697013867815 -.
00119643684430096 41 1 880 L.450481938091113 -.0297 -.0047319707502337 16 881 19
82 0 ?882 883 876 877 0 0 3 38 875 1993 0 883 877 884 0 +700 809 885 886 887 16
 883 1991 0 ?400 888 881 875 0 0 3 31 884 1998 0 888 875 889 0 -.447165313300758
 -.0247 -.003048595540589105 0 0 1 1 0 0 .006 53 809 2016 0 890 804 891 892 +.44
7165313300758 -.0247 -.003048595540589105 .006 1 0 0 0 0 -1 40 4 885 0 1 4 .0002
634619906195 .3406661336097005 ??.447165313300758 -.0298817962880699 -2386625866
238055e-20 .4485182756528465 -.03007861128610975 -.000759483593399968 .449590961
8643155 -.03006263991353285 -.001883124732763 .450190042582685 -.029881796288069
9 -.003048595540589105 41 1 886 L.447165313300758 -.0298817962880699 -2386625866
238055e-20 41 1 887 L.450190042582685 -.0298817962880699 -.003048595540589105 14
 890 2006 893 ?894 807 895 7 809 +0 0 894 807 362 53 891 2080 0 894 809 358 896
 +.4410985628814685 -.0247 -.003048595540589105 .006 1 0 0 0 0 -1 141 892 875 89
2 892 809 14 894 2070 897 ?898 890 899 7 891 +0 0 898 890 362 53 358 2144 0 898
 891 8 900 +.4410985628814685 -.0247 -.01641534595987825 .006 1 0 0 0 0 -1 141 8
96 901 896 896 891 38 901 2062 0 902 903 904 0 +866 891 905 906 907 16 902 2060
 0 ?397 908 909 901 0 0 3 31 903 2057 0 909 889 901 0 +.4410985628814685 -.0247
 -.003048595540589105 0 0 -1 -1 0 0 .006 31 904 2112 0 908 901 910 0 -.441098562
8814685 -.0247 -.01641534595987825 -1 0 0 0 0 1 .006 40 4 905 0 1 4 .00026346199
06195005 .3406661336097005 ??.438073833599542 -.0298817962880699 -.0030485955405
89105 .4388094509342795 -.03007861128610975 -.00169563318850064 .439933092073642
5 -.03006263991353285 -.000622946977031438 .4410985628814685 -.0298817962880699
 -2386625866238055e-20 41 1 906 L.438073833599542 -.0298817962880699 -.003048595
540589105 41 1 907 L.4410985628814685 -.0298817962880699 -2386625866238055e-20 1
6 908 2110 0 ?565 911 902 904 0 0 3 38 910 2121 0 911 904 815 0 +871 358 912 913
 914 16 911 2119 0 ?388 915 908 910 0 0 3 31 815 2126 0 915 910 811 0 -.44109856
28814685 -.0247 -.01641534595987825 0 0 -1 -1 0 0 .006 51 871 529 0 916 917 866
 918 +.442781938091113 -.0302 -.0147319707502337 0 1 0 .005 1 0 0 40 4 912 0 1 4
 .0002634619906195005 .3406661336097005 ??.4410985628814685 -.0298817962880699 -
.019440075241805 .43974560052938 -.03007861128610975 -.01870445790706745 .438672
914317911 -.03006263991353285 -.0175808167677044 .438073833599542 -.029881796288
0699 -.01641534595987825 41 1 913 L.4410985628814685 -.0298817962880699 -.019440
075241805 41 1 914 L.438073833599542 -.0298817962880699 -.01641534595987825 14 9
16 504 919 ?869 549 920 7 871 +0 0 869 549 362 50 917 533 0 549 0 871 0 +.437781
938091113 -.0297 -.0097319707502337 0 1 0 1 0 0 141 918 921 922 923 871 38 921 1
099 0 567 924 925 0 +871 687 926 927 928 141 922 910 923 918 871 141 923 929 918
 922 871 38 929 1177 0 930 931 932 0 +871 735 933 934 935 16 930 2116 0 ?540 936
 937 929 0 0 3 30 931 1162 0 937 938 929 0 -.4410985628814685 -.0307 -.014731970
7502337 0 0 1 38 932 1186 0 936 929 729 0 +866 735 939 940 941 40 4 933 0 1 4 .0
00338287135424966 .378052103404607 ??.4392464041851805 -.03040697013867815 -.018
2675046561664 .438271841382496 -.02999241396408525 -.01689044884345535 .43780719
60197745 -.02971666265377105 -.0152339083197098 .437781938091113 -.0297 -.014731
9707502337 41 1 934 L.4392464041851805 -.03040697013867815 -.0182675046561664 41
 1 935 L.437781938091113 -.0297 -.0147319707502337 16 936 1184 0 ?942 943 930 93
2 0 0 3 30 729 1243 0 943 932 720 0 -.4410985628814685 -.016 -.0047319707502337
 0 0 -1 40 4 939 0 1 4 .0002821697104393115 .3575689469291125 ??.437781938091113
 -.0297 -.0047319707502337 .438020682123416 -.0298504029006679 -.003205392350653
295 .4386911727705255 -.03019585961008215 -.001856968299473795 .4392464041851805
 -.03040697013867815 -.001196436844300962 41 1 940 L.437781938091113 -.0297 -.00
47319707502337 41 1 941 L.4392464041851805 -.03040697013867815 -.001196436844300
962 16 943 1241 0 ?944 728 936 729 0 0 3 17 944 0 844 655 945 445 946 943 0 947
 +16 728 1404 0 ?507 719 943 720 0 0 3 17 507 0 948 510 435 505 949 728 0 620 +1
5 948 191 0 950 709 0 17 510 0 948 950 507 508 620 618 0 951 -17 435 0 948 507 9
50 433 438 760 0 949 +17 949 0 741 447 952 433 507 728 0 953 -17 620 0 841 501 9
51 505 510 618 0 952 +17 501 0 841 623 620 499 952 603 0 954 +17 951 0 841 620 6
17 508 610 608 0 955 -17 952 0 741 949 956 505 501 603 0 0 -15 741 1284 0 949 73
4 0 17 956 0 741 952 441 499 726 719 0 0 -17 441 0 741 956 946 439 450 757 0 726
 +17 726 0 710 444 954 439 956 719 0 957 +15 710 257 0 726 704 0 17 444 0 710 50
4 726 442 957 751 0 958 +17 954 0 710 726 504 499 623 621 0 956 -17 957 0 748 45
0 959 439 444 751 0 0 -15 748 1359 0 957 739 0 17 450 0 748 959 957 448 441 757
 0 960 -17 959 0 748 957 450 442 960 727 0 0 -17 960 0 686 961 958 448 959 727 0
 945 +16 727 1334 0 ?960 757 719 721 0 0 3 16 757 1343 0 ?441 751 727 733 0 0 3
 15 686 1014 0 958 677 0 17 961 0 686 962 960 460 945 698 0 0 -17 958 0 686 960
 963 442 504 690 0 959 -17 945 0 844 944 964 448 961 698 0 946 +15 844 26 0 426
 840 0 17 964 0 844 945 429 460 965 966 0 961 -16 698 994 0 ?945 690 967 691 0 0
 3 17 946 0 741 441 447 448 944 943 0 0 -17 447 0 741 946 949 445 953 765 0 944
 +17 953 0 968 438 969 433 447 765 0 0 -15 968 1423 0 969 747 0 17 438 0 968 969
 953 436 435 760 0 759 -17 969 0 968 953 438 445 759 756 0 0 -17 759 0 679 955 9
47 436 969 756 0 950 +15 679 958 0 970 672 0 17 955 0 679 610 759 508 950 663 0
 0 -17 947 0 679 759 971 445 655 653 0 969 -17 950 0 948 435 510 436 955 663 0 0
 +16 663 946 0 ?950 967 656 657 0 0 3 16 967 984 0 ?462 698 663 664 0 0 3 17 462
 0 849 965 522 460 962 967 0 964 +31 664 986 0 967 657 691 0 +.451481938091113 -
.022 -.0164153459598783 1 0 0 0 0 -1 .006 15 849 446 0 972 708 0 17 965 0 849 97
3 462 427 964 966 0 974 +17 522 0 849 462 480 520 601 599 0 595 -17 962 0 686 51
9 961 520 462 967 0 0 -17 519 0 686 963 962 517 595 580 0 588 -17 963 0 686 958
 519 502 607 605 0 0 -17 595 0 855 601 588 520 519 580 0 962 +17 588 0 855 595 4
77 517 975 586 0 607 +15 855 452 0 601 852 0 17 477 0 855 588 601 475 976 641 0
 975 +17 975 0 553 645 977 475 588 586 0 838 -17 607 0 841 614 623 517 963 605 0
 977 +17 614 0 841 513 607 421 977 612 0 978 +17 623 0 841 607 501 502 954 621 0
 963 +17 977 0 553 975 979 517 614 612 0 0 -17 979 0 553 977 626 421 495 980 0 6
14 +17 626 0 553 979 498 493 981 624 0 982 +17 495 0 787 629 978 493 979 980 0 6
26 -16 980 1573 0 ?979 983 775 776 0 0 3 16 983 1579 0 ?973 984 980 985 0 0 3 16
 775 1560 0 ?429 980 769 770 0 0 3 31 776 1575 0 980 770 985 0 +.450481938091113
 -.022 -.0162852900130852 -1 0 0 0 0 1 .006 31 985 1581 0 983 776 986 0 +.451481
938091113 -.022 -.0162852900130852 1 0 0 0 0 -1 .006 32 986 1646 0 984 985 987 0
 +.447165313300758 -.022 -.0162852900130852 -.707106781186548 0 .707106781186548
 -.707106781186548 0 -.707106781186548 .00848528137423857 .006 16 984 1589 0 ?98
8 989 983 986 0 0 3 31 987 1708 0 989 986 990 0 -.447165313300758 -.022 -.003048
5955405891 1 0 0 0 0 -1 .006 16 989 1706 0 ?971 991 984 987 0 0 3 31 990 1717 0
 991 987 827 0 +.447165313300758 -.022 -.0030485955405891 0 0 -1 -1 0 0 .006 16
 991 1715 0 ?417 992 989 990 0 0 3 38 827 1722 0 992 990 822 0 +658 783 993 994
 995 16 992 1720 0 ?420 826 991 827 0 0 3 40 4 993 0 1 4 .0002634619906194995 .3
406661336097 ??.450190042582685 -.0168182037119301 -.0030485955405891 .449454425
247947 -.01662138871389025 -.00169563318850064 .448330784108584 -.01663736008646
715 -.000622946977031441 .447165313300758 -.0168182037119301 -238662586623823e-1
9 41 1 994 L.450190042582685 -.0168182037119301 -.0030485955405891 41 1 995 L.44
7165313300758 -.0168182037119301 -238662586623823e-19 17 420 0 996 516 774 418 9
97 992 0 970 +16 826 1760 0 ?972 821 992 822 0 0 3 17 972 0 849 380 973 381 998
 826 0 999 +17 380 0 849 459 972 374 999 1000 0 1001 +17 973 0 849 972 965 412 9
74 983 0 998 +17 998 0 808 1002 385 412 972 826 0 0 -17 999 0 1003 411 1004 381
 380 1000 0 0 -15 1003 2270 0 1005 357 0 17 411 0 1003 632 999 409 385 814 0 100
6 -17 1004 0 1003 999 1005 374 379 1007 0 0 -16 1000 2167 0 ?380 1007 814 816 0
 0 3 16 1007 2177 0 ?379 364 1000 1008 0 0 3 16 814 2158 0 ?385 1000 915 811 0 0
 3 31 816 2169 0 1000 811 1008 0 +.451481938091113 -.0247 -.0162852900130852 1 0
 0 0 0 -1 .006 30 1008 2179 0 1007 816 360 0 -.447165313300758 -.0307 -.01628529
00130852 1 0 0 31 360 2189 0 364 1008 9 0 +.450481938091113 -.0247 -.01628529001
30852 -1 0 0 0 0 1 .006 16 364 2187 0 ?489 12 1007 360 0 0 3 17 489 0 553 635 37
2 487 1009 364 0 1010 +17 635 0 553 498 489 490 1010 633 0 1011 +17 1009 0 1003
 1005 632 13 489 364 0 0 -17 1010 0 832 1006 492 487 635 633 0 632 -15 832 764 0
 1006 828 0 17 1006 0 832 492 1010 409 632 630 0 1012 -17 492 0 832 1010 1006 49
0 1012 821 0 635 +17 632 0 1003 1009 411 487 1006 630 0 0 +17 1012 0 808 385 101
1 409 492 821 0 0 -15 808 1815 0 1012 803 0 17 385 0 808 998 1012 381 411 814 0
 972 +17 1011 0 808 1012 1013 490 498 1014 0 0 -17 1013 0 808 1011 1002 496 408
 797 0 0 -17 498 0 553 626 635 496 1011 1014 0 981 +16 1014 722 0 ?498 966 1015
 1016 0 0 3 16 966 981 0 ?965 556 1014 593 0 0 3 16 1015 384 0 ?369 1014 1017 10
18 0 0 3 31 1016 563 0 1014 1018 593 0 +.450481938091113 -.02335 -.0127319707502
3372 1 0 0 0 -1 0 .0045 31 1018 566 0 1015 1019 1016 0 +.445481938091113 -.0297
 -.0047319707502337 0 1 0 1 0 0 .005 30 593 557 0 966 1016 591 0 +.4514819380911
13 -.016 -.01623197075023365 0 0 1 31 1019 568 0 1017 1020 1018 0 +.442781938091
113 -.0297 -.0047319707502337 0 1 0 1 0 0 .005 16 1017 394 0 ?1021 1015 1022 101
9 0 0 3 31 1020 574 0 1022 557 1019 0 +.442781938091113 -.0297 -.014731970750233
7 0 1 0 1 0 0 .005 16 1022 390 0 ?550 1017 371 1020 0 0 3 30 557 577 0 371 1023
 1020 0 +.450481938091113 -.0297 -.0097319707502337 0 0 -1 16 371 386 0 ?365 102
2 568 557 546 546 3 30 1023 580 0 568 570 557 0 +.437781938091113 -.0297 .000268
029249766301 1 0 0 16 568 382 0 ?548 371 551 1023 0 0 3 30 570 581 0 551 1024 10
23 0 +.437781938091113 -.0297 -.0197319707502337 1 0 0 30 1024 583 0 569 0 570 0
 +.437781938091113 -.0297 -.0097319707502337 0 0 1 16 569 392 0 ?534 551 0 1024
 0 0 3 17 534 0 367 1021 550 532 1025 569 0 1026 +17 1021 0 367 548 534 535 1026
 1017 0 1027 +17 550 0 367 534 545 538 543 1022 0 1025 +17 1025 0 1028 1029 1030
 538 534 569 0 0 -17 1026 0 1031 942 537 532 1021 1017 0 1030 -15 1031 509 0 942
 869 0 17 942 0 1031 397 1026 392 1030 936 0 1032 +17 537 0 1031 1026 397 535 10
33 1034 0 1021 +17 1030 0 1028 1025 394 532 942 936 0 0 -15 1028 1203 0 1029 740
 0 17 394 0 1028 1030 1035 392 453 909 0 942 +17 1035 0 1028 394 456 451 1036 93
7 0 0 -17 453 0 899 1037 1032 451 394 909 0 1038 -16 909 2055 0 ?394 902 1039 90
3 0 0 3 16 1039 2046 0 ?1038 909 888 889 0 0 3 17 1038 0 1040 1041 1033 451 1037
 1039 0 1042 +16 888 1996 0 ?376 1039 883 884 0 0 3 31 889 2048 0 1039 884 903 0
 -.4410985628814685 -.0247 -.003048595540589105 -1 0 0 0 0 1 .006 17 376 0 375 3
73 1043 404 1044 888 0 377 +15 375 1936 0 1043 807 0 17 1043 0 375 376 370 398 5
28 876 0 1044 -17 1044 0 895 403 1045 398 376 888 0 0 -17 377 0 864 1042 379 404
 373 378 0 1041 +15 864 473 0 1001 859 0 17 1042 0 864 1036 377 451 1041 1046 0
 1035 +17 379 0 864 377 1001 366 1004 1007 0 1005 +16 378 1857 0 ?377 876 791 79
3 0 0 3 17 1041 0 1040 882 1038 404 1042 1046 0 1045 -15 1040 1071 0 1033 685 0
 17 882 0 1040 531 1041 401 1045 881 0 1047 +16 1046 1850 0 ?1042 1034 697 699 0
 0 3 17 1045 0 895 1044 403 404 882 881 0 0 -15 895 2007 0 1045 890 0 17 403 0 8
95 1045 1044 401 400 883 0 882 -17 400 0 870 528 1047 398 403 883 0 1043 +15 870
 512 0 1047 865 0 17 528 0 870 1048 400 526 1043 876 0 369 +17 1047 0 870 400 10
48 401 531 697 0 0 +17 1048 0 870 1047 528 529 369 1015 0 548 -17 531 0 1040 102
7 882 529 1047 697 0 1048 -16 697 1043 0 ?1047 1046 690 692 0 0 3 17 1027 0 1040
 1033 531 535 548 568 0 0 -17 1033 0 1040 1038 1027 395 537 1034 0 1037 -17 548
 0 367 369 1021 529 1027 568 0 0 +17 369 0 367 365 548 526 1048 1015 0 370 +17 3
70 0 375 1043 363 526 365 371 0 0 -17 363 0 375 370 373 13 1005 12 0 1009 +17 10
05 0 1003 1004 1009 366 363 12 0 0 -16 1034 2043 0 ?537 567 1046 924 0 0 3 17 10
37 0 899 1032 453 395 1038 1039 0 0 -15 899 2071 0 1032 894 0 17 1032 0 899 453
 1037 392 397 902 0 0 -17 397 0 1031 537 942 395 1032 902 0 1033 +16 567 1097 0
 ?566 1049 1034 921 0 0 3 38 924 1060 0 1034 699 921 0 +866 681 1050 1051 1052 3
0 699 1054 0 1046 692 924 0 -.442781938091113 -.0307 -.003048595540589105 1 0 0
 40 5 1050 0 1 5 .000297986427847568 .3584723061021455 ??.438073833599542 -.0307
 -.003048595540589105 .4388123087127795 -.03054460192502395 -.001691897955271625
 .439896993942946 -.03019892280017025 -.000648210563597302 .441409527192681 -.02
982220304773315 759901819977326e-19 .442781938091113 -.0297 .000268029249766301
 41 1 1051 L.438073833599542 -.0307 -.003048595540589105 41 1 1052 L.44278193809
1113 -.0297 .000268029249766301 17 566 0 920 388 543 389 552 567 0 0 +16 1049 11
53 0 ?1053 1054 567 925 0 0 3 17 1053 0 864 1001 1036 457 561 1049 0 563 +16 105
4 1112 0 ?525 937 1049 938 0 0 3 30 925 1108 0 1049 921 938 0 +.451481938091113
 -.0307 -.01641534595987825 1 0 0 31 938 1114 0 1054 925 931 0 +.451481938091113
 -.0247 -.01641534595987825 1 0 0 0 0 -1 .006 17 525 0 849 577 459 523 563 1054
 0 573 +16 937 1160 0 ?1036 930 1054 931 0 0 3 17 1036 0 864 1053 1042 454 1035
 937 0 561 +17 561 0 558 565 563 454 1053 1049 0 1055 -17 565 0 558 552 561 389
 1055 908 0 566 +17 563 0 558 561 559 457 525 1054 0 0 -17 1055 0 1056 1057 391
 454 565 908 0 0 -15 1056 2135 0 1055 898 0 17 1057 0 1056 391 1055 386 456 915
 0 0 -17 391 0 1056 1055 1057 389 388 911 0 565 -17 388 0 920 540 566 386 391 91
1 0 1029 +15 920 506 0 566 916 0 17 540 0 920 543 388 538 1029 930 0 550 +17 102
9 0 1028 456 1025 386 540 930 0 1057 -17 456 0 1028 1035 1029 454 1057 915 0 103
6 +16 915 2124 0 ?456 814 911 815 0 0 3 17 543 0 920 566 540 541 550 1022 0 545
 -14 898 2134 1058 ?357 894 1056 7 358 +0 0 357 894 362 81 1 1058 2333 74 898 0
 0 897 1059 1060 14 357 2269 1059 ?0 898 1003 7 8 +0 0 0 898 362 81 1 1059 2334
 74 357 0 0 1058 0 1061 83 3 1061 1 1 1 81 1 897 2332 74 894 0 0 893 1058 1062 8
3 3 1060 1 1 1 81 1 893 2331 74 890 0 0 1063 897 1064 83 3 1062 1 1 1 81 1 1063
 2330 74 807 0 0 806 893 1065 83 3 1064 1 1 1 14 807 1935 1063 ?890 803 375 7 80
4 +0 0 890 803 362 81 1 806 2329 74 803 0 0 1066 1063 1067 83 3 1065 1 1 1 81 1
 1066 2328 74 786 0 0 785 806 1068 83 3 1067 1 1 1 14 786 1730 1066 ?803 781 106
9 7 783 +0 0 803 781 362 81 1 785 2327 74 781 0 0 780 1066 1070 83 3 1068 1 1 1
 81 1 780 2326 74 777 0 0 1071 785 1072 83 3 1070 1 1 1 81 1 1071 2325 74 747 0
 0 746 780 1073 83 3 1072 1 1 1 14 747 1422 1071 ?777 739 968 7 743 +0 0 777 739
 362 81 1 746 2324 74 739 0 0 738 1071 1074 83 3 1073 1 1 1 81 1 738 2323 74 734
 0 0 1075 746 1076 83 3 1074 1 1 1 81 1 1075 2322 74 740 0 0 1077 738 1078 83 3
 1076 1 1 1 14 740 1202 1075 ?734 562 1028 7 735 +0 0 734 562 362 81 1 1077 2321
 74 562 0 0 1079 1075 1080 83 3 1078 1 1 1 14 562 1126 1077 ?740 685 558 7 687 +
0 0 740 685 362 81 1 1079 2320 74 685 0 0 684 1077 1081 83 3 1080 1 1 1 14 685 1
070 1079 ?562 677 1040 7 681 +0 0 562 677 362 81 1 684 2319 74 677 0 0 676 1079
 1082 83 3 1081 1 1 1 81 1 676 2318 74 672 0 0 835 684 1083 83 3 1082 1 1 1 81 1
 835 2317 74 678 0 0 833 676 1084 83 3 1083 1 1 1 83 3 1084 1 1 1 51 687 1140 0
 562 681 735 1085 +.450981938091113 -.0247 -.01641534595987825 -1 0 0 .006 0 0 1
 141 1085 921 1085 1085 687 15 1069 1731 0 997 786 0 17 997 0 1069 432 1086 415
 420 992 0 0 -17 432 0 1069 1086 997 430 417 991 0 971 -17 1086 0 1069 997 432 4
18 971 989 0 0 -17 971 0 679 947 970 430 1086 989 0 655 +17 970 0 679 971 610 41
8 516 656 0 1086 -17 655 0 844 426 944 430 947 653 0 1087 +17 426 0 844 429 655
 424 1087 767 0 988 +17 1087 0 782 417 988 430 426 767 0 0 -15 782 1529 0 1087 7
77 0 17 417 0 782 1088 1087 415 432 991 0 774 +17 988 0 782 1087 423 424 978 984
 0 1089 +17 423 0 782 988 1088 421 513 611 0 979 -17 978 0 787 495 1089 421 988
 984 0 0 -17 1089 0 787 978 974 424 429 775 0 0 -15 787 1660 0 629 781 0 17 974
 0 787 1089 414 427 973 983 0 0 -17 429 0 844 964 426 427 1089 775 0 965 +17 414
 0 787 974 629 412 1002 791 0 973 +17 629 0 787 414 495 406 982 627 0 1002 +17 1
002 0 808 1013 998 406 414 791 0 0 -17 982 0 1090 981 408 493 629 627 0 0 -15 10
90 690 0 981 712 0 17 981 0 1090 408 982 496 626 624 0 1013 -17 408 0 1090 982 9
81 406 1013 797 0 629 +16 797 1794 0 ?408 791 821 792 0 0 3 14 712 689 1091 ?828
 865 1090 7 705 +0 0 828 865 362 81 1 1091 2314 74 712 0 0 868 830 1092 81 1 868
 2313 74 865 0 0 1093 1091 1094 81 1 830 2315 74 828 0 0 1091 833 1095 83 3 1092
 1 1 1 83 3 1095 1 1 1 81 1 1093 2312 74 869 0 0 919 868 1096 83 3 1094 1 1 1 14
 869 507 1093 ?865 916 1031 7 866 +0 0 865 916 362 81 1 919 2311 74 916 0 0 1097
 1093 1098 83 3 1096 1 1 1 81 1 1097 2310 74 549 0 0 863 919 1099 83 3 1098 1 1
 1 14 549 495 1097 ?916 859 367 7 917 +0 0 916 859 362 81 1 863 2309 74 859 0 0
 858 1097 1100 83 3 1099 1 1 1 81 1 858 2308 74 856 0 0 862 863 1101 83 3 1100 1
 1 1 81 1 862 2307 74 582 0 0 854 858 1102 83 3 1101 1 1 1 81 1 854 2306 74 852
 0 0 851 862 1103 83 3 1102 1 1 1 81 1 851 2305 74 574 0 0 848 854 1104 83 3 110
3 1 1 1 81 1 848 2304 74 708 0 0 707 851 1105 83 3 1104 1 1 1 81 1 707 2303 74 7
04 0 0 1106 848 1107 83 3 1105 1 1 1 81 1 1106 2302 74 709 0 0 1108 707 1109 83
 3 1107 1 1 1 14 709 190 1106 ?704 669 948 7 665 +0 0 704 669 362 81 1 1108 2301
 74 669 0 0 842 1106 1110 83 3 1109 1 1 1 14 669 124 1108 ?709 840 996 7 658 +0
 0 709 840 362 81 1 842 2300 74 840 0 0 839 1108 1111 83 3 1110 1 1 1 83 3 1111
 1 1 1 15 996 125 0 774 669 0 17 774 0 996 420 1112 415 1088 769 0 997 +17 1112
 0 996 774 516 511 617 615 0 1088 -17 1088 0 782 423 417 511 774 769 0 0 -17 516
 0 996 1112 420 514 970 656 0 617 +17 617 0 841 951 513 514 1112 615 0 610 +17 5
13 0 841 617 614 511 423 611 0 1112 +17 610 0 679 970 955 514 951 608 0 0 +16 61
1 284 0 ?513 612 608 609 612 612 3 17 577 0 849 468 525 472 573 578 0 0 -17 459
 0 849 525 380 457 1001 556 0 1053 +17 1001 0 864 379 1053 374 459 556 0 1004 -1
6 556 2164 0 ?459 546 966 591 0 0 3 17 468 0 849 1113 577 466 474 648 0 598 +17
 1113 0 849 480 468 481 598 579 0 0 -17 474 0 837 576 1114 472 468 648 0 575 -17
 598 0 860 465 638 466 1113 579 0 1114 +15 860 458 0 598 856 0 17 465 0 860 486
 598 463 1114 650 0 583 +17 638 0 860 598 486 481 1115 636 0 1113 +17 1114 0 837
 474 584 466 465 650 0 0 -15 837 904 0 584 678 0 17 584 0 837 1114 576 463 471 5
85 0 0 -17 576 0 837 584 474 469 575 646 0 0 -17 575 0 571 573 572 472 576 646 0
 577 +17 486 0 860 638 465 484 583 589 0 645 +17 1115 0 834 838 483 484 638 636
 0 0 -17 838 0 834 976 1115 475 645 643 0 0 -17 483 0 834 1115 976 481 480 639 0
 638 -17 976 0 834 483 838 478 477 641 0 0 -17 480 0 849 522 1113 478 483 639 0
 601 +17 601 0 855 477 595 478 522 599 0 976 +17 645 0 553 583 975 484 838 643 0
 1115 +17 583 0 553 471 645 463 486 589 0 584 -17 504 0 710 954 444 502 958 690
 0 623 +40 5 926 0 1 5 .0002957337180780645 .3575689469291135 ??.442781938091113
 -.0297 -.01973197075023365 .441255359691533 -.02985040290066785 -.0194932267179
3115 .4399069356403535 -.03019585961008215 -.0188227360708216 .438717936316052 -
.0305727107659692 -.01764468247168845 .438073833599542 -.0307 -.0164153459598782
5 41 1 927 L.442781938091113 -.0297 -.01973197075023365 41 1 928 L.4380738335995
42 -.0307 -.01641534595987825 141 900 910 900 900 358 141 872 924 1116 1117 866
 141 1116 901 1117 872 866 141 1117 932 872 1116 866 83 3 843 1 1 1 83 3 836 1 1
 1 40 3 817 0 1 3 .0002232676150777285 .2807989585703055 ??.451255731110106 -.02
95346584384265 -.0127319707502337 .451436806780876 -.0302950556555505 -.01411841
387188742 .451481938091113 -.0306513729949993 -.01552295185032985 41 1 818 L.451
255731110106 -.0295346584384265 -.0127319707502337 41 1 819 L.451481938091113 -.
0306513729949993 -.01552295185032985 141 810 802 810 810 804 40 5 799 0 1 5 .000
1589897984926635 .3824060169007035 ??.450481938091113 -.01906831338878165 -.0141
165861348491 .450556923159828 -.01881731580018205 -.0136045927679342 .4507356628
24454 -.01845391921090435 -.01320240622343366 .450985682195986 -.017924752211187
5 -.01288175577211552 .451255731110106 -.0171653415615735 -.0127319707502337 41
 1 800 L.450481938091113 -.01906831338878165 -.0141165861348491 41 1 801 L.45125
5731110106 -.0171653415615735 -.0127319707502337 141 789 827 789 789 783 141 750
 758 750 750 743 141 742 929 1118 1118 735 141 1118 932 742 742 735 40 4 730 0 1
 4 .0003382871354249645 .378052103404606 ??.4392464041851805 -.01629302986132185
 -.001196436844300962 .438271841382496 -.01670758603591475 -.002573492657012005
 .4378071960197745 -.01698333734622895 -.00423003318075759 .437781938091113 -.01
7 -.0047319707502337 41 1 731 L.4392464041851805 -.01629302986132185 -.001196436
844300962 41 1 732 L.437781938091113 -.017 -.0047319707502337 141 714 792 714 71
4 705 141 711 657 1119 1120 665 141 1119 758 1120 711 665 141 1120 720 711 1119
 665 40 5 701 0 1 5 .0002957337180780655 .3575689469291125 ??.445481938091113 -.
0297 .000268029249766301 .4470085164906935 -.0298504029006679 2928521746374535e-
20 .448356940541873 -.03019585961008215 -.000641205429645809 .4495459398661745 -
.0305727107659692 -.001819259028778945 .450190042582685 -.0307 -.003048595540589
105 41 1 702 L.445481938091113 -.0297 .000268029249766301 41 1 703 L.45019004258
2685 -.0307 -.003048595540589105 141 688 692 1121 1121 681 141 1121 924 688 688
 681 141 671 654 1122 1123 658 141 1122 827 1123 671 658 141 1123 768 671 1122 6
58 40 5 666 0 1 5 .0002957337180780665 .3575689469291125 ??.442781938091113 -.01
7 .000268029249766301 .441255359691533 -.0168495970993321 2928521746374535e-20 .
4399069356403535 -.01650414038991785 -.000641205429645809 .438717936316052 -.016
1272892340308 -.001819259028778945 .438073833599542 -.016 -.0030485955405891 41
 1 667 L.442781938091113 -.017 .000268029249766301 41 1 668 L.438073833599542 -.
016 -.0030485955405891 19 356 5 0 3 0 11 7 S141 359 811 359 359 8 74 20 354 1 0
 1059 0 0 0 0 0 0 0 0 0 0 0 0 0 0 0 0 0 0 0 1 0 
