solid OpenSCAD_Model
  facet normal 0 0 -1
    outer loop
      vertex 24 -25 0
      vertex 9 -15.5 0
      vertex 24 25 0
    endloop
  endfacet
  facet normal 0 0 -1
    outer loop
      vertex 24 -25 0
      vertex -9 -15.5 0
      vertex 9 -15.5 0
    endloop
  endfacet
  facet normal -0 0 -1
    outer loop
      vertex -9 -15.5 0
      vertex -24 -25 0
      vertex -9 15.5 0
    endloop
  endfacet
  facet normal 0 0 -1
    outer loop
      vertex -24 -25 0
      vertex -9 -15.5 0
      vertex 24 -25 0
    endloop
  endfacet
  facet normal 0 0 -1
    outer loop
      vertex 9 15.5 0
      vertex 24 25 0
      vertex 9 -15.5 0
    endloop
  endfacet
  facet normal 0 0 -1
    outer loop
      vertex -9 15.5 0
      vertex 24 25 0
      vertex 9 15.5 0
    endloop
  endfacet
  facet normal 0 0 -1
    outer loop
      vertex -9 15.5 0
      vertex -24 25 0
      vertex 24 25 0
    endloop
  endfacet
  facet normal 0 0 -1
    outer loop
      vertex -24 25 0
      vertex -9 15.5 0
      vertex -24 -25 0
    endloop
  endfacet
  facet normal -1 0 0
    outer loop
      vertex -24 -25 0
      vertex -24 25 4
      vertex -24 25 0
    endloop
  endfacet
  facet normal -1 -0 0
    outer loop
      vertex -24 25 4
      vertex -24 -25 0
      vertex -24 -25 4
    endloop
  endfacet
  facet normal 0 0 1
    outer loop
      vertex 9 13.5 4
      vertex 24 25 4
      vertex 9 15.5 4
    endloop
  endfacet
  facet normal 0 0 1
    outer loop
      vertex 24 25 4
      vertex -9 15.5 4
      vertex 9 15.5 4
    endloop
  endfacet
  facet normal 0 0 1
    outer loop
      vertex -9 15.5 4
      vertex -24 25 4
      vertex -9 13.5 4
    endloop
  endfacet
  facet normal -0 0 1
    outer loop
      vertex -24 25 4
      vertex -9 15.5 4
      vertex 24 25 4
    endloop
  endfacet
  facet normal 0 0 1
    outer loop
      vertex 24 25 4
      vertex 9 13.5 4
      vertex 24 -25 4
    endloop
  endfacet
  facet normal -0 0 1
    outer loop
      vertex -9 13.5 4
      vertex 24 -25 4
      vertex 9 13.5 4
    endloop
  endfacet
  facet normal 0 0 1
    outer loop
      vertex -24 -25 4
      vertex -9 13.5 4
      vertex -24 25 4
    endloop
  endfacet
  facet normal 0 0 1
    outer loop
      vertex -9 13.5 4
      vertex -24 -25 4
      vertex 24 -25 4
    endloop
  endfacet
  facet normal 0 1 -0
    outer loop
      vertex 24 25 0
      vertex -24 25 4
      vertex 24 25 4
    endloop
  endfacet
  facet normal 0 1 0
    outer loop
      vertex -24 25 4
      vertex 24 25 0
      vertex -24 25 0
    endloop
  endfacet
  facet normal 1 -0 0
    outer loop
      vertex 24 -25 4
      vertex 24 25 0
      vertex 24 25 4
    endloop
  endfacet
  facet normal 1 0 0
    outer loop
      vertex 24 25 0
      vertex 24 -25 4
      vertex 24 -25 0
    endloop
  endfacet
  facet normal 0 -1 0
    outer loop
      vertex -24 -25 0
      vertex 24 -25 4
      vertex -24 -25 4
    endloop
  endfacet
  facet normal 0 -1 -0
    outer loop
      vertex 24 -25 4
      vertex -24 -25 0
      vertex 24 -25 0
    endloop
  endfacet
  facet normal 1 0 0
    outer loop
      vertex -9 13.5 2.4
      vertex -9 15.5 4
      vertex -9 13.5 4
    endloop
  endfacet
  facet normal 1 0 0
    outer loop
      vertex -9 15.5 4
      vertex -9 13.5 2.4
      vertex -9 15.5 0
    endloop
  endfacet
  facet normal 1 0 0
    outer loop
      vertex -9 -15.5 0
      vertex -9 13.5 2.4
      vertex -9 -15.5 2.4
    endloop
  endfacet
  facet normal 1 0 0
    outer loop
      vertex -9 13.5 2.4
      vertex -9 -15.5 0
      vertex -9 15.5 0
    endloop
  endfacet
  facet normal 0 0 -1
    outer loop
      vertex -9 -15.5 2.4
      vertex 9 13.5 2.4
      vertex 9 -15.5 2.4
    endloop
  endfacet
  facet normal -0 0 -1
    outer loop
      vertex 9 13.5 2.4
      vertex -9 -15.5 2.4
      vertex -9 13.5 2.4
    endloop
  endfacet
  facet normal 0 -1 0
    outer loop
      vertex -9 15.5 0
      vertex 9 15.5 4
      vertex -9 15.5 4
    endloop
  endfacet
  facet normal 0 -1 -0
    outer loop
      vertex 9 15.5 4
      vertex -9 15.5 0
      vertex 9 15.5 0
    endloop
  endfacet
  facet normal -1 0 0
    outer loop
      vertex 9 15.5 0
      vertex 9 13.5 2.4
      vertex 9 15.5 4
    endloop
  endfacet
  facet normal -1 0 0
    outer loop
      vertex 9 -15.5 0
      vertex 9 13.5 2.4
      vertex 9 15.5 0
    endloop
  endfacet
  facet normal -1 -0 0
    outer loop
      vertex 9 13.5 2.4
      vertex 9 -15.5 0
      vertex 9 -15.5 2.4
    endloop
  endfacet
  facet normal -1 -0 0
    outer loop
      vertex 9 15.5 4
      vertex 9 13.5 2.4
      vertex 9 13.5 4
    endloop
  endfacet
  facet normal 0 1 -0
    outer loop
      vertex 9 -15.5 0
      vertex -9 -15.5 2.4
      vertex 9 -15.5 2.4
    endloop
  endfacet
  facet normal 0 1 0
    outer loop
      vertex -9 -15.5 2.4
      vertex 9 -15.5 0
      vertex -9 -15.5 0
    endloop
  endfacet
  facet normal 0 1 -0
    outer loop
      vertex 9 13.5 2.4
      vertex -9 13.5 4
      vertex 9 13.5 4
    endloop
  endfacet
  facet normal 0 1 0
    outer loop
      vertex -9 13.5 4
      vertex 9 13.5 2.4
      vertex -9 13.5 2.4
    endloop
  endfacet
endsolid OpenSCAD_Model
