solid OpenSCAD_Model
  facet normal 0 0 -1
    outer loop
      vertex -21.2 21.2 0
      vertex 20 20 0
      vertex -20 20 0
    endloop
  endfacet
  facet normal 0 -0 -1
    outer loop
      vertex 21.2 21.2 0
      vertex 21.2 -21.2 0
      vertex 20 20 0
    endloop
  endfacet
  facet normal 0 0 -1
    outer loop
      vertex 21.2 -21.2 0
      vertex 20 -20 0
      vertex 20 20 0
    endloop
  endfacet
  facet normal 0 -0 -1
    outer loop
      vertex 20 -20 0
      vertex 21.2 -21.2 0
      vertex -21.2 -21.2 0
    endloop
  endfacet
  facet normal 0 0 -1
    outer loop
      vertex -21.2 21.2 0
      vertex -20 -20 0
      vertex -21.2 -21.2 0
    endloop
  endfacet
  facet normal 0 -0 -1
    outer loop
      vertex -20 -20 0
      vertex 20 -20 0
      vertex -21.2 -21.2 0
    endloop
  endfacet
  facet normal 0 0 -1
    outer loop
      vertex -21.2 21.2 0
      vertex -20 20 0
      vertex -20 -20 0
    endloop
  endfacet
  facet normal -0 0 -1
    outer loop
      vertex 21.2 21.2 0
      vertex 20 20 0
      vertex -21.2 21.2 0
    endloop
  endfacet
  facet normal 0 -0 1
    outer loop
      vertex -20 20 65
      vertex 20 20 65
      vertex -21.2 21.2 65
    endloop
  endfacet
  facet normal -0 0 1
    outer loop
      vertex 20 20 65
      vertex 21.2 -21.2 65
      vertex 21.2 21.2 65
    endloop
  endfacet
  facet normal 0 0 1
    outer loop
      vertex 20 20 65
      vertex 20 -20 65
      vertex 21.2 -21.2 65
    endloop
  endfacet
  facet normal 0 0 1
    outer loop
      vertex -21.2 -21.2 65
      vertex 21.2 -21.2 65
      vertex 20 -20 65
    endloop
  endfacet
  facet normal 0 0 1
    outer loop
      vertex -21.2 -21.2 65
      vertex -20 -20 65
      vertex -21.2 21.2 65
    endloop
  endfacet
  facet normal 0 0 1
    outer loop
      vertex -21.2 -21.2 65
      vertex 20 -20 65
      vertex -20 -20 65
    endloop
  endfacet
  facet normal 0 -0 1
    outer loop
      vertex -20 -20 65
      vertex -20 20 65
      vertex -21.2 21.2 65
    endloop
  endfacet
  facet normal -0 0 1
    outer loop
      vertex -21.2 21.2 65
      vertex 20 20 65
      vertex 21.2 21.2 65
    endloop
  endfacet
  facet normal 0 1 0
    outer loop
      vertex -21.2 21.2 0
      vertex 21.2 21.2 65
      vertex 21.2 21.2 0
    endloop
  endfacet
  facet normal 0 1 0
    outer loop
      vertex -21.2 21.2 0
      vertex -21.2 21.2 65
      vertex 21.2 21.2 65
    endloop
  endfacet
  facet normal -1 0 0
    outer loop
      vertex -21.2 -21.2 0
      vertex -21.2 21.2 65
      vertex -21.2 21.2 0
    endloop
  endfacet
  facet normal -1 0 0
    outer loop
      vertex -21.2 -21.2 0
      vertex -21.2 -21.2 65
      vertex -21.2 21.2 65
    endloop
  endfacet
  facet normal 0 -1 0
    outer loop
      vertex 21.2 -21.2 0
      vertex -21.2 -21.2 65
      vertex -21.2 -21.2 0
    endloop
  endfacet
  facet normal 0 -1 0
    outer loop
      vertex 21.2 -21.2 0
      vertex 21.2 -21.2 65
      vertex -21.2 -21.2 65
    endloop
  endfacet
  facet normal 1 0 0
    outer loop
      vertex 21.2 21.2 0
      vertex 21.2 -21.2 65
      vertex 21.2 -21.2 0
    endloop
  endfacet
  facet normal 1 0 -0
    outer loop
      vertex 21.2 21.2 0
      vertex 21.2 21.2 65
      vertex 21.2 -21.2 65
    endloop
  endfacet
  facet normal 1 0 -0
    outer loop
      vertex -20 20 0
      vertex -20 20 65
      vertex -20 -20 0
    endloop
  endfacet
  facet normal 1 -0 0
    outer loop
      vertex -20 -20 65
      vertex -20 -20 0
      vertex -20 20 65
    endloop
  endfacet
  facet normal 0 -1 0
    outer loop
      vertex 20 20 0
      vertex 20 20 65
      vertex -20 20 0
    endloop
  endfacet
  facet normal 0 -1 0
    outer loop
      vertex -20 20 65
      vertex -20 20 0
      vertex 20 20 65
    endloop
  endfacet
  facet normal -1 0 0
    outer loop
      vertex 20 -20 0
      vertex 20 -20 65
      vertex 20 20 0
    endloop
  endfacet
  facet normal -1 -0 -0
    outer loop
      vertex 20 20 65
      vertex 20 20 0
      vertex 20 -20 65
    endloop
  endfacet
  facet normal 0 1 0
    outer loop
      vertex -20 -20 0
      vertex -20 -20 65
      vertex 20 -20 0
    endloop
  endfacet
  facet normal 0 1 0
    outer loop
      vertex 20 -20 65
      vertex 20 -20 0
      vertex -20 -20 65
    endloop
  endfacet
endsolid OpenSCAD_Model
