solid OpenSCAD_Model
  facet normal -0.587795 0.80901 0
    outer loop
      vertex 14.9045 8.20611 0
      vertex 14.6545 8.02447 1.6
      vertex 14.9045 8.20611 1.6
    endloop
  endfacet
  facet normal -0.587795 0.80901 0
    outer loop
      vertex 14.6545 8.02447 1.6
      vertex 14.9045 8.20611 0
      vertex 14.6545 8.02447 0
    endloop
  endfacet
  facet normal -0.951048 -0.309044 0
    outer loop
      vertex 15 8.5 0
      vertex 14.9045 8.79389 1.6
      vertex 14.9045 8.79389 0
    endloop
  endfacet
  facet normal -0.951048 -0.309044 0
    outer loop
      vertex 14.9045 8.79389 1.6
      vertex 15 8.5 0
      vertex 15 8.5 1.6
    endloop
  endfacet
  facet normal -0.951048 0.309044 0
    outer loop
      vertex 14.9045 8.20611 0
      vertex 15 8.5 1.6
      vertex 15 8.5 0
    endloop
  endfacet
  facet normal -0.951048 0.309044 0
    outer loop
      vertex 15 8.5 1.6
      vertex 14.9045 8.20611 0
      vertex 14.9045 8.20611 1.6
    endloop
  endfacet
  facet normal 0 -1 0
    outer loop
      vertex 14.3455 8.97553 0
      vertex 14.6545 8.97553 1.6
      vertex 14.3455 8.97553 1.6
    endloop
  endfacet
  facet normal 0 -1 -0
    outer loop
      vertex 14.6545 8.97553 1.6
      vertex 14.3455 8.97553 0
      vertex 14.6545 8.97553 0
    endloop
  endfacet
  facet normal 0.587795 -0.80901 0
    outer loop
      vertex 14.0955 8.79389 0
      vertex 14.3455 8.97553 1.6
      vertex 14.0955 8.79389 1.6
    endloop
  endfacet
  facet normal 0.587795 -0.80901 0
    outer loop
      vertex 14.3455 8.97553 1.6
      vertex 14.0955 8.79389 0
      vertex 14.3455 8.97553 0
    endloop
  endfacet
  facet normal 0 1 -0
    outer loop
      vertex 14.6545 8.02447 0
      vertex 14.3455 8.02447 1.6
      vertex 14.6545 8.02447 1.6
    endloop
  endfacet
  facet normal 0 1 0
    outer loop
      vertex 14.3455 8.02447 1.6
      vertex 14.6545 8.02447 0
      vertex 14.3455 8.02447 0
    endloop
  endfacet
  facet normal 0.951048 0.309044 0
    outer loop
      vertex 14.0955 8.20611 1.6
      vertex 14 8.5 0
      vertex 14 8.5 1.6
    endloop
  endfacet
  facet normal 0.951048 0.309044 0
    outer loop
      vertex 14 8.5 0
      vertex 14.0955 8.20611 1.6
      vertex 14.0955 8.20611 0
    endloop
  endfacet
  facet normal -0.587795 -0.80901 0
    outer loop
      vertex 14.6545 8.97553 0
      vertex 14.9045 8.79389 1.6
      vertex 14.6545 8.97553 1.6
    endloop
  endfacet
  facet normal -0.587795 -0.80901 -0
    outer loop
      vertex 14.9045 8.79389 1.6
      vertex 14.6545 8.97553 0
      vertex 14.9045 8.79389 0
    endloop
  endfacet
  facet normal 0.587795 0.80901 -0
    outer loop
      vertex 14.3455 8.02447 0
      vertex 14.0955 8.20611 1.6
      vertex 14.3455 8.02447 1.6
    endloop
  endfacet
  facet normal 0.587795 0.80901 0
    outer loop
      vertex 14.0955 8.20611 1.6
      vertex 14.3455 8.02447 0
      vertex 14.0955 8.20611 0
    endloop
  endfacet
  facet normal 0.951048 -0.309044 0
    outer loop
      vertex 14 8.5 1.6
      vertex 14.0955 8.79389 0
      vertex 14.0955 8.79389 1.6
    endloop
  endfacet
  facet normal 0.951048 -0.309044 0
    outer loop
      vertex 14.0955 8.79389 0
      vertex 14 8.5 1.6
      vertex 14 8.5 0
    endloop
  endfacet
  facet normal -0.58771 0.809072 0
    outer loop
      vertex 14.9045 13.2061 0
      vertex 14.6545 13.0245 1.6
      vertex 14.9045 13.2061 1.6
    endloop
  endfacet
  facet normal -0.58771 0.809072 0
    outer loop
      vertex 14.6545 13.0245 1.6
      vertex 14.9045 13.2061 0
      vertex 14.6545 13.0245 0
    endloop
  endfacet
  facet normal -0.951051 -0.309035 0
    outer loop
      vertex 15 13.5 0
      vertex 14.9045 13.7939 1.6
      vertex 14.9045 13.7939 0
    endloop
  endfacet
  facet normal -0.951051 -0.309035 0
    outer loop
      vertex 14.9045 13.7939 1.6
      vertex 15 13.5 0
      vertex 15 13.5 1.6
    endloop
  endfacet
  facet normal -0.951051 0.309035 0
    outer loop
      vertex 14.9045 13.2061 0
      vertex 15 13.5 1.6
      vertex 15 13.5 0
    endloop
  endfacet
  facet normal -0.951051 0.309035 0
    outer loop
      vertex 15 13.5 1.6
      vertex 14.9045 13.2061 0
      vertex 14.9045 13.2061 1.6
    endloop
  endfacet
  facet normal 0 -1 0
    outer loop
      vertex 14.3455 13.9755 0
      vertex 14.6545 13.9755 1.6
      vertex 14.3455 13.9755 1.6
    endloop
  endfacet
  facet normal 0 -1 -0
    outer loop
      vertex 14.6545 13.9755 1.6
      vertex 14.3455 13.9755 0
      vertex 14.6545 13.9755 0
    endloop
  endfacet
  facet normal 0.58771 -0.809072 0
    outer loop
      vertex 14.0955 13.7939 0
      vertex 14.3455 13.9755 1.6
      vertex 14.0955 13.7939 1.6
    endloop
  endfacet
  facet normal 0.58771 -0.809072 0
    outer loop
      vertex 14.3455 13.9755 1.6
      vertex 14.0955 13.7939 0
      vertex 14.3455 13.9755 0
    endloop
  endfacet
  facet normal 0 1 -0
    outer loop
      vertex 14.6545 13.0245 0
      vertex 14.3455 13.0245 1.6
      vertex 14.6545 13.0245 1.6
    endloop
  endfacet
  facet normal 0 1 0
    outer loop
      vertex 14.3455 13.0245 1.6
      vertex 14.6545 13.0245 0
      vertex 14.3455 13.0245 0
    endloop
  endfacet
  facet normal 0.951051 0.309035 0
    outer loop
      vertex 14.0955 13.2061 1.6
      vertex 14 13.5 0
      vertex 14 13.5 1.6
    endloop
  endfacet
  facet normal 0.951051 0.309035 0
    outer loop
      vertex 14 13.5 0
      vertex 14.0955 13.2061 1.6
      vertex 14.0955 13.2061 0
    endloop
  endfacet
  facet normal -0.58771 -0.809072 0
    outer loop
      vertex 14.6545 13.9755 0
      vertex 14.9045 13.7939 1.6
      vertex 14.6545 13.9755 1.6
    endloop
  endfacet
  facet normal -0.58771 -0.809072 -0
    outer loop
      vertex 14.9045 13.7939 1.6
      vertex 14.6545 13.9755 0
      vertex 14.9045 13.7939 0
    endloop
  endfacet
  facet normal 0.58771 0.809072 -0
    outer loop
      vertex 14.3455 13.0245 0
      vertex 14.0955 13.2061 1.6
      vertex 14.3455 13.0245 1.6
    endloop
  endfacet
  facet normal 0.58771 0.809072 0
    outer loop
      vertex 14.0955 13.2061 1.6
      vertex 14.3455 13.0245 0
      vertex 14.0955 13.2061 0
    endloop
  endfacet
  facet normal 0.951051 -0.309035 0
    outer loop
      vertex 14 13.5 1.6
      vertex 14.0955 13.7939 0
      vertex 14.0955 13.7939 1.6
    endloop
  endfacet
  facet normal 0.951051 -0.309035 0
    outer loop
      vertex 14.0955 13.7939 0
      vertex 14 13.5 1.6
      vertex 14 13.5 0
    endloop
  endfacet
  facet normal -0.587795 0.80901 0
    outer loop
      vertex -14.0955 3.20611 0
      vertex -14.3455 3.02447 1.6
      vertex -14.0955 3.20611 1.6
    endloop
  endfacet
  facet normal -0.587795 0.80901 0
    outer loop
      vertex -14.3455 3.02447 1.6
      vertex -14.0955 3.20611 0
      vertex -14.3455 3.02447 0
    endloop
  endfacet
  facet normal -0.951048 -0.309044 0
    outer loop
      vertex -14 3.5 0
      vertex -14.0955 3.79389 1.6
      vertex -14.0955 3.79389 0
    endloop
  endfacet
  facet normal -0.951048 -0.309044 0
    outer loop
      vertex -14.0955 3.79389 1.6
      vertex -14 3.5 0
      vertex -14 3.5 1.6
    endloop
  endfacet
  facet normal -0.951048 0.309044 0
    outer loop
      vertex -14.0955 3.20611 0
      vertex -14 3.5 1.6
      vertex -14 3.5 0
    endloop
  endfacet
  facet normal -0.951048 0.309044 0
    outer loop
      vertex -14 3.5 1.6
      vertex -14.0955 3.20611 0
      vertex -14.0955 3.20611 1.6
    endloop
  endfacet
  facet normal 0 -1 0
    outer loop
      vertex -14.6545 3.97553 0
      vertex -14.3455 3.97553 1.6
      vertex -14.6545 3.97553 1.6
    endloop
  endfacet
  facet normal 0 -1 -0
    outer loop
      vertex -14.3455 3.97553 1.6
      vertex -14.6545 3.97553 0
      vertex -14.3455 3.97553 0
    endloop
  endfacet
  facet normal 0.587795 -0.80901 0
    outer loop
      vertex -14.9045 3.79389 0
      vertex -14.6545 3.97553 1.6
      vertex -14.9045 3.79389 1.6
    endloop
  endfacet
  facet normal 0.587795 -0.80901 0
    outer loop
      vertex -14.6545 3.97553 1.6
      vertex -14.9045 3.79389 0
      vertex -14.6545 3.97553 0
    endloop
  endfacet
  facet normal 0 1 -0
    outer loop
      vertex -14.3455 3.02447 0
      vertex -14.6545 3.02447 1.6
      vertex -14.3455 3.02447 1.6
    endloop
  endfacet
  facet normal 0 1 0
    outer loop
      vertex -14.6545 3.02447 1.6
      vertex -14.3455 3.02447 0
      vertex -14.6545 3.02447 0
    endloop
  endfacet
  facet normal 0.951048 0.309044 0
    outer loop
      vertex -14.9045 3.20611 1.6
      vertex -15 3.5 0
      vertex -15 3.5 1.6
    endloop
  endfacet
  facet normal 0.951048 0.309044 0
    outer loop
      vertex -15 3.5 0
      vertex -14.9045 3.20611 1.6
      vertex -14.9045 3.20611 0
    endloop
  endfacet
  facet normal -0.587795 -0.80901 0
    outer loop
      vertex -14.3455 3.97553 0
      vertex -14.0955 3.79389 1.6
      vertex -14.3455 3.97553 1.6
    endloop
  endfacet
  facet normal -0.587795 -0.80901 -0
    outer loop
      vertex -14.0955 3.79389 1.6
      vertex -14.3455 3.97553 0
      vertex -14.0955 3.79389 0
    endloop
  endfacet
  facet normal 0.587795 0.80901 -0
    outer loop
      vertex -14.6545 3.02447 0
      vertex -14.9045 3.20611 1.6
      vertex -14.6545 3.02447 1.6
    endloop
  endfacet
  facet normal 0.587795 0.80901 0
    outer loop
      vertex -14.9045 3.20611 1.6
      vertex -14.6545 3.02447 0
      vertex -14.9045 3.20611 0
    endloop
  endfacet
  facet normal 0.951048 -0.309044 0
    outer loop
      vertex -15 3.5 1.6
      vertex -14.9045 3.79389 0
      vertex -14.9045 3.79389 1.6
    endloop
  endfacet
  facet normal 0.951048 -0.309044 0
    outer loop
      vertex -14.9045 3.79389 0
      vertex -15 3.5 1.6
      vertex -15 3.5 0
    endloop
  endfacet
  facet normal -0.58771 0.809072 0
    outer loop
      vertex -14.0955 18.2061 0
      vertex -14.3455 18.0245 1.6
      vertex -14.0955 18.2061 1.6
    endloop
  endfacet
  facet normal -0.58771 0.809072 0
    outer loop
      vertex -14.3455 18.0245 1.6
      vertex -14.0955 18.2061 0
      vertex -14.3455 18.0245 0
    endloop
  endfacet
  facet normal -0.58771 -0.809072 0
    outer loop
      vertex -14.3455 18.9755 0
      vertex -14.0955 18.7939 1.6
      vertex -14.3455 18.9755 1.6
    endloop
  endfacet
  facet normal -0.58771 -0.809072 -0
    outer loop
      vertex -14.0955 18.7939 1.6
      vertex -14.3455 18.9755 0
      vertex -14.0955 18.7939 0
    endloop
  endfacet
  facet normal 0.58771 -0.809072 0
    outer loop
      vertex -14.9045 18.7939 0
      vertex -14.6545 18.9755 1.6
      vertex -14.9045 18.7939 1.6
    endloop
  endfacet
  facet normal 0.58771 -0.809072 0
    outer loop
      vertex -14.6545 18.9755 1.6
      vertex -14.9045 18.7939 0
      vertex -14.6545 18.9755 0
    endloop
  endfacet
  facet normal -0.951051 0.309035 0
    outer loop
      vertex -14.0955 18.2061 0
      vertex -14 18.5 1.6
      vertex -14 18.5 0
    endloop
  endfacet
  facet normal -0.951051 0.309035 0
    outer loop
      vertex -14 18.5 1.6
      vertex -14.0955 18.2061 0
      vertex -14.0955 18.2061 1.6
    endloop
  endfacet
  facet normal 0 -1 0
    outer loop
      vertex -14.6545 18.9755 0
      vertex -14.3455 18.9755 1.6
      vertex -14.6545 18.9755 1.6
    endloop
  endfacet
  facet normal 0 -1 -0
    outer loop
      vertex -14.3455 18.9755 1.6
      vertex -14.6545 18.9755 0
      vertex -14.3455 18.9755 0
    endloop
  endfacet
  facet normal 0 1 -0
    outer loop
      vertex -14.3455 18.0245 0
      vertex -14.6545 18.0245 1.6
      vertex -14.3455 18.0245 1.6
    endloop
  endfacet
  facet normal 0 1 0
    outer loop
      vertex -14.6545 18.0245 1.6
      vertex -14.3455 18.0245 0
      vertex -14.6545 18.0245 0
    endloop
  endfacet
  facet normal -0.951051 -0.309035 0
    outer loop
      vertex -14 18.5 0
      vertex -14.0955 18.7939 1.6
      vertex -14.0955 18.7939 0
    endloop
  endfacet
  facet normal -0.951051 -0.309035 0
    outer loop
      vertex -14.0955 18.7939 1.6
      vertex -14 18.5 0
      vertex -14 18.5 1.6
    endloop
  endfacet
  facet normal 0.58771 0.809072 -0
    outer loop
      vertex -14.6545 18.0245 0
      vertex -14.9045 18.2061 1.6
      vertex -14.6545 18.0245 1.6
    endloop
  endfacet
  facet normal 0.58771 0.809072 0
    outer loop
      vertex -14.9045 18.2061 1.6
      vertex -14.6545 18.0245 0
      vertex -14.9045 18.2061 0
    endloop
  endfacet
  facet normal 0.951051 -0.309035 0
    outer loop
      vertex -15 18.5 1.6
      vertex -14.9045 18.7939 0
      vertex -14.9045 18.7939 1.6
    endloop
  endfacet
  facet normal 0.951051 -0.309035 0
    outer loop
      vertex -14.9045 18.7939 0
      vertex -15 18.5 1.6
      vertex -15 18.5 0
    endloop
  endfacet
  facet normal 0.951051 0.309035 0
    outer loop
      vertex -14.9045 18.2061 1.6
      vertex -15 18.5 0
      vertex -15 18.5 1.6
    endloop
  endfacet
  facet normal 0.951051 0.309035 0
    outer loop
      vertex -15 18.5 0
      vertex -14.9045 18.2061 1.6
      vertex -14.9045 18.2061 0
    endloop
  endfacet
  facet normal -0.58771 0.809072 0
    outer loop
      vertex 6.40451 18.7061 0
      vertex 6.15451 18.5245 1.6
      vertex 6.40451 18.7061 1.6
    endloop
  endfacet
  facet normal -0.58771 0.809072 0
    outer loop
      vertex 6.15451 18.5245 1.6
      vertex 6.40451 18.7061 0
      vertex 6.15451 18.5245 0
    endloop
  endfacet
  facet normal -0.95106 -0.309006 0
    outer loop
      vertex 6.5 19 0
      vertex 6.40451 19.2939 1.6
      vertex 6.40451 19.2939 0
    endloop
  endfacet
  facet normal -0.95106 -0.309006 0
    outer loop
      vertex 6.40451 19.2939 1.6
      vertex 6.5 19 0
      vertex 6.5 19 1.6
    endloop
  endfacet
  facet normal -0.95106 0.309006 0
    outer loop
      vertex 6.40451 18.7061 0
      vertex 6.5 19 1.6
      vertex 6.5 19 0
    endloop
  endfacet
  facet normal -0.95106 0.309006 0
    outer loop
      vertex 6.5 19 1.6
      vertex 6.40451 18.7061 0
      vertex 6.40451 18.7061 1.6
    endloop
  endfacet
  facet normal 0 -1 0
    outer loop
      vertex 5.84549 19.4755 0
      vertex 6.15451 19.4755 1.6
      vertex 5.84549 19.4755 1.6
    endloop
  endfacet
  facet normal 0 -1 -0
    outer loop
      vertex 6.15451 19.4755 1.6
      vertex 5.84549 19.4755 0
      vertex 6.15451 19.4755 0
    endloop
  endfacet
  facet normal 0.58771 -0.809072 0
    outer loop
      vertex 5.59549 19.2939 0
      vertex 5.84549 19.4755 1.6
      vertex 5.59549 19.2939 1.6
    endloop
  endfacet
  facet normal 0.58771 -0.809072 0
    outer loop
      vertex 5.84549 19.4755 1.6
      vertex 5.59549 19.2939 0
      vertex 5.84549 19.4755 0
    endloop
  endfacet
  facet normal 0 1 -0
    outer loop
      vertex 6.15451 18.5245 0
      vertex 5.84549 18.5245 1.6
      vertex 6.15451 18.5245 1.6
    endloop
  endfacet
  facet normal 0 1 0
    outer loop
      vertex 5.84549 18.5245 1.6
      vertex 6.15451 18.5245 0
      vertex 5.84549 18.5245 0
    endloop
  endfacet
  facet normal 0.95106 0.309006 0
    outer loop
      vertex 5.59549 18.7061 1.6
      vertex 5.5 19 0
      vertex 5.5 19 1.6
    endloop
  endfacet
  facet normal 0.95106 0.309006 0
    outer loop
      vertex 5.5 19 0
      vertex 5.59549 18.7061 1.6
      vertex 5.59549 18.7061 0
    endloop
  endfacet
  facet normal -0.58771 -0.809072 0
    outer loop
      vertex 6.15451 19.4755 0
      vertex 6.40451 19.2939 1.6
      vertex 6.15451 19.4755 1.6
    endloop
  endfacet
  facet normal -0.58771 -0.809072 -0
    outer loop
      vertex 6.40451 19.2939 1.6
      vertex 6.15451 19.4755 0
      vertex 6.40451 19.2939 0
    endloop
  endfacet
  facet normal 0.58771 0.809072 -0
    outer loop
      vertex 5.84549 18.5245 0
      vertex 5.59549 18.7061 1.6
      vertex 5.84549 18.5245 1.6
    endloop
  endfacet
  facet normal 0.58771 0.809072 0
    outer loop
      vertex 5.59549 18.7061 1.6
      vertex 5.84549 18.5245 0
      vertex 5.59549 18.7061 0
    endloop
  endfacet
  facet normal 0.95106 -0.309006 0
    outer loop
      vertex 5.5 19 1.6
      vertex 5.59549 19.2939 0
      vertex 5.59549 19.2939 1.6
    endloop
  endfacet
  facet normal 0.95106 -0.309006 0
    outer loop
      vertex 5.59549 19.2939 0
      vertex 5.5 19 1.6
      vertex 5.5 19 0
    endloop
  endfacet
  facet normal -0.58771 0.809072 0
    outer loop
      vertex 11.4045 18.7061 0
      vertex 11.1545 18.5245 1.6
      vertex 11.4045 18.7061 1.6
    endloop
  endfacet
  facet normal -0.58771 0.809072 0
    outer loop
      vertex 11.1545 18.5245 1.6
      vertex 11.4045 18.7061 0
      vertex 11.1545 18.5245 0
    endloop
  endfacet
  facet normal -0.951051 0.309035 0
    outer loop
      vertex 11.4045 18.7061 0
      vertex 11.5 19 1.6
      vertex 11.5 19 0
    endloop
  endfacet
  facet normal -0.951051 0.309035 0
    outer loop
      vertex 11.5 19 1.6
      vertex 11.4045 18.7061 0
      vertex 11.4045 18.7061 1.6
    endloop
  endfacet
  facet normal 0 -1 0
    outer loop
      vertex 10.8455 19.4755 0
      vertex 11.1545 19.4755 1.6
      vertex 10.8455 19.4755 1.6
    endloop
  endfacet
  facet normal 0 -1 -0
    outer loop
      vertex 11.1545 19.4755 1.6
      vertex 10.8455 19.4755 0
      vertex 11.1545 19.4755 0
    endloop
  endfacet
  facet normal -0.58771 -0.809072 0
    outer loop
      vertex 11.1545 19.4755 0
      vertex 11.4045 19.2939 1.6
      vertex 11.1545 19.4755 1.6
    endloop
  endfacet
  facet normal -0.58771 -0.809072 -0
    outer loop
      vertex 11.4045 19.2939 1.6
      vertex 11.1545 19.4755 0
      vertex 11.4045 19.2939 0
    endloop
  endfacet
  facet normal 0.58771 -0.809072 0
    outer loop
      vertex 10.5955 19.2939 0
      vertex 10.8455 19.4755 1.6
      vertex 10.5955 19.2939 1.6
    endloop
  endfacet
  facet normal 0.58771 -0.809072 0
    outer loop
      vertex 10.8455 19.4755 1.6
      vertex 10.5955 19.2939 0
      vertex 10.8455 19.4755 0
    endloop
  endfacet
  facet normal 0.951051 0.309035 0
    outer loop
      vertex 10.5955 18.7061 1.6
      vertex 10.5 19 0
      vertex 10.5 19 1.6
    endloop
  endfacet
  facet normal 0.951051 0.309035 0
    outer loop
      vertex 10.5 19 0
      vertex 10.5955 18.7061 1.6
      vertex 10.5955 18.7061 0
    endloop
  endfacet
  facet normal 0 1 -0
    outer loop
      vertex 11.1545 18.5245 0
      vertex 10.8455 18.5245 1.6
      vertex 11.1545 18.5245 1.6
    endloop
  endfacet
  facet normal 0 1 0
    outer loop
      vertex 10.8455 18.5245 1.6
      vertex 11.1545 18.5245 0
      vertex 10.8455 18.5245 0
    endloop
  endfacet
  facet normal 0.951051 -0.309035 0
    outer loop
      vertex 10.5 19 1.6
      vertex 10.5955 19.2939 0
      vertex 10.5955 19.2939 1.6
    endloop
  endfacet
  facet normal 0.951051 -0.309035 0
    outer loop
      vertex 10.5955 19.2939 0
      vertex 10.5 19 1.6
      vertex 10.5 19 0
    endloop
  endfacet
  facet normal -0.951051 -0.309035 0
    outer loop
      vertex 11.5 19 0
      vertex 11.4045 19.2939 1.6
      vertex 11.4045 19.2939 0
    endloop
  endfacet
  facet normal -0.951051 -0.309035 0
    outer loop
      vertex 11.4045 19.2939 1.6
      vertex 11.5 19 0
      vertex 11.5 19 1.6
    endloop
  endfacet
  facet normal 0.58771 0.809072 -0
    outer loop
      vertex 10.8455 18.5245 0
      vertex 10.5955 18.7061 1.6
      vertex 10.8455 18.5245 1.6
    endloop
  endfacet
  facet normal 0.58771 0.809072 0
    outer loop
      vertex 10.5955 18.7061 1.6
      vertex 10.8455 18.5245 0
      vertex 10.5955 18.7061 0
    endloop
  endfacet
  facet normal -0.58771 0.809072 0
    outer loop
      vertex 16.4045 18.7061 0
      vertex 16.1545 18.5245 1.6
      vertex 16.4045 18.7061 1.6
    endloop
  endfacet
  facet normal -0.58771 0.809072 0
    outer loop
      vertex 16.1545 18.5245 1.6
      vertex 16.4045 18.7061 0
      vertex 16.1545 18.5245 0
    endloop
  endfacet
  facet normal -0.951051 -0.309035 0
    outer loop
      vertex 16.5 19 0
      vertex 16.4045 19.2939 1.6
      vertex 16.4045 19.2939 0
    endloop
  endfacet
  facet normal -0.951051 -0.309035 0
    outer loop
      vertex 16.4045 19.2939 1.6
      vertex 16.5 19 0
      vertex 16.5 19 1.6
    endloop
  endfacet
  facet normal -0.951051 0.309035 0
    outer loop
      vertex 16.4045 18.7061 0
      vertex 16.5 19 1.6
      vertex 16.5 19 0
    endloop
  endfacet
  facet normal -0.951051 0.309035 0
    outer loop
      vertex 16.5 19 1.6
      vertex 16.4045 18.7061 0
      vertex 16.4045 18.7061 1.6
    endloop
  endfacet
  facet normal 0 -1 0
    outer loop
      vertex 15.8455 19.4755 0
      vertex 16.1545 19.4755 1.6
      vertex 15.8455 19.4755 1.6
    endloop
  endfacet
  facet normal 0 -1 -0
    outer loop
      vertex 16.1545 19.4755 1.6
      vertex 15.8455 19.4755 0
      vertex 16.1545 19.4755 0
    endloop
  endfacet
  facet normal 0.58771 -0.809072 0
    outer loop
      vertex 15.5955 19.2939 0
      vertex 15.8455 19.4755 1.6
      vertex 15.5955 19.2939 1.6
    endloop
  endfacet
  facet normal 0.58771 -0.809072 0
    outer loop
      vertex 15.8455 19.4755 1.6
      vertex 15.5955 19.2939 0
      vertex 15.8455 19.4755 0
    endloop
  endfacet
  facet normal 0 1 -0
    outer loop
      vertex 16.1545 18.5245 0
      vertex 15.8455 18.5245 1.6
      vertex 16.1545 18.5245 1.6
    endloop
  endfacet
  facet normal 0 1 0
    outer loop
      vertex 15.8455 18.5245 1.6
      vertex 16.1545 18.5245 0
      vertex 15.8455 18.5245 0
    endloop
  endfacet
  facet normal 0.951051 0.309035 0
    outer loop
      vertex 15.5955 18.7061 1.6
      vertex 15.5 19 0
      vertex 15.5 19 1.6
    endloop
  endfacet
  facet normal 0.951051 0.309035 0
    outer loop
      vertex 15.5 19 0
      vertex 15.5955 18.7061 1.6
      vertex 15.5955 18.7061 0
    endloop
  endfacet
  facet normal -0.58771 -0.809072 0
    outer loop
      vertex 16.1545 19.4755 0
      vertex 16.4045 19.2939 1.6
      vertex 16.1545 19.4755 1.6
    endloop
  endfacet
  facet normal -0.58771 -0.809072 -0
    outer loop
      vertex 16.4045 19.2939 1.6
      vertex 16.1545 19.4755 0
      vertex 16.4045 19.2939 0
    endloop
  endfacet
  facet normal 0.58771 0.809072 -0
    outer loop
      vertex 15.8455 18.5245 0
      vertex 15.5955 18.7061 1.6
      vertex 15.8455 18.5245 1.6
    endloop
  endfacet
  facet normal 0.58771 0.809072 0
    outer loop
      vertex 15.5955 18.7061 1.6
      vertex 15.8455 18.5245 0
      vertex 15.5955 18.7061 0
    endloop
  endfacet
  facet normal 0.951051 -0.309035 0
    outer loop
      vertex 15.5 19 1.6
      vertex 15.5955 19.2939 0
      vertex 15.5955 19.2939 1.6
    endloop
  endfacet
  facet normal 0.951051 -0.309035 0
    outer loop
      vertex 15.5955 19.2939 0
      vertex 15.5 19 1.6
      vertex 15.5 19 0
    endloop
  endfacet
  facet normal 0 0 -1
    outer loop
      vertex -14.0955 18.2061 0
      vertex 5.59549 18.7061 0
      vertex -14.0955 3.79389 0
    endloop
  endfacet
  facet normal 0 0 -1
    outer loop
      vertex 5.59549 18.7061 0
      vertex -14.0955 18.2061 0
      vertex -14 18.5 0
    endloop
  endfacet
  facet normal 0 0 -1
    outer loop
      vertex -14.3455 3.97553 0
      vertex -14.0955 18.2061 0
      vertex -14.0955 3.79389 0
    endloop
  endfacet
  facet normal 0 0 -1
    outer loop
      vertex -14.3455 3.97553 0
      vertex -14.3455 18.0245 0
      vertex -14.0955 18.2061 0
    endloop
  endfacet
  facet normal 0 0 -1
    outer loop
      vertex -14.6545 3.97553 0
      vertex -14.3455 18.0245 0
      vertex -14.3455 3.97553 0
    endloop
  endfacet
  facet normal 0 0 -1
    outer loop
      vertex -14.6545 3.97553 0
      vertex -14.6545 18.0245 0
      vertex -14.3455 18.0245 0
    endloop
  endfacet
  facet normal 0 0 -1
    outer loop
      vertex -14.9045 3.79389 0
      vertex -14.6545 18.0245 0
      vertex -14.6545 3.97553 0
    endloop
  endfacet
  facet normal 0 0 -1
    outer loop
      vertex -14.9045 3.79389 0
      vertex -14.9045 18.2061 0
      vertex -14.6545 18.0245 0
    endloop
  endfacet
  facet normal 0 0 -1
    outer loop
      vertex -20 0 0
      vertex -14.9045 3.79389 0
      vertex -15 3.5 0
    endloop
  endfacet
  facet normal -0 0 -1
    outer loop
      vertex -14.9045 3.79389 0
      vertex -20 0 0
      vertex -14.9045 18.2061 0
    endloop
  endfacet
  facet normal 0 0 -1
    outer loop
      vertex 14.9045 8.79389 0
      vertex 15 13.5 0
      vertex 15 8.5 0
    endloop
  endfacet
  facet normal 0 0 -1
    outer loop
      vertex 14.9045 8.79389 0
      vertex 14.9045 13.2061 0
      vertex 15 13.5 0
    endloop
  endfacet
  facet normal 0 0 -1
    outer loop
      vertex 14.6545 8.97553 0
      vertex 14.9045 13.2061 0
      vertex 14.9045 8.79389 0
    endloop
  endfacet
  facet normal 0 0 -1
    outer loop
      vertex 14.6545 8.97553 0
      vertex 14.6545 13.0245 0
      vertex 14.9045 13.2061 0
    endloop
  endfacet
  facet normal 0 0 -1
    outer loop
      vertex 14.3455 8.97553 0
      vertex 14.6545 13.0245 0
      vertex 14.6545 8.97553 0
    endloop
  endfacet
  facet normal 0 0 -1
    outer loop
      vertex 14.3455 8.97553 0
      vertex 14.3455 13.0245 0
      vertex 14.6545 13.0245 0
    endloop
  endfacet
  facet normal 0 0 -1
    outer loop
      vertex 14.0955 8.79389 0
      vertex 14.3455 13.0245 0
      vertex 14.3455 8.97553 0
    endloop
  endfacet
  facet normal 0 0 -1
    outer loop
      vertex 14.0955 8.79389 0
      vertex 14.0955 13.2061 0
      vertex 14.3455 13.0245 0
    endloop
  endfacet
  facet normal 0 0 -1
    outer loop
      vertex 14 8.5 0
      vertex 14.0955 13.2061 0
      vertex 14.0955 8.79389 0
    endloop
  endfacet
  facet normal -0 0 -1
    outer loop
      vertex 14.0955 13.2061 0
      vertex 14 8.5 0
      vertex 14 13.5 0
    endloop
  endfacet
  facet normal 0 0 -1
    outer loop
      vertex 15 13.5 0
      vertex 20 23 0
      vertex 20 0 0
    endloop
  endfacet
  facet normal 0 0 -1
    outer loop
      vertex 20 23 0
      vertex 16.4045 18.7061 0
      vertex 16.5 19 0
    endloop
  endfacet
  facet normal 0 0 -1
    outer loop
      vertex 20 23 0
      vertex 15 13.5 0
      vertex 16.4045 18.7061 0
    endloop
  endfacet
  facet normal 0 0 -1
    outer loop
      vertex 14.9045 13.7939 0
      vertex 16.4045 18.7061 0
      vertex 15 13.5 0
    endloop
  endfacet
  facet normal 0 0 -1
    outer loop
      vertex 16.4045 18.7061 0
      vertex 14.9045 13.7939 0
      vertex 16.1545 18.5245 0
    endloop
  endfacet
  facet normal 0 0 -1
    outer loop
      vertex 14.6545 13.9755 0
      vertex 16.1545 18.5245 0
      vertex 14.9045 13.7939 0
    endloop
  endfacet
  facet normal 0 0 -1
    outer loop
      vertex 15 13.5 0
      vertex 20 0 0
      vertex 15 8.5 0
    endloop
  endfacet
  facet normal 0 0 -1
    outer loop
      vertex 20 0 0
      vertex 14.9045 8.20611 0
      vertex 15 8.5 0
    endloop
  endfacet
  facet normal 0 0 -1
    outer loop
      vertex 20 0 0
      vertex 14.6545 8.02447 0
      vertex 14.9045 8.20611 0
    endloop
  endfacet
  facet normal 0 0 -1
    outer loop
      vertex 20 0 0
      vertex 14.3455 8.02447 0
      vertex 14.6545 8.02447 0
    endloop
  endfacet
  facet normal 0 0 -1
    outer loop
      vertex 20 0 0
      vertex 14.0955 8.20611 0
      vertex 14.3455 8.02447 0
    endloop
  endfacet
  facet normal 0 0 -1
    outer loop
      vertex 6.15451 18.5245 0
      vertex 14 13.5 0
      vertex 14 8.5 0
    endloop
  endfacet
  facet normal 0 0 -1
    outer loop
      vertex 14 13.5 0
      vertex 11.4045 18.7061 0
      vertex 11.5 19 0
    endloop
  endfacet
  facet normal 0 0 -1
    outer loop
      vertex 14 13.5 0
      vertex 11.1545 18.5245 0
      vertex 11.4045 18.7061 0
    endloop
  endfacet
  facet normal 0 0 -1
    outer loop
      vertex 14 13.5 0
      vertex 10.8455 18.5245 0
      vertex 11.1545 18.5245 0
    endloop
  endfacet
  facet normal 0 0 -1
    outer loop
      vertex 14 13.5 0
      vertex 6.15451 18.5245 0
      vertex 10.8455 18.5245 0
    endloop
  endfacet
  facet normal 0 0 -1
    outer loop
      vertex -14 3.5 0
      vertex 14 8.5 0
      vertex 14.0955 8.20611 0
    endloop
  endfacet
  facet normal 0 0 -1
    outer loop
      vertex 10.5955 18.7061 0
      vertex 6.5 19 0
      vertex 10.5 19 0
    endloop
  endfacet
  facet normal 0 0 -1
    outer loop
      vertex 10.8455 18.5245 0
      vertex 6.15451 18.5245 0
      vertex 10.5955 18.7061 0
    endloop
  endfacet
  facet normal 0 0 -1
    outer loop
      vertex 10.5955 18.7061 0
      vertex 6.40451 18.7061 0
      vertex 6.5 19 0
    endloop
  endfacet
  facet normal 0 0 -1
    outer loop
      vertex -14.0955 3.20611 0
      vertex 14.0955 8.20611 0
      vertex 20 0 0
    endloop
  endfacet
  facet normal -0 0 -1
    outer loop
      vertex 10.5955 18.7061 0
      vertex 6.15451 18.5245 0
      vertex 6.40451 18.7061 0
    endloop
  endfacet
  facet normal 0 0 -1
    outer loop
      vertex 14 8.5 0
      vertex 5.84549 18.5245 0
      vertex 6.15451 18.5245 0
    endloop
  endfacet
  facet normal -0 0 -1
    outer loop
      vertex 14 8.5 0
      vertex -14 3.5 0
      vertex 5.84549 18.5245 0
    endloop
  endfacet
  facet normal -0 0 -1
    outer loop
      vertex 5.84549 18.5245 0
      vertex -14.0955 3.79389 0
      vertex 5.59549 18.7061 0
    endloop
  endfacet
  facet normal 0 0 -1
    outer loop
      vertex -14.0955 3.79389 0
      vertex 5.84549 18.5245 0
      vertex -14 3.5 0
    endloop
  endfacet
  facet normal 0 0 -1
    outer loop
      vertex 14.0955 8.20611 0
      vertex -14.0955 3.20611 0
      vertex -14 3.5 0
    endloop
  endfacet
  facet normal 0 0 -1
    outer loop
      vertex 20 0 0
      vertex -14.3455 3.02447 0
      vertex -14.0955 3.20611 0
    endloop
  endfacet
  facet normal 0 0 -1
    outer loop
      vertex -20 0 0
      vertex -14.3455 3.02447 0
      vertex 20 0 0
    endloop
  endfacet
  facet normal 0 0 -1
    outer loop
      vertex -20 23 0
      vertex -14.9045 18.2061 0
      vertex -20 0 0
    endloop
  endfacet
  facet normal -0 0 -1
    outer loop
      vertex -14.9045 3.20611 0
      vertex -20 0 0
      vertex -15 3.5 0
    endloop
  endfacet
  facet normal -0 0 -1
    outer loop
      vertex -14.6545 3.02447 0
      vertex -20 0 0
      vertex -14.9045 3.20611 0
    endloop
  endfacet
  facet normal -0 0 -1
    outer loop
      vertex -14.3455 3.02447 0
      vertex -20 0 0
      vertex -14.6545 3.02447 0
    endloop
  endfacet
  facet normal 0 0 -1
    outer loop
      vertex 16.4045 19.2939 0
      vertex 20 23 0
      vertex 16.5 19 0
    endloop
  endfacet
  facet normal 0 0 -1
    outer loop
      vertex 16.1545 19.4755 0
      vertex 20 23 0
      vertex 16.4045 19.2939 0
    endloop
  endfacet
  facet normal 0 0 -1
    outer loop
      vertex 15.8455 19.4755 0
      vertex 20 23 0
      vertex 16.1545 19.4755 0
    endloop
  endfacet
  facet normal 0 0 -1
    outer loop
      vertex 11.1545 19.4755 0
      vertex 15.8455 19.4755 0
      vertex 15.5955 19.2939 0
    endloop
  endfacet
  facet normal -0 0 -1
    outer loop
      vertex 16.1545 18.5245 0
      vertex 14.6545 13.9755 0
      vertex 15.8455 18.5245 0
    endloop
  endfacet
  facet normal 0 0 -1
    outer loop
      vertex 14.3455 13.9755 0
      vertex 15.8455 18.5245 0
      vertex 14.6545 13.9755 0
    endloop
  endfacet
  facet normal -0 0 -1
    outer loop
      vertex 15.8455 18.5245 0
      vertex 14.3455 13.9755 0
      vertex 15.5955 18.7061 0
    endloop
  endfacet
  facet normal 0 0 -1
    outer loop
      vertex 11.5 19 0
      vertex 15.5955 18.7061 0
      vertex 14.3455 13.9755 0
    endloop
  endfacet
  facet normal 0 0 -1
    outer loop
      vertex 11.5 19 0
      vertex 14.3455 13.9755 0
      vertex 14.0955 13.7939 0
    endloop
  endfacet
  facet normal 0 0 -1
    outer loop
      vertex 11.5 19 0
      vertex 14.0955 13.7939 0
      vertex 14 13.5 0
    endloop
  endfacet
  facet normal 0 0 -1
    outer loop
      vertex 15.5955 18.7061 0
      vertex 11.5 19 0
      vertex 15.5 19 0
    endloop
  endfacet
  facet normal 0 0 -1
    outer loop
      vertex 11.5 19 0
      vertex 15.5955 19.2939 0
      vertex 15.5 19 0
    endloop
  endfacet
  facet normal 0 0 -1
    outer loop
      vertex 11.4045 19.2939 0
      vertex 15.5955 19.2939 0
      vertex 11.5 19 0
    endloop
  endfacet
  facet normal 0 0 -1
    outer loop
      vertex 11.1545 19.4755 0
      vertex 15.5955 19.2939 0
      vertex 11.4045 19.2939 0
    endloop
  endfacet
  facet normal 0 0 -1
    outer loop
      vertex 15.8455 19.4755 0
      vertex 11.1545 19.4755 0
      vertex 20 23 0
    endloop
  endfacet
  facet normal 0 0 -1
    outer loop
      vertex 10.8455 19.4755 0
      vertex 20 23 0
      vertex 11.1545 19.4755 0
    endloop
  endfacet
  facet normal 0 0 -1
    outer loop
      vertex 6.5 19 0
      vertex 10.5955 19.2939 0
      vertex 10.5 19 0
    endloop
  endfacet
  facet normal 0 0 -1
    outer loop
      vertex 6.40451 19.2939 0
      vertex 10.5955 19.2939 0
      vertex 6.5 19 0
    endloop
  endfacet
  facet normal 0 0 -1
    outer loop
      vertex 10.5955 19.2939 0
      vertex 6.40451 19.2939 0
      vertex 10.8455 19.4755 0
    endloop
  endfacet
  facet normal 0 0 -1
    outer loop
      vertex 6.15451 19.4755 0
      vertex 10.8455 19.4755 0
      vertex 6.40451 19.2939 0
    endloop
  endfacet
  facet normal 0 0 -1
    outer loop
      vertex 10.8455 19.4755 0
      vertex 6.15451 19.4755 0
      vertex 20 23 0
    endloop
  endfacet
  facet normal 0 0 -1
    outer loop
      vertex 5.84549 19.4755 0
      vertex 20 23 0
      vertex 6.15451 19.4755 0
    endloop
  endfacet
  facet normal -0 0 -1
    outer loop
      vertex 5.59549 18.7061 0
      vertex -14 18.5 0
      vertex 5.5 19 0
    endloop
  endfacet
  facet normal 0 0 -1
    outer loop
      vertex -14.0955 18.7939 0
      vertex 5.5 19 0
      vertex -14 18.5 0
    endloop
  endfacet
  facet normal -0 0 -1
    outer loop
      vertex 5.5 19 0
      vertex -14.0955 18.7939 0
      vertex 5.59549 19.2939 0
    endloop
  endfacet
  facet normal 0 0 -1
    outer loop
      vertex -14.3455 18.9755 0
      vertex 5.59549 19.2939 0
      vertex -14.0955 18.7939 0
    endloop
  endfacet
  facet normal -0 0 -1
    outer loop
      vertex 5.59549 19.2939 0
      vertex -14.3455 18.9755 0
      vertex 5.84549 19.4755 0
    endloop
  endfacet
  facet normal 0 0 -1
    outer loop
      vertex -20 23 0
      vertex 5.84549 19.4755 0
      vertex -14.3455 18.9755 0
    endloop
  endfacet
  facet normal 0 0 -1
    outer loop
      vertex -20 23 0
      vertex -14.3455 18.9755 0
      vertex -14.6545 18.9755 0
    endloop
  endfacet
  facet normal 0 0 -1
    outer loop
      vertex 5.84549 19.4755 0
      vertex -20 23 0
      vertex 20 23 0
    endloop
  endfacet
  facet normal 0 0 -1
    outer loop
      vertex -14.9045 18.7939 0
      vertex -20 23 0
      vertex -14.6545 18.9755 0
    endloop
  endfacet
  facet normal 0 0 -1
    outer loop
      vertex -15 18.5 0
      vertex -20 23 0
      vertex -14.9045 18.7939 0
    endloop
  endfacet
  facet normal 0 0 -1
    outer loop
      vertex -14.9045 18.2061 0
      vertex -20 23 0
      vertex -15 18.5 0
    endloop
  endfacet
  facet normal -1 0 0
    outer loop
      vertex -20 0 0
      vertex -20 23 1.6
      vertex -20 23 0
    endloop
  endfacet
  facet normal -1 -0 0
    outer loop
      vertex -20 23 1.6
      vertex -20 0 0
      vertex -20 0 1.6
    endloop
  endfacet
  facet normal 0 0 1
    outer loop
      vertex -14.0955 3.79389 1.6
      vertex 5.59549 18.7061 1.6
      vertex -14.0955 18.2061 1.6
    endloop
  endfacet
  facet normal 0 0 1
    outer loop
      vertex 5.59549 18.7061 1.6
      vertex -14.0955 3.79389 1.6
      vertex -14 3.5 1.6
    endloop
  endfacet
  facet normal -0 0 1
    outer loop
      vertex -14.3455 18.0245 1.6
      vertex -14.0955 3.79389 1.6
      vertex -14.0955 18.2061 1.6
    endloop
  endfacet
  facet normal 0 0 1
    outer loop
      vertex -14.3455 18.0245 1.6
      vertex -14.3455 3.97553 1.6
      vertex -14.0955 3.79389 1.6
    endloop
  endfacet
  facet normal -0 0 1
    outer loop
      vertex -14.6545 18.0245 1.6
      vertex -14.3455 3.97553 1.6
      vertex -14.3455 18.0245 1.6
    endloop
  endfacet
  facet normal 0 0 1
    outer loop
      vertex -14.6545 18.0245 1.6
      vertex -14.6545 3.97553 1.6
      vertex -14.3455 3.97553 1.6
    endloop
  endfacet
  facet normal 0 0 1
    outer loop
      vertex -14.9045 18.2061 1.6
      vertex -14.6545 3.97553 1.6
      vertex -14.6545 18.0245 1.6
    endloop
  endfacet
  facet normal 0 0 1
    outer loop
      vertex -14.9045 18.2061 1.6
      vertex -14.9045 3.79389 1.6
      vertex -14.6545 3.97553 1.6
    endloop
  endfacet
  facet normal 0 0 1
    outer loop
      vertex -20 23 1.6
      vertex -14.9045 18.2061 1.6
      vertex -15 18.5 1.6
    endloop
  endfacet
  facet normal 0 0 1
    outer loop
      vertex -14.9045 18.2061 1.6
      vertex -20 0 1.6
      vertex -14.9045 3.79389 1.6
    endloop
  endfacet
  facet normal -0 0 1
    outer loop
      vertex 14.9045 13.2061 1.6
      vertex 15 8.5 1.6
      vertex 15 13.5 1.6
    endloop
  endfacet
  facet normal 0 0 1
    outer loop
      vertex 14.9045 13.2061 1.6
      vertex 14.9045 8.79389 1.6
      vertex 15 8.5 1.6
    endloop
  endfacet
  facet normal -0 0 1
    outer loop
      vertex 14.6545 13.0245 1.6
      vertex 14.9045 8.79389 1.6
      vertex 14.9045 13.2061 1.6
    endloop
  endfacet
  facet normal 0 0 1
    outer loop
      vertex 14.6545 13.0245 1.6
      vertex 14.6545 8.97553 1.6
      vertex 14.9045 8.79389 1.6
    endloop
  endfacet
  facet normal -0 0 1
    outer loop
      vertex 14.3455 13.0245 1.6
      vertex 14.6545 8.97553 1.6
      vertex 14.6545 13.0245 1.6
    endloop
  endfacet
  facet normal 0 0 1
    outer loop
      vertex 14.3455 13.0245 1.6
      vertex 14.3455 8.97553 1.6
      vertex 14.6545 8.97553 1.6
    endloop
  endfacet
  facet normal 0 0 1
    outer loop
      vertex 14.0955 13.2061 1.6
      vertex 14.3455 8.97553 1.6
      vertex 14.3455 13.0245 1.6
    endloop
  endfacet
  facet normal 0 0 1
    outer loop
      vertex 14.0955 13.2061 1.6
      vertex 14.0955 8.79389 1.6
      vertex 14.3455 8.97553 1.6
    endloop
  endfacet
  facet normal 0 0 1
    outer loop
      vertex 14 13.5 1.6
      vertex 14.0955 8.79389 1.6
      vertex 14.0955 13.2061 1.6
    endloop
  endfacet
  facet normal 0 0 1
    outer loop
      vertex 14.0955 8.79389 1.6
      vertex 14 13.5 1.6
      vertex 14 8.5 1.6
    endloop
  endfacet
  facet normal 0 0 1
    outer loop
      vertex 16.4045 18.7061 1.6
      vertex 20 23 1.6
      vertex 16.5 19 1.6
    endloop
  endfacet
  facet normal 0 0 1
    outer loop
      vertex 20 23 1.6
      vertex 16.4045 19.2939 1.6
      vertex 16.5 19 1.6
    endloop
  endfacet
  facet normal 0 0 1
    outer loop
      vertex 20 23 1.6
      vertex 16.1545 19.4755 1.6
      vertex 16.4045 19.2939 1.6
    endloop
  endfacet
  facet normal 0 0 1
    outer loop
      vertex 20 23 1.6
      vertex 15.8455 19.4755 1.6
      vertex 16.1545 19.4755 1.6
    endloop
  endfacet
  facet normal 0 0 1
    outer loop
      vertex 11.1545 19.4755 1.6
      vertex 15.8455 19.4755 1.6
      vertex 20 23 1.6
    endloop
  endfacet
  facet normal 0 0 1
    outer loop
      vertex 16.4045 18.7061 1.6
      vertex 14.9045 13.7939 1.6
      vertex 15 13.5 1.6
    endloop
  endfacet
  facet normal 0 0 1
    outer loop
      vertex 15.5955 18.7061 1.6
      vertex 14.6545 13.9755 1.6
      vertex 14.9045 13.7939 1.6
    endloop
  endfacet
  facet normal 0 0 1
    outer loop
      vertex 15.5955 18.7061 1.6
      vertex 14.3455 13.9755 1.6
      vertex 14.6545 13.9755 1.6
    endloop
  endfacet
  facet normal 0 0 1
    outer loop
      vertex 15.5955 18.7061 1.6
      vertex 11.4045 18.7061 1.6
      vertex 14.3455 13.9755 1.6
    endloop
  endfacet
  facet normal -0 0 1
    outer loop
      vertex 11.1545 18.5245 1.6
      vertex 14.3455 13.9755 1.6
      vertex 11.4045 18.7061 1.6
    endloop
  endfacet
  facet normal 0 0 1
    outer loop
      vertex 14.3455 13.9755 1.6
      vertex 11.1545 18.5245 1.6
      vertex 14.0955 13.7939 1.6
    endloop
  endfacet
  facet normal 0 0 1
    outer loop
      vertex 11.4045 18.7061 1.6
      vertex 15.5 19 1.6
      vertex 11.5 19 1.6
    endloop
  endfacet
  facet normal 0 0 1
    outer loop
      vertex 15.5955 19.2939 1.6
      vertex 11.5 19 1.6
      vertex 15.5 19 1.6
    endloop
  endfacet
  facet normal 0 0 1
    outer loop
      vertex 15.8455 19.4755 1.6
      vertex 11.1545 19.4755 1.6
      vertex 15.5955 19.2939 1.6
    endloop
  endfacet
  facet normal 0 0 1
    outer loop
      vertex 15.5955 19.2939 1.6
      vertex 11.4045 19.2939 1.6
      vertex 11.5 19 1.6
    endloop
  endfacet
  facet normal 0 0 1
    outer loop
      vertex 15.5955 19.2939 1.6
      vertex 11.1545 19.4755 1.6
      vertex 11.4045 19.2939 1.6
    endloop
  endfacet
  facet normal 0 0 1
    outer loop
      vertex 20 23 1.6
      vertex 10.8455 19.4755 1.6
      vertex 11.1545 19.4755 1.6
    endloop
  endfacet
  facet normal 0 0 1
    outer loop
      vertex 10.5955 19.2939 1.6
      vertex 6.5 19 1.6
      vertex 10.5 19 1.6
    endloop
  endfacet
  facet normal 0 0 1
    outer loop
      vertex 6.40451 19.2939 1.6
      vertex 10.5955 19.2939 1.6
      vertex 10.8455 19.4755 1.6
    endloop
  endfacet
  facet normal 0 0 1
    outer loop
      vertex 6.15451 19.4755 1.6
      vertex 10.8455 19.4755 1.6
      vertex 20 23 1.6
    endloop
  endfacet
  facet normal 0 0 1
    outer loop
      vertex 10.5955 19.2939 1.6
      vertex 6.40451 19.2939 1.6
      vertex 6.5 19 1.6
    endloop
  endfacet
  facet normal 0 0 1
    outer loop
      vertex 10.8455 19.4755 1.6
      vertex 6.15451 19.4755 1.6
      vertex 6.40451 19.2939 1.6
    endloop
  endfacet
  facet normal 0 0 1
    outer loop
      vertex 20 23 1.6
      vertex 5.84549 19.4755 1.6
      vertex 6.15451 19.4755 1.6
    endloop
  endfacet
  facet normal 0 0 1
    outer loop
      vertex -14.0955 18.7939 1.6
      vertex 5.5 19 1.6
      vertex 5.59549 19.2939 1.6
    endloop
  endfacet
  facet normal 0 0 1
    outer loop
      vertex -14.3455 18.9755 1.6
      vertex 5.59549 19.2939 1.6
      vertex 5.84549 19.4755 1.6
    endloop
  endfacet
  facet normal -0 0 1
    outer loop
      vertex -20 23 1.6
      vertex 5.84549 19.4755 1.6
      vertex 20 23 1.6
    endloop
  endfacet
  facet normal 0 0 1
    outer loop
      vertex 5.5 19 1.6
      vertex -14.0955 18.7939 1.6
      vertex -14 18.5 1.6
    endloop
  endfacet
  facet normal 0 0 1
    outer loop
      vertex 5.59549 19.2939 1.6
      vertex -14.3455 18.9755 1.6
      vertex -14.0955 18.7939 1.6
    endloop
  endfacet
  facet normal 0 0 1
    outer loop
      vertex 5.84549 19.4755 1.6
      vertex -20 23 1.6
      vertex -14.3455 18.9755 1.6
    endloop
  endfacet
  facet normal 0 0 1
    outer loop
      vertex -14.9045 18.2061 1.6
      vertex -20 23 1.6
      vertex -20 0 1.6
    endloop
  endfacet
  facet normal 0 0 1
    outer loop
      vertex -14.9045 18.7939 1.6
      vertex -20 23 1.6
      vertex -15 18.5 1.6
    endloop
  endfacet
  facet normal 0 0 1
    outer loop
      vertex -14.6545 18.9755 1.6
      vertex -20 23 1.6
      vertex -14.9045 18.7939 1.6
    endloop
  endfacet
  facet normal 0 0 1
    outer loop
      vertex -14.3455 18.9755 1.6
      vertex -20 23 1.6
      vertex -14.6545 18.9755 1.6
    endloop
  endfacet
  facet normal 0 0 1
    outer loop
      vertex 15 13.5 1.6
      vertex 20 23 1.6
      vertex 16.4045 18.7061 1.6
    endloop
  endfacet
  facet normal 0 0 1
    outer loop
      vertex 14.9045 13.7939 1.6
      vertex 16.4045 18.7061 1.6
      vertex 16.1545 18.5245 1.6
    endloop
  endfacet
  facet normal 0 0 1
    outer loop
      vertex 14.9045 13.7939 1.6
      vertex 16.1545 18.5245 1.6
      vertex 15.8455 18.5245 1.6
    endloop
  endfacet
  facet normal 0 0 1
    outer loop
      vertex 14.9045 13.7939 1.6
      vertex 15.8455 18.5245 1.6
      vertex 15.5955 18.7061 1.6
    endloop
  endfacet
  facet normal 0 0 1
    outer loop
      vertex 11.4045 18.7061 1.6
      vertex 15.5955 18.7061 1.6
      vertex 15.5 19 1.6
    endloop
  endfacet
  facet normal 0 0 1
    outer loop
      vertex 20 23 1.6
      vertex 15 13.5 1.6
      vertex 20 0 1.6
    endloop
  endfacet
  facet normal -0 0 1
    outer loop
      vertex 15 8.5 1.6
      vertex 20 0 1.6
      vertex 15 13.5 1.6
    endloop
  endfacet
  facet normal -0 0 1
    outer loop
      vertex 14.9045 8.20611 1.6
      vertex 20 0 1.6
      vertex 15 8.5 1.6
    endloop
  endfacet
  facet normal -0 0 1
    outer loop
      vertex 14.6545 8.02447 1.6
      vertex 20 0 1.6
      vertex 14.9045 8.20611 1.6
    endloop
  endfacet
  facet normal -0 0 1
    outer loop
      vertex 14.3455 8.02447 1.6
      vertex 20 0 1.6
      vertex 14.6545 8.02447 1.6
    endloop
  endfacet
  facet normal 0 0 1
    outer loop
      vertex 14.0955 8.20611 1.6
      vertex 20 0 1.6
      vertex 14.3455 8.02447 1.6
    endloop
  endfacet
  facet normal -0 0 1
    outer loop
      vertex 10.8455 18.5245 1.6
      vertex 14.0955 13.7939 1.6
      vertex 11.1545 18.5245 1.6
    endloop
  endfacet
  facet normal 0 0 1
    outer loop
      vertex 14.0955 13.7939 1.6
      vertex 10.8455 18.5245 1.6
      vertex 14 13.5 1.6
    endloop
  endfacet
  facet normal -0 0 1
    outer loop
      vertex 6.15451 18.5245 1.6
      vertex 14 13.5 1.6
      vertex 10.8455 18.5245 1.6
    endloop
  endfacet
  facet normal 0 0 1
    outer loop
      vertex 6.15451 18.5245 1.6
      vertex 10.8455 18.5245 1.6
      vertex 10.5955 18.7061 1.6
    endloop
  endfacet
  facet normal 0 0 1
    outer loop
      vertex 14 13.5 1.6
      vertex 6.15451 18.5245 1.6
      vertex 14 8.5 1.6
    endloop
  endfacet
  facet normal -0 0 1
    outer loop
      vertex 6.5 19 1.6
      vertex 10.5955 18.7061 1.6
      vertex 10.5 19 1.6
    endloop
  endfacet
  facet normal 0 0 1
    outer loop
      vertex 6.40451 18.7061 1.6
      vertex 10.5955 18.7061 1.6
      vertex 6.5 19 1.6
    endloop
  endfacet
  facet normal 0 0 1
    outer loop
      vertex 6.15451 18.5245 1.6
      vertex 10.5955 18.7061 1.6
      vertex 6.40451 18.7061 1.6
    endloop
  endfacet
  facet normal -0 0 1
    outer loop
      vertex 5.84549 18.5245 1.6
      vertex 14 8.5 1.6
      vertex 6.15451 18.5245 1.6
    endloop
  endfacet
  facet normal 0 0 1
    outer loop
      vertex -14 3.5 1.6
      vertex 14 8.5 1.6
      vertex 5.84549 18.5245 1.6
    endloop
  endfacet
  facet normal 0 0 1
    outer loop
      vertex 14 8.5 1.6
      vertex -14 3.5 1.6
      vertex 14.0955 8.20611 1.6
    endloop
  endfacet
  facet normal 0 0 1
    outer loop
      vertex -14 3.5 1.6
      vertex 5.84549 18.5245 1.6
      vertex 5.59549 18.7061 1.6
    endloop
  endfacet
  facet normal 0 0 1
    outer loop
      vertex -14 18.5 1.6
      vertex 5.59549 18.7061 1.6
      vertex 5.5 19 1.6
    endloop
  endfacet
  facet normal 0 0 1
    outer loop
      vertex -14.0955 18.2061 1.6
      vertex 5.59549 18.7061 1.6
      vertex -14 18.5 1.6
    endloop
  endfacet
  facet normal 0 0 1
    outer loop
      vertex -14.0955 3.20611 1.6
      vertex 14.0955 8.20611 1.6
      vertex -14 3.5 1.6
    endloop
  endfacet
  facet normal 0 0 1
    outer loop
      vertex 14.0955 8.20611 1.6
      vertex -14.0955 3.20611 1.6
      vertex 20 0 1.6
    endloop
  endfacet
  facet normal -0 0 1
    outer loop
      vertex -14.3455 3.02447 1.6
      vertex 20 0 1.6
      vertex -14.0955 3.20611 1.6
    endloop
  endfacet
  facet normal 0 0 1
    outer loop
      vertex -20 0 1.6
      vertex -14.3455 3.02447 1.6
      vertex -14.6545 3.02447 1.6
    endloop
  endfacet
  facet normal 0 0 1
    outer loop
      vertex -14.3455 3.02447 1.6
      vertex -20 0 1.6
      vertex 20 0 1.6
    endloop
  endfacet
  facet normal 0 0 1
    outer loop
      vertex -14.9045 3.20611 1.6
      vertex -20 0 1.6
      vertex -14.6545 3.02447 1.6
    endloop
  endfacet
  facet normal 0 0 1
    outer loop
      vertex -15 3.5 1.6
      vertex -20 0 1.6
      vertex -14.9045 3.20611 1.6
    endloop
  endfacet
  facet normal 0 0 1
    outer loop
      vertex -14.9045 3.79389 1.6
      vertex -20 0 1.6
      vertex -15 3.5 1.6
    endloop
  endfacet
  facet normal 0 1 -0
    outer loop
      vertex 20 23 0
      vertex -20 23 1.6
      vertex 20 23 1.6
    endloop
  endfacet
  facet normal 0 1 0
    outer loop
      vertex -20 23 1.6
      vertex 20 23 0
      vertex -20 23 0
    endloop
  endfacet
  facet normal 1 -0 0
    outer loop
      vertex 20 0 1.6
      vertex 20 23 0
      vertex 20 23 1.6
    endloop
  endfacet
  facet normal 1 0 0
    outer loop
      vertex 20 23 0
      vertex 20 0 1.6
      vertex 20 0 0
    endloop
  endfacet
  facet normal 0 -1 0
    outer loop
      vertex -20 0 0
      vertex 20 0 1.6
      vertex -20 0 1.6
    endloop
  endfacet
  facet normal 0 -1 -0
    outer loop
      vertex 20 0 1.6
      vertex -20 0 0
      vertex 20 0 0
    endloop
  endfacet
endsolid OpenSCAD_Model
