  0
SECTION
  2
BLOCKS
  0
ENDSEC
  0
SECTION
  2
ENTITIES
  0
LINE
  8
0
 10
-22.4924
 20
-20.6743
 11
-22.4696
 21
-20.8473
  0
LINE
  8
0
 10
-22.4696
 20
-20.8473
 11
-22.4318
 21
-21.0176
  0
LINE
  8
0
 10
-22.4318
 20
-21.0176
 11
-22.3794
 21
-21.184
  0
LINE
  8
0
 10
-22.3794
 20
-21.184
 11
-22.3126
 21
-21.3452
  0
LINE
  8
0
 10
-22.3126
 20
-21.3452
 11
-22.232
 21
-21.5
  0
LINE
  8
0
 10
-22.232
 20
-21.5
 11
-22.1383
 21
-21.6471
  0
LINE
  8
0
 10
-22.1383
 20
-21.6471
 11
-22.0321
 21
-21.7856
  0
LINE
  8
0
 10
-22.0321
 20
-21.7856
 11
-21.9142
 21
-21.9142
  0
LINE
  8
0
 10
-21.9142
 20
-21.9142
 11
-21.7856
 21
-22.0321
  0
LINE
  8
0
 10
-21.7856
 20
-22.0321
 11
-21.6471
 21
-22.1383
  0
LINE
  8
0
 10
-21.6471
 20
-22.1383
 11
-21.5
 21
-22.232
  0
LINE
  8
0
 10
-21.5
 20
-22.232
 11
-21.3452
 21
-22.3126
  0
LINE
  8
0
 10
-21.3452
 20
-22.3126
 11
-21.184
 21
-22.3794
  0
LINE
  8
0
 10
-21.184
 20
-22.3794
 11
-21.0176
 21
-22.4318
  0
LINE
  8
0
 10
-21.0176
 20
-22.4318
 11
-20.8473
 21
-22.4696
  0
LINE
  8
0
 10
-20.8473
 20
-22.4696
 11
-20.6743
 21
-22.4924
  0
LINE
  8
0
 10
-20.6743
 20
-22.4924
 11
-20.5
 21
-22.5
  0
LINE
  8
0
 10
-20.5
 20
-22.5
 11
20.5
 21
-22.5
  0
LINE
  8
0
 10
20.5
 20
-22.5
 11
20.6743
 21
-22.4924
  0
LINE
  8
0
 10
20.6743
 20
-22.4924
 11
20.8473
 21
-22.4696
  0
LINE
  8
0
 10
20.8473
 20
-22.4696
 11
21.0176
 21
-22.4318
  0
LINE
  8
0
 10
21.0176
 20
-22.4318
 11
21.184
 21
-22.3794
  0
LINE
  8
0
 10
21.184
 20
-22.3794
 11
21.3452
 21
-22.3126
  0
LINE
  8
0
 10
21.3452
 20
-22.3126
 11
21.5
 21
-22.232
  0
LINE
  8
0
 10
21.5
 20
-22.232
 11
21.6471
 21
-22.1383
  0
LINE
  8
0
 10
21.6471
 20
-22.1383
 11
21.7856
 21
-22.0321
  0
LINE
  8
0
 10
21.7856
 20
-22.0321
 11
21.9142
 21
-21.9142
  0
LINE
  8
0
 10
21.9142
 20
-21.9142
 11
22.0321
 21
-21.7856
  0
LINE
  8
0
 10
22.0321
 20
-21.7856
 11
22.1383
 21
-21.6471
  0
LINE
  8
0
 10
22.1383
 20
-21.6471
 11
22.232
 21
-21.5
  0
LINE
  8
0
 10
22.232
 20
-21.5
 11
22.3126
 21
-21.3452
  0
LINE
  8
0
 10
22.3126
 20
-21.3452
 11
22.3794
 21
-21.184
  0
LINE
  8
0
 10
22.3794
 20
-21.184
 11
22.4318
 21
-21.0176
  0
LINE
  8
0
 10
22.4318
 20
-21.0176
 11
22.4696
 21
-20.8473
  0
LINE
  8
0
 10
22.4696
 20
-20.8473
 11
22.4924
 21
-20.6743
  0
LINE
  8
0
 10
22.4924
 20
-20.6743
 11
22.5
 21
-20.5
  0
LINE
  8
0
 10
22.5
 20
-20.5
 11
22.5
 21
-4
  0
LINE
  8
0
 10
22.5
 20
-4
 11
15
 21
-4
  0
LINE
  8
0
 10
15
 20
-4
 11
15
 21
4
  0
LINE
  8
0
 10
15
 20
4
 11
22.5
 21
4
  0
LINE
  8
0
 10
22.5
 20
4
 11
22.5
 21
20.5
  0
LINE
  8
0
 10
22.5
 20
20.5
 11
22.4924
 21
20.6743
  0
LINE
  8
0
 10
22.4924
 20
20.6743
 11
22.4696
 21
20.8473
  0
LINE
  8
0
 10
22.4696
 20
20.8473
 11
22.4318
 21
21.0176
  0
LINE
  8
0
 10
22.4318
 20
21.0176
 11
22.3794
 21
21.184
  0
LINE
  8
0
 10
22.3794
 20
21.184
 11
22.3126
 21
21.3452
  0
LINE
  8
0
 10
22.3126
 20
21.3452
 11
22.232
 21
21.5
  0
LINE
  8
0
 10
22.232
 20
21.5
 11
22.1383
 21
21.6471
  0
LINE
  8
0
 10
22.1383
 20
21.6471
 11
22.0321
 21
21.7856
  0
LINE
  8
0
 10
22.0321
 20
21.7856
 11
21.9142
 21
21.9142
  0
LINE
  8
0
 10
21.9142
 20
21.9142
 11
21.7856
 21
22.0321
  0
LINE
  8
0
 10
21.7856
 20
22.0321
 11
21.6471
 21
22.1383
  0
LINE
  8
0
 10
21.6471
 20
22.1383
 11
21.5
 21
22.232
  0
LINE
  8
0
 10
21.5
 20
22.232
 11
21.3452
 21
22.3126
  0
LINE
  8
0
 10
21.3452
 20
22.3126
 11
21.184
 21
22.3794
  0
LINE
  8
0
 10
21.184
 20
22.3794
 11
21.0176
 21
22.4318
  0
LINE
  8
0
 10
21.0176
 20
22.4318
 11
20.8473
 21
22.4696
  0
LINE
  8
0
 10
20.8473
 20
22.4696
 11
20.6743
 21
22.4924
  0
LINE
  8
0
 10
20.6743
 20
22.4924
 11
20.5
 21
22.5
  0
LINE
  8
0
 10
20.5
 20
22.5
 11
-20.5
 21
22.5
  0
LINE
  8
0
 10
-20.5
 20
22.5
 11
-20.6743
 21
22.4924
  0
LINE
  8
0
 10
-20.6743
 20
22.4924
 11
-20.8473
 21
22.4696
  0
LINE
  8
0
 10
-20.8473
 20
22.4696
 11
-21.0176
 21
22.4318
  0
LINE
  8
0
 10
-21.0176
 20
22.4318
 11
-21.184
 21
22.3794
  0
LINE
  8
0
 10
-21.184
 20
22.3794
 11
-21.3452
 21
22.3126
  0
LINE
  8
0
 10
-21.3452
 20
22.3126
 11
-21.5
 21
22.232
  0
LINE
  8
0
 10
-21.5
 20
22.232
 11
-21.6471
 21
22.1383
  0
LINE
  8
0
 10
-21.6471
 20
22.1383
 11
-21.7856
 21
22.0321
  0
LINE
  8
0
 10
-21.7856
 20
22.0321
 11
-21.9142
 21
21.9142
  0
LINE
  8
0
 10
-21.9142
 20
21.9142
 11
-22.0321
 21
21.7856
  0
LINE
  8
0
 10
-22.0321
 20
21.7856
 11
-22.1383
 21
21.6471
  0
LINE
  8
0
 10
-22.1383
 20
21.6471
 11
-22.232
 21
21.5
  0
LINE
  8
0
 10
-22.232
 20
21.5
 11
-22.3126
 21
21.3452
  0
LINE
  8
0
 10
-22.3126
 20
21.3452
 11
-22.3794
 21
21.184
  0
LINE
  8
0
 10
-22.3794
 20
21.184
 11
-22.4318
 21
21.0176
  0
LINE
  8
0
 10
-22.4318
 20
21.0176
 11
-22.4696
 21
20.8473
  0
LINE
  8
0
 10
-22.4696
 20
20.8473
 11
-22.4924
 21
20.6743
  0
LINE
  8
0
 10
-22.4924
 20
20.6743
 11
-22.5
 21
20.5
  0
LINE
  8
0
 10
-22.5
 20
20.5
 11
-22.5
 21
4
  0
LINE
  8
0
 10
-22.5
 20
4
 11
-15
 21
4
  0
LINE
  8
0
 10
-15
 20
4
 11
-15
 21
-4
  0
LINE
  8
0
 10
-15
 20
-4
 11
-22.5
 21
-4
  0
LINE
  8
0
 10
-22.5
 20
-4
 11
-22.5
 21
-20.5
  0
LINE
  8
0
 10
-22.5
 20
-20.5
 11
-22.4924
 21
-20.6743
  0
ENDSEC
  0
SECTION
  2
OBJECTS
  0
DICTIONARY
  0
ENDSEC
  0
EOF
