solid OpenSCAD_Model
  facet normal 0.994522 -0.104526 0
    outer loop
      vertex 6.21124 -1.32024 2
      vertex 6.35 0 0
      vertex 6.35 0 2
    endloop
  endfacet
  facet normal 0.994522 -0.104526 0
    outer loop
      vertex 6.35 0 0
      vertex 6.21124 -1.32024 2
      vertex 6.21124 -1.32024 0
    endloop
  endfacet
  facet normal 0.866028 0.499996 0
    outer loop
      vertex 5.80101 2.58278 2
      vertex 5.13726 3.73244 0
      vertex 5.13726 3.73244 2
    endloop
  endfacet
  facet normal 0.866028 0.499996 0
    outer loop
      vertex 5.13726 3.73244 0
      vertex 5.80101 2.58278 2
      vertex 5.80101 2.58278 0
    endloop
  endfacet
  facet normal -0.207908 -0.978148 0
    outer loop
      vertex -1.96226 -6.03921 0
      vertex -0.663755 -6.31521 2
      vertex -1.96226 -6.03921 2
    endloop
  endfacet
  facet normal -0.207908 -0.978148 -0
    outer loop
      vertex -0.663755 -6.31521 2
      vertex -1.96226 -6.03921 0
      vertex -0.663755 -6.31521 0
    endloop
  endfacet
  facet normal 0.994522 0.104526 0
    outer loop
      vertex 6.35 0 2
      vertex 6.21124 1.32024 0
      vertex 6.21124 1.32024 2
    endloop
  endfacet
  facet normal 0.994522 0.104526 0
    outer loop
      vertex 6.21124 1.32024 0
      vertex 6.35 0 2
      vertex 6.35 0 0
    endloop
  endfacet
  facet normal -0.406739 -0.913545 0
    outer loop
      vertex -3.175 -5.49926 0
      vertex -1.96226 -6.03921 2
      vertex -3.175 -5.49926 2
    endloop
  endfacet
  facet normal -0.406739 -0.913545 -0
    outer loop
      vertex -1.96226 -6.03921 2
      vertex -3.175 -5.49926 0
      vertex -1.96226 -6.03921 0
    endloop
  endfacet
  facet normal -0.866028 -0.499996 0
    outer loop
      vertex -5.13726 -3.73244 0
      vertex -5.80101 -2.58278 2
      vertex -5.80101 -2.58278 0
    endloop
  endfacet
  facet normal -0.866028 -0.499996 0
    outer loop
      vertex -5.80101 -2.58278 2
      vertex -5.13726 -3.73244 0
      vertex -5.13726 -3.73244 2
    endloop
  endfacet
  facet normal 0.406739 0.913545 -0
    outer loop
      vertex 3.175 5.49926 0
      vertex 1.96226 6.03921 2
      vertex 3.175 5.49926 2
    endloop
  endfacet
  facet normal 0.406739 0.913545 0
    outer loop
      vertex 1.96226 6.03921 2
      vertex 3.175 5.49926 0
      vertex 1.96226 6.03921 0
    endloop
  endfacet
  facet normal 0.951055 -0.309021 0
    outer loop
      vertex 5.80101 -2.58278 2
      vertex 6.21124 -1.32024 0
      vertex 6.21124 -1.32024 2
    endloop
  endfacet
  facet normal 0.951055 -0.309021 0
    outer loop
      vertex 6.21124 -1.32024 0
      vertex 5.80101 -2.58278 2
      vertex 5.80101 -2.58278 0
    endloop
  endfacet
  facet normal 0.406739 -0.913545 0
    outer loop
      vertex 1.96226 -6.03921 0
      vertex 3.175 -5.49926 2
      vertex 1.96226 -6.03921 2
    endloop
  endfacet
  facet normal 0.406739 -0.913545 0
    outer loop
      vertex 3.175 -5.49926 2
      vertex 1.96226 -6.03921 0
      vertex 3.175 -5.49926 0
    endloop
  endfacet
  facet normal -0.951055 0.309021 0
    outer loop
      vertex -6.21124 1.32024 0
      vertex -5.80101 2.58278 2
      vertex -5.80101 2.58278 0
    endloop
  endfacet
  facet normal -0.951055 0.309021 0
    outer loop
      vertex -5.80101 2.58278 2
      vertex -6.21124 1.32024 0
      vertex -6.21124 1.32024 2
    endloop
  endfacet
  facet normal 0 1 -0
    outer loop
      vertex 0.663755 6.31521 0
      vertex -0.663755 6.31521 2
      vertex 0.663755 6.31521 2
    endloop
  endfacet
  facet normal 0 1 0
    outer loop
      vertex -0.663755 6.31521 2
      vertex 0.663755 6.31521 0
      vertex -0.663755 6.31521 0
    endloop
  endfacet
  facet normal -0.994522 0.104526 0
    outer loop
      vertex -6.35 0 0
      vertex -6.21124 1.32024 2
      vertex -6.21124 1.32024 0
    endloop
  endfacet
  facet normal -0.994522 0.104526 0
    outer loop
      vertex -6.21124 1.32024 2
      vertex -6.35 0 0
      vertex -6.35 0 2
    endloop
  endfacet
  facet normal -0.994522 -0.104526 0
    outer loop
      vertex -6.21124 -1.32024 0
      vertex -6.35 0 2
      vertex -6.35 0 0
    endloop
  endfacet
  facet normal -0.994522 -0.104526 0
    outer loop
      vertex -6.35 0 2
      vertex -6.21124 -1.32024 0
      vertex -6.21124 -1.32024 2
    endloop
  endfacet
  facet normal 0.866028 -0.499996 0
    outer loop
      vertex 5.13726 -3.73244 2
      vertex 5.80101 -2.58278 0
      vertex 5.80101 -2.58278 2
    endloop
  endfacet
  facet normal 0.866028 -0.499996 0
    outer loop
      vertex 5.80101 -2.58278 0
      vertex 5.13726 -3.73244 2
      vertex 5.13726 -3.73244 0
    endloop
  endfacet
  facet normal 0 -1 0
    outer loop
      vertex -0.663755 -6.31521 0
      vertex 0.663755 -6.31521 2
      vertex -0.663755 -6.31521 2
    endloop
  endfacet
  facet normal 0 -1 -0
    outer loop
      vertex 0.663755 -6.31521 2
      vertex -0.663755 -6.31521 0
      vertex 0.663755 -6.31521 0
    endloop
  endfacet
  facet normal -0.866028 0.499996 0
    outer loop
      vertex -5.80101 2.58278 0
      vertex -5.13726 3.73244 2
      vertex -5.13726 3.73244 0
    endloop
  endfacet
  facet normal -0.866028 0.499996 0
    outer loop
      vertex -5.13726 3.73244 2
      vertex -5.80101 2.58278 0
      vertex -5.80101 2.58278 2
    endloop
  endfacet
  facet normal 0.207908 -0.978148 0
    outer loop
      vertex 0.663755 -6.31521 0
      vertex 1.96226 -6.03921 2
      vertex 0.663755 -6.31521 2
    endloop
  endfacet
  facet normal 0.207908 -0.978148 0
    outer loop
      vertex 1.96226 -6.03921 2
      vertex 0.663755 -6.31521 0
      vertex 1.96226 -6.03921 0
    endloop
  endfacet
  facet normal 0.743143 -0.669132 0
    outer loop
      vertex 4.24898 -4.71897 2
      vertex 5.13726 -3.73244 0
      vertex 5.13726 -3.73244 2
    endloop
  endfacet
  facet normal 0.743143 -0.669132 0
    outer loop
      vertex 5.13726 -3.73244 0
      vertex 4.24898 -4.71897 2
      vertex 4.24898 -4.71897 0
    endloop
  endfacet
  facet normal -0.207908 0.978148 0
    outer loop
      vertex -0.663755 6.31521 0
      vertex -1.96226 6.03921 2
      vertex -0.663755 6.31521 2
    endloop
  endfacet
  facet normal -0.207908 0.978148 0
    outer loop
      vertex -1.96226 6.03921 2
      vertex -0.663755 6.31521 0
      vertex -1.96226 6.03921 0
    endloop
  endfacet
  facet normal -0.406739 0.913545 0
    outer loop
      vertex -1.96226 6.03921 0
      vertex -3.175 5.49926 2
      vertex -1.96226 6.03921 2
    endloop
  endfacet
  facet normal -0.406739 0.913545 0
    outer loop
      vertex -3.175 5.49926 2
      vertex -1.96226 6.03921 0
      vertex -3.175 5.49926 0
    endloop
  endfacet
  facet normal 0.743143 0.669132 0
    outer loop
      vertex 5.13726 3.73244 2
      vertex 4.24898 4.71897 0
      vertex 4.24898 4.71897 2
    endloop
  endfacet
  facet normal 0.743143 0.669132 0
    outer loop
      vertex 4.24898 4.71897 0
      vertex 5.13726 3.73244 2
      vertex 5.13726 3.73244 0
    endloop
  endfacet
  facet normal 0 0 -1
    outer loop
      vertex 2.85 -2.85 0
      vertex 6.35 0 0
      vertex 6.21124 -1.32024 0
    endloop
  endfacet
  facet normal 0 0 -1
    outer loop
      vertex 2.85 -2.85 0
      vertex 6.21124 -1.32024 0
      vertex 5.80101 -2.58278 0
    endloop
  endfacet
  facet normal 0 0 -1
    outer loop
      vertex 2.85 2.85 0
      vertex 6.35 0 0
      vertex 2.85 -2.85 0
    endloop
  endfacet
  facet normal 0 0 -1
    outer loop
      vertex 2.85 -2.85 0
      vertex 5.80101 -2.58278 0
      vertex 5.13726 -3.73244 0
    endloop
  endfacet
  facet normal 0 0 -1
    outer loop
      vertex 6.35 0 0
      vertex 2.85 2.85 0
      vertex 6.21124 1.32024 0
    endloop
  endfacet
  facet normal 0 0 -1
    outer loop
      vertex 2.85 -2.85 0
      vertex 5.13726 -3.73244 0
      vertex 4.24898 -4.71897 0
    endloop
  endfacet
  facet normal 0 0 -1
    outer loop
      vertex 6.21124 1.32024 0
      vertex 2.85 2.85 0
      vertex 5.80101 2.58278 0
    endloop
  endfacet
  facet normal 0 0 -1
    outer loop
      vertex 2.85 -2.85 0
      vertex 4.24898 -4.71897 0
      vertex 3.175 -5.49926 0
    endloop
  endfacet
  facet normal 0 0 -1
    outer loop
      vertex 5.80101 2.58278 0
      vertex 2.85 2.85 0
      vertex 5.13726 3.73244 0
    endloop
  endfacet
  facet normal -0 0 -1
    outer loop
      vertex 5.13726 3.73244 0
      vertex 2.85 2.85 0
      vertex 4.24898 4.71897 0
    endloop
  endfacet
  facet normal 0 0 -1
    outer loop
      vertex 1.96226 -6.03921 0
      vertex 2.85 -2.85 0
      vertex 3.175 -5.49926 0
    endloop
  endfacet
  facet normal 0 0 -1
    outer loop
      vertex 0.663755 -6.31521 0
      vertex 2.85 -2.85 0
      vertex 1.96226 -6.03921 0
    endloop
  endfacet
  facet normal 0 0 -1
    outer loop
      vertex -0.663755 -6.31521 0
      vertex 2.85 -2.85 0
      vertex 0.663755 -6.31521 0
    endloop
  endfacet
  facet normal 0 0 -1
    outer loop
      vertex -2.85 -2.85 0
      vertex -0.663755 -6.31521 0
      vertex -1.96226 -6.03921 0
    endloop
  endfacet
  facet normal 0 0 -1
    outer loop
      vertex -0.663755 -6.31521 0
      vertex -2.85 -2.85 0
      vertex 2.85 -2.85 0
    endloop
  endfacet
  facet normal 0 0 -1
    outer loop
      vertex -4.24898 -4.71897 0
      vertex -2.85 -2.85 0
      vertex -3.175 -5.49926 0
    endloop
  endfacet
  facet normal 0 0 -1
    outer loop
      vertex -3.175 -5.49926 0
      vertex -2.85 -2.85 0
      vertex -1.96226 -6.03921 0
    endloop
  endfacet
  facet normal -0 0 -1
    outer loop
      vertex 4.24898 4.71897 0
      vertex 2.85 2.85 0
      vertex 3.175 5.49926 0
    endloop
  endfacet
  facet normal 0 0 -1
    outer loop
      vertex 2.85 2.85 0
      vertex 1.96226 6.03921 0
      vertex 3.175 5.49926 0
    endloop
  endfacet
  facet normal 0 0 -1
    outer loop
      vertex 2.85 2.85 0
      vertex 0.663755 6.31521 0
      vertex 1.96226 6.03921 0
    endloop
  endfacet
  facet normal 0 0 -1
    outer loop
      vertex 2.85 2.85 0
      vertex -0.663755 6.31521 0
      vertex 0.663755 6.31521 0
    endloop
  endfacet
  facet normal 0 0 -1
    outer loop
      vertex -2.85 2.85 0
      vertex -0.663755 6.31521 0
      vertex 2.85 2.85 0
    endloop
  endfacet
  facet normal 0 0 -1
    outer loop
      vertex -0.663755 6.31521 0
      vertex -2.85 2.85 0
      vertex -1.96226 6.03921 0
    endloop
  endfacet
  facet normal 0 0 -1
    outer loop
      vertex -2.85 2.85 0
      vertex -3.175 5.49926 0
      vertex -1.96226 6.03921 0
    endloop
  endfacet
  facet normal 0 0 -1
    outer loop
      vertex -5.13726 -3.73244 0
      vertex -2.85 -2.85 0
      vertex -4.24898 -4.71897 0
    endloop
  endfacet
  facet normal 0 0 -1
    outer loop
      vertex -5.80101 -2.58278 0
      vertex -2.85 -2.85 0
      vertex -5.13726 -3.73244 0
    endloop
  endfacet
  facet normal 0 0 -1
    outer loop
      vertex -2.85 2.85 0
      vertex -4.24898 4.71897 0
      vertex -3.175 5.49926 0
    endloop
  endfacet
  facet normal 0 0 -1
    outer loop
      vertex -6.21124 -1.32024 0
      vertex -2.85 -2.85 0
      vertex -5.80101 -2.58278 0
    endloop
  endfacet
  facet normal 0 0 -1
    outer loop
      vertex -2.85 2.85 0
      vertex -5.13726 3.73244 0
      vertex -4.24898 4.71897 0
    endloop
  endfacet
  facet normal 0 0 -1
    outer loop
      vertex -6.35 0 0
      vertex -2.85 -2.85 0
      vertex -6.21124 -1.32024 0
    endloop
  endfacet
  facet normal -0 0 -1
    outer loop
      vertex -2.85 2.85 0
      vertex -5.80101 2.58278 0
      vertex -5.13726 3.73244 0
    endloop
  endfacet
  facet normal 0 0 -1
    outer loop
      vertex -2.85 -2.85 0
      vertex -6.35 0 0
      vertex -2.85 2.85 0
    endloop
  endfacet
  facet normal 0 0 -1
    outer loop
      vertex -2.85 2.85 0
      vertex -6.21124 1.32024 0
      vertex -5.80101 2.58278 0
    endloop
  endfacet
  facet normal 0 0 -1
    outer loop
      vertex -2.85 2.85 0
      vertex -6.35 0 0
      vertex -6.21124 1.32024 0
    endloop
  endfacet
  facet normal 0.587784 -0.809018 0
    outer loop
      vertex 3.175 -5.49926 0
      vertex 4.24898 -4.71897 2
      vertex 3.175 -5.49926 2
    endloop
  endfacet
  facet normal 0.587784 -0.809018 0
    outer loop
      vertex 4.24898 -4.71897 2
      vertex 3.175 -5.49926 0
      vertex 4.24898 -4.71897 0
    endloop
  endfacet
  facet normal -0.587784 -0.809018 0
    outer loop
      vertex -4.24898 -4.71897 0
      vertex -3.175 -5.49926 2
      vertex -4.24898 -4.71897 2
    endloop
  endfacet
  facet normal -0.587784 -0.809018 -0
    outer loop
      vertex -3.175 -5.49926 2
      vertex -4.24898 -4.71897 0
      vertex -3.175 -5.49926 0
    endloop
  endfacet
  facet normal -0.951055 -0.309021 0
    outer loop
      vertex -5.80101 -2.58278 0
      vertex -6.21124 -1.32024 2
      vertex -6.21124 -1.32024 0
    endloop
  endfacet
  facet normal -0.951055 -0.309021 0
    outer loop
      vertex -6.21124 -1.32024 2
      vertex -5.80101 -2.58278 0
      vertex -5.80101 -2.58278 2
    endloop
  endfacet
  facet normal -0.743143 0.669132 0
    outer loop
      vertex -5.13726 3.73244 0
      vertex -4.24898 4.71897 2
      vertex -4.24898 4.71897 0
    endloop
  endfacet
  facet normal -0.743143 0.669132 0
    outer loop
      vertex -4.24898 4.71897 2
      vertex -5.13726 3.73244 0
      vertex -5.13726 3.73244 2
    endloop
  endfacet
  facet normal 0 0 1
    outer loop
      vertex 5.5 0 2
      vertex 6.35 0 2
      vertex 6.21124 1.32024 2
    endloop
  endfacet
  facet normal 0 0 1
    outer loop
      vertex 5.37981 1.14351 2
      vertex 6.21124 1.32024 2
      vertex 5.80101 2.58278 2
    endloop
  endfacet
  facet normal 0 0 1
    outer loop
      vertex 6.35 0 2
      vertex 5.5 0 2
      vertex 6.21124 -1.32024 2
    endloop
  endfacet
  facet normal -0 0 1
    outer loop
      vertex 5.37981 -1.14351 2
      vertex 6.21124 -1.32024 2
      vertex 5.5 0 2
    endloop
  endfacet
  facet normal 0 0 1
    outer loop
      vertex 6.21124 1.32024 2
      vertex 5.37981 1.14351 2
      vertex 5.5 0 2
    endloop
  endfacet
  facet normal 0 0 1
    outer loop
      vertex 5.0245 2.23705 2
      vertex 5.80101 2.58278 2
      vertex 5.13726 3.73244 2
    endloop
  endfacet
  facet normal 0 0 1
    outer loop
      vertex 5.80101 2.58278 2
      vertex 5.0245 2.23705 2
      vertex 5.37981 1.14351 2
    endloop
  endfacet
  facet normal 0 0 1
    outer loop
      vertex 5.13726 3.73244 2
      vertex 4.44959 3.23282 2
      vertex 5.0245 2.23705 2
    endloop
  endfacet
  facet normal 0 0 1
    outer loop
      vertex 4.24898 4.71897 2
      vertex 4.44959 3.23282 2
      vertex 5.13726 3.73244 2
    endloop
  endfacet
  facet normal 0 0 1
    outer loop
      vertex 4.24898 4.71897 2
      vertex 3.68022 4.0873 2
      vertex 4.44959 3.23282 2
    endloop
  endfacet
  facet normal 0 0 1
    outer loop
      vertex 3.175 5.49926 2
      vertex 3.68022 4.0873 2
      vertex 4.24898 4.71897 2
    endloop
  endfacet
  facet normal 0 0 1
    outer loop
      vertex 3.175 5.49926 2
      vertex 2.75 4.76314 2
      vertex 3.68022 4.0873 2
    endloop
  endfacet
  facet normal 0 0 1
    outer loop
      vertex 1.96226 6.03921 2
      vertex 2.75 4.76314 2
      vertex 3.175 5.49926 2
    endloop
  endfacet
  facet normal 0 0 1
    outer loop
      vertex 1.96226 6.03921 2
      vertex 1.69959 5.23081 2
      vertex 2.75 4.76314 2
    endloop
  endfacet
  facet normal 0 0 1
    outer loop
      vertex 0.663755 6.31521 2
      vertex 1.69959 5.23081 2
      vertex 1.96226 6.03921 2
    endloop
  endfacet
  facet normal 0 0 1
    outer loop
      vertex 0.663755 6.31521 2
      vertex 0.574906 5.46987 2
      vertex 1.69959 5.23081 2
    endloop
  endfacet
  facet normal 0 0 1
    outer loop
      vertex 0.663755 6.31521 2
      vertex -0.574906 5.46987 2
      vertex 0.574906 5.46987 2
    endloop
  endfacet
  facet normal -0 0 1
    outer loop
      vertex -0.663755 6.31521 2
      vertex -0.574906 5.46987 2
      vertex 0.663755 6.31521 2
    endloop
  endfacet
  facet normal 0 0 1
    outer loop
      vertex -0.663755 6.31521 2
      vertex -1.69959 5.23081 2
      vertex -0.574906 5.46987 2
    endloop
  endfacet
  facet normal -0 0 1
    outer loop
      vertex -1.96226 6.03921 2
      vertex -1.69959 5.23081 2
      vertex -0.663755 6.31521 2
    endloop
  endfacet
  facet normal 0 0 1
    outer loop
      vertex -1.96226 6.03921 2
      vertex -2.75 4.76314 2
      vertex -1.69959 5.23081 2
    endloop
  endfacet
  facet normal -0 0 1
    outer loop
      vertex -3.175 5.49926 2
      vertex -2.75 4.76314 2
      vertex -1.96226 6.03921 2
    endloop
  endfacet
  facet normal 0 0 1
    outer loop
      vertex -3.175 5.49926 2
      vertex -3.68022 4.0873 2
      vertex -2.75 4.76314 2
    endloop
  endfacet
  facet normal -0 0 1
    outer loop
      vertex -4.24898 4.71897 2
      vertex -3.68022 4.0873 2
      vertex -3.175 5.49926 2
    endloop
  endfacet
  facet normal 0 0 1
    outer loop
      vertex -4.24898 4.71897 2
      vertex -4.44959 3.23282 2
      vertex -3.68022 4.0873 2
    endloop
  endfacet
  facet normal -0 0 1
    outer loop
      vertex -5.13726 3.73244 2
      vertex -4.44959 3.23282 2
      vertex -4.24898 4.71897 2
    endloop
  endfacet
  facet normal 0 0 1
    outer loop
      vertex -4.44959 3.23282 2
      vertex -5.13726 3.73244 2
      vertex -5.0245 2.23705 2
    endloop
  endfacet
  facet normal -0 0 1
    outer loop
      vertex -5.80101 2.58278 2
      vertex -5.0245 2.23705 2
      vertex -5.13726 3.73244 2
    endloop
  endfacet
  facet normal 0 0 1
    outer loop
      vertex -5.0245 2.23705 2
      vertex -5.80101 2.58278 2
      vertex -5.37981 1.14351 2
    endloop
  endfacet
  facet normal -0 0 1
    outer loop
      vertex -6.21124 1.32024 2
      vertex -5.37981 1.14351 2
      vertex -5.80101 2.58278 2
    endloop
  endfacet
  facet normal 0 0 1
    outer loop
      vertex 6.21124 -1.32024 2
      vertex 5.37981 -1.14351 2
      vertex 5.80101 -2.58278 2
    endloop
  endfacet
  facet normal -0 0 1
    outer loop
      vertex 5.0245 -2.23705 2
      vertex 5.80101 -2.58278 2
      vertex 5.37981 -1.14351 2
    endloop
  endfacet
  facet normal 0 0 1
    outer loop
      vertex 5.80101 -2.58278 2
      vertex 5.0245 -2.23705 2
      vertex 5.13726 -3.73244 2
    endloop
  endfacet
  facet normal -0 0 1
    outer loop
      vertex 4.44959 -3.23282 2
      vertex 5.13726 -3.73244 2
      vertex 5.0245 -2.23705 2
    endloop
  endfacet
  facet normal 0 0 1
    outer loop
      vertex 4.44959 -3.23282 2
      vertex 4.24898 -4.71897 2
      vertex 5.13726 -3.73244 2
    endloop
  endfacet
  facet normal -0 0 1
    outer loop
      vertex 3.68022 -4.0873 2
      vertex 4.24898 -4.71897 2
      vertex 4.44959 -3.23282 2
    endloop
  endfacet
  facet normal 0 0 1
    outer loop
      vertex 3.68022 -4.0873 2
      vertex 3.175 -5.49926 2
      vertex 4.24898 -4.71897 2
    endloop
  endfacet
  facet normal -0 0 1
    outer loop
      vertex 2.75 -4.76314 2
      vertex 3.175 -5.49926 2
      vertex 3.68022 -4.0873 2
    endloop
  endfacet
  facet normal 0 0 1
    outer loop
      vertex 2.75 -4.76314 2
      vertex 1.96226 -6.03921 2
      vertex 3.175 -5.49926 2
    endloop
  endfacet
  facet normal -0 0 1
    outer loop
      vertex 1.69959 -5.23081 2
      vertex 1.96226 -6.03921 2
      vertex 2.75 -4.76314 2
    endloop
  endfacet
  facet normal 0 0 1
    outer loop
      vertex 1.69959 -5.23081 2
      vertex 0.663755 -6.31521 2
      vertex 1.96226 -6.03921 2
    endloop
  endfacet
  facet normal -0 0 1
    outer loop
      vertex 0.574906 -5.46987 2
      vertex 0.663755 -6.31521 2
      vertex 1.69959 -5.23081 2
    endloop
  endfacet
  facet normal -0 0 1
    outer loop
      vertex -0.574906 -5.46987 2
      vertex 0.663755 -6.31521 2
      vertex 0.574906 -5.46987 2
    endloop
  endfacet
  facet normal 0 0 1
    outer loop
      vertex -0.574906 -5.46987 2
      vertex -0.663755 -6.31521 2
      vertex 0.663755 -6.31521 2
    endloop
  endfacet
  facet normal 0 0 1
    outer loop
      vertex -1.69959 -5.23081 2
      vertex -0.663755 -6.31521 2
      vertex -0.574906 -5.46987 2
    endloop
  endfacet
  facet normal 0 0 1
    outer loop
      vertex -1.69959 -5.23081 2
      vertex -1.96226 -6.03921 2
      vertex -0.663755 -6.31521 2
    endloop
  endfacet
  facet normal 0 0 1
    outer loop
      vertex -2.75 -4.76314 2
      vertex -1.96226 -6.03921 2
      vertex -1.69959 -5.23081 2
    endloop
  endfacet
  facet normal 0 0 1
    outer loop
      vertex -2.75 -4.76314 2
      vertex -3.175 -5.49926 2
      vertex -1.96226 -6.03921 2
    endloop
  endfacet
  facet normal 0 0 1
    outer loop
      vertex -3.68022 -4.0873 2
      vertex -3.175 -5.49926 2
      vertex -2.75 -4.76314 2
    endloop
  endfacet
  facet normal 0 0 1
    outer loop
      vertex -3.68022 -4.0873 2
      vertex -4.24898 -4.71897 2
      vertex -3.175 -5.49926 2
    endloop
  endfacet
  facet normal 0 0 1
    outer loop
      vertex -4.44959 -3.23282 2
      vertex -4.24898 -4.71897 2
      vertex -3.68022 -4.0873 2
    endloop
  endfacet
  facet normal 0 0 1
    outer loop
      vertex -5.13726 -3.73244 2
      vertex -4.44959 -3.23282 2
      vertex -5.0245 -2.23705 2
    endloop
  endfacet
  facet normal 0 0 1
    outer loop
      vertex -4.44959 -3.23282 2
      vertex -5.13726 -3.73244 2
      vertex -4.24898 -4.71897 2
    endloop
  endfacet
  facet normal 0 0 1
    outer loop
      vertex -5.80101 -2.58278 2
      vertex -5.0245 -2.23705 2
      vertex -5.37981 -1.14351 2
    endloop
  endfacet
  facet normal 0 0 1
    outer loop
      vertex -6.21124 -1.32024 2
      vertex -5.37981 -1.14351 2
      vertex -5.5 0 2
    endloop
  endfacet
  facet normal 0 0 1
    outer loop
      vertex -5.37981 1.14351 2
      vertex -6.21124 1.32024 2
      vertex -5.5 0 2
    endloop
  endfacet
  facet normal 0 0 1
    outer loop
      vertex -5.0245 -2.23705 2
      vertex -5.80101 -2.58278 2
      vertex -5.13726 -3.73244 2
    endloop
  endfacet
  facet normal 0 0 1
    outer loop
      vertex -6.35 0 2
      vertex -5.5 0 2
      vertex -6.21124 1.32024 2
    endloop
  endfacet
  facet normal 0 0 1
    outer loop
      vertex -5.37981 -1.14351 2
      vertex -6.21124 -1.32024 2
      vertex -5.80101 -2.58278 2
    endloop
  endfacet
  facet normal 0 0 1
    outer loop
      vertex -5.5 0 2
      vertex -6.35 0 2
      vertex -6.21124 -1.32024 2
    endloop
  endfacet
  facet normal -0.743143 -0.669132 0
    outer loop
      vertex -4.24898 -4.71897 0
      vertex -5.13726 -3.73244 2
      vertex -5.13726 -3.73244 0
    endloop
  endfacet
  facet normal -0.743143 -0.669132 0
    outer loop
      vertex -5.13726 -3.73244 2
      vertex -4.24898 -4.71897 0
      vertex -4.24898 -4.71897 2
    endloop
  endfacet
  facet normal -0.587784 0.809018 0
    outer loop
      vertex -3.175 5.49926 0
      vertex -4.24898 4.71897 2
      vertex -3.175 5.49926 2
    endloop
  endfacet
  facet normal -0.587784 0.809018 0
    outer loop
      vertex -4.24898 4.71897 2
      vertex -3.175 5.49926 0
      vertex -4.24898 4.71897 0
    endloop
  endfacet
  facet normal 0.207908 0.978148 -0
    outer loop
      vertex 1.96226 6.03921 0
      vertex 0.663755 6.31521 2
      vertex 1.96226 6.03921 2
    endloop
  endfacet
  facet normal 0.207908 0.978148 0
    outer loop
      vertex 0.663755 6.31521 2
      vertex 1.96226 6.03921 0
      vertex 0.663755 6.31521 0
    endloop
  endfacet
  facet normal 0.587784 0.809018 -0
    outer loop
      vertex 4.24898 4.71897 0
      vertex 3.175 5.49926 2
      vertex 4.24898 4.71897 2
    endloop
  endfacet
  facet normal 0.587784 0.809018 0
    outer loop
      vertex 3.175 5.49926 2
      vertex 4.24898 4.71897 0
      vertex 3.175 5.49926 0
    endloop
  endfacet
  facet normal 0.951055 0.309021 0
    outer loop
      vertex 6.21124 1.32024 2
      vertex 5.80101 2.58278 0
      vertex 5.80101 2.58278 2
    endloop
  endfacet
  facet normal 0.951055 0.309021 0
    outer loop
      vertex 5.80101 2.58278 0
      vertex 6.21124 1.32024 2
      vertex 6.21124 1.32024 0
    endloop
  endfacet
  facet normal 0.951057 0.309015 0
    outer loop
      vertex 5.37981 1.14351 24
      vertex 5.0245 2.23705 2
      vertex 5.0245 2.23705 24
    endloop
  endfacet
  facet normal 0.951057 0.309015 0
    outer loop
      vertex 5.0245 2.23705 2
      vertex 5.37981 1.14351 24
      vertex 5.37981 1.14351 2
    endloop
  endfacet
  facet normal -0.587783 -0.809019 0
    outer loop
      vertex -3.68022 -4.0873 2
      vertex -2.75 -4.76314 24
      vertex -3.68022 -4.0873 24
    endloop
  endfacet
  facet normal -0.587783 -0.809019 -0
    outer loop
      vertex -2.75 -4.76314 24
      vertex -3.68022 -4.0873 2
      vertex -2.75 -4.76314 2
    endloop
  endfacet
  facet normal 0.866025 0.500001 0
    outer loop
      vertex 5.0245 2.23705 24
      vertex 4.44959 3.23282 2
      vertex 4.44959 3.23282 24
    endloop
  endfacet
  facet normal 0.866025 0.500001 0
    outer loop
      vertex 4.44959 3.23282 2
      vertex 5.0245 2.23705 24
      vertex 5.0245 2.23705 2
    endloop
  endfacet
  facet normal 0.994522 0.10453 0
    outer loop
      vertex 5.5 0 24
      vertex 5.37981 1.14351 2
      vertex 5.37981 1.14351 24
    endloop
  endfacet
  facet normal 0.994522 0.10453 0
    outer loop
      vertex 5.37981 1.14351 2
      vertex 5.5 0 24
      vertex 5.5 0 2
    endloop
  endfacet
  facet normal 0.406735 -0.913546 0
    outer loop
      vertex 1.69959 -5.23081 2
      vertex 2.75 -4.76314 24
      vertex 1.69959 -5.23081 24
    endloop
  endfacet
  facet normal 0.406735 -0.913546 0
    outer loop
      vertex 2.75 -4.76314 24
      vertex 1.69959 -5.23081 2
      vertex 2.75 -4.76314 2
    endloop
  endfacet
  facet normal 0.587783 -0.809019 0
    outer loop
      vertex 2.75 -4.76314 2
      vertex 3.68022 -4.0873 24
      vertex 2.75 -4.76314 24
    endloop
  endfacet
  facet normal 0.587783 -0.809019 0
    outer loop
      vertex 3.68022 -4.0873 24
      vertex 2.75 -4.76314 2
      vertex 3.68022 -4.0873 2
    endloop
  endfacet
  facet normal 0.743148 -0.669127 0
    outer loop
      vertex 3.68022 -4.0873 24
      vertex 4.44959 -3.23282 2
      vertex 4.44959 -3.23282 24
    endloop
  endfacet
  facet normal 0.743148 -0.669127 0
    outer loop
      vertex 4.44959 -3.23282 2
      vertex 3.68022 -4.0873 24
      vertex 3.68022 -4.0873 2
    endloop
  endfacet
  facet normal 0.207913 -0.978147 0
    outer loop
      vertex 0.574906 -5.46987 2
      vertex 1.69959 -5.23081 24
      vertex 0.574906 -5.46987 24
    endloop
  endfacet
  facet normal 0.207913 -0.978147 0
    outer loop
      vertex 1.69959 -5.23081 24
      vertex 0.574906 -5.46987 2
      vertex 1.69959 -5.23081 2
    endloop
  endfacet
  facet normal 0.207913 0.978147 -0
    outer loop
      vertex 1.69959 5.23081 2
      vertex 0.574906 5.46987 24
      vertex 1.69959 5.23081 24
    endloop
  endfacet
  facet normal 0.207913 0.978147 0
    outer loop
      vertex 0.574906 5.46987 24
      vertex 1.69959 5.23081 2
      vertex 0.574906 5.46987 2
    endloop
  endfacet
  facet normal 0.866025 -0.500001 0
    outer loop
      vertex 4.44959 -3.23282 24
      vertex 5.0245 -2.23705 2
      vertex 5.0245 -2.23705 24
    endloop
  endfacet
  facet normal 0.866025 -0.500001 0
    outer loop
      vertex 5.0245 -2.23705 2
      vertex 4.44959 -3.23282 24
      vertex 4.44959 -3.23282 2
    endloop
  endfacet
  facet normal 0.994522 -0.10453 0
    outer loop
      vertex 5.37981 -1.14351 24
      vertex 5.5 0 2
      vertex 5.5 0 24
    endloop
  endfacet
  facet normal 0.994522 -0.10453 0
    outer loop
      vertex 5.5 0 2
      vertex 5.37981 -1.14351 24
      vertex 5.37981 -1.14351 2
    endloop
  endfacet
  facet normal 0.951057 -0.309015 0
    outer loop
      vertex 5.0245 -2.23705 24
      vertex 5.37981 -1.14351 2
      vertex 5.37981 -1.14351 24
    endloop
  endfacet
  facet normal 0.951057 -0.309015 0
    outer loop
      vertex 5.37981 -1.14351 2
      vertex 5.0245 -2.23705 24
      vertex 5.0245 -2.23705 2
    endloop
  endfacet
  facet normal 0.743148 0.669127 0
    outer loop
      vertex 4.44959 3.23282 24
      vertex 3.68022 4.0873 2
      vertex 3.68022 4.0873 24
    endloop
  endfacet
  facet normal 0.743148 0.669127 0
    outer loop
      vertex 3.68022 4.0873 2
      vertex 4.44959 3.23282 24
      vertex 4.44959 3.23282 2
    endloop
  endfacet
  facet normal 0.406735 0.913546 -0
    outer loop
      vertex 2.75 4.76314 2
      vertex 1.69959 5.23081 24
      vertex 2.75 4.76314 24
    endloop
  endfacet
  facet normal 0.406735 0.913546 0
    outer loop
      vertex 1.69959 5.23081 24
      vertex 2.75 4.76314 2
      vertex 1.69959 5.23081 2
    endloop
  endfacet
  facet normal -0.743148 -0.669127 0
    outer loop
      vertex -3.68022 -4.0873 2
      vertex -4.44959 -3.23282 24
      vertex -4.44959 -3.23282 2
    endloop
  endfacet
  facet normal -0.743148 -0.669127 0
    outer loop
      vertex -4.44959 -3.23282 24
      vertex -3.68022 -4.0873 2
      vertex -3.68022 -4.0873 24
    endloop
  endfacet
  facet normal -0.866025 -0.500001 0
    outer loop
      vertex -4.44959 -3.23282 2
      vertex -5.0245 -2.23705 24
      vertex -5.0245 -2.23705 2
    endloop
  endfacet
  facet normal -0.866025 -0.500001 0
    outer loop
      vertex -5.0245 -2.23705 24
      vertex -4.44959 -3.23282 2
      vertex -4.44959 -3.23282 24
    endloop
  endfacet
  facet normal -0.406735 -0.913546 0
    outer loop
      vertex -2.75 -4.76314 2
      vertex -1.69959 -5.23081 24
      vertex -2.75 -4.76314 24
    endloop
  endfacet
  facet normal -0.406735 -0.913546 -0
    outer loop
      vertex -1.69959 -5.23081 24
      vertex -2.75 -4.76314 2
      vertex -1.69959 -5.23081 2
    endloop
  endfacet
  facet normal -0.951057 -0.309015 0
    outer loop
      vertex -5.0245 -2.23705 2
      vertex -5.37981 -1.14351 24
      vertex -5.37981 -1.14351 2
    endloop
  endfacet
  facet normal -0.951057 -0.309015 0
    outer loop
      vertex -5.37981 -1.14351 24
      vertex -5.0245 -2.23705 2
      vertex -5.0245 -2.23705 24
    endloop
  endfacet
  facet normal 0 -1 0
    outer loop
      vertex -0.574906 -5.46987 2
      vertex 0.574906 -5.46987 24
      vertex -0.574906 -5.46987 24
    endloop
  endfacet
  facet normal 0 -1 -0
    outer loop
      vertex 0.574906 -5.46987 24
      vertex -0.574906 -5.46987 2
      vertex 0.574906 -5.46987 2
    endloop
  endfacet
  facet normal 0 0 1
    outer loop
      vertex 2.85 2.85 24
      vertex 5.5 0 24
      vertex 5.37981 1.14351 24
    endloop
  endfacet
  facet normal 0 0 1
    outer loop
      vertex 2.85 2.85 24
      vertex 5.37981 1.14351 24
      vertex 5.0245 2.23705 24
    endloop
  endfacet
  facet normal 0 0 1
    outer loop
      vertex 2.85 -2.85 24
      vertex 5.5 0 24
      vertex 2.85 2.85 24
    endloop
  endfacet
  facet normal -0 0 1
    outer loop
      vertex 2.85 2.85 24
      vertex 5.0245 2.23705 24
      vertex 4.44959 3.23282 24
    endloop
  endfacet
  facet normal 0 0 1
    outer loop
      vertex 5.5 0 24
      vertex 2.85 -2.85 24
      vertex 5.37981 -1.14351 24
    endloop
  endfacet
  facet normal 0 0 1
    outer loop
      vertex 2.85 2.85 24
      vertex 4.44959 3.23282 24
      vertex 3.68022 4.0873 24
    endloop
  endfacet
  facet normal 0 0 1
    outer loop
      vertex 5.37981 -1.14351 24
      vertex 2.85 -2.85 24
      vertex 5.0245 -2.23705 24
    endloop
  endfacet
  facet normal 0 0 1
    outer loop
      vertex 5.0245 -2.23705 24
      vertex 2.85 -2.85 24
      vertex 4.44959 -3.23282 24
    endloop
  endfacet
  facet normal 0 0 1
    outer loop
      vertex 2.75 4.76314 24
      vertex 2.85 2.85 24
      vertex 3.68022 4.0873 24
    endloop
  endfacet
  facet normal 0 0 1
    outer loop
      vertex 1.69959 5.23081 24
      vertex 2.85 2.85 24
      vertex 2.75 4.76314 24
    endloop
  endfacet
  facet normal 0 0 1
    outer loop
      vertex 0.574906 5.46987 24
      vertex 2.85 2.85 24
      vertex 1.69959 5.23081 24
    endloop
  endfacet
  facet normal -0 0 1
    outer loop
      vertex -0.574906 5.46987 24
      vertex 2.85 2.85 24
      vertex 0.574906 5.46987 24
    endloop
  endfacet
  facet normal 0 0 1
    outer loop
      vertex -2.85 2.85 24
      vertex -0.574906 5.46987 24
      vertex -1.69959 5.23081 24
    endloop
  endfacet
  facet normal 0 0 1
    outer loop
      vertex -2.85 2.85 24
      vertex -1.69959 5.23081 24
      vertex -2.75 4.76314 24
    endloop
  endfacet
  facet normal 0 0 1
    outer loop
      vertex -0.574906 5.46987 24
      vertex -2.85 2.85 24
      vertex 2.85 2.85 24
    endloop
  endfacet
  facet normal -0 0 1
    outer loop
      vertex -4.44959 3.23282 24
      vertex -2.85 2.85 24
      vertex -3.68022 4.0873 24
    endloop
  endfacet
  facet normal -0 0 1
    outer loop
      vertex -3.68022 4.0873 24
      vertex -2.85 2.85 24
      vertex -2.75 4.76314 24
    endloop
  endfacet
  facet normal 0 0 1
    outer loop
      vertex 4.44959 -3.23282 24
      vertex 2.85 -2.85 24
      vertex 3.68022 -4.0873 24
    endloop
  endfacet
  facet normal 0 0 1
    outer loop
      vertex 2.85 -2.85 24
      vertex 2.75 -4.76314 24
      vertex 3.68022 -4.0873 24
    endloop
  endfacet
  facet normal 0 0 1
    outer loop
      vertex 2.85 -2.85 24
      vertex 1.69959 -5.23081 24
      vertex 2.75 -4.76314 24
    endloop
  endfacet
  facet normal 0 0 1
    outer loop
      vertex 2.85 -2.85 24
      vertex 0.574906 -5.46987 24
      vertex 1.69959 -5.23081 24
    endloop
  endfacet
  facet normal 0 0 1
    outer loop
      vertex 2.85 -2.85 24
      vertex -0.574906 -5.46987 24
      vertex 0.574906 -5.46987 24
    endloop
  endfacet
  facet normal -0 0 1
    outer loop
      vertex -2.85 -2.85 24
      vertex -0.574906 -5.46987 24
      vertex 2.85 -2.85 24
    endloop
  endfacet
  facet normal 0 0 1
    outer loop
      vertex -0.574906 -5.46987 24
      vertex -2.85 -2.85 24
      vertex -1.69959 -5.23081 24
    endloop
  endfacet
  facet normal 0 0 1
    outer loop
      vertex -1.69959 -5.23081 24
      vertex -2.85 -2.85 24
      vertex -2.75 -4.76314 24
    endloop
  endfacet
  facet normal 0 0 1
    outer loop
      vertex -5.0245 2.23705 24
      vertex -2.85 2.85 24
      vertex -4.44959 3.23282 24
    endloop
  endfacet
  facet normal 0 0 1
    outer loop
      vertex -2.85 -2.85 24
      vertex -3.68022 -4.0873 24
      vertex -2.75 -4.76314 24
    endloop
  endfacet
  facet normal 0 0 1
    outer loop
      vertex -5.37981 1.14351 24
      vertex -2.85 2.85 24
      vertex -5.0245 2.23705 24
    endloop
  endfacet
  facet normal 0 0 1
    outer loop
      vertex -2.85 -2.85 24
      vertex -4.44959 -3.23282 24
      vertex -3.68022 -4.0873 24
    endloop
  endfacet
  facet normal 0 0 1
    outer loop
      vertex -5.5 0 24
      vertex -2.85 2.85 24
      vertex -5.37981 1.14351 24
    endloop
  endfacet
  facet normal 0 0 1
    outer loop
      vertex -2.85 -2.85 24
      vertex -5.0245 -2.23705 24
      vertex -4.44959 -3.23282 24
    endloop
  endfacet
  facet normal 0 0 1
    outer loop
      vertex -2.85 2.85 24
      vertex -5.5 0 24
      vertex -2.85 -2.85 24
    endloop
  endfacet
  facet normal 0 0 1
    outer loop
      vertex -2.85 -2.85 24
      vertex -5.37981 -1.14351 24
      vertex -5.0245 -2.23705 24
    endloop
  endfacet
  facet normal 0 0 1
    outer loop
      vertex -2.85 -2.85 24
      vertex -5.5 0 24
      vertex -5.37981 -1.14351 24
    endloop
  endfacet
  facet normal -0.994522 -0.10453 0
    outer loop
      vertex -5.37981 -1.14351 2
      vertex -5.5 0 24
      vertex -5.5 0 2
    endloop
  endfacet
  facet normal -0.994522 -0.10453 0
    outer loop
      vertex -5.5 0 24
      vertex -5.37981 -1.14351 2
      vertex -5.37981 -1.14351 24
    endloop
  endfacet
  facet normal -0.743148 0.669127 0
    outer loop
      vertex -4.44959 3.23282 2
      vertex -3.68022 4.0873 24
      vertex -3.68022 4.0873 2
    endloop
  endfacet
  facet normal -0.743148 0.669127 0
    outer loop
      vertex -3.68022 4.0873 24
      vertex -4.44959 3.23282 2
      vertex -4.44959 3.23282 24
    endloop
  endfacet
  facet normal -0.951057 0.309015 0
    outer loop
      vertex -5.37981 1.14351 2
      vertex -5.0245 2.23705 24
      vertex -5.0245 2.23705 2
    endloop
  endfacet
  facet normal -0.951057 0.309015 0
    outer loop
      vertex -5.0245 2.23705 24
      vertex -5.37981 1.14351 2
      vertex -5.37981 1.14351 24
    endloop
  endfacet
  facet normal -0.994522 0.10453 0
    outer loop
      vertex -5.5 0 2
      vertex -5.37981 1.14351 24
      vertex -5.37981 1.14351 2
    endloop
  endfacet
  facet normal -0.994522 0.10453 0
    outer loop
      vertex -5.37981 1.14351 24
      vertex -5.5 0 2
      vertex -5.5 0 24
    endloop
  endfacet
  facet normal -0.866025 0.500001 0
    outer loop
      vertex -5.0245 2.23705 2
      vertex -4.44959 3.23282 24
      vertex -4.44959 3.23282 2
    endloop
  endfacet
  facet normal -0.866025 0.500001 0
    outer loop
      vertex -4.44959 3.23282 24
      vertex -5.0245 2.23705 2
      vertex -5.0245 2.23705 24
    endloop
  endfacet
  facet normal 0.587783 0.809019 -0
    outer loop
      vertex 3.68022 4.0873 2
      vertex 2.75 4.76314 24
      vertex 3.68022 4.0873 24
    endloop
  endfacet
  facet normal 0.587783 0.809019 0
    outer loop
      vertex 2.75 4.76314 24
      vertex 3.68022 4.0873 2
      vertex 2.75 4.76314 2
    endloop
  endfacet
  facet normal -0.207913 -0.978147 0
    outer loop
      vertex -1.69959 -5.23081 2
      vertex -0.574906 -5.46987 24
      vertex -1.69959 -5.23081 24
    endloop
  endfacet
  facet normal -0.207913 -0.978147 -0
    outer loop
      vertex -0.574906 -5.46987 24
      vertex -1.69959 -5.23081 2
      vertex -0.574906 -5.46987 2
    endloop
  endfacet
  facet normal 0 1 -0
    outer loop
      vertex 0.574906 5.46987 2
      vertex -0.574906 5.46987 24
      vertex 0.574906 5.46987 24
    endloop
  endfacet
  facet normal 0 1 0
    outer loop
      vertex -0.574906 5.46987 24
      vertex 0.574906 5.46987 2
      vertex -0.574906 5.46987 2
    endloop
  endfacet
  facet normal -0.207913 0.978147 0
    outer loop
      vertex -0.574906 5.46987 2
      vertex -1.69959 5.23081 24
      vertex -0.574906 5.46987 24
    endloop
  endfacet
  facet normal -0.207913 0.978147 0
    outer loop
      vertex -1.69959 5.23081 24
      vertex -0.574906 5.46987 2
      vertex -1.69959 5.23081 2
    endloop
  endfacet
  facet normal -0.406735 0.913546 0
    outer loop
      vertex -1.69959 5.23081 2
      vertex -2.75 4.76314 24
      vertex -1.69959 5.23081 24
    endloop
  endfacet
  facet normal -0.406735 0.913546 0
    outer loop
      vertex -2.75 4.76314 24
      vertex -1.69959 5.23081 2
      vertex -2.75 4.76314 2
    endloop
  endfacet
  facet normal -0.587783 0.809019 0
    outer loop
      vertex -2.75 4.76314 2
      vertex -3.68022 4.0873 24
      vertex -2.75 4.76314 24
    endloop
  endfacet
  facet normal -0.587783 0.809019 0
    outer loop
      vertex -3.68022 4.0873 24
      vertex -2.75 4.76314 2
      vertex -3.68022 4.0873 2
    endloop
  endfacet
  facet normal 1 -0 0
    outer loop
      vertex -2.85 -2.85 24
      vertex -2.85 2.85 0
      vertex -2.85 2.85 24
    endloop
  endfacet
  facet normal 1 0 0
    outer loop
      vertex -2.85 2.85 0
      vertex -2.85 -2.85 24
      vertex -2.85 -2.85 0
    endloop
  endfacet
  facet normal 0 -1 0
    outer loop
      vertex -2.85 2.85 0
      vertex 2.85 2.85 24
      vertex -2.85 2.85 24
    endloop
  endfacet
  facet normal 0 -1 -0
    outer loop
      vertex 2.85 2.85 24
      vertex -2.85 2.85 0
      vertex 2.85 2.85 0
    endloop
  endfacet
  facet normal -1 0 0
    outer loop
      vertex 2.85 -2.85 0
      vertex 2.85 2.85 24
      vertex 2.85 2.85 0
    endloop
  endfacet
  facet normal -1 -0 0
    outer loop
      vertex 2.85 2.85 24
      vertex 2.85 -2.85 0
      vertex 2.85 -2.85 24
    endloop
  endfacet
  facet normal 0 1 -0
    outer loop
      vertex 2.85 -2.85 0
      vertex -2.85 -2.85 24
      vertex 2.85 -2.85 24
    endloop
  endfacet
  facet normal 0 1 0
    outer loop
      vertex -2.85 -2.85 24
      vertex 2.85 -2.85 0
      vertex -2.85 -2.85 0
    endloop
  endfacet
endsolid OpenSCAD_Model
