solid OpenSCAD_Model
  facet normal -0 0 -1
    outer loop
      vertex -5 24.6937 0
      vertex -5.23936 24.6493 0
      vertex -5 26.5 0
    endloop
  endfacet
  facet normal 0 0 -1
    outer loop
      vertex 18.5 83.3542 0
      vertex 23.9454 77.6059 0
      vertex 23.9566 77.1767 0
    endloop
  endfacet
  facet normal 0 0 -1
    outer loop
      vertex 18.5 83.3542 0
      vertex 23.9566 77.1767 0
      vertex 23.9903 76.7487 0
    endloop
  endfacet
  facet normal 0 0 -1
    outer loop
      vertex 18.5 83.3542 0
      vertex 23.9903 76.7487 0
      vertex 24.0464 76.3231 0
    endloop
  endfacet
  facet normal 0 0 -1
    outer loop
      vertex 24.1246 75.901 0
      vertex 18.5 83.3542 0
      vertex 24.0464 76.3231 0
    endloop
  endfacet
  facet normal 0 0 -1
    outer loop
      vertex 24.2248 75.4836 0
      vertex 18.5 83.3542 0
      vertex 24.1246 75.901 0
    endloop
  endfacet
  facet normal 0 0 -1
    outer loop
      vertex 24.3467 75.0719 0
      vertex 18.5 83.3542 0
      vertex 24.2248 75.4836 0
    endloop
  endfacet
  facet normal 0 0 -1
    outer loop
      vertex 24.49 74.6673 0
      vertex 18.5 83.3542 0
      vertex 24.3467 75.0719 0
    endloop
  endfacet
  facet normal 0 0 -1
    outer loop
      vertex 18.5 83.3542 0
      vertex 24.49 74.6673 0
      vertex 18.5 49.3135 0
    endloop
  endfacet
  facet normal -0 0 -1
    outer loop
      vertex 24.6543 74.2706 0
      vertex 18.5 49.3135 0
      vertex 24.49 74.6673 0
    endloop
  endfacet
  facet normal -0 0 -1
    outer loop
      vertex 24.8391 73.8831 0
      vertex 18.5 49.3135 0
      vertex 24.6543 74.2706 0
    endloop
  endfacet
  facet normal -0 0 -1
    outer loop
      vertex 25.044 73.5059 0
      vertex 18.5 49.3135 0
      vertex 24.8391 73.8831 0
    endloop
  endfacet
  facet normal -0 0 -1
    outer loop
      vertex 25.2683 73.1398 0
      vertex 18.5 49.3135 0
      vertex 25.044 73.5059 0
    endloop
  endfacet
  facet normal -0 0 -1
    outer loop
      vertex 25.5115 72.786 0
      vertex 18.5 49.3135 0
      vertex 25.2683 73.1398 0
    endloop
  endfacet
  facet normal -0 0 -1
    outer loop
      vertex 25.7728 72.4454 0
      vertex 18.5 49.3135 0
      vertex 25.5115 72.786 0
    endloop
  endfacet
  facet normal -0 0 -1
    outer loop
      vertex 26.0316 72.1424 0
      vertex 18.5 49.3135 0
      vertex 25.7728 72.4454 0
    endloop
  endfacet
  facet normal 0 0 -1
    outer loop
      vertex 14.5678 20.5552 0
      vertex 18.5 49.3135 0
      vertex 26.0316 72.1424 0
    endloop
  endfacet
  facet normal 0 0 -1
    outer loop
      vertex 13.4303 26.5 0
      vertex 14.5678 20.5552 0
      vertex 13.7249 21.1345 0
    endloop
  endfacet
  facet normal 0 0 -1
    outer loop
      vertex 14.5678 20.5552 0
      vertex 13.4303 26.5 0
      vertex 18.5 49.3135 0
    endloop
  endfacet
  facet normal 0 0 -1
    outer loop
      vertex 12.6 21.8238 0
      vertex 13.4303 26.5 0
      vertex 13.7249 21.1345 0
    endloop
  endfacet
  facet normal 0 0 -1
    outer loop
      vertex 11.4406 22.4534 0
      vertex 13.4303 26.5 0
      vertex 12.6 21.8238 0
    endloop
  endfacet
  facet normal 0 0 -1
    outer loop
      vertex 10.2498 23.0213 0
      vertex 13.4303 26.5 0
      vertex 11.4406 22.4534 0
    endloop
  endfacet
  facet normal 0 0 -1
    outer loop
      vertex 9.03087 23.5262 0
      vertex 13.4303 26.5 0
      vertex 10.2498 23.0213 0
    endloop
  endfacet
  facet normal 0 0 -1
    outer loop
      vertex 7.68491 26.5 0
      vertex 9.03087 23.5262 0
      vertex 7.78722 23.9666 0
    endloop
  endfacet
  facet normal 0 0 -1
    outer loop
      vertex 9.03087 23.5262 0
      vertex 7.68491 26.5 0
      vertex 13.4303 26.5 0
    endloop
  endfacet
  facet normal 0 0 -1
    outer loop
      vertex 6.52223 24.3413 0
      vertex 7.68491 26.5 0
      vertex 7.78722 23.9666 0
    endloop
  endfacet
  facet normal -0 0 -1
    outer loop
      vertex 7.68491 26.5 0
      vertex 6.52223 24.3413 0
      vertex 7.39999 26.5844 0
    endloop
  endfacet
  facet normal 0 0 -1
    outer loop
      vertex 5 26.5 0
      vertex 7.39999 26.5844 0
      vertex 6.52223 24.3413 0
    endloop
  endfacet
  facet normal 0 0 -1
    outer loop
      vertex 5 26.5 0
      vertex 6.52223 24.3413 0
      vertex 5.23936 24.6493 0
    endloop
  endfacet
  facet normal 0 0 -1
    outer loop
      vertex 5 26.5 0
      vertex 5.23936 24.6493 0
      vertex 5 24.6937 0
    endloop
  endfacet
  facet normal -0 0 -1
    outer loop
      vertex 7.39999 26.5844 0
      vertex 5 26.5 0
      vertex 7.39999 28.9 0
    endloop
  endfacet
  facet normal 0 0 -1
    outer loop
      vertex -5 26.5 0
      vertex 7.39999 28.9 0
      vertex 5 26.5 0
    endloop
  endfacet
  facet normal 0 0 -1
    outer loop
      vertex -6.52223 24.3413 0
      vertex -5 26.5 0
      vertex -5.23936 24.6493 0
    endloop
  endfacet
  facet normal 0 0 -1
    outer loop
      vertex -7.39999 26.5844 0
      vertex -5 26.5 0
      vertex -6.52223 24.3413 0
    endloop
  endfacet
  facet normal 0 0 -1
    outer loop
      vertex -7.39999 28.9 0
      vertex -5 26.5 0
      vertex -7.39999 26.5844 0
    endloop
  endfacet
  facet normal 0 0 -1
    outer loop
      vertex -5 26.5 0
      vertex -7.39999 28.9 0
      vertex 7.39999 28.9 0
    endloop
  endfacet
  facet normal 0 0 -1
    outer loop
      vertex 26.3471 83.4041 0
      vertex 22.7243 84.8083 0
      vertex 26.6129 83.6564 0
    endloop
  endfacet
  facet normal 0 0 -1
    outer loop
      vertex 26.0516 83.0927 0
      vertex 22.7243 84.8083 0
      vertex 26.3471 83.4041 0
    endloop
  endfacet
  facet normal 0 0 -1
    outer loop
      vertex 25.7728 82.7663 0
      vertex 22.7243 84.8083 0
      vertex 26.0516 83.0927 0
    endloop
  endfacet
  facet normal 0 0 -1
    outer loop
      vertex 25.5115 82.4257 0
      vertex 22.7243 84.8083 0
      vertex 25.7728 82.7663 0
    endloop
  endfacet
  facet normal 0 0 -1
    outer loop
      vertex 25.2683 82.0719 0
      vertex 22.7243 84.8083 0
      vertex 25.5115 82.4257 0
    endloop
  endfacet
  facet normal 0 0 -1
    outer loop
      vertex 25.044 81.7059 0
      vertex 22.7243 84.8083 0
      vertex 25.2683 82.0719 0
    endloop
  endfacet
  facet normal 0 0 -1
    outer loop
      vertex 24.8391 81.3286 0
      vertex 22.7243 84.8083 0
      vertex 25.044 81.7059 0
    endloop
  endfacet
  facet normal 0 0 -1
    outer loop
      vertex 24.6543 80.9411 0
      vertex 22.7243 84.8083 0
      vertex 24.8391 81.3286 0
    endloop
  endfacet
  facet normal 0 0 -1
    outer loop
      vertex 24.49 80.5445 0
      vertex 22.7243 84.8083 0
      vertex 24.6543 80.9411 0
    endloop
  endfacet
  facet normal 0 0 -1
    outer loop
      vertex 24.3467 80.1398 0
      vertex 22.7243 84.8083 0
      vertex 24.49 80.5445 0
    endloop
  endfacet
  facet normal 0 0 -1
    outer loop
      vertex 24.2248 79.7282 0
      vertex 22.7243 84.8083 0
      vertex 24.3467 80.1398 0
    endloop
  endfacet
  facet normal 0 0 -1
    outer loop
      vertex 24.1246 79.3107 0
      vertex 22.7243 84.8083 0
      vertex 24.2248 79.7282 0
    endloop
  endfacet
  facet normal 0 0 -1
    outer loop
      vertex 24.0464 78.8886 0
      vertex 22.7243 84.8083 0
      vertex 24.1246 79.3107 0
    endloop
  endfacet
  facet normal 0 0 -1
    outer loop
      vertex 23.9903 78.463 0
      vertex 22.7243 84.8083 0
      vertex 24.0464 78.8886 0
    endloop
  endfacet
  facet normal 0 0 -1
    outer loop
      vertex 23.9566 78.035 0
      vertex 22.7243 84.8083 0
      vertex 23.9903 78.463 0
    endloop
  endfacet
  facet normal 0 0 -1
    outer loop
      vertex 22.7243 84.8083 0
      vertex 23.9566 78.035 0
      vertex 23.9454 77.6059 0
    endloop
  endfacet
  facet normal 0 0 -1
    outer loop
      vertex 23.9454 77.6059 0
      vertex 18.5 83.3542 0
      vertex 22.7243 84.8083 0
    endloop
  endfacet
  facet normal 0 0 -1
    outer loop
      vertex 18.5 83.3542 0
      vertex 18.2546 85.8813 0
      vertex 22.7243 84.8083 0
    endloop
  endfacet
  facet normal 0 0 -1
    outer loop
      vertex 17.8928 83.5 0
      vertex 18.2546 85.8813 0
      vertex 18.5 83.3542 0
    endloop
  endfacet
  facet normal 0 0 -1
    outer loop
      vertex 17.8928 83.5 0
      vertex 13.7349 86.719 0
      vertex 18.2546 85.8813 0
    endloop
  endfacet
  facet normal 0 0 -1
    outer loop
      vertex 17.8928 83.5 0
      vertex 9.1776 87.319 0
      vertex 13.7349 86.719 0
    endloop
  endfacet
  facet normal 0 0 -1
    outer loop
      vertex 17.8928 83.5 0
      vertex 4.59509 87.6797 0
      vertex 9.1776 87.319 0
    endloop
  endfacet
  facet normal 0 0 -1
    outer loop
      vertex 17.8928 83.5 0
      vertex 0 87.8 0
      vertex 4.59509 87.6797 0
    endloop
  endfacet
  facet normal 0 0 -1
    outer loop
      vertex -17.8928 83.5 0
      vertex 0 87.8 0
      vertex 17.8928 83.5 0
    endloop
  endfacet
  facet normal 0 0 -1
    outer loop
      vertex 0 87.8 0
      vertex -17.8928 83.5 0
      vertex -4.59509 87.6797 0
    endloop
  endfacet
  facet normal 0 0 -1
    outer loop
      vertex -4.59509 87.6797 0
      vertex -17.8928 83.5 0
      vertex -9.1776 87.319 0
    endloop
  endfacet
  facet normal 0 0 -1
    outer loop
      vertex -9.1776 87.319 0
      vertex -17.8928 83.5 0
      vertex -13.7349 86.719 0
    endloop
  endfacet
  facet normal 0 0 -1
    outer loop
      vertex -17.8928 83.5 0
      vertex -18.2546 85.8813 0
      vertex -13.7349 86.719 0
    endloop
  endfacet
  facet normal 0 0 -1
    outer loop
      vertex -18.5 83.3542 0
      vertex -18.2546 85.8813 0
      vertex -17.8928 83.5 0
    endloop
  endfacet
  facet normal 0 0 -1
    outer loop
      vertex -18.2546 85.8813 0
      vertex -18.5 83.3542 0
      vertex -22.7243 84.8083 0
    endloop
  endfacet
  facet normal 0 0 -1
    outer loop
      vertex -6.52223 24.3413 0
      vertex -7.68491 26.5 0
      vertex -7.39999 26.5844 0
    endloop
  endfacet
  facet normal 0 0 -1
    outer loop
      vertex -7.78722 23.9666 0
      vertex -7.68491 26.5 0
      vertex -6.52223 24.3413 0
    endloop
  endfacet
  facet normal 0 0 -1
    outer loop
      vertex -9.03087 23.5262 0
      vertex -7.68491 26.5 0
      vertex -7.78722 23.9666 0
    endloop
  endfacet
  facet normal 0 0 -1
    outer loop
      vertex -13.4303 26.5 0
      vertex -9.03087 23.5262 0
      vertex -10.2498 23.0213 0
    endloop
  endfacet
  facet normal 0 0 -1
    outer loop
      vertex -13.4303 26.5 0
      vertex -10.2498 23.0213 0
      vertex -11.4406 22.4534 0
    endloop
  endfacet
  facet normal 0 0 -1
    outer loop
      vertex -13.4303 26.5 0
      vertex -11.4406 22.4534 0
      vertex -12.6 21.8238 0
    endloop
  endfacet
  facet normal 0 0 -1
    outer loop
      vertex -9.03087 23.5262 0
      vertex -13.4303 26.5 0
      vertex -7.68491 26.5 0
    endloop
  endfacet
  facet normal 0 0 -1
    outer loop
      vertex -13.7249 21.1345 0
      vertex -13.4303 26.5 0
      vertex -12.6 21.8238 0
    endloop
  endfacet
  facet normal 0 0 -1
    outer loop
      vertex -14.5678 20.5552 0
      vertex -13.4303 26.5 0
      vertex -13.7249 21.1345 0
    endloop
  endfacet
  facet normal 0 0 -1
    outer loop
      vertex -14.5678 20.5552 0
      vertex -18.5 49.3135 0
      vertex -13.4303 26.5 0
    endloop
  endfacet
  facet normal 0 0 -1
    outer loop
      vertex -24.49 74.6673 0
      vertex -18.5 83.3542 0
      vertex -18.5 49.3135 0
    endloop
  endfacet
  facet normal 0 -0 -1
    outer loop
      vertex -23.9454 77.6059 0
      vertex -18.5 83.3542 0
      vertex -23.9566 77.1767 0
    endloop
  endfacet
  facet normal 0 0 -1
    outer loop
      vertex -26.0316 72.1424 0
      vertex -18.5 49.3135 0
      vertex -14.5678 20.5552 0
    endloop
  endfacet
  facet normal 0 0 -1
    outer loop
      vertex -23.9566 78.035 0
      vertex -18.5 83.3542 0
      vertex -23.9454 77.6059 0
    endloop
  endfacet
  facet normal 0 0 -1
    outer loop
      vertex -18.5 83.3542 0
      vertex -23.9903 76.7487 0
      vertex -23.9566 77.1767 0
    endloop
  endfacet
  facet normal 0 0 -1
    outer loop
      vertex -18.5 83.3542 0
      vertex -24.0464 76.3231 0
      vertex -23.9903 76.7487 0
    endloop
  endfacet
  facet normal 0 0 -1
    outer loop
      vertex -18.5 83.3542 0
      vertex -24.1246 75.901 0
      vertex -24.0464 76.3231 0
    endloop
  endfacet
  facet normal 0 0 -1
    outer loop
      vertex -18.5 83.3542 0
      vertex -24.2248 75.4836 0
      vertex -24.1246 75.901 0
    endloop
  endfacet
  facet normal 0 0 -1
    outer loop
      vertex -18.5 83.3542 0
      vertex -24.3467 75.0719 0
      vertex -24.2248 75.4836 0
    endloop
  endfacet
  facet normal 0 0 -1
    outer loop
      vertex -18.5 83.3542 0
      vertex -24.49 74.6673 0
      vertex -24.3467 75.0719 0
    endloop
  endfacet
  facet normal 0 0 -1
    outer loop
      vertex -18.5 49.3135 0
      vertex -24.6543 74.2706 0
      vertex -24.49 74.6673 0
    endloop
  endfacet
  facet normal 0 0 -1
    outer loop
      vertex -18.5 49.3135 0
      vertex -24.8391 73.8831 0
      vertex -24.6543 74.2706 0
    endloop
  endfacet
  facet normal 0 0 -1
    outer loop
      vertex -18.5 49.3135 0
      vertex -25.044 73.5059 0
      vertex -24.8391 73.8831 0
    endloop
  endfacet
  facet normal 0 0 -1
    outer loop
      vertex -18.5 49.3135 0
      vertex -25.2683 73.1398 0
      vertex -25.044 73.5059 0
    endloop
  endfacet
  facet normal 0 0 -1
    outer loop
      vertex -18.5 49.3135 0
      vertex -25.5115 72.786 0
      vertex -25.2683 73.1398 0
    endloop
  endfacet
  facet normal 0 0 -1
    outer loop
      vertex -18.5 49.3135 0
      vertex -25.7728 72.4454 0
      vertex -25.5115 72.786 0
    endloop
  endfacet
  facet normal 0 0 -1
    outer loop
      vertex -18.5 49.3135 0
      vertex -26.0316 72.1424 0
      vertex -25.7728 72.4454 0
    endloop
  endfacet
  facet normal 0 0 -1
    outer loop
      vertex -23.9903 78.463 0
      vertex -18.5 83.3542 0
      vertex -23.9566 78.035 0
    endloop
  endfacet
  facet normal 0 0 -1
    outer loop
      vertex -24.0464 78.8886 0
      vertex -18.5 83.3542 0
      vertex -23.9903 78.463 0
    endloop
  endfacet
  facet normal 0 0 -1
    outer loop
      vertex -24.1246 79.3107 0
      vertex -18.5 83.3542 0
      vertex -24.0464 78.8886 0
    endloop
  endfacet
  facet normal 0 0 -1
    outer loop
      vertex -24.2248 79.7282 0
      vertex -18.5 83.3542 0
      vertex -24.1246 79.3107 0
    endloop
  endfacet
  facet normal 0 0 -1
    outer loop
      vertex -24.3467 80.1398 0
      vertex -18.5 83.3542 0
      vertex -24.2248 79.7282 0
    endloop
  endfacet
  facet normal 0 0 -1
    outer loop
      vertex -24.49 80.5445 0
      vertex -18.5 83.3542 0
      vertex -24.3467 80.1398 0
    endloop
  endfacet
  facet normal -0 0 -1
    outer loop
      vertex -18.5 83.3542 0
      vertex -24.49 80.5445 0
      vertex -22.7243 84.8083 0
    endloop
  endfacet
  facet normal 0 0 -1
    outer loop
      vertex -24.6543 80.9411 0
      vertex -22.7243 84.8083 0
      vertex -24.49 80.5445 0
    endloop
  endfacet
  facet normal 0 0 -1
    outer loop
      vertex -24.8391 81.3286 0
      vertex -22.7243 84.8083 0
      vertex -24.6543 80.9411 0
    endloop
  endfacet
  facet normal 0 0 -1
    outer loop
      vertex -25.044 81.7059 0
      vertex -22.7243 84.8083 0
      vertex -24.8391 81.3286 0
    endloop
  endfacet
  facet normal 0 0 -1
    outer loop
      vertex -25.2683 82.0719 0
      vertex -22.7243 84.8083 0
      vertex -25.044 81.7059 0
    endloop
  endfacet
  facet normal 0 0 -1
    outer loop
      vertex -25.5115 82.4257 0
      vertex -22.7243 84.8083 0
      vertex -25.2683 82.0719 0
    endloop
  endfacet
  facet normal 0 0 -1
    outer loop
      vertex -25.7728 82.7663 0
      vertex -22.7243 84.8083 0
      vertex -25.5115 82.4257 0
    endloop
  endfacet
  facet normal 0 0 -1
    outer loop
      vertex -26.0516 83.0927 0
      vertex -22.7243 84.8083 0
      vertex -25.7728 82.7663 0
    endloop
  endfacet
  facet normal 0 0 -1
    outer loop
      vertex -26.3471 83.4041 0
      vertex -22.7243 84.8083 0
      vertex -26.0516 83.0927 0
    endloop
  endfacet
  facet normal 0 0 -1
    outer loop
      vertex -22.7243 84.8083 0
      vertex -26.3471 83.4041 0
      vertex -26.6129 83.6564 0
    endloop
  endfacet
  facet normal 0 0 1
    outer loop
      vertex 23.9903 78.463 8.8
      vertex 20.2 85.2 8.8
      vertex 23.9566 78.035 8.8
    endloop
  endfacet
  facet normal 0 0 1
    outer loop
      vertex 24.0464 78.8886 8.8
      vertex 20.2 85.2 8.8
      vertex 23.9903 78.463 8.8
    endloop
  endfacet
  facet normal 0 0 1
    outer loop
      vertex 24.1246 79.3107 8.8
      vertex 20.2 85.2 8.8
      vertex 24.0464 78.8886 8.8
    endloop
  endfacet
  facet normal 0 0 1
    outer loop
      vertex 24.2248 79.7282 8.8
      vertex 20.2 85.2 8.8
      vertex 24.1246 79.3107 8.8
    endloop
  endfacet
  facet normal 0 0 1
    outer loop
      vertex 24.3467 80.1398 8.8
      vertex 20.2 85.2 8.8
      vertex 24.2248 79.7282 8.8
    endloop
  endfacet
  facet normal 0 0 1
    outer loop
      vertex 20.2 85.2 8.8
      vertex 24.3467 80.1398 8.8
      vertex 22.7243 84.8083 8.8
    endloop
  endfacet
  facet normal 0 0 1
    outer loop
      vertex 24.49 80.5445 8.8
      vertex 22.7243 84.8083 8.8
      vertex 24.3467 80.1398 8.8
    endloop
  endfacet
  facet normal 0 0 1
    outer loop
      vertex 24.6543 80.9411 8.8
      vertex 22.7243 84.8083 8.8
      vertex 24.49 80.5445 8.8
    endloop
  endfacet
  facet normal 0 0 1
    outer loop
      vertex 24.8391 81.3286 8.8
      vertex 22.7243 84.8083 8.8
      vertex 24.6543 80.9411 8.8
    endloop
  endfacet
  facet normal 0 0 1
    outer loop
      vertex 25.044 81.7059 8.8
      vertex 22.7243 84.8083 8.8
      vertex 24.8391 81.3286 8.8
    endloop
  endfacet
  facet normal 0 0 1
    outer loop
      vertex 25.2683 82.0719 8.8
      vertex 22.7243 84.8083 8.8
      vertex 25.044 81.7059 8.8
    endloop
  endfacet
  facet normal 0 0 1
    outer loop
      vertex 25.5115 82.4257 8.8
      vertex 22.7243 84.8083 8.8
      vertex 25.2683 82.0719 8.8
    endloop
  endfacet
  facet normal 0 0 1
    outer loop
      vertex 25.7728 82.7663 8.8
      vertex 22.7243 84.8083 8.8
      vertex 25.5115 82.4257 8.8
    endloop
  endfacet
  facet normal 0 0 1
    outer loop
      vertex 26.0516 83.0927 8.8
      vertex 22.7243 84.8083 8.8
      vertex 25.7728 82.7663 8.8
    endloop
  endfacet
  facet normal 0 0 1
    outer loop
      vertex 26.3471 83.4041 8.8
      vertex 22.7243 84.8083 8.8
      vertex 26.0516 83.0927 8.8
    endloop
  endfacet
  facet normal 0 0 1
    outer loop
      vertex 22.7243 84.8083 8.8
      vertex 26.3471 83.4041 8.8
      vertex 26.6129 83.6564 8.8
    endloop
  endfacet
  facet normal 0 0 1
    outer loop
      vertex 23.9566 78.035 8.8
      vertex 20.2 85.2 8.8
      vertex 23.9454 77.6059 8.8
    endloop
  endfacet
  facet normal 0 0 1
    outer loop
      vertex 23.9454 77.6059 8.8
      vertex 20.2 85.2 8.8
      vertex 23.9566 77.1767 8.8
    endloop
  endfacet
  facet normal 0 0 1
    outer loop
      vertex 23.9566 77.1767 8.8
      vertex 20.2 85.2 8.8
      vertex 23.9903 76.7487 8.8
    endloop
  endfacet
  facet normal 0 0 1
    outer loop
      vertex 23.9903 76.7487 8.8
      vertex 20.2 85.2 8.8
      vertex 24.0464 76.3231 8.8
    endloop
  endfacet
  facet normal 0 0 1
    outer loop
      vertex 20.2 85.2 8.8
      vertex 24.1246 75.901 8.8
      vertex 24.0464 76.3231 8.8
    endloop
  endfacet
  facet normal 0 0 1
    outer loop
      vertex 20.2 85.2 8.8
      vertex 24.2248 75.4836 8.8
      vertex 24.1246 75.901 8.8
    endloop
  endfacet
  facet normal 0 0 1
    outer loop
      vertex 20.2 45.9 8.8
      vertex 24.2248 75.4836 8.8
      vertex 20.2 85.2 8.8
    endloop
  endfacet
  facet normal 0 0 1
    outer loop
      vertex 24.2248 75.4836 8.8
      vertex 20.2 45.9 8.8
      vertex 24.3467 75.0719 8.8
    endloop
  endfacet
  facet normal 0 0 1
    outer loop
      vertex 25.7728 72.4454 8.8
      vertex 20.2 45.9 8.8
      vertex 26.0316 72.1424 8.8
    endloop
  endfacet
  facet normal 0 0 1
    outer loop
      vertex 25.5115 72.786 8.8
      vertex 20.2 45.9 8.8
      vertex 25.7728 72.4454 8.8
    endloop
  endfacet
  facet normal 0 0 1
    outer loop
      vertex 25.2683 73.1398 8.8
      vertex 20.2 45.9 8.8
      vertex 25.5115 72.786 8.8
    endloop
  endfacet
  facet normal 0 0 1
    outer loop
      vertex 25.044 73.5059 8.8
      vertex 20.2 45.9 8.8
      vertex 25.2683 73.1398 8.8
    endloop
  endfacet
  facet normal 0 0 1
    outer loop
      vertex 24.8391 73.8831 8.8
      vertex 20.2 45.9 8.8
      vertex 25.044 73.5059 8.8
    endloop
  endfacet
  facet normal 0 0 1
    outer loop
      vertex 24.6543 74.2706 8.8
      vertex 20.2 45.9 8.8
      vertex 24.8391 73.8831 8.8
    endloop
  endfacet
  facet normal 0 0 1
    outer loop
      vertex 24.49 74.6673 8.8
      vertex 20.2 45.9 8.8
      vertex 24.6543 74.2706 8.8
    endloop
  endfacet
  facet normal 0 0 1
    outer loop
      vertex 24.3467 75.0719 8.8
      vertex 20.2 45.9 8.8
      vertex 24.49 74.6673 8.8
    endloop
  endfacet
  facet normal 0 0 1
    outer loop
      vertex -20.2 85.2 8.8
      vertex -23.9566 78.035 8.8
      vertex -23.9454 77.6059 8.8
    endloop
  endfacet
  facet normal 0 0 1
    outer loop
      vertex -20.2 85.2 8.8
      vertex -23.9903 78.463 8.8
      vertex -23.9566 78.035 8.8
    endloop
  endfacet
  facet normal 0 0 1
    outer loop
      vertex -20.2 85.2 8.8
      vertex -24.0464 78.8886 8.8
      vertex -23.9903 78.463 8.8
    endloop
  endfacet
  facet normal 0 0 1
    outer loop
      vertex -20.2 85.2 8.8
      vertex -24.1246 79.3107 8.8
      vertex -24.0464 78.8886 8.8
    endloop
  endfacet
  facet normal 0 0 1
    outer loop
      vertex -20.2 85.2 8.8
      vertex -24.2248 79.7282 8.8
      vertex -24.1246 79.3107 8.8
    endloop
  endfacet
  facet normal 0 0 1
    outer loop
      vertex -20.2 85.2 8.8
      vertex -24.3467 80.1398 8.8
      vertex -24.2248 79.7282 8.8
    endloop
  endfacet
  facet normal 0 0 1
    outer loop
      vertex -22.7243 84.8083 8.8
      vertex -24.49 80.5445 8.8
      vertex -24.3467 80.1398 8.8
    endloop
  endfacet
  facet normal 0 0 1
    outer loop
      vertex -22.7243 84.8083 8.8
      vertex -24.6543 80.9411 8.8
      vertex -24.49 80.5445 8.8
    endloop
  endfacet
  facet normal 0 0 1
    outer loop
      vertex -22.7243 84.8083 8.8
      vertex -24.8391 81.3286 8.8
      vertex -24.6543 80.9411 8.8
    endloop
  endfacet
  facet normal 0 0 1
    outer loop
      vertex -22.7243 84.8083 8.8
      vertex -25.044 81.7059 8.8
      vertex -24.8391 81.3286 8.8
    endloop
  endfacet
  facet normal 0 0 1
    outer loop
      vertex -22.7243 84.8083 8.8
      vertex -25.2683 82.0719 8.8
      vertex -25.044 81.7059 8.8
    endloop
  endfacet
  facet normal 0 0 1
    outer loop
      vertex -22.7243 84.8083 8.8
      vertex -25.5115 82.4257 8.8
      vertex -25.2683 82.0719 8.8
    endloop
  endfacet
  facet normal 0 0 1
    outer loop
      vertex -22.7243 84.8083 8.8
      vertex -25.7728 82.7663 8.8
      vertex -25.5115 82.4257 8.8
    endloop
  endfacet
  facet normal 0 0 1
    outer loop
      vertex -22.7243 84.8083 8.8
      vertex -26.0516 83.0927 8.8
      vertex -25.7728 82.7663 8.8
    endloop
  endfacet
  facet normal 0 0 1
    outer loop
      vertex -22.7243 84.8083 8.8
      vertex -26.3471 83.4041 8.8
      vertex -26.0516 83.0927 8.8
    endloop
  endfacet
  facet normal 0 -0 1
    outer loop
      vertex -26.3471 83.4041 8.8
      vertex -22.7243 84.8083 8.8
      vertex -26.6129 83.6564 8.8
    endloop
  endfacet
  facet normal 0 0 1
    outer loop
      vertex 18.2546 85.8813 8.8
      vertex 20.2 85.2 8.8
      vertex 22.7243 84.8083 8.8
    endloop
  endfacet
  facet normal 0 0 1
    outer loop
      vertex 13.7349 86.719 8.8
      vertex 20.2 85.2 8.8
      vertex 18.2546 85.8813 8.8
    endloop
  endfacet
  facet normal 0 0 1
    outer loop
      vertex 9.1776 87.319 8.8
      vertex 20.2 85.2 8.8
      vertex 13.7349 86.719 8.8
    endloop
  endfacet
  facet normal 0 0 1
    outer loop
      vertex 4.59509 87.6797 8.8
      vertex 20.2 85.2 8.8
      vertex 9.1776 87.319 8.8
    endloop
  endfacet
  facet normal 0 0 1
    outer loop
      vertex 0 87.8 8.8
      vertex 20.2 85.2 8.8
      vertex 4.59509 87.6797 8.8
    endloop
  endfacet
  facet normal -0 0 1
    outer loop
      vertex -4.59509 87.6797 8.8
      vertex 20.2 85.2 8.8
      vertex 0 87.8 8.8
    endloop
  endfacet
  facet normal 0 0 1
    outer loop
      vertex -20.2 85.2 8.8
      vertex -4.59509 87.6797 8.8
      vertex -9.1776 87.319 8.8
    endloop
  endfacet
  facet normal 0 0 1
    outer loop
      vertex -20.2 85.2 8.8
      vertex -9.1776 87.319 8.8
      vertex -13.7349 86.719 8.8
    endloop
  endfacet
  facet normal 0 0 1
    outer loop
      vertex -20.2 85.2 8.8
      vertex -13.7349 86.719 8.8
      vertex -18.2546 85.8813 8.8
    endloop
  endfacet
  facet normal 0 0 1
    outer loop
      vertex -4.59509 87.6797 8.8
      vertex -20.2 85.2 8.8
      vertex 20.2 85.2 8.8
    endloop
  endfacet
  facet normal 0 0 1
    outer loop
      vertex -22.7243 84.8083 8.8
      vertex -20.2 85.2 8.8
      vertex -18.2546 85.8813 8.8
    endloop
  endfacet
  facet normal 0 0 1
    outer loop
      vertex -24.3467 80.1398 8.8
      vertex -20.2 85.2 8.8
      vertex -22.7243 84.8083 8.8
    endloop
  endfacet
  facet normal 0 0 1
    outer loop
      vertex -20.2 85.2 8.8
      vertex -23.9454 77.6059 8.8
      vertex -23.9566 77.1767 8.8
    endloop
  endfacet
  facet normal 0 0 1
    outer loop
      vertex -20.2 85.2 8.8
      vertex -23.9566 77.1767 8.8
      vertex -23.9903 76.7487 8.8
    endloop
  endfacet
  facet normal 0 0 1
    outer loop
      vertex -24.0464 76.3231 8.8
      vertex -20.2 85.2 8.8
      vertex -23.9903 76.7487 8.8
    endloop
  endfacet
  facet normal 0 0 1
    outer loop
      vertex -24.1246 75.901 8.8
      vertex -20.2 85.2 8.8
      vertex -24.0464 76.3231 8.8
    endloop
  endfacet
  facet normal 0 0 1
    outer loop
      vertex -24.2248 75.4836 8.8
      vertex -20.2 85.2 8.8
      vertex -24.1246 75.901 8.8
    endloop
  endfacet
  facet normal 0 0 1
    outer loop
      vertex -20.2 85.2 8.8
      vertex -24.2248 75.4836 8.8
      vertex -20.2 45.9 8.8
    endloop
  endfacet
  facet normal -0 0 1
    outer loop
      vertex -24.3467 75.0719 8.8
      vertex -20.2 45.9 8.8
      vertex -24.2248 75.4836 8.8
    endloop
  endfacet
  facet normal -0 0 1
    outer loop
      vertex -24.49 74.6673 8.8
      vertex -20.2 45.9 8.8
      vertex -24.3467 75.0719 8.8
    endloop
  endfacet
  facet normal -0 0 1
    outer loop
      vertex -24.6543 74.2706 8.8
      vertex -20.2 45.9 8.8
      vertex -24.49 74.6673 8.8
    endloop
  endfacet
  facet normal -0 0 1
    outer loop
      vertex -24.8391 73.8831 8.8
      vertex -20.2 45.9 8.8
      vertex -24.6543 74.2706 8.8
    endloop
  endfacet
  facet normal -0 0 1
    outer loop
      vertex -25.044 73.5059 8.8
      vertex -20.2 45.9 8.8
      vertex -24.8391 73.8831 8.8
    endloop
  endfacet
  facet normal -0 0 1
    outer loop
      vertex -25.2683 73.1398 8.8
      vertex -20.2 45.9 8.8
      vertex -25.044 73.5059 8.8
    endloop
  endfacet
  facet normal -0 0 1
    outer loop
      vertex -25.5115 72.786 8.8
      vertex -20.2 45.9 8.8
      vertex -25.2683 73.1398 8.8
    endloop
  endfacet
  facet normal -0 0 1
    outer loop
      vertex -25.7728 72.4454 8.8
      vertex -20.2 45.9 8.8
      vertex -25.5115 72.786 8.8
    endloop
  endfacet
  facet normal 0 0 1
    outer loop
      vertex -20.2 45.9 8.8
      vertex -25.7728 72.4454 8.8
      vertex -26.0316 72.1424 8.8
    endloop
  endfacet
  facet normal 0 0 1
    outer loop
      vertex -5 24.8 8.8
      vertex -5.23936 24.6493 8.8
      vertex -5 24.6937 8.8
    endloop
  endfacet
  facet normal 0 0 1
    outer loop
      vertex -5 24.8 8.8
      vertex -6.52223 24.3413 8.8
      vertex -5.23936 24.6493 8.8
    endloop
  endfacet
  facet normal -0 0 1
    outer loop
      vertex -15.5111 24.8 8.8
      vertex -6.52223 24.3413 8.8
      vertex -5 24.8 8.8
    endloop
  endfacet
  facet normal 0 0 1
    outer loop
      vertex -13.7249 21.1345 8.8
      vertex -15.5111 24.8 8.8
      vertex -14.5678 20.5552 8.8
    endloop
  endfacet
  facet normal 0 0 1
    outer loop
      vertex -12.6 21.8238 8.8
      vertex -15.5111 24.8 8.8
      vertex -13.7249 21.1345 8.8
    endloop
  endfacet
  facet normal 0 0 1
    outer loop
      vertex -11.4406 22.4534 8.8
      vertex -15.5111 24.8 8.8
      vertex -12.6 21.8238 8.8
    endloop
  endfacet
  facet normal 0 0 1
    outer loop
      vertex -10.2498 23.0213 8.8
      vertex -15.5111 24.8 8.8
      vertex -11.4406 22.4534 8.8
    endloop
  endfacet
  facet normal 0 0 1
    outer loop
      vertex -9.03087 23.5262 8.8
      vertex -15.5111 24.8 8.8
      vertex -10.2498 23.0213 8.8
    endloop
  endfacet
  facet normal 0 0 1
    outer loop
      vertex -7.78722 23.9666 8.8
      vertex -15.5111 24.8 8.8
      vertex -9.03087 23.5262 8.8
    endloop
  endfacet
  facet normal 0 0 1
    outer loop
      vertex -6.52223 24.3413 8.8
      vertex -15.5111 24.8 8.8
      vertex -7.78722 23.9666 8.8
    endloop
  endfacet
  facet normal 0 0 1
    outer loop
      vertex 15.5111 24.8 8.8
      vertex 13.7249 21.1345 8.8
      vertex 14.5678 20.5552 8.8
    endloop
  endfacet
  facet normal 0 0 1
    outer loop
      vertex 15.5111 24.8 8.8
      vertex 12.6 21.8238 8.8
      vertex 13.7249 21.1345 8.8
    endloop
  endfacet
  facet normal 0 0 1
    outer loop
      vertex 15.5111 24.8 8.8
      vertex 11.4406 22.4534 8.8
      vertex 12.6 21.8238 8.8
    endloop
  endfacet
  facet normal 0 0 1
    outer loop
      vertex 15.5111 24.8 8.8
      vertex 10.2498 23.0213 8.8
      vertex 11.4406 22.4534 8.8
    endloop
  endfacet
  facet normal 0 0 1
    outer loop
      vertex 15.5111 24.8 8.8
      vertex 9.03087 23.5262 8.8
      vertex 10.2498 23.0213 8.8
    endloop
  endfacet
  facet normal 0 0 1
    outer loop
      vertex 15.5111 24.8 8.8
      vertex 7.78722 23.9666 8.8
      vertex 9.03087 23.5262 8.8
    endloop
  endfacet
  facet normal 0 0 1
    outer loop
      vertex 15.5111 24.8 8.8
      vertex 6.52223 24.3413 8.8
      vertex 7.78722 23.9666 8.8
    endloop
  endfacet
  facet normal -0 0 1
    outer loop
      vertex 5 24.8 8.8
      vertex 6.52223 24.3413 8.8
      vertex 15.5111 24.8 8.8
    endloop
  endfacet
  facet normal 0 0 1
    outer loop
      vertex 6.52223 24.3413 8.8
      vertex 5 24.8 8.8
      vertex 5.23936 24.6493 8.8
    endloop
  endfacet
  facet normal 0 0 1
    outer loop
      vertex 5.23936 24.6493 8.8
      vertex 5 24.8 8.8
      vertex 5 24.6937 8.8
    endloop
  endfacet
  facet normal 0.760389 0.649468 0
    outer loop
      vertex 26.0316 72.1424 8.8
      vertex 25.7728 72.4454 0
      vertex 25.7728 72.4454 8.8
    endloop
  endfacet
  facet normal 0.760389 0.649468 0
    outer loop
      vertex 25.7728 72.4454 0
      vertex 26.0316 72.1424 8.8
      vertex 26.0316 72.1424 0
    endloop
  endfacet
  facet normal 0.793411 0.608686 0
    outer loop
      vertex 25.7728 72.4454 8.8
      vertex 25.5115 72.786 0
      vertex 25.5115 72.786 8.8
    endloop
  endfacet
  facet normal 0.793411 0.608686 0
    outer loop
      vertex 25.5115 72.786 0
      vertex 25.7728 72.4454 8.8
      vertex 25.7728 72.4454 0
    endloop
  endfacet
  facet normal 0.824083 0.56647 0
    outer loop
      vertex 25.5115 72.786 8.8
      vertex 25.2683 73.1398 0
      vertex 25.2683 73.1398 8.8
    endloop
  endfacet
  facet normal 0.824083 0.56647 0
    outer loop
      vertex 25.2683 73.1398 0
      vertex 25.5115 72.786 8.8
      vertex 25.5115 72.786 0
    endloop
  endfacet
  facet normal 0.852688 0.52242 0
    outer loop
      vertex 25.2683 73.1398 8.8
      vertex 25.044 73.5059 0
      vertex 25.044 73.5059 8.8
    endloop
  endfacet
  facet normal 0.852688 0.52242 0
    outer loop
      vertex 25.044 73.5059 0
      vertex 25.2683 73.1398 8.8
      vertex 25.2683 73.1398 0
    endloop
  endfacet
  facet normal 0.878722 0.477333 0
    outer loop
      vertex 25.044 73.5059 8.8
      vertex 24.8391 73.8831 0
      vertex 24.8391 73.8831 8.8
    endloop
  endfacet
  facet normal 0.878722 0.477333 0
    outer loop
      vertex 24.8391 73.8831 0
      vertex 25.044 73.5059 8.8
      vertex 25.044 73.5059 0
    endloop
  endfacet
  facet normal 0.902611 0.430458 0
    outer loop
      vertex 24.8391 73.8831 8.8
      vertex 24.6543 74.2706 0
      vertex 24.6543 74.2706 8.8
    endloop
  endfacet
  facet normal 0.902611 0.430458 0
    outer loop
      vertex 24.6543 74.2706 0
      vertex 24.8391 73.8831 8.8
      vertex 24.8391 73.8831 0
    endloop
  endfacet
  facet normal 0.923895 0.382647 0
    outer loop
      vertex 24.6543 74.2706 8.8
      vertex 24.49 74.6673 0
      vertex 24.49 74.6673 8.8
    endloop
  endfacet
  facet normal 0.923895 0.382647 0
    outer loop
      vertex 24.49 74.6673 0
      vertex 24.6543 74.2706 8.8
      vertex 24.6543 74.2706 0
    endloop
  endfacet
  facet normal 0.942624 0.333856 0
    outer loop
      vertex 24.49 74.6673 8.8
      vertex 24.3467 75.0719 0
      vertex 24.3467 75.0719 8.8
    endloop
  endfacet
  facet normal 0.942624 0.333856 0
    outer loop
      vertex 24.3467 75.0719 0
      vertex 24.49 74.6673 8.8
      vertex 24.49 74.6673 0
    endloop
  endfacet
  facet normal 0.958852 0.283906 0
    outer loop
      vertex 24.3467 75.0719 8.8
      vertex 24.2248 75.4836 0
      vertex 24.2248 75.4836 8.8
    endloop
  endfacet
  facet normal 0.958852 0.283906 0
    outer loop
      vertex 24.2248 75.4836 0
      vertex 24.3467 75.0719 8.8
      vertex 24.3467 75.0719 0
    endloop
  endfacet
  facet normal 0.972375 0.233426 0
    outer loop
      vertex 24.2248 75.4836 8.8
      vertex 24.1246 75.901 0
      vertex 24.1246 75.901 8.8
    endloop
  endfacet
  facet normal 0.972375 0.233426 0
    outer loop
      vertex 24.1246 75.901 0
      vertex 24.2248 75.4836 8.8
      vertex 24.2248 75.4836 0
    endloop
  endfacet
  facet normal 0.983268 0.182164 0
    outer loop
      vertex 24.1246 75.901 8.8
      vertex 24.0464 76.3231 0
      vertex 24.0464 76.3231 8.8
    endloop
  endfacet
  facet normal 0.983268 0.182164 0
    outer loop
      vertex 24.0464 76.3231 0
      vertex 24.1246 75.901 8.8
      vertex 24.1246 75.901 0
    endloop
  endfacet
  facet normal 0.991424 0.130683 0
    outer loop
      vertex 24.0464 76.3231 8.8
      vertex 23.9903 76.7487 0
      vertex 23.9903 76.7487 8.8
    endloop
  endfacet
  facet normal 0.991424 0.130683 0
    outer loop
      vertex 23.9903 76.7487 0
      vertex 24.0464 76.3231 8.8
      vertex 24.0464 76.3231 0
    endloop
  endfacet
  facet normal 0.996914 0.0784954 0
    outer loop
      vertex 23.9903 76.7487 8.8
      vertex 23.9566 77.1767 0
      vertex 23.9566 77.1767 8.8
    endloop
  endfacet
  facet normal 0.996914 0.0784954 0
    outer loop
      vertex 23.9566 77.1767 0
      vertex 23.9903 76.7487 8.8
      vertex 23.9903 76.7487 0
    endloop
  endfacet
  facet normal 0.99966 0.0260862 0
    outer loop
      vertex 23.9566 77.1767 8.8
      vertex 23.9454 77.6059 0
      vertex 23.9454 77.6059 8.8
    endloop
  endfacet
  facet normal 0.99966 0.0260862 0
    outer loop
      vertex 23.9454 77.6059 0
      vertex 23.9566 77.1767 8.8
      vertex 23.9566 77.1767 0
    endloop
  endfacet
  facet normal 0.99966 -0.0260923 0
    outer loop
      vertex 23.9454 77.6059 8.8
      vertex 23.9566 78.035 0
      vertex 23.9566 78.035 8.8
    endloop
  endfacet
  facet normal 0.99966 -0.0260923 0
    outer loop
      vertex 23.9566 78.035 0
      vertex 23.9454 77.6059 8.8
      vertex 23.9454 77.6059 0
    endloop
  endfacet
  facet normal 0.996914 -0.0784954 0
    outer loop
      vertex 23.9566 78.035 8.8
      vertex 23.9903 78.463 0
      vertex 23.9903 78.463 8.8
    endloop
  endfacet
  facet normal 0.996914 -0.0784954 0
    outer loop
      vertex 23.9903 78.463 0
      vertex 23.9566 78.035 8.8
      vertex 23.9566 78.035 0
    endloop
  endfacet
  facet normal 0.991424 -0.130683 0
    outer loop
      vertex 23.9903 78.463 8.8
      vertex 24.0464 78.8886 0
      vertex 24.0464 78.8886 8.8
    endloop
  endfacet
  facet normal 0.991424 -0.130683 0
    outer loop
      vertex 24.0464 78.8886 0
      vertex 23.9903 78.463 8.8
      vertex 23.9903 78.463 0
    endloop
  endfacet
  facet normal 0.983268 -0.182164 0
    outer loop
      vertex 24.0464 78.8886 8.8
      vertex 24.1246 79.3107 0
      vertex 24.1246 79.3107 8.8
    endloop
  endfacet
  facet normal 0.983268 -0.182164 0
    outer loop
      vertex 24.1246 79.3107 0
      vertex 24.0464 78.8886 8.8
      vertex 24.0464 78.8886 0
    endloop
  endfacet
  facet normal 0.972387 -0.233373 0
    outer loop
      vertex 24.1246 79.3107 8.8
      vertex 24.2248 79.7282 0
      vertex 24.2248 79.7282 8.8
    endloop
  endfacet
  facet normal 0.972387 -0.233373 0
    outer loop
      vertex 24.2248 79.7282 0
      vertex 24.1246 79.3107 8.8
      vertex 24.1246 79.3107 0
    endloop
  endfacet
  facet normal 0.958833 -0.283969 0
    outer loop
      vertex 24.2248 79.7282 8.8
      vertex 24.3467 80.1398 0
      vertex 24.3467 80.1398 8.8
    endloop
  endfacet
  facet normal 0.958833 -0.283969 0
    outer loop
      vertex 24.3467 80.1398 0
      vertex 24.2248 79.7282 8.8
      vertex 24.2248 79.7282 0
    endloop
  endfacet
  facet normal 0.94265 -0.333782 0
    outer loop
      vertex 24.3467 80.1398 8.8
      vertex 24.49 80.5445 0
      vertex 24.49 80.5445 8.8
    endloop
  endfacet
  facet normal 0.94265 -0.333782 0
    outer loop
      vertex 24.49 80.5445 0
      vertex 24.3467 80.1398 8.8
      vertex 24.3467 80.1398 0
    endloop
  endfacet
  facet normal 0.923861 -0.382729 0
    outer loop
      vertex 24.49 80.5445 8.8
      vertex 24.6543 80.9411 0
      vertex 24.6543 80.9411 8.8
    endloop
  endfacet
  facet normal 0.923861 -0.382729 0
    outer loop
      vertex 24.6543 80.9411 0
      vertex 24.49 80.5445 8.8
      vertex 24.49 80.5445 0
    endloop
  endfacet
  facet normal 0.902611 -0.430458 0
    outer loop
      vertex 24.6543 80.9411 8.8
      vertex 24.8391 81.3286 0
      vertex 24.8391 81.3286 8.8
    endloop
  endfacet
  facet normal 0.902611 -0.430458 0
    outer loop
      vertex 24.8391 81.3286 0
      vertex 24.6543 80.9411 8.8
      vertex 24.6543 80.9411 0
    endloop
  endfacet
  facet normal 0.878775 -0.477236 0
    outer loop
      vertex 24.8391 81.3286 8.8
      vertex 25.044 81.7059 0
      vertex 25.044 81.7059 8.8
    endloop
  endfacet
  facet normal 0.878775 -0.477236 0
    outer loop
      vertex 25.044 81.7059 0
      vertex 24.8391 81.3286 8.8
      vertex 24.8391 81.3286 0
    endloop
  endfacet
  facet normal 0.852625 -0.522524 0
    outer loop
      vertex 25.044 81.7059 8.8
      vertex 25.2683 82.0719 0
      vertex 25.2683 82.0719 8.8
    endloop
  endfacet
  facet normal 0.852625 -0.522524 0
    outer loop
      vertex 25.2683 82.0719 0
      vertex 25.044 81.7059 8.8
      vertex 25.044 81.7059 0
    endloop
  endfacet
  facet normal 0.824083 -0.56647 0
    outer loop
      vertex 25.2683 82.0719 8.8
      vertex 25.5115 82.4257 0
      vertex 25.5115 82.4257 8.8
    endloop
  endfacet
  facet normal 0.824083 -0.56647 0
    outer loop
      vertex 25.5115 82.4257 0
      vertex 25.2683 82.0719 8.8
      vertex 25.2683 82.0719 0
    endloop
  endfacet
  facet normal 0.793411 -0.608686 0
    outer loop
      vertex 25.5115 82.4257 8.8
      vertex 25.7728 82.7663 0
      vertex 25.7728 82.7663 8.8
    endloop
  endfacet
  facet normal 0.793411 -0.608686 0
    outer loop
      vertex 25.7728 82.7663 0
      vertex 25.5115 82.4257 8.8
      vertex 25.5115 82.4257 0
    endloop
  endfacet
  facet normal 0.760374 -0.649486 0
    outer loop
      vertex 25.7728 82.7663 8.8
      vertex 26.0516 83.0927 0
      vertex 26.0516 83.0927 8.8
    endloop
  endfacet
  facet normal 0.760374 -0.649486 0
    outer loop
      vertex 26.0516 83.0927 0
      vertex 25.7728 82.7663 8.8
      vertex 25.7728 82.7663 0
    endloop
  endfacet
  facet normal 0.725383 -0.688345 0
    outer loop
      vertex 26.0516 83.0927 8.8
      vertex 26.3471 83.4041 0
      vertex 26.3471 83.4041 8.8
    endloop
  endfacet
  facet normal 0.725383 -0.688345 0
    outer loop
      vertex 26.3471 83.4041 0
      vertex 26.0516 83.0927 8.8
      vertex 26.0516 83.0927 0
    endloop
  endfacet
  facet normal 0.688448 -0.725286 0
    outer loop
      vertex 26.3471 83.4041 0
      vertex 26.6129 83.6564 8.8
      vertex 26.3471 83.4041 8.8
    endloop
  endfacet
  facet normal 0.688448 -0.725286 0
    outer loop
      vertex 26.6129 83.6564 8.8
      vertex 26.3471 83.4041 0
      vertex 26.6129 83.6564 0
    endloop
  endfacet
  facet normal 0.284025 0.958817 -0
    outer loop
      vertex 26.6129 83.6564 0
      vertex 22.7243 84.8083 8.8
      vertex 26.6129 83.6564 8.8
    endloop
  endfacet
  facet normal 0.284025 0.958817 0
    outer loop
      vertex 22.7243 84.8083 8.8
      vertex 26.6129 83.6564 0
      vertex 22.7243 84.8083 0
    endloop
  endfacet
  facet normal 0.233429 0.972374 -0
    outer loop
      vertex 22.7243 84.8083 0
      vertex 18.2546 85.8813 8.8
      vertex 22.7243 84.8083 8.8
    endloop
  endfacet
  facet normal 0.233429 0.972374 0
    outer loop
      vertex 18.2546 85.8813 8.8
      vertex 22.7243 84.8083 0
      vertex 18.2546 85.8813 0
    endloop
  endfacet
  facet normal 0.18224 0.983254 -0
    outer loop
      vertex 18.2546 85.8813 0
      vertex 13.7349 86.719 8.8
      vertex 18.2546 85.8813 8.8
    endloop
  endfacet
  facet normal 0.18224 0.983254 0
    outer loop
      vertex 13.7349 86.719 8.8
      vertex 18.2546 85.8813 0
      vertex 13.7349 86.719 0
    endloop
  endfacet
  facet normal 0.13053 0.991444 -0
    outer loop
      vertex 13.7349 86.719 0
      vertex 9.1776 87.319 8.8
      vertex 13.7349 86.719 8.8
    endloop
  endfacet
  facet normal 0.13053 0.991444 0
    outer loop
      vertex 9.1776 87.319 8.8
      vertex 13.7349 86.719 0
      vertex 9.1776 87.319 0
    endloop
  endfacet
  facet normal 0.0784696 0.996917 -0
    outer loop
      vertex 9.1776 87.319 0
      vertex 4.59509 87.6797 8.8
      vertex 9.1776 87.319 8.8
    endloop
  endfacet
  facet normal 0.0784696 0.996917 0
    outer loop
      vertex 4.59509 87.6797 8.8
      vertex 9.1776 87.319 0
      vertex 4.59509 87.6797 0
    endloop
  endfacet
  facet normal 0.0261712 0.999657 -0
    outer loop
      vertex 4.59509 87.6797 0
      vertex 0 87.8 8.8
      vertex 4.59509 87.6797 8.8
    endloop
  endfacet
  facet normal 0.0261712 0.999657 0
    outer loop
      vertex 0 87.8 8.8
      vertex 4.59509 87.6797 0
      vertex 0 87.8 0
    endloop
  endfacet
  facet normal -0.0261712 0.999657 0
    outer loop
      vertex 0 87.8 0
      vertex -4.59509 87.6797 8.8
      vertex 0 87.8 8.8
    endloop
  endfacet
  facet normal -0.0261712 0.999657 0
    outer loop
      vertex -4.59509 87.6797 8.8
      vertex 0 87.8 0
      vertex -4.59509 87.6797 0
    endloop
  endfacet
  facet normal -0.0784696 0.996917 0
    outer loop
      vertex -4.59509 87.6797 0
      vertex -9.1776 87.319 8.8
      vertex -4.59509 87.6797 8.8
    endloop
  endfacet
  facet normal -0.0784696 0.996917 0
    outer loop
      vertex -9.1776 87.319 8.8
      vertex -4.59509 87.6797 0
      vertex -9.1776 87.319 0
    endloop
  endfacet
  facet normal -0.13053 0.991444 0
    outer loop
      vertex -9.1776 87.319 0
      vertex -13.7349 86.719 8.8
      vertex -9.1776 87.319 8.8
    endloop
  endfacet
  facet normal -0.13053 0.991444 0
    outer loop
      vertex -13.7349 86.719 8.8
      vertex -9.1776 87.319 0
      vertex -13.7349 86.719 0
    endloop
  endfacet
  facet normal -0.18224 0.983254 0
    outer loop
      vertex -13.7349 86.719 0
      vertex -18.2546 85.8813 8.8
      vertex -13.7349 86.719 8.8
    endloop
  endfacet
  facet normal -0.18224 0.983254 0
    outer loop
      vertex -18.2546 85.8813 8.8
      vertex -13.7349 86.719 0
      vertex -18.2546 85.8813 0
    endloop
  endfacet
  facet normal -0.233429 0.972374 0
    outer loop
      vertex -18.2546 85.8813 0
      vertex -22.7243 84.8083 8.8
      vertex -18.2546 85.8813 8.8
    endloop
  endfacet
  facet normal -0.233429 0.972374 0
    outer loop
      vertex -22.7243 84.8083 8.8
      vertex -18.2546 85.8813 0
      vertex -22.7243 84.8083 0
    endloop
  endfacet
  facet normal -0.284025 0.958817 0
    outer loop
      vertex -22.7243 84.8083 0
      vertex -26.6129 83.6564 8.8
      vertex -22.7243 84.8083 8.8
    endloop
  endfacet
  facet normal -0.284025 0.958817 0
    outer loop
      vertex -26.6129 83.6564 8.8
      vertex -22.7243 84.8083 0
      vertex -26.6129 83.6564 0
    endloop
  endfacet
  facet normal -0.688448 -0.725286 0
    outer loop
      vertex -26.6129 83.6564 0
      vertex -26.3471 83.4041 8.8
      vertex -26.6129 83.6564 8.8
    endloop
  endfacet
  facet normal -0.688448 -0.725286 -0
    outer loop
      vertex -26.3471 83.4041 8.8
      vertex -26.6129 83.6564 0
      vertex -26.3471 83.4041 0
    endloop
  endfacet
  facet normal -0.725383 -0.688345 0
    outer loop
      vertex -26.0516 83.0927 0
      vertex -26.3471 83.4041 8.8
      vertex -26.3471 83.4041 0
    endloop
  endfacet
  facet normal -0.725383 -0.688345 0
    outer loop
      vertex -26.3471 83.4041 8.8
      vertex -26.0516 83.0927 0
      vertex -26.0516 83.0927 8.8
    endloop
  endfacet
  facet normal -0.760374 -0.649486 0
    outer loop
      vertex -25.7728 82.7663 0
      vertex -26.0516 83.0927 8.8
      vertex -26.0516 83.0927 0
    endloop
  endfacet
  facet normal -0.760374 -0.649486 0
    outer loop
      vertex -26.0516 83.0927 8.8
      vertex -25.7728 82.7663 0
      vertex -25.7728 82.7663 8.8
    endloop
  endfacet
  facet normal -0.793411 -0.608686 0
    outer loop
      vertex -25.5115 82.4257 0
      vertex -25.7728 82.7663 8.8
      vertex -25.7728 82.7663 0
    endloop
  endfacet
  facet normal -0.793411 -0.608686 0
    outer loop
      vertex -25.7728 82.7663 8.8
      vertex -25.5115 82.4257 0
      vertex -25.5115 82.4257 8.8
    endloop
  endfacet
  facet normal -0.824083 -0.56647 0
    outer loop
      vertex -25.2683 82.0719 0
      vertex -25.5115 82.4257 8.8
      vertex -25.5115 82.4257 0
    endloop
  endfacet
  facet normal -0.824083 -0.56647 0
    outer loop
      vertex -25.5115 82.4257 8.8
      vertex -25.2683 82.0719 0
      vertex -25.2683 82.0719 8.8
    endloop
  endfacet
  facet normal -0.852625 -0.522524 0
    outer loop
      vertex -25.044 81.7059 0
      vertex -25.2683 82.0719 8.8
      vertex -25.2683 82.0719 0
    endloop
  endfacet
  facet normal -0.852625 -0.522524 0
    outer loop
      vertex -25.2683 82.0719 8.8
      vertex -25.044 81.7059 0
      vertex -25.044 81.7059 8.8
    endloop
  endfacet
  facet normal -0.878775 -0.477236 0
    outer loop
      vertex -24.8391 81.3286 0
      vertex -25.044 81.7059 8.8
      vertex -25.044 81.7059 0
    endloop
  endfacet
  facet normal -0.878775 -0.477236 0
    outer loop
      vertex -25.044 81.7059 8.8
      vertex -24.8391 81.3286 0
      vertex -24.8391 81.3286 8.8
    endloop
  endfacet
  facet normal -0.902611 -0.430458 0
    outer loop
      vertex -24.6543 80.9411 0
      vertex -24.8391 81.3286 8.8
      vertex -24.8391 81.3286 0
    endloop
  endfacet
  facet normal -0.902611 -0.430458 0
    outer loop
      vertex -24.8391 81.3286 8.8
      vertex -24.6543 80.9411 0
      vertex -24.6543 80.9411 8.8
    endloop
  endfacet
  facet normal -0.923861 -0.382729 0
    outer loop
      vertex -24.49 80.5445 0
      vertex -24.6543 80.9411 8.8
      vertex -24.6543 80.9411 0
    endloop
  endfacet
  facet normal -0.923861 -0.382729 0
    outer loop
      vertex -24.6543 80.9411 8.8
      vertex -24.49 80.5445 0
      vertex -24.49 80.5445 8.8
    endloop
  endfacet
  facet normal -0.94265 -0.333782 0
    outer loop
      vertex -24.3467 80.1398 0
      vertex -24.49 80.5445 8.8
      vertex -24.49 80.5445 0
    endloop
  endfacet
  facet normal -0.94265 -0.333782 0
    outer loop
      vertex -24.49 80.5445 8.8
      vertex -24.3467 80.1398 0
      vertex -24.3467 80.1398 8.8
    endloop
  endfacet
  facet normal -0.958833 -0.283969 0
    outer loop
      vertex -24.2248 79.7282 0
      vertex -24.3467 80.1398 8.8
      vertex -24.3467 80.1398 0
    endloop
  endfacet
  facet normal -0.958833 -0.283969 0
    outer loop
      vertex -24.3467 80.1398 8.8
      vertex -24.2248 79.7282 0
      vertex -24.2248 79.7282 8.8
    endloop
  endfacet
  facet normal -0.972387 -0.233373 0
    outer loop
      vertex -24.1246 79.3107 0
      vertex -24.2248 79.7282 8.8
      vertex -24.2248 79.7282 0
    endloop
  endfacet
  facet normal -0.972387 -0.233373 0
    outer loop
      vertex -24.2248 79.7282 8.8
      vertex -24.1246 79.3107 0
      vertex -24.1246 79.3107 8.8
    endloop
  endfacet
  facet normal -0.983268 -0.182164 0
    outer loop
      vertex -24.0464 78.8886 0
      vertex -24.1246 79.3107 8.8
      vertex -24.1246 79.3107 0
    endloop
  endfacet
  facet normal -0.983268 -0.182164 0
    outer loop
      vertex -24.1246 79.3107 8.8
      vertex -24.0464 78.8886 0
      vertex -24.0464 78.8886 8.8
    endloop
  endfacet
  facet normal -0.991424 -0.130683 0
    outer loop
      vertex -23.9903 78.463 0
      vertex -24.0464 78.8886 8.8
      vertex -24.0464 78.8886 0
    endloop
  endfacet
  facet normal -0.991424 -0.130683 0
    outer loop
      vertex -24.0464 78.8886 8.8
      vertex -23.9903 78.463 0
      vertex -23.9903 78.463 8.8
    endloop
  endfacet
  facet normal -0.996914 -0.0784954 0
    outer loop
      vertex -23.9566 78.035 0
      vertex -23.9903 78.463 8.8
      vertex -23.9903 78.463 0
    endloop
  endfacet
  facet normal -0.996914 -0.0784954 0
    outer loop
      vertex -23.9903 78.463 8.8
      vertex -23.9566 78.035 0
      vertex -23.9566 78.035 8.8
    endloop
  endfacet
  facet normal -0.99966 -0.0260923 0
    outer loop
      vertex -23.9454 77.6059 0
      vertex -23.9566 78.035 8.8
      vertex -23.9566 78.035 0
    endloop
  endfacet
  facet normal -0.99966 -0.0260923 0
    outer loop
      vertex -23.9566 78.035 8.8
      vertex -23.9454 77.6059 0
      vertex -23.9454 77.6059 8.8
    endloop
  endfacet
  facet normal -0.99966 0.0260862 0
    outer loop
      vertex -23.9566 77.1767 0
      vertex -23.9454 77.6059 8.8
      vertex -23.9454 77.6059 0
    endloop
  endfacet
  facet normal -0.99966 0.0260862 0
    outer loop
      vertex -23.9454 77.6059 8.8
      vertex -23.9566 77.1767 0
      vertex -23.9566 77.1767 8.8
    endloop
  endfacet
  facet normal -0.996914 0.0784954 0
    outer loop
      vertex -23.9903 76.7487 0
      vertex -23.9566 77.1767 8.8
      vertex -23.9566 77.1767 0
    endloop
  endfacet
  facet normal -0.996914 0.0784954 0
    outer loop
      vertex -23.9566 77.1767 8.8
      vertex -23.9903 76.7487 0
      vertex -23.9903 76.7487 8.8
    endloop
  endfacet
  facet normal -0.991424 0.130683 0
    outer loop
      vertex -24.0464 76.3231 0
      vertex -23.9903 76.7487 8.8
      vertex -23.9903 76.7487 0
    endloop
  endfacet
  facet normal -0.991424 0.130683 0
    outer loop
      vertex -23.9903 76.7487 8.8
      vertex -24.0464 76.3231 0
      vertex -24.0464 76.3231 8.8
    endloop
  endfacet
  facet normal -0.983268 0.182164 0
    outer loop
      vertex -24.1246 75.901 0
      vertex -24.0464 76.3231 8.8
      vertex -24.0464 76.3231 0
    endloop
  endfacet
  facet normal -0.983268 0.182164 0
    outer loop
      vertex -24.0464 76.3231 8.8
      vertex -24.1246 75.901 0
      vertex -24.1246 75.901 8.8
    endloop
  endfacet
  facet normal -0.972375 0.233426 0
    outer loop
      vertex -24.2248 75.4836 0
      vertex -24.1246 75.901 8.8
      vertex -24.1246 75.901 0
    endloop
  endfacet
  facet normal -0.972375 0.233426 0
    outer loop
      vertex -24.1246 75.901 8.8
      vertex -24.2248 75.4836 0
      vertex -24.2248 75.4836 8.8
    endloop
  endfacet
  facet normal -0.958852 0.283906 0
    outer loop
      vertex -24.3467 75.0719 0
      vertex -24.2248 75.4836 8.8
      vertex -24.2248 75.4836 0
    endloop
  endfacet
  facet normal -0.958852 0.283906 0
    outer loop
      vertex -24.2248 75.4836 8.8
      vertex -24.3467 75.0719 0
      vertex -24.3467 75.0719 8.8
    endloop
  endfacet
  facet normal -0.942624 0.333856 0
    outer loop
      vertex -24.49 74.6673 0
      vertex -24.3467 75.0719 8.8
      vertex -24.3467 75.0719 0
    endloop
  endfacet
  facet normal -0.942624 0.333856 0
    outer loop
      vertex -24.3467 75.0719 8.8
      vertex -24.49 74.6673 0
      vertex -24.49 74.6673 8.8
    endloop
  endfacet
  facet normal -0.923895 0.382647 0
    outer loop
      vertex -24.6543 74.2706 0
      vertex -24.49 74.6673 8.8
      vertex -24.49 74.6673 0
    endloop
  endfacet
  facet normal -0.923895 0.382647 0
    outer loop
      vertex -24.49 74.6673 8.8
      vertex -24.6543 74.2706 0
      vertex -24.6543 74.2706 8.8
    endloop
  endfacet
  facet normal -0.902611 0.430458 0
    outer loop
      vertex -24.8391 73.8831 0
      vertex -24.6543 74.2706 8.8
      vertex -24.6543 74.2706 0
    endloop
  endfacet
  facet normal -0.902611 0.430458 0
    outer loop
      vertex -24.6543 74.2706 8.8
      vertex -24.8391 73.8831 0
      vertex -24.8391 73.8831 8.8
    endloop
  endfacet
  facet normal -0.878722 0.477333 0
    outer loop
      vertex -25.044 73.5059 0
      vertex -24.8391 73.8831 8.8
      vertex -24.8391 73.8831 0
    endloop
  endfacet
  facet normal -0.878722 0.477333 0
    outer loop
      vertex -24.8391 73.8831 8.8
      vertex -25.044 73.5059 0
      vertex -25.044 73.5059 8.8
    endloop
  endfacet
  facet normal -0.852688 0.52242 0
    outer loop
      vertex -25.2683 73.1398 0
      vertex -25.044 73.5059 8.8
      vertex -25.044 73.5059 0
    endloop
  endfacet
  facet normal -0.852688 0.52242 0
    outer loop
      vertex -25.044 73.5059 8.8
      vertex -25.2683 73.1398 0
      vertex -25.2683 73.1398 8.8
    endloop
  endfacet
  facet normal -0.824083 0.56647 0
    outer loop
      vertex -25.5115 72.786 0
      vertex -25.2683 73.1398 8.8
      vertex -25.2683 73.1398 0
    endloop
  endfacet
  facet normal -0.824083 0.56647 0
    outer loop
      vertex -25.2683 73.1398 8.8
      vertex -25.5115 72.786 0
      vertex -25.5115 72.786 8.8
    endloop
  endfacet
  facet normal -0.793411 0.608686 0
    outer loop
      vertex -25.7728 72.4454 0
      vertex -25.5115 72.786 8.8
      vertex -25.5115 72.786 0
    endloop
  endfacet
  facet normal -0.793411 0.608686 0
    outer loop
      vertex -25.5115 72.786 8.8
      vertex -25.7728 72.4454 0
      vertex -25.7728 72.4454 8.8
    endloop
  endfacet
  facet normal -0.760389 0.649468 0
    outer loop
      vertex -26.0316 72.1424 0
      vertex -25.7728 72.4454 8.8
      vertex -25.7728 72.4454 0
    endloop
  endfacet
  facet normal -0.760389 0.649468 0
    outer loop
      vertex -25.7728 72.4454 8.8
      vertex -26.0316 72.1424 0
      vertex -26.0316 72.1424 8.8
    endloop
  endfacet
  facet normal -0.976187 -0.216929 0
    outer loop
      vertex -26.0316 72.1424 0
      vertex -20.2 45.9 2
      vertex -26.0316 72.1424 8.8
    endloop
  endfacet
  facet normal -0.976187 -0.216929 -7.98952e-06
    outer loop
      vertex -26.0316 72.1424 0
      vertex -18.5 38.25 1
      vertex -20.2 45.9 2
    endloop
  endfacet
  facet normal -0.976187 -0.21693 -2.91339e-05
    outer loop
      vertex -14.5678 20.5552 0
      vertex -18.5 38.25 1
      vertex -26.0316 72.1424 0
    endloop
  endfacet
  facet normal -0.976184 -0.216943 0
    outer loop
      vertex -15.8889 26.5 1
      vertex -15.5111 24.8 2
      vertex -15.8889 26.5 2
    endloop
  endfacet
  facet normal -0.976187 -0.21693 -3.80273e-05
    outer loop
      vertex -18.5 38.25 1
      vertex -14.5678 20.5552 0
      vertex -15.8889 26.5 1
    endloop
  endfacet
  facet normal -0.976186 -0.216937 9.63314e-06
    outer loop
      vertex -14.5678 20.5552 0
      vertex -15.5111 24.8 2
      vertex -15.8889 26.5 1
    endloop
  endfacet
  facet normal -0.976187 -0.216933 -0
    outer loop
      vertex -14.5678 20.5552 8.8
      vertex -15.5111 24.8 2
      vertex -14.5678 20.5552 0
    endloop
  endfacet
  facet normal -0.976187 -0.216933 0
    outer loop
      vertex -15.5111 24.8 2
      vertex -14.5678 20.5552 8.8
      vertex -15.5111 24.8 8.8
    endloop
  endfacet
  facet normal -0.976187 -0.216929 0
    outer loop
      vertex -26.0316 72.1424 8.8
      vertex -20.2 45.9 2
      vertex -20.2 45.9 8.8
    endloop
  endfacet
  facet normal -0.976187 -0.21693 0
    outer loop
      vertex -20.2 45.9 2
      vertex -18.5 38.25 1
      vertex -18.5 38.25 2
    endloop
  endfacet
  facet normal 0.5664 -0.82413 0
    outer loop
      vertex -14.5678 20.5552 0
      vertex -13.7249 21.1345 8.8
      vertex -14.5678 20.5552 8.8
    endloop
  endfacet
  facet normal 0.5664 -0.82413 0
    outer loop
      vertex -13.7249 21.1345 8.8
      vertex -14.5678 20.5552 0
      vertex -13.7249 21.1345 0
    endloop
  endfacet
  facet normal 0.522477 -0.852654 0
    outer loop
      vertex -13.7249 21.1345 0
      vertex -12.6 21.8238 8.8
      vertex -13.7249 21.1345 8.8
    endloop
  endfacet
  facet normal 0.522477 -0.852654 0
    outer loop
      vertex -12.6 21.8238 8.8
      vertex -13.7249 21.1345 0
      vertex -12.6 21.8238 0
    endloop
  endfacet
  facet normal 0.477216 -0.878786 0
    outer loop
      vertex -12.6 21.8238 0
      vertex -11.4406 22.4534 8.8
      vertex -12.6 21.8238 8.8
    endloop
  endfacet
  facet normal 0.477216 -0.878786 0
    outer loop
      vertex -11.4406 22.4534 8.8
      vertex -12.6 21.8238 0
      vertex -11.4406 22.4534 0
    endloop
  endfacet
  facet normal 0.43046 -0.90261 0
    outer loop
      vertex -11.4406 22.4534 0
      vertex -10.2498 23.0213 8.8
      vertex -11.4406 22.4534 8.8
    endloop
  endfacet
  facet normal 0.43046 -0.90261 0
    outer loop
      vertex -10.2498 23.0213 8.8
      vertex -11.4406 22.4534 0
      vertex -10.2498 23.0213 0
    endloop
  endfacet
  facet normal 0.382685 -0.923879 0
    outer loop
      vertex -10.2498 23.0213 0
      vertex -9.03087 23.5262 8.8
      vertex -10.2498 23.0213 8.8
    endloop
  endfacet
  facet normal 0.382685 -0.923879 0
    outer loop
      vertex -9.03087 23.5262 8.8
      vertex -10.2498 23.0213 0
      vertex -9.03087 23.5262 0
    endloop
  endfacet
  facet normal 0.333807 -0.942641 0
    outer loop
      vertex -9.03087 23.5262 0
      vertex -7.78722 23.9666 8.8
      vertex -9.03087 23.5262 8.8
    endloop
  endfacet
  facet normal 0.333807 -0.942641 0
    outer loop
      vertex -7.78722 23.9666 8.8
      vertex -9.03087 23.5262 0
      vertex -7.78722 23.9666 0
    endloop
  endfacet
  facet normal 0.28401 -0.958821 0
    outer loop
      vertex -7.78722 23.9666 0
      vertex -6.52223 24.3413 8.8
      vertex -7.78722 23.9666 8.8
    endloop
  endfacet
  facet normal 0.28401 -0.958821 0
    outer loop
      vertex -6.52223 24.3413 8.8
      vertex -7.78722 23.9666 0
      vertex -6.52223 24.3413 0
    endloop
  endfacet
  facet normal 0.233453 -0.972368 0
    outer loop
      vertex -6.52223 24.3413 0
      vertex -5.23936 24.6493 8.8
      vertex -6.52223 24.3413 8.8
    endloop
  endfacet
  facet normal 0.233453 -0.972368 0
    outer loop
      vertex -5.23936 24.6493 8.8
      vertex -6.52223 24.3413 0
      vertex -5.23936 24.6493 0
    endloop
  endfacet
  facet normal 0.182383 -0.983227 0
    outer loop
      vertex -5.23936 24.6493 0
      vertex -5 24.6937 8.8
      vertex -5.23936 24.6493 8.8
    endloop
  endfacet
  facet normal 0.182383 -0.983227 0
    outer loop
      vertex -5 24.6937 8.8
      vertex -5.23936 24.6493 0
      vertex -5 24.6937 0
    endloop
  endfacet
  facet normal 1 0 0
    outer loop
      vertex -5 24.8 8.8
      vertex -5 24.6937 8.8
      vertex -5 24.8 2
    endloop
  endfacet
  facet normal 1 -0 0
    outer loop
      vertex -5 24.8 2
      vertex -5 26.5 1
      vertex -5 26.5 2
    endloop
  endfacet
  facet normal 1 0 0
    outer loop
      vertex -5 24.6937 0
      vertex -5 26.5 1
      vertex -5 24.8 2
    endloop
  endfacet
  facet normal 1 0 0
    outer loop
      vertex -5 26.5 1
      vertex -5 24.6937 0
      vertex -5 26.5 0
    endloop
  endfacet
  facet normal 1 0 0
    outer loop
      vertex -5 24.6937 0
      vertex -5 24.8 2
      vertex -5 24.6937 8.8
    endloop
  endfacet
  facet normal 0 -1 0
    outer loop
      vertex -5 26.5 0
      vertex 5 26.5 1
      vertex -5 26.5 1
    endloop
  endfacet
  facet normal 0 -1 -0
    outer loop
      vertex 5 26.5 1
      vertex -5 26.5 0
      vertex 5 26.5 0
    endloop
  endfacet
  facet normal 0 1 -0
    outer loop
      vertex -7.68491 26.5 0
      vertex -13.4303 26.5 1
      vertex -7.68491 26.5 1
    endloop
  endfacet
  facet normal 0 1 0
    outer loop
      vertex -13.4303 26.5 1
      vertex -7.68491 26.5 0
      vertex -13.4303 26.5 0
    endloop
  endfacet
  facet normal 0 1 0
    outer loop
      vertex -7.68491 26.5 1
      vertex -5 26.5 2
      vertex -5 26.5 1
    endloop
  endfacet
  facet normal 0 1 0
    outer loop
      vertex -5 26.5 2
      vertex -7.68491 26.5 1
      vertex -15.8889 26.5 2
    endloop
  endfacet
  facet normal 0 1 -0
    outer loop
      vertex -13.4303 26.5 1
      vertex -15.8889 26.5 2
      vertex -7.68491 26.5 1
    endloop
  endfacet
  facet normal 0 1 0
    outer loop
      vertex -15.8889 26.5 2
      vertex -13.4303 26.5 1
      vertex -15.8889 26.5 1
    endloop
  endfacet
  facet normal 0 1 -0
    outer loop
      vertex 13.4303 26.5 0
      vertex 7.68491 26.5 1
      vertex 13.4303 26.5 1
    endloop
  endfacet
  facet normal 0 1 0
    outer loop
      vertex 7.68491 26.5 1
      vertex 13.4303 26.5 0
      vertex 7.68491 26.5 0
    endloop
  endfacet
  facet normal 0 1 0
    outer loop
      vertex 13.4303 26.5 1
      vertex 15.8889 26.5 2
      vertex 15.8889 26.5 1
    endloop
  endfacet
  facet normal 0 1 0
    outer loop
      vertex 7.68491 26.5 1
      vertex 15.8889 26.5 2
      vertex 13.4303 26.5 1
    endloop
  endfacet
  facet normal 0 1 0
    outer loop
      vertex 15.8889 26.5 2
      vertex 7.68491 26.5 1
      vertex 5 26.5 2
    endloop
  endfacet
  facet normal 0 1 0
    outer loop
      vertex 5 26.5 2
      vertex 7.68491 26.5 1
      vertex 5 26.5 1
    endloop
  endfacet
  facet normal -1 0 0
    outer loop
      vertex 5 24.6937 0
      vertex 5 26.5 1
      vertex 5 26.5 0
    endloop
  endfacet
  facet normal -1 0 0
    outer loop
      vertex 5 26.5 1
      vertex 5 24.8 2
      vertex 5 26.5 2
    endloop
  endfacet
  facet normal -1 -0 0
    outer loop
      vertex 5 26.5 1
      vertex 5 24.6937 0
      vertex 5 24.8 2
    endloop
  endfacet
  facet normal -1 0 0
    outer loop
      vertex 5 24.6937 8.8
      vertex 5 24.8 2
      vertex 5 24.6937 0
    endloop
  endfacet
  facet normal -1 0 0
    outer loop
      vertex 5 24.8 2
      vertex 5 24.6937 8.8
      vertex 5 24.8 8.8
    endloop
  endfacet
  facet normal -0.182383 -0.983227 0
    outer loop
      vertex 5 24.6937 0
      vertex 5.23936 24.6493 8.8
      vertex 5 24.6937 8.8
    endloop
  endfacet
  facet normal -0.182383 -0.983227 -0
    outer loop
      vertex 5.23936 24.6493 8.8
      vertex 5 24.6937 0
      vertex 5.23936 24.6493 0
    endloop
  endfacet
  facet normal -0.233453 -0.972368 0
    outer loop
      vertex 5.23936 24.6493 0
      vertex 6.52223 24.3413 8.8
      vertex 5.23936 24.6493 8.8
    endloop
  endfacet
  facet normal -0.233453 -0.972368 -0
    outer loop
      vertex 6.52223 24.3413 8.8
      vertex 5.23936 24.6493 0
      vertex 6.52223 24.3413 0
    endloop
  endfacet
  facet normal -0.28401 -0.958821 0
    outer loop
      vertex 6.52223 24.3413 0
      vertex 7.78722 23.9666 8.8
      vertex 6.52223 24.3413 8.8
    endloop
  endfacet
  facet normal -0.28401 -0.958821 -0
    outer loop
      vertex 7.78722 23.9666 8.8
      vertex 6.52223 24.3413 0
      vertex 7.78722 23.9666 0
    endloop
  endfacet
  facet normal -0.333807 -0.942641 0
    outer loop
      vertex 7.78722 23.9666 0
      vertex 9.03087 23.5262 8.8
      vertex 7.78722 23.9666 8.8
    endloop
  endfacet
  facet normal -0.333807 -0.942641 -0
    outer loop
      vertex 9.03087 23.5262 8.8
      vertex 7.78722 23.9666 0
      vertex 9.03087 23.5262 0
    endloop
  endfacet
  facet normal -0.382685 -0.923879 0
    outer loop
      vertex 9.03087 23.5262 0
      vertex 10.2498 23.0213 8.8
      vertex 9.03087 23.5262 8.8
    endloop
  endfacet
  facet normal -0.382685 -0.923879 -0
    outer loop
      vertex 10.2498 23.0213 8.8
      vertex 9.03087 23.5262 0
      vertex 10.2498 23.0213 0
    endloop
  endfacet
  facet normal -0.43046 -0.90261 0
    outer loop
      vertex 10.2498 23.0213 0
      vertex 11.4406 22.4534 8.8
      vertex 10.2498 23.0213 8.8
    endloop
  endfacet
  facet normal -0.43046 -0.90261 -0
    outer loop
      vertex 11.4406 22.4534 8.8
      vertex 10.2498 23.0213 0
      vertex 11.4406 22.4534 0
    endloop
  endfacet
  facet normal -0.477216 -0.878786 0
    outer loop
      vertex 11.4406 22.4534 0
      vertex 12.6 21.8238 8.8
      vertex 11.4406 22.4534 8.8
    endloop
  endfacet
  facet normal -0.477216 -0.878786 -0
    outer loop
      vertex 12.6 21.8238 8.8
      vertex 11.4406 22.4534 0
      vertex 12.6 21.8238 0
    endloop
  endfacet
  facet normal -0.522477 -0.852654 0
    outer loop
      vertex 12.6 21.8238 0
      vertex 13.7249 21.1345 8.8
      vertex 12.6 21.8238 8.8
    endloop
  endfacet
  facet normal -0.522477 -0.852654 -0
    outer loop
      vertex 13.7249 21.1345 8.8
      vertex 12.6 21.8238 0
      vertex 13.7249 21.1345 0
    endloop
  endfacet
  facet normal -0.5664 -0.82413 0
    outer loop
      vertex 13.7249 21.1345 0
      vertex 14.5678 20.5552 8.8
      vertex 13.7249 21.1345 8.8
    endloop
  endfacet
  facet normal -0.5664 -0.82413 -0
    outer loop
      vertex 14.5678 20.5552 8.8
      vertex 13.7249 21.1345 0
      vertex 14.5678 20.5552 0
    endloop
  endfacet
  facet normal 0.976187 -0.216933 0
    outer loop
      vertex 15.5111 24.8 8.8
      vertex 14.5678 20.5552 8.8
      vertex 15.5111 24.8 2
    endloop
  endfacet
  facet normal 0.976184 -0.216943 0
    outer loop
      vertex 15.8889 26.5 2
      vertex 15.5111 24.8 2
      vertex 15.8889 26.5 1
    endloop
  endfacet
  facet normal 0.976187 -0.216929 0
    outer loop
      vertex 20.2 45.9 2
      vertex 26.0316 72.1424 8.8
      vertex 20.2 45.9 8.8
    endloop
  endfacet
  facet normal 0.976187 -0.216929 0
    outer loop
      vertex 26.0316 72.1424 8.8
      vertex 20.2 45.9 2
      vertex 26.0316 72.1424 0
    endloop
  endfacet
  facet normal 0.976187 -0.21693 0
    outer loop
      vertex 18.5 38.25 1
      vertex 20.2 45.9 2
      vertex 18.5 38.25 2
    endloop
  endfacet
  facet normal 0.976187 -0.216929 -7.98952e-06
    outer loop
      vertex 20.2 45.9 2
      vertex 18.5 38.25 1
      vertex 26.0316 72.1424 0
    endloop
  endfacet
  facet normal 0.976187 -0.21693 -3.80273e-05
    outer loop
      vertex 14.5678 20.5552 0
      vertex 18.5 38.25 1
      vertex 15.8889 26.5 1
    endloop
  endfacet
  facet normal 0.976187 -0.21693 -2.91339e-05
    outer loop
      vertex 18.5 38.25 1
      vertex 14.5678 20.5552 0
      vertex 26.0316 72.1424 0
    endloop
  endfacet
  facet normal 0.976186 -0.216937 9.63314e-06
    outer loop
      vertex 15.5111 24.8 2
      vertex 14.5678 20.5552 0
      vertex 15.8889 26.5 1
    endloop
  endfacet
  facet normal 0.976187 -0.216933 0
    outer loop
      vertex 14.5678 20.5552 0
      vertex 15.5111 24.8 2
      vertex 14.5678 20.5552 8.8
    endloop
  endfacet
  facet normal -1 0 0
    outer loop
      vertex 18.5 83.3542 0
      vertex 18.5 49.3135 0
      vertex 18.5 83.3542 1
    endloop
  endfacet
  facet normal -1 0 0
    outer loop
      vertex 18.5 83.3542 1
      vertex 18.5 83.5 2
      vertex 18.5 83.5 1
    endloop
  endfacet
  facet normal -1 0 0
    outer loop
      vertex 18.5 49.3135 1
      vertex 18.5 83.3542 1
      vertex 18.5 49.3135 0
    endloop
  endfacet
  facet normal -1 0 0
    outer loop
      vertex 18.5 83.3542 1
      vertex 18.5 49.3135 1
      vertex 18.5 83.5 2
    endloop
  endfacet
  facet normal -1 0 0
    outer loop
      vertex 18.5 38.25 2
      vertex 18.5 49.3135 1
      vertex 18.5 38.25 1
    endloop
  endfacet
  facet normal -1 0 0
    outer loop
      vertex 18.5 49.3135 1
      vertex 18.5 38.25 2
      vertex 18.5 83.5 2
    endloop
  endfacet
  facet normal -0.233482 -0.972361 0
    outer loop
      vertex 17.8928 83.5 0
      vertex 18.5 83.3542 1
      vertex 17.8928 83.5 1
    endloop
  endfacet
  facet normal -0.233482 -0.972361 -0
    outer loop
      vertex 18.5 83.3542 1
      vertex 17.8928 83.5 0
      vertex 18.5 83.3542 0
    endloop
  endfacet
  facet normal 0 -1 0
    outer loop
      vertex -17.8928 83.5 0
      vertex 17.8928 83.5 1
      vertex -17.8928 83.5 1
    endloop
  endfacet
  facet normal 0 -1 -0
    outer loop
      vertex 17.8928 83.5 1
      vertex -17.8928 83.5 0
      vertex 17.8928 83.5 0
    endloop
  endfacet
  facet normal 0 -1 0
    outer loop
      vertex -17.8928 83.5 1
      vertex -18.5 83.5 2
      vertex -18.5 83.5 1
    endloop
  endfacet
  facet normal 0 -1 0
    outer loop
      vertex -18.5 83.5 2
      vertex -17.8928 83.5 1
      vertex 18.5 83.5 2
    endloop
  endfacet
  facet normal 0 -1 0
    outer loop
      vertex 17.8928 83.5 1
      vertex 18.5 83.5 2
      vertex -17.8928 83.5 1
    endloop
  endfacet
  facet normal 0 -1 -0
    outer loop
      vertex 18.5 83.5 2
      vertex 17.8928 83.5 1
      vertex 18.5 83.5 1
    endloop
  endfacet
  facet normal 0.233482 -0.972361 0
    outer loop
      vertex -18.5 83.3542 0
      vertex -17.8928 83.5 1
      vertex -18.5 83.3542 1
    endloop
  endfacet
  facet normal 0.233482 -0.972361 0
    outer loop
      vertex -17.8928 83.5 1
      vertex -18.5 83.3542 0
      vertex -17.8928 83.5 0
    endloop
  endfacet
  facet normal 1 0 0
    outer loop
      vertex -18.5 83.5 2
      vertex -18.5 83.3542 1
      vertex -18.5 83.5 1
    endloop
  endfacet
  facet normal 1 0 0
    outer loop
      vertex -18.5 83.3542 1
      vertex -18.5 49.3135 1
      vertex -18.5 83.3542 0
    endloop
  endfacet
  facet normal 1 0 0
    outer loop
      vertex -18.5 83.5 2
      vertex -18.5 49.3135 1
      vertex -18.5 83.3542 1
    endloop
  endfacet
  facet normal 1 -0 0
    outer loop
      vertex -18.5 38.25 2
      vertex -18.5 49.3135 1
      vertex -18.5 83.5 2
    endloop
  endfacet
  facet normal 1 0 0
    outer loop
      vertex -18.5 49.3135 1
      vertex -18.5 38.25 2
      vertex -18.5 38.25 1
    endloop
  endfacet
  facet normal 1 0 0
    outer loop
      vertex -18.5 83.3542 0
      vertex -18.5 49.3135 1
      vertex -18.5 49.3135 0
    endloop
  endfacet
  facet normal 0.976187 0.216932 0
    outer loop
      vertex -13.4303 26.5 1
      vertex -18.5 49.3135 0
      vertex -18.5 49.3135 1
    endloop
  endfacet
  facet normal 0.976187 0.216932 0
    outer loop
      vertex -18.5 49.3135 0
      vertex -13.4303 26.5 1
      vertex -13.4303 26.5 0
    endloop
  endfacet
  facet normal -0.284024 0.958817 0
    outer loop
      vertex -7.39999 26.5844 0
      vertex -7.68491 26.5 1
      vertex -7.39999 26.5844 1
    endloop
  endfacet
  facet normal -0.284024 0.958817 0
    outer loop
      vertex -7.68491 26.5 1
      vertex -7.39999 26.5844 0
      vertex -7.68491 26.5 0
    endloop
  endfacet
  facet normal -1 0 0
    outer loop
      vertex -7.39999 26.5844 0
      vertex -7.39999 28.9 1
      vertex -7.39999 28.9 0
    endloop
  endfacet
  facet normal -1 -0 0
    outer loop
      vertex -7.39999 28.9 1
      vertex -7.39999 26.5844 0
      vertex -7.39999 26.5844 1
    endloop
  endfacet
  facet normal 0 1 -0
    outer loop
      vertex 7.39999 28.9 0
      vertex -7.39999 28.9 1
      vertex 7.39999 28.9 1
    endloop
  endfacet
  facet normal 0 1 0
    outer loop
      vertex -7.39999 28.9 1
      vertex 7.39999 28.9 0
      vertex -7.39999 28.9 0
    endloop
  endfacet
  facet normal 1 -0 0
    outer loop
      vertex 7.39999 26.5844 1
      vertex 7.39999 28.9 0
      vertex 7.39999 28.9 1
    endloop
  endfacet
  facet normal 1 0 0
    outer loop
      vertex 7.39999 28.9 0
      vertex 7.39999 26.5844 1
      vertex 7.39999 26.5844 0
    endloop
  endfacet
  facet normal 0.284024 0.958817 -0
    outer loop
      vertex 7.68491 26.5 0
      vertex 7.39999 26.5844 1
      vertex 7.68491 26.5 1
    endloop
  endfacet
  facet normal 0.284024 0.958817 0
    outer loop
      vertex 7.39999 26.5844 1
      vertex 7.68491 26.5 0
      vertex 7.39999 26.5844 0
    endloop
  endfacet
  facet normal -0.976187 0.216932 0
    outer loop
      vertex 13.4303 26.5 0
      vertex 18.5 49.3135 1
      vertex 18.5 49.3135 0
    endloop
  endfacet
  facet normal -0.976187 0.216932 0
    outer loop
      vertex 18.5 49.3135 1
      vertex 13.4303 26.5 0
      vertex 13.4303 26.5 1
    endloop
  endfacet
  facet normal 0 0 1
    outer loop
      vertex 20.2 85.2 2
      vertex 18.5 83.5 2
      vertex 20.2 45.9 2
    endloop
  endfacet
  facet normal 0 0 1
    outer loop
      vertex 20.2 85.2 2
      vertex -18.5 83.5 2
      vertex 18.5 83.5 2
    endloop
  endfacet
  facet normal -0 0 1
    outer loop
      vertex -20.2 85.2 2
      vertex -18.5 83.5 2
      vertex 20.2 85.2 2
    endloop
  endfacet
  facet normal 0 0 1
    outer loop
      vertex -20.2 45.9 2
      vertex -18.5 83.5 2
      vertex -20.2 85.2 2
    endloop
  endfacet
  facet normal 0 0 1
    outer loop
      vertex -18.5 83.5 2
      vertex -20.2 45.9 2
      vertex -18.5 38.25 2
    endloop
  endfacet
  facet normal 0 0 1
    outer loop
      vertex 20.2 45.9 2
      vertex 18.5 83.5 2
      vertex 18.5 38.25 2
    endloop
  endfacet
  facet normal 0 0 1
    outer loop
      vertex -5 26.5 2
      vertex -15.5111 24.8 2
      vertex -5 24.8 2
    endloop
  endfacet
  facet normal 0 -0 1
    outer loop
      vertex -15.5111 24.8 2
      vertex -5 26.5 2
      vertex -15.8889 26.5 2
    endloop
  endfacet
  facet normal -0 0 1
    outer loop
      vertex 5 26.5 2
      vertex 15.5111 24.8 2
      vertex 15.8889 26.5 2
    endloop
  endfacet
  facet normal 0 0 1
    outer loop
      vertex 15.5111 24.8 2
      vertex 5 26.5 2
      vertex 5 24.8 2
    endloop
  endfacet
  facet normal 1 -0 0
    outer loop
      vertex -20.2 45.9 8.8
      vertex -20.2 85.2 2
      vertex -20.2 85.2 8.8
    endloop
  endfacet
  facet normal 1 0 0
    outer loop
      vertex -20.2 85.2 2
      vertex -20.2 45.9 8.8
      vertex -20.2 45.9 2
    endloop
  endfacet
  facet normal 0 -1 0
    outer loop
      vertex -20.2 85.2 2
      vertex 20.2 85.2 8.8
      vertex -20.2 85.2 8.8
    endloop
  endfacet
  facet normal 0 -1 -0
    outer loop
      vertex 20.2 85.2 8.8
      vertex -20.2 85.2 2
      vertex 20.2 85.2 2
    endloop
  endfacet
  facet normal -1 0 0
    outer loop
      vertex 20.2 45.9 2
      vertex 20.2 85.2 8.8
      vertex 20.2 85.2 2
    endloop
  endfacet
  facet normal -1 -0 0
    outer loop
      vertex 20.2 85.2 8.8
      vertex 20.2 45.9 2
      vertex 20.2 45.9 8.8
    endloop
  endfacet
  facet normal 0 1 -0
    outer loop
      vertex -5 24.8 2
      vertex -15.5111 24.8 8.8
      vertex -5 24.8 8.8
    endloop
  endfacet
  facet normal 0 1 0
    outer loop
      vertex -15.5111 24.8 8.8
      vertex -5 24.8 2
      vertex -15.5111 24.8 2
    endloop
  endfacet
  facet normal 0 1 -0
    outer loop
      vertex 15.5111 24.8 2
      vertex 5 24.8 8.8
      vertex 15.5111 24.8 8.8
    endloop
  endfacet
  facet normal 0 1 0
    outer loop
      vertex 5 24.8 8.8
      vertex 15.5111 24.8 2
      vertex 5 24.8 2
    endloop
  endfacet
  facet normal 0 0 1
    outer loop
      vertex -17.8928 83.5 1
      vertex -18.5 83.5 1
      vertex -18.5 83.3542 1
    endloop
  endfacet
  facet normal 0 -0 1
    outer loop
      vertex 18.5 83.3542 1
      vertex 18.5 83.5 1
      vertex 17.8928 83.5 1
    endloop
  endfacet
  facet normal -0 0 1
    outer loop
      vertex -18.5 38.25 1
      vertex -13.4303 26.5 1
      vertex -18.5 49.3135 1
    endloop
  endfacet
  facet normal 0 0 1
    outer loop
      vertex -13.4303 26.5 1
      vertex -18.5 38.25 1
      vertex -15.8889 26.5 1
    endloop
  endfacet
  facet normal 0 0 1
    outer loop
      vertex 7.39999 28.9 1
      vertex 5 26.5 1
      vertex 7.39999 26.5844 1
    endloop
  endfacet
  facet normal 0 0 1
    outer loop
      vertex 7.39999 28.9 1
      vertex -5 26.5 1
      vertex 5 26.5 1
    endloop
  endfacet
  facet normal -0 0 1
    outer loop
      vertex -7.39999 28.9 1
      vertex -5 26.5 1
      vertex 7.39999 28.9 1
    endloop
  endfacet
  facet normal -0 0 1
    outer loop
      vertex -7.39999 26.5844 1
      vertex -5 26.5 1
      vertex -7.39999 28.9 1
    endloop
  endfacet
  facet normal 0 0 1
    outer loop
      vertex -5 26.5 1
      vertex -7.39999 26.5844 1
      vertex -7.68491 26.5 1
    endloop
  endfacet
  facet normal 0 0 1
    outer loop
      vertex 7.68491 26.5 1
      vertex 7.39999 26.5844 1
      vertex 5 26.5 1
    endloop
  endfacet
  facet normal 0 0 1
    outer loop
      vertex 13.4303 26.5 1
      vertex 18.5 38.25 1
      vertex 18.5 49.3135 1
    endloop
  endfacet
  facet normal 0 0 1
    outer loop
      vertex 18.5 38.25 1
      vertex 13.4303 26.5 1
      vertex 15.8889 26.5 1
    endloop
  endfacet
endsolid OpenSCAD_Model
