solid OpenSCAD_Model
  facet normal 0 0 -1
    outer loop
      vertex 1.05751 -2.37521 0
      vertex 2.03368 -4.56772 0
      vertex 1.54507 -4.75528 0
    endloop
  endfacet
  facet normal 0 0 -1
    outer loop
      vertex 1.93217 -1.73973 0
      vertex 3.71571 -3.34564 0
      vertex 3.34564 -3.71571 0
    endloop
  endfacet
  facet normal -0 0 -1
    outer loop
      vertex 2.5 -4.33012 0
      vertex 2.03368 -4.56772 0
      vertex 1.29999 -2.25166 0
    endloop
  endfacet
  facet normal 0 -0 -1
    outer loop
      vertex 2.25166 -1.29999 0
      vertex 4.04507 -2.93892 0
      vertex 2.10344 -1.52823 0
    endloop
  endfacet
  facet normal 0 0 -1
    outer loop
      vertex 2.93892 -4.04507 0
      vertex 1.73973 -1.93217 0
      vertex 3.34564 -3.71571 0
    endloop
  endfacet
  facet normal -0 0 -1
    outer loop
      vertex 4.75528 -1.54507 0
      vertex 4.56772 -2.03368 0
      vertex 2.37521 -1.05751 0
    endloop
  endfacet
  facet normal 0 0 -1
    outer loop
      vertex 2.58575 -0.271759 0
      vertex 2.59999 0 0
      vertex 4.9726 -0.522629 0
    endloop
  endfacet
  facet normal 0 0 -1
    outer loop
      vertex 2.59999 0 0
      vertex 4.9726 0.522629 0
      vertex 5 0 0
    endloop
  endfacet
  facet normal 0 0 -1
    outer loop
      vertex 2.58575 0.271759 0
      vertex 2.54318 0.540558 0
      vertex 4.9726 0.522629 0
    endloop
  endfacet
  facet normal -0 0 -1
    outer loop
      vertex 4.89073 -1.03955 0
      vertex 4.75528 -1.54507 0
      vertex 2.54318 -0.540558 0
    endloop
  endfacet
  facet normal 0 0 -1
    outer loop
      vertex 2.10344 1.52823 0
      vertex 1.93217 1.73973 0
      vertex 4.04507 2.93892 0
    endloop
  endfacet
  facet normal 0 0 -1
    outer loop
      vertex 2.25166 1.29999 0
      vertex 2.10344 1.52823 0
      vertex 4.04507 2.93892 0
    endloop
  endfacet
  facet normal 0 0 -1
    outer loop
      vertex 1.93217 1.73973 0
      vertex 3.34564 3.71571 0
      vertex 3.71571 3.34564 0
    endloop
  endfacet
  facet normal 0 0 -1
    outer loop
      vertex 1.73973 1.93217 0
      vertex 2.93892 4.04507 0
      vertex 3.34564 3.71571 0
    endloop
  endfacet
  facet normal 0 0 -1
    outer loop
      vertex 1.29999 2.25166 0
      vertex 2.03368 4.56772 0
      vertex 2.5 4.33012 0
    endloop
  endfacet
  facet normal 0 0 -1
    outer loop
      vertex 1.52823 2.10344 0
      vertex 1.29999 2.25166 0
      vertex 2.93892 4.04507 0
    endloop
  endfacet
  facet normal 0 0 -1
    outer loop
      vertex 0.803436 2.47273 0
      vertex 0.540558 2.54318 0
      vertex 1.54507 4.75528 0
    endloop
  endfacet
  facet normal 0 0 -1
    outer loop
      vertex 0.271759 2.58575 0
      vertex 0 2.59999 0
      vertex 0.522629 4.9726 0
    endloop
  endfacet
  facet normal 0 0 -1
    outer loop
      vertex 0 2.59999 0
      vertex -0.522629 4.9726 0
      vertex 0 5 0
    endloop
  endfacet
  facet normal -0 0 -1
    outer loop
      vertex -0.271759 2.58575 0
      vertex -0.540558 2.54318 0
      vertex -0.522629 4.9726 0
    endloop
  endfacet
  facet normal 0 0 -1
    outer loop
      vertex -0.540558 2.54318 0
      vertex -1.54507 4.75528 0
      vertex -1.03955 4.89073 0
    endloop
  endfacet
  facet normal -0 0 -1
    outer loop
      vertex 4.56772 2.03368 0
      vertex 2.25166 1.29999 0
      vertex 4.33012 2.5 0
    endloop
  endfacet
  facet normal 0 0 -1
    outer loop
      vertex -1.29999 2.25166 0
      vertex -2.93892 4.04507 0
      vertex -2.5 4.33012 0
    endloop
  endfacet
  facet normal 0 -0 -1
    outer loop
      vertex -2.03368 4.56772 0
      vertex -1.29999 2.25166 0
      vertex -2.5 4.33012 0
    endloop
  endfacet
  facet normal -0 0 -1
    outer loop
      vertex -1.73973 1.93217 0
      vertex -1.93217 1.73973 0
      vertex -3.34564 3.71571 0
    endloop
  endfacet
  facet normal 0 0 -1
    outer loop
      vertex -1.93217 1.73973 0
      vertex -4.04507 2.93892 0
      vertex -3.71571 3.34564 0
    endloop
  endfacet
  facet normal 0 0 -1
    outer loop
      vertex -2.25166 1.29999 0
      vertex -4.56772 2.03368 0
      vertex -4.33012 2.5 0
    endloop
  endfacet
  facet normal -0 0 -1
    outer loop
      vertex -2.10344 1.52823 0
      vertex -2.25166 1.29999 0
      vertex -4.04507 2.93892 0
    endloop
  endfacet
  facet normal -0 0 -1
    outer loop
      vertex -2.47273 0.803436 0
      vertex -2.54318 0.540558 0
      vertex -4.75528 1.54507 0
    endloop
  endfacet
  facet normal -0 0 -1
    outer loop
      vertex -2.58575 0.271759 0
      vertex -2.59999 0 0
      vertex -4.9726 0.522629 0
    endloop
  endfacet
  facet normal -0 0 -1
    outer loop
      vertex -2.59999 0 0
      vertex -4.9726 -0.522629 0
      vertex -5 0 0
    endloop
  endfacet
  facet normal 0 -0 -1
    outer loop
      vertex -2.58575 -0.271759 0
      vertex -2.54318 -0.540558 0
      vertex -4.9726 -0.522629 0
    endloop
  endfacet
  facet normal 0 0 -1
    outer loop
      vertex -2.54318 -0.540558 0
      vertex -4.75528 -1.54507 0
      vertex -4.89073 -1.03955 0
    endloop
  endfacet
  facet normal 0 -0 -1
    outer loop
      vertex -2.37521 -1.05751 0
      vertex -2.25166 -1.29999 0
      vertex -4.56772 -2.03368 0
    endloop
  endfacet
  facet normal 0 -0 -1
    outer loop
      vertex -2.25166 -1.29999 0
      vertex -2.10344 -1.52823 0
      vertex -4.04507 -2.93892 0
    endloop
  endfacet
  facet normal 0 0 -1
    outer loop
      vertex -1.93217 -1.73973 0
      vertex -3.34564 -3.71571 0
      vertex -3.71571 -3.34564 0
    endloop
  endfacet
  facet normal 0 0 -1
    outer loop
      vertex -1.73973 -1.93217 0
      vertex -2.93892 -4.04507 0
      vertex -3.34564 -3.71571 0
    endloop
  endfacet
  facet normal -0 0 -1
    outer loop
      vertex -1.05751 -2.37521 0
      vertex -2.03368 -4.56772 0
      vertex -1.29999 -2.25166 0
    endloop
  endfacet
  facet normal 0 0 -1
    outer loop
      vertex -1.29999 -2.25166 0
      vertex -2.03368 -4.56772 0
      vertex -2.5 -4.33012 0
    endloop
  endfacet
  facet normal 0 -0 -1
    outer loop
      vertex -1.52823 -2.10344 0
      vertex -1.29999 -2.25166 0
      vertex -2.93892 -4.04507 0
    endloop
  endfacet
  facet normal 0 0 -1
    outer loop
      vertex -2.03368 -4.56772 0
      vertex -1.05751 -2.37521 0
      vertex -1.54507 -4.75528 0
    endloop
  endfacet
  facet normal 0 0 -1
    outer loop
      vertex -1.54507 -4.75528 0
      vertex -1.05751 -2.37521 0
      vertex -0.803436 -2.47273 0
    endloop
  endfacet
  facet normal -0 0 -1
    outer loop
      vertex -0.540558 -2.54318 0
      vertex -1.54507 -4.75528 0
      vertex -0.803436 -2.47273 0
    endloop
  endfacet
  facet normal 0 0 -1
    outer loop
      vertex -0.540558 -2.54318 0
      vertex -1.03955 -4.89073 0
      vertex -1.54507 -4.75528 0
    endloop
  endfacet
  facet normal 0 -0 -1
    outer loop
      vertex -0.540558 -2.54318 0
      vertex -0.522629 -4.9726 0
      vertex -1.03955 -4.89073 0
    endloop
  endfacet
  facet normal 0 -0 -1
    outer loop
      vertex -0.271759 -2.58575 0
      vertex 0 -2.59999 0
      vertex -0.522629 -4.9726 0
    endloop
  endfacet
  facet normal 0 0 -1
    outer loop
      vertex -0.540558 -2.54318 0
      vertex -0.271759 -2.58575 0
      vertex -0.522629 -4.9726 0
    endloop
  endfacet
  facet normal 0 0 -1
    outer loop
      vertex 0 -5 0
      vertex -0.522629 -4.9726 0
      vertex 0 -2.59999 0
    endloop
  endfacet
  facet normal -0 0 -1
    outer loop
      vertex 0.522629 -4.9726 0
      vertex 0 -5 0
      vertex 0 -2.59999 0
    endloop
  endfacet
  facet normal 0 0 -1
    outer loop
      vertex 0.540558 -2.54318 0
      vertex 1.54507 -4.75528 0
      vertex 1.03955 -4.89073 0
    endloop
  endfacet
  facet normal 0 -0 -1
    outer loop
      vertex -2.93892 4.04507 0
      vertex -1.73973 1.93217 0
      vertex -3.34564 3.71571 0
    endloop
  endfacet
  facet normal 0 0 -1
    outer loop
      vertex -1.29999 -2.25166 0
      vertex -2.5 -4.33012 0
      vertex -2.93892 -4.04507 0
    endloop
  endfacet
  facet normal 0 0 -1
    outer loop
      vertex 2.59999 0 0
      vertex 2.58575 0.271759 0
      vertex 4.9726 0.522629 0
    endloop
  endfacet
  facet normal -0 0 -1
    outer loop
      vertex -1.52823 -2.10344 0
      vertex -2.93892 -4.04507 0
      vertex -1.73973 -1.93217 0
    endloop
  endfacet
  facet normal -0 0 -1
    outer loop
      vertex -1.73973 -1.93217 0
      vertex -3.34564 -3.71571 0
      vertex -1.93217 -1.73973 0
    endloop
  endfacet
  facet normal -0 0 -1
    outer loop
      vertex -1.93217 -1.73973 0
      vertex -4.04507 -2.93892 0
      vertex -2.10344 -1.52823 0
    endloop
  endfacet
  facet normal 0 0 -1
    outer loop
      vertex -3.71571 -3.34564 0
      vertex -4.04507 -2.93892 0
      vertex -1.93217 -1.73973 0
    endloop
  endfacet
  facet normal 0 0 -1
    outer loop
      vertex -4.33012 -2.5 0
      vertex -2.25166 -1.29999 0
      vertex -4.04507 -2.93892 0
    endloop
  endfacet
  facet normal 0 0 -1
    outer loop
      vertex -2.25166 -1.29999 0
      vertex -4.33012 -2.5 0
      vertex -4.56772 -2.03368 0
    endloop
  endfacet
  facet normal -0 0 -1
    outer loop
      vertex -2.37521 -1.05751 0
      vertex -4.75528 -1.54507 0
      vertex -2.47273 -0.803436 0
    endloop
  endfacet
  facet normal 0 0 -1
    outer loop
      vertex -4.56772 -2.03368 0
      vertex -4.75528 -1.54507 0
      vertex -2.37521 -1.05751 0
    endloop
  endfacet
  facet normal -0 0 -1
    outer loop
      vertex -2.47273 -0.803436 0
      vertex -4.75528 -1.54507 0
      vertex -2.54318 -0.540558 0
    endloop
  endfacet
  facet normal -0 0 -1
    outer loop
      vertex -2.54318 -0.540558 0
      vertex -4.89073 -1.03955 0
      vertex -4.9726 -0.522629 0
    endloop
  endfacet
  facet normal -0 0 -1
    outer loop
      vertex -2.58575 -0.271759 0
      vertex -4.9726 -0.522629 0
      vertex -2.59999 0 0
    endloop
  endfacet
  facet normal 0 0 -1
    outer loop
      vertex -2.59999 0 0
      vertex -5 0 0
      vertex -4.9726 0.522629 0
    endloop
  endfacet
  facet normal 0 0 -1
    outer loop
      vertex -4.9726 0.522629 0
      vertex -4.89073 1.03955 0
      vertex -2.54318 0.540558 0
    endloop
  endfacet
  facet normal 0 0 -1
    outer loop
      vertex -4.9726 0.522629 0
      vertex -2.54318 0.540558 0
      vertex -2.58575 0.271759 0
    endloop
  endfacet
  facet normal 0 0 -1
    outer loop
      vertex -2.54318 0.540558 0
      vertex -4.89073 1.03955 0
      vertex -4.75528 1.54507 0
    endloop
  endfacet
  facet normal 0 0 -1
    outer loop
      vertex -4.75528 1.54507 0
      vertex -4.56772 2.03368 0
      vertex -2.37521 1.05751 0
    endloop
  endfacet
  facet normal 0 0 -1
    outer loop
      vertex -4.75528 1.54507 0
      vertex -2.37521 1.05751 0
      vertex -2.47273 0.803436 0
    endloop
  endfacet
  facet normal 0 0 -1
    outer loop
      vertex -2.37521 1.05751 0
      vertex -4.56772 2.03368 0
      vertex -2.25166 1.29999 0
    endloop
  endfacet
  facet normal 0 0 -1
    outer loop
      vertex -2.25166 1.29999 0
      vertex -4.33012 2.5 0
      vertex -4.04507 2.93892 0
    endloop
  endfacet
  facet normal 0 0 -1
    outer loop
      vertex -2.10344 1.52823 0
      vertex -4.04507 2.93892 0
      vertex -1.93217 1.73973 0
    endloop
  endfacet
  facet normal 0 0 -1
    outer loop
      vertex -1.93217 1.73973 0
      vertex -3.71571 3.34564 0
      vertex -3.34564 3.71571 0
    endloop
  endfacet
  facet normal 0 0 -1
    outer loop
      vertex -2.93892 4.04507 0
      vertex -1.52823 2.10344 0
      vertex -1.73973 1.93217 0
    endloop
  endfacet
  facet normal 0 0 -1
    outer loop
      vertex -1.52823 2.10344 0
      vertex -2.93892 4.04507 0
      vertex -1.29999 2.25166 0
    endloop
  endfacet
  facet normal 0 0 -1
    outer loop
      vertex -2.03368 4.56772 0
      vertex -1.05751 2.37521 0
      vertex -1.29999 2.25166 0
    endloop
  endfacet
  facet normal 0 0 -1
    outer loop
      vertex -1.05751 2.37521 0
      vertex -1.54507 4.75528 0
      vertex -0.803436 2.47273 0
    endloop
  endfacet
  facet normal 0 0 -1
    outer loop
      vertex -2.03368 4.56772 0
      vertex -1.54507 4.75528 0
      vertex -1.05751 2.37521 0
    endloop
  endfacet
  facet normal 0 0 -1
    outer loop
      vertex -0.803436 2.47273 0
      vertex -1.54507 4.75528 0
      vertex -0.540558 2.54318 0
    endloop
  endfacet
  facet normal 0 0 -1
    outer loop
      vertex -0.540558 2.54318 0
      vertex -1.03955 4.89073 0
      vertex -0.522629 4.9726 0
    endloop
  endfacet
  facet normal 0 0 -1
    outer loop
      vertex -0.271759 2.58575 0
      vertex -0.522629 4.9726 0
      vertex 0 2.59999 0
    endloop
  endfacet
  facet normal 0 0 -1
    outer loop
      vertex 0 2.59999 0
      vertex 0 5 0
      vertex 0.522629 4.9726 0
    endloop
  endfacet
  facet normal 0 0 -1
    outer loop
      vertex 0.522629 4.9726 0
      vertex 1.03955 4.89073 0
      vertex 0.540558 2.54318 0
    endloop
  endfacet
  facet normal 0 -0 -1
    outer loop
      vertex 0.522629 4.9726 0
      vertex 0.540558 2.54318 0
      vertex 0.271759 2.58575 0
    endloop
  endfacet
  facet normal 0 0 -1
    outer loop
      vertex 0.540558 2.54318 0
      vertex 1.03955 4.89073 0
      vertex 1.54507 4.75528 0
    endloop
  endfacet
  facet normal 0 -0 -1
    outer loop
      vertex 1.54507 4.75528 0
      vertex 2.03368 4.56772 0
      vertex 1.05751 2.37521 0
    endloop
  endfacet
  facet normal 0 0 -1
    outer loop
      vertex 1.54507 4.75528 0
      vertex 1.05751 2.37521 0
      vertex 0.803436 2.47273 0
    endloop
  endfacet
  facet normal 0 0 -1
    outer loop
      vertex 1.05751 2.37521 0
      vertex 2.03368 4.56772 0
      vertex 1.29999 2.25166 0
    endloop
  endfacet
  facet normal 0 0 -1
    outer loop
      vertex 1.29999 2.25166 0
      vertex 2.5 4.33012 0
      vertex 2.93892 4.04507 0
    endloop
  endfacet
  facet normal 0 0 -1
    outer loop
      vertex 1.52823 2.10344 0
      vertex 2.93892 4.04507 0
      vertex 1.73973 1.93217 0
    endloop
  endfacet
  facet normal 0 0 -1
    outer loop
      vertex 1.73973 1.93217 0
      vertex 3.34564 3.71571 0
      vertex 1.93217 1.73973 0
    endloop
  endfacet
  facet normal 0 0 -1
    outer loop
      vertex 1.93217 1.73973 0
      vertex 3.71571 3.34564 0
      vertex 4.04507 2.93892 0
    endloop
  endfacet
  facet normal -0 0 -1
    outer loop
      vertex 4.33012 2.5 0
      vertex 2.25166 1.29999 0
      vertex 4.04507 2.93892 0
    endloop
  endfacet
  facet normal 0 0 -1
    outer loop
      vertex 4.56772 2.03368 0
      vertex 2.37521 1.05751 0
      vertex 2.25166 1.29999 0
    endloop
  endfacet
  facet normal 0 0 -1
    outer loop
      vertex 2.37521 1.05751 0
      vertex 4.75528 1.54507 0
      vertex 2.47273 0.803436 0
    endloop
  endfacet
  facet normal 0 -0 -1
    outer loop
      vertex 4.56772 2.03368 0
      vertex 4.75528 1.54507 0
      vertex 2.37521 1.05751 0
    endloop
  endfacet
  facet normal 0 -0 -1
    outer loop
      vertex 4.75528 1.54507 0
      vertex 4.89073 1.03955 0
      vertex 2.54318 0.540558 0
    endloop
  endfacet
  facet normal 0 0 -1
    outer loop
      vertex 4.75528 1.54507 0
      vertex 2.54318 0.540558 0
      vertex 2.47273 0.803436 0
    endloop
  endfacet
  facet normal 0 0 -1
    outer loop
      vertex 2.54318 0.540558 0
      vertex 4.89073 1.03955 0
      vertex 4.9726 0.522629 0
    endloop
  endfacet
  facet normal 0 0 -1
    outer loop
      vertex 4.9726 -0.522629 0
      vertex 2.59999 0 0
      vertex 5 0 0
    endloop
  endfacet
  facet normal 0 0 -1
    outer loop
      vertex 2.54318 -0.540558 0
      vertex 2.58575 -0.271759 0
      vertex 4.9726 -0.522629 0
    endloop
  endfacet
  facet normal 0 0 -1
    outer loop
      vertex 4.89073 -1.03955 0
      vertex 2.54318 -0.540558 0
      vertex 4.9726 -0.522629 0
    endloop
  endfacet
  facet normal 0 0 -1
    outer loop
      vertex 4.75528 -1.54507 0
      vertex 2.47273 -0.803436 0
      vertex 2.54318 -0.540558 0
    endloop
  endfacet
  facet normal 0 0 -1
    outer loop
      vertex 4.75528 -1.54507 0
      vertex 2.37521 -1.05751 0
      vertex 2.47273 -0.803436 0
    endloop
  endfacet
  facet normal 0 0 -1
    outer loop
      vertex 4.56772 -2.03368 0
      vertex 2.25166 -1.29999 0
      vertex 2.37521 -1.05751 0
    endloop
  endfacet
  facet normal -0 0 -1
    outer loop
      vertex 4.56772 -2.03368 0
      vertex 4.33012 -2.5 0
      vertex 2.25166 -1.29999 0
    endloop
  endfacet
  facet normal 0 0 -1
    outer loop
      vertex 2.25166 -1.29999 0
      vertex 4.33012 -2.5 0
      vertex 4.04507 -2.93892 0
    endloop
  endfacet
  facet normal 0 -0 -1
    outer loop
      vertex 2.10344 -1.52823 0
      vertex 4.04507 -2.93892 0
      vertex 1.93217 -1.73973 0
    endloop
  endfacet
  facet normal 0 0 -1
    outer loop
      vertex 1.93217 -1.73973 0
      vertex 4.04507 -2.93892 0
      vertex 3.71571 -3.34564 0
    endloop
  endfacet
  facet normal 0 0 -1
    outer loop
      vertex 1.73973 -1.93217 0
      vertex 1.93217 -1.73973 0
      vertex 3.34564 -3.71571 0
    endloop
  endfacet
  facet normal 0 0 -1
    outer loop
      vertex 1.52823 -2.10344 0
      vertex 1.73973 -1.93217 0
      vertex 2.93892 -4.04507 0
    endloop
  endfacet
  facet normal 0 0 -1
    outer loop
      vertex 1.29999 -2.25166 0
      vertex 1.52823 -2.10344 0
      vertex 2.93892 -4.04507 0
    endloop
  endfacet
  facet normal 0 0 -1
    outer loop
      vertex 2.5 -4.33012 0
      vertex 1.29999 -2.25166 0
      vertex 2.93892 -4.04507 0
    endloop
  endfacet
  facet normal 0 0 -1
    outer loop
      vertex 2.03368 -4.56772 0
      vertex 1.05751 -2.37521 0
      vertex 1.29999 -2.25166 0
    endloop
  endfacet
  facet normal 0 0 -1
    outer loop
      vertex 1.54507 -4.75528 0
      vertex 0.803436 -2.47273 0
      vertex 1.05751 -2.37521 0
    endloop
  endfacet
  facet normal 0 0 -1
    outer loop
      vertex 1.54507 -4.75528 0
      vertex 0.540558 -2.54318 0
      vertex 0.803436 -2.47273 0
    endloop
  endfacet
  facet normal -0 0 -1
    outer loop
      vertex 1.03955 -4.89073 0
      vertex 0.522629 -4.9726 0
      vertex 0.540558 -2.54318 0
    endloop
  endfacet
  facet normal 0 0 -1
    outer loop
      vertex 0.540558 -2.54318 0
      vertex 0.522629 -4.9726 0
      vertex 0.271759 -2.58575 0
    endloop
  endfacet
  facet normal 0 -0 -1
    outer loop
      vertex 0.271759 -2.58575 0
      vertex 0.522629 -4.9726 0
      vertex 0 -2.59999 0
    endloop
  endfacet
  facet normal 0 -0 1
    outer loop
      vertex 1.54507 -4.75528 5
      vertex 2.03368 -4.56772 5
      vertex 1.05751 -2.37521 5
    endloop
  endfacet
  facet normal 0 -0 1
    outer loop
      vertex 3.34564 -3.71571 5
      vertex 3.71571 -3.34564 5
      vertex 1.93217 -1.73973 5
    endloop
  endfacet
  facet normal 0 0 1
    outer loop
      vertex 1.29999 -2.25166 5
      vertex 2.03368 -4.56772 5
      vertex 2.5 -4.33012 5
    endloop
  endfacet
  facet normal -0 0 1
    outer loop
      vertex 2.10344 -1.52823 5
      vertex 4.04507 -2.93892 5
      vertex 2.25166 -1.29999 5
    endloop
  endfacet
  facet normal 0 0 1
    outer loop
      vertex 3.34564 -3.71571 5
      vertex 1.73973 -1.93217 5
      vertex 2.93892 -4.04507 5
    endloop
  endfacet
  facet normal 0 0 1
    outer loop
      vertex 2.37521 -1.05751 5
      vertex 4.56772 -2.03368 5
      vertex 4.75528 -1.54507 5
    endloop
  endfacet
  facet normal 0 0 1
    outer loop
      vertex 4.9726 -0.522629 5
      vertex 2.59999 0 5
      vertex 2.58575 -0.271759 5
    endloop
  endfacet
  facet normal 0 0 1
    outer loop
      vertex 5 0 5
      vertex 4.9726 0.522629 5
      vertex 2.59999 0 5
    endloop
  endfacet
  facet normal 0 0 1
    outer loop
      vertex 4.9726 0.522629 5
      vertex 2.54318 0.540558 5
      vertex 2.58575 0.271759 5
    endloop
  endfacet
  facet normal 0 0 1
    outer loop
      vertex 2.54318 -0.540558 5
      vertex 4.75528 -1.54507 5
      vertex 4.89073 -1.03955 5
    endloop
  endfacet
  facet normal 0 0 1
    outer loop
      vertex 4.04507 2.93892 5
      vertex 1.93217 1.73973 5
      vertex 2.10344 1.52823 5
    endloop
  endfacet
  facet normal 0 0 1
    outer loop
      vertex 4.04507 2.93892 5
      vertex 2.10344 1.52823 5
      vertex 2.25166 1.29999 5
    endloop
  endfacet
  facet normal 0 0 1
    outer loop
      vertex 3.71571 3.34564 5
      vertex 3.34564 3.71571 5
      vertex 1.93217 1.73973 5
    endloop
  endfacet
  facet normal 0 0 1
    outer loop
      vertex 3.34564 3.71571 5
      vertex 2.93892 4.04507 5
      vertex 1.73973 1.93217 5
    endloop
  endfacet
  facet normal 0 0 1
    outer loop
      vertex 2.5 4.33012 5
      vertex 2.03368 4.56772 5
      vertex 1.29999 2.25166 5
    endloop
  endfacet
  facet normal 0 0 1
    outer loop
      vertex 2.93892 4.04507 5
      vertex 1.29999 2.25166 5
      vertex 1.52823 2.10344 5
    endloop
  endfacet
  facet normal 0 0 1
    outer loop
      vertex 1.54507 4.75528 5
      vertex 0.540558 2.54318 5
      vertex 0.803436 2.47273 5
    endloop
  endfacet
  facet normal 0 0 1
    outer loop
      vertex 0.522629 4.9726 5
      vertex 0 2.59999 5
      vertex 0.271759 2.58575 5
    endloop
  endfacet
  facet normal 0 0 1
    outer loop
      vertex 0 5 5
      vertex -0.522629 4.9726 5
      vertex 0 2.59999 5
    endloop
  endfacet
  facet normal 0 0 1
    outer loop
      vertex -0.522629 4.9726 5
      vertex -0.540558 2.54318 5
      vertex -0.271759 2.58575 5
    endloop
  endfacet
  facet normal 0 0 1
    outer loop
      vertex -1.03955 4.89073 5
      vertex -1.54507 4.75528 5
      vertex -0.540558 2.54318 5
    endloop
  endfacet
  facet normal 0 0 1
    outer loop
      vertex 4.33012 2.5 5
      vertex 2.25166 1.29999 5
      vertex 4.56772 2.03368 5
    endloop
  endfacet
  facet normal 0 0 1
    outer loop
      vertex -2.5 4.33012 5
      vertex -2.93892 4.04507 5
      vertex -1.29999 2.25166 5
    endloop
  endfacet
  facet normal -0 0 1
    outer loop
      vertex -2.5 4.33012 5
      vertex -1.29999 2.25166 5
      vertex -2.03368 4.56772 5
    endloop
  endfacet
  facet normal 0 0 1
    outer loop
      vertex -3.34564 3.71571 5
      vertex -1.93217 1.73973 5
      vertex -1.73973 1.93217 5
    endloop
  endfacet
  facet normal 0 0 1
    outer loop
      vertex -3.71571 3.34564 5
      vertex -4.04507 2.93892 5
      vertex -1.93217 1.73973 5
    endloop
  endfacet
  facet normal 0 0 1
    outer loop
      vertex -4.33012 2.5 5
      vertex -4.56772 2.03368 5
      vertex -2.25166 1.29999 5
    endloop
  endfacet
  facet normal 0 0 1
    outer loop
      vertex -4.04507 2.93892 5
      vertex -2.25166 1.29999 5
      vertex -2.10344 1.52823 5
    endloop
  endfacet
  facet normal 0 0 1
    outer loop
      vertex -4.75528 1.54507 5
      vertex -2.54318 0.540558 5
      vertex -2.47273 0.803436 5
    endloop
  endfacet
  facet normal 0 0 1
    outer loop
      vertex -4.9726 0.522629 5
      vertex -2.59999 0 5
      vertex -2.58575 0.271759 5
    endloop
  endfacet
  facet normal -0 0 1
    outer loop
      vertex -5 0 5
      vertex -4.9726 -0.522629 5
      vertex -2.59999 0 5
    endloop
  endfacet
  facet normal -0 0 1
    outer loop
      vertex -4.9726 -0.522629 5
      vertex -2.54318 -0.540558 5
      vertex -2.58575 -0.271759 5
    endloop
  endfacet
  facet normal -0 0 1
    outer loop
      vertex -4.89073 -1.03955 5
      vertex -4.75528 -1.54507 5
      vertex -2.54318 -0.540558 5
    endloop
  endfacet
  facet normal 0 0 1
    outer loop
      vertex -4.56772 -2.03368 5
      vertex -2.25166 -1.29999 5
      vertex -2.37521 -1.05751 5
    endloop
  endfacet
  facet normal 0 0 1
    outer loop
      vertex -4.04507 -2.93892 5
      vertex -2.10344 -1.52823 5
      vertex -2.25166 -1.29999 5
    endloop
  endfacet
  facet normal -0 0 1
    outer loop
      vertex -3.71571 -3.34564 5
      vertex -3.34564 -3.71571 5
      vertex -1.93217 -1.73973 5
    endloop
  endfacet
  facet normal -0 0 1
    outer loop
      vertex -3.34564 -3.71571 5
      vertex -2.93892 -4.04507 5
      vertex -1.73973 -1.93217 5
    endloop
  endfacet
  facet normal 0 0 1
    outer loop
      vertex -1.29999 -2.25166 5
      vertex -2.03368 -4.56772 5
      vertex -1.05751 -2.37521 5
    endloop
  endfacet
  facet normal -0 0 1
    outer loop
      vertex -2.5 -4.33012 5
      vertex -2.03368 -4.56772 5
      vertex -1.29999 -2.25166 5
    endloop
  endfacet
  facet normal 0 0 1
    outer loop
      vertex -2.93892 -4.04507 5
      vertex -1.29999 -2.25166 5
      vertex -1.52823 -2.10344 5
    endloop
  endfacet
  facet normal 0 -0 1
    outer loop
      vertex -1.54507 -4.75528 5
      vertex -1.05751 -2.37521 5
      vertex -2.03368 -4.56772 5
    endloop
  endfacet
  facet normal 0 0 1
    outer loop
      vertex -0.803436 -2.47273 5
      vertex -1.05751 -2.37521 5
      vertex -1.54507 -4.75528 5
    endloop
  endfacet
  facet normal 0 0 1
    outer loop
      vertex -0.803436 -2.47273 5
      vertex -1.54507 -4.75528 5
      vertex -0.540558 -2.54318 5
    endloop
  endfacet
  facet normal -0 0 1
    outer loop
      vertex -1.54507 -4.75528 5
      vertex -1.03955 -4.89073 5
      vertex -0.540558 -2.54318 5
    endloop
  endfacet
  facet normal -0 0 1
    outer loop
      vertex -1.03955 -4.89073 5
      vertex -0.522629 -4.9726 5
      vertex -0.540558 -2.54318 5
    endloop
  endfacet
  facet normal 0 0 1
    outer loop
      vertex -0.522629 -4.9726 5
      vertex 0 -2.59999 5
      vertex -0.271759 -2.58575 5
    endloop
  endfacet
  facet normal 0 -0 1
    outer loop
      vertex -0.522629 -4.9726 5
      vertex -0.271759 -2.58575 5
      vertex -0.540558 -2.54318 5
    endloop
  endfacet
  facet normal 0 0 1
    outer loop
      vertex 0 -2.59999 5
      vertex -0.522629 -4.9726 5
      vertex 0 -5 5
    endloop
  endfacet
  facet normal 0 0 1
    outer loop
      vertex 0 -2.59999 5
      vertex 0 -5 5
      vertex 0.522629 -4.9726 5
    endloop
  endfacet
  facet normal 0 -0 1
    outer loop
      vertex 1.03955 -4.89073 5
      vertex 1.54507 -4.75528 5
      vertex 0.540558 -2.54318 5
    endloop
  endfacet
  facet normal -0 0 1
    outer loop
      vertex -3.34564 3.71571 5
      vertex -1.73973 1.93217 5
      vertex -2.93892 4.04507 5
    endloop
  endfacet
  facet normal -0 0 1
    outer loop
      vertex -2.93892 -4.04507 5
      vertex -2.5 -4.33012 5
      vertex -1.29999 -2.25166 5
    endloop
  endfacet
  facet normal 0 0 1
    outer loop
      vertex 4.9726 0.522629 5
      vertex 2.58575 0.271759 5
      vertex 2.59999 0 5
    endloop
  endfacet
  facet normal 0 0 1
    outer loop
      vertex -1.73973 -1.93217 5
      vertex -2.93892 -4.04507 5
      vertex -1.52823 -2.10344 5
    endloop
  endfacet
  facet normal 0 0 1
    outer loop
      vertex -1.93217 -1.73973 5
      vertex -3.34564 -3.71571 5
      vertex -1.73973 -1.93217 5
    endloop
  endfacet
  facet normal 0 0 1
    outer loop
      vertex -2.10344 -1.52823 5
      vertex -4.04507 -2.93892 5
      vertex -1.93217 -1.73973 5
    endloop
  endfacet
  facet normal 0 0 1
    outer loop
      vertex -1.93217 -1.73973 5
      vertex -4.04507 -2.93892 5
      vertex -3.71571 -3.34564 5
    endloop
  endfacet
  facet normal 0 -0 1
    outer loop
      vertex -4.04507 -2.93892 5
      vertex -2.25166 -1.29999 5
      vertex -4.33012 -2.5 5
    endloop
  endfacet
  facet normal -0 0 1
    outer loop
      vertex -4.56772 -2.03368 5
      vertex -4.33012 -2.5 5
      vertex -2.25166 -1.29999 5
    endloop
  endfacet
  facet normal 0 0 1
    outer loop
      vertex -2.47273 -0.803436 5
      vertex -4.75528 -1.54507 5
      vertex -2.37521 -1.05751 5
    endloop
  endfacet
  facet normal 0 0 1
    outer loop
      vertex -2.37521 -1.05751 5
      vertex -4.75528 -1.54507 5
      vertex -4.56772 -2.03368 5
    endloop
  endfacet
  facet normal 0 0 1
    outer loop
      vertex -2.54318 -0.540558 5
      vertex -4.75528 -1.54507 5
      vertex -2.47273 -0.803436 5
    endloop
  endfacet
  facet normal 0 0 1
    outer loop
      vertex -4.9726 -0.522629 5
      vertex -4.89073 -1.03955 5
      vertex -2.54318 -0.540558 5
    endloop
  endfacet
  facet normal 0 0 1
    outer loop
      vertex -2.59999 0 5
      vertex -4.9726 -0.522629 5
      vertex -2.58575 -0.271759 5
    endloop
  endfacet
  facet normal 0 0 1
    outer loop
      vertex -4.9726 0.522629 5
      vertex -5 0 5
      vertex -2.59999 0 5
    endloop
  endfacet
  facet normal 0 0 1
    outer loop
      vertex -2.54318 0.540558 5
      vertex -4.89073 1.03955 5
      vertex -4.9726 0.522629 5
    endloop
  endfacet
  facet normal 0 -0 1
    outer loop
      vertex -2.58575 0.271759 5
      vertex -2.54318 0.540558 5
      vertex -4.9726 0.522629 5
    endloop
  endfacet
  facet normal 0 0 1
    outer loop
      vertex -4.75528 1.54507 5
      vertex -4.89073 1.03955 5
      vertex -2.54318 0.540558 5
    endloop
  endfacet
  facet normal 0 0 1
    outer loop
      vertex -2.37521 1.05751 5
      vertex -4.56772 2.03368 5
      vertex -4.75528 1.54507 5
    endloop
  endfacet
  facet normal 0 -0 1
    outer loop
      vertex -2.47273 0.803436 5
      vertex -2.37521 1.05751 5
      vertex -4.75528 1.54507 5
    endloop
  endfacet
  facet normal 0 0 1
    outer loop
      vertex -2.25166 1.29999 5
      vertex -4.56772 2.03368 5
      vertex -2.37521 1.05751 5
    endloop
  endfacet
  facet normal 0 0 1
    outer loop
      vertex -4.04507 2.93892 5
      vertex -4.33012 2.5 5
      vertex -2.25166 1.29999 5
    endloop
  endfacet
  facet normal 0 0 1
    outer loop
      vertex -1.93217 1.73973 5
      vertex -4.04507 2.93892 5
      vertex -2.10344 1.52823 5
    endloop
  endfacet
  facet normal 0 0 1
    outer loop
      vertex -3.34564 3.71571 5
      vertex -3.71571 3.34564 5
      vertex -1.93217 1.73973 5
    endloop
  endfacet
  facet normal 0 -0 1
    outer loop
      vertex -1.73973 1.93217 5
      vertex -1.52823 2.10344 5
      vertex -2.93892 4.04507 5
    endloop
  endfacet
  facet normal 0 0 1
    outer loop
      vertex -1.29999 2.25166 5
      vertex -2.93892 4.04507 5
      vertex -1.52823 2.10344 5
    endloop
  endfacet
  facet normal 0 -0 1
    outer loop
      vertex -1.29999 2.25166 5
      vertex -1.05751 2.37521 5
      vertex -2.03368 4.56772 5
    endloop
  endfacet
  facet normal 0 0 1
    outer loop
      vertex -0.803436 2.47273 5
      vertex -1.54507 4.75528 5
      vertex -1.05751 2.37521 5
    endloop
  endfacet
  facet normal 0 0 1
    outer loop
      vertex -1.05751 2.37521 5
      vertex -1.54507 4.75528 5
      vertex -2.03368 4.56772 5
    endloop
  endfacet
  facet normal 0 0 1
    outer loop
      vertex -0.540558 2.54318 5
      vertex -1.54507 4.75528 5
      vertex -0.803436 2.47273 5
    endloop
  endfacet
  facet normal 0 0 1
    outer loop
      vertex -0.522629 4.9726 5
      vertex -1.03955 4.89073 5
      vertex -0.540558 2.54318 5
    endloop
  endfacet
  facet normal 0 0 1
    outer loop
      vertex 0 2.59999 5
      vertex -0.522629 4.9726 5
      vertex -0.271759 2.58575 5
    endloop
  endfacet
  facet normal 0 0 1
    outer loop
      vertex 0.522629 4.9726 5
      vertex 0 5 5
      vertex 0 2.59999 5
    endloop
  endfacet
  facet normal 0 -0 1
    outer loop
      vertex 0.540558 2.54318 5
      vertex 1.03955 4.89073 5
      vertex 0.522629 4.9726 5
    endloop
  endfacet
  facet normal -0 0 1
    outer loop
      vertex 0.271759 2.58575 5
      vertex 0.540558 2.54318 5
      vertex 0.522629 4.9726 5
    endloop
  endfacet
  facet normal 0 0 1
    outer loop
      vertex 1.54507 4.75528 5
      vertex 1.03955 4.89073 5
      vertex 0.540558 2.54318 5
    endloop
  endfacet
  facet normal 0 0 1
    outer loop
      vertex 1.05751 2.37521 5
      vertex 2.03368 4.56772 5
      vertex 1.54507 4.75528 5
    endloop
  endfacet
  facet normal -0 0 1
    outer loop
      vertex 0.803436 2.47273 5
      vertex 1.05751 2.37521 5
      vertex 1.54507 4.75528 5
    endloop
  endfacet
  facet normal 0 -0 1
    outer loop
      vertex 1.29999 2.25166 5
      vertex 2.03368 4.56772 5
      vertex 1.05751 2.37521 5
    endloop
  endfacet
  facet normal 0 0 1
    outer loop
      vertex 2.93892 4.04507 5
      vertex 2.5 4.33012 5
      vertex 1.29999 2.25166 5
    endloop
  endfacet
  facet normal 0 -0 1
    outer loop
      vertex 1.73973 1.93217 5
      vertex 2.93892 4.04507 5
      vertex 1.52823 2.10344 5
    endloop
  endfacet
  facet normal 0 -0 1
    outer loop
      vertex 1.93217 1.73973 5
      vertex 3.34564 3.71571 5
      vertex 1.73973 1.93217 5
    endloop
  endfacet
  facet normal 0 0 1
    outer loop
      vertex 4.04507 2.93892 5
      vertex 3.71571 3.34564 5
      vertex 1.93217 1.73973 5
    endloop
  endfacet
  facet normal 0 0 1
    outer loop
      vertex 4.04507 2.93892 5
      vertex 2.25166 1.29999 5
      vertex 4.33012 2.5 5
    endloop
  endfacet
  facet normal -0 0 1
    outer loop
      vertex 2.25166 1.29999 5
      vertex 2.37521 1.05751 5
      vertex 4.56772 2.03368 5
    endloop
  endfacet
  facet normal 0 -0 1
    outer loop
      vertex 2.47273 0.803436 5
      vertex 4.75528 1.54507 5
      vertex 2.37521 1.05751 5
    endloop
  endfacet
  facet normal 0 0 1
    outer loop
      vertex 2.37521 1.05751 5
      vertex 4.75528 1.54507 5
      vertex 4.56772 2.03368 5
    endloop
  endfacet
  facet normal 0 0 1
    outer loop
      vertex 2.54318 0.540558 5
      vertex 4.89073 1.03955 5
      vertex 4.75528 1.54507 5
    endloop
  endfacet
  facet normal -0 0 1
    outer loop
      vertex 2.47273 0.803436 5
      vertex 2.54318 0.540558 5
      vertex 4.75528 1.54507 5
    endloop
  endfacet
  facet normal 0 0 1
    outer loop
      vertex 4.9726 0.522629 5
      vertex 4.89073 1.03955 5
      vertex 2.54318 0.540558 5
    endloop
  endfacet
  facet normal 0 0 1
    outer loop
      vertex 5 0 5
      vertex 2.59999 0 5
      vertex 4.9726 -0.522629 5
    endloop
  endfacet
  facet normal 0 0 1
    outer loop
      vertex 4.9726 -0.522629 5
      vertex 2.58575 -0.271759 5
      vertex 2.54318 -0.540558 5
    endloop
  endfacet
  facet normal 0 0 1
    outer loop
      vertex 4.9726 -0.522629 5
      vertex 2.54318 -0.540558 5
      vertex 4.89073 -1.03955 5
    endloop
  endfacet
  facet normal 0 0 1
    outer loop
      vertex 2.54318 -0.540558 5
      vertex 2.47273 -0.803436 5
      vertex 4.75528 -1.54507 5
    endloop
  endfacet
  facet normal 0 0 1
    outer loop
      vertex 2.47273 -0.803436 5
      vertex 2.37521 -1.05751 5
      vertex 4.75528 -1.54507 5
    endloop
  endfacet
  facet normal 0 0 1
    outer loop
      vertex 2.37521 -1.05751 5
      vertex 2.25166 -1.29999 5
      vertex 4.56772 -2.03368 5
    endloop
  endfacet
  facet normal 0 0 1
    outer loop
      vertex 2.25166 -1.29999 5
      vertex 4.33012 -2.5 5
      vertex 4.56772 -2.03368 5
    endloop
  endfacet
  facet normal 0 -0 1
    outer loop
      vertex 4.04507 -2.93892 5
      vertex 4.33012 -2.5 5
      vertex 2.25166 -1.29999 5
    endloop
  endfacet
  facet normal -0 0 1
    outer loop
      vertex 1.93217 -1.73973 5
      vertex 4.04507 -2.93892 5
      vertex 2.10344 -1.52823 5
    endloop
  endfacet
  facet normal 0 -0 1
    outer loop
      vertex 3.71571 -3.34564 5
      vertex 4.04507 -2.93892 5
      vertex 1.93217 -1.73973 5
    endloop
  endfacet
  facet normal 0 0 1
    outer loop
      vertex 3.34564 -3.71571 5
      vertex 1.93217 -1.73973 5
      vertex 1.73973 -1.93217 5
    endloop
  endfacet
  facet normal 0 0 1
    outer loop
      vertex 2.93892 -4.04507 5
      vertex 1.73973 -1.93217 5
      vertex 1.52823 -2.10344 5
    endloop
  endfacet
  facet normal 0 0 1
    outer loop
      vertex 2.93892 -4.04507 5
      vertex 1.52823 -2.10344 5
      vertex 1.29999 -2.25166 5
    endloop
  endfacet
  facet normal 0 0 1
    outer loop
      vertex 2.93892 -4.04507 5
      vertex 1.29999 -2.25166 5
      vertex 2.5 -4.33012 5
    endloop
  endfacet
  facet normal 0 0 1
    outer loop
      vertex 1.29999 -2.25166 5
      vertex 1.05751 -2.37521 5
      vertex 2.03368 -4.56772 5
    endloop
  endfacet
  facet normal 0 0 1
    outer loop
      vertex 1.05751 -2.37521 5
      vertex 0.803436 -2.47273 5
      vertex 1.54507 -4.75528 5
    endloop
  endfacet
  facet normal 0 0 1
    outer loop
      vertex 0.803436 -2.47273 5
      vertex 0.540558 -2.54318 5
      vertex 1.54507 -4.75528 5
    endloop
  endfacet
  facet normal 0 0 1
    outer loop
      vertex 0.540558 -2.54318 5
      vertex 0.522629 -4.9726 5
      vertex 1.03955 -4.89073 5
    endloop
  endfacet
  facet normal -0 0 1
    outer loop
      vertex 0.271759 -2.58575 5
      vertex 0.522629 -4.9726 5
      vertex 0.540558 -2.54318 5
    endloop
  endfacet
  facet normal -0 0 1
    outer loop
      vertex 0 -2.59999 5
      vertex 0.522629 -4.9726 5
      vertex 0.271759 -2.58575 5
    endloop
  endfacet
  facet normal 0.15643 -0.987689 0
    outer loop
      vertex 1.03955 -4.89073 0
      vertex 0.522629 -4.9726 5
      vertex 0.522629 -4.9726 0
    endloop
  endfacet
  facet normal 0.15643 -0.987689 0
    outer loop
      vertex 1.03955 -4.89073 0
      vertex 1.03955 -4.89073 5
      vertex 0.522629 -4.9726 5
    endloop
  endfacet
  facet normal 0.258812 -0.965928 0
    outer loop
      vertex 1.54507 -4.75528 0
      vertex 1.03955 -4.89073 5
      vertex 1.03955 -4.89073 0
    endloop
  endfacet
  facet normal 0.258812 -0.965928 0
    outer loop
      vertex 1.54507 -4.75528 0
      vertex 1.54507 -4.75528 5
      vertex 1.03955 -4.89073 5
    endloop
  endfacet
  facet normal 0.358368 -0.93358 0
    outer loop
      vertex 2.03368 -4.56772 0
      vertex 1.54507 -4.75528 5
      vertex 1.54507 -4.75528 0
    endloop
  endfacet
  facet normal 0.358368 -0.93358 0
    outer loop
      vertex 2.03368 -4.56772 0
      vertex 2.03368 -4.56772 5
      vertex 1.54507 -4.75528 5
    endloop
  endfacet
  facet normal 0.453988 -0.891008 0
    outer loop
      vertex 2.5 -4.33012 0
      vertex 2.03368 -4.56772 5
      vertex 2.03368 -4.56772 0
    endloop
  endfacet
  facet normal 0.453988 -0.891008 0
    outer loop
      vertex 2.5 -4.33012 0
      vertex 2.5 -4.33012 5
      vertex 2.03368 -4.56772 5
    endloop
  endfacet
  facet normal 0.544655 -0.83866 0
    outer loop
      vertex 2.93892 -4.04507 0
      vertex 2.5 -4.33012 5
      vertex 2.5 -4.33012 0
    endloop
  endfacet
  facet normal 0.544655 -0.83866 0
    outer loop
      vertex 2.93892 -4.04507 0
      vertex 2.93892 -4.04507 5
      vertex 2.5 -4.33012 5
    endloop
  endfacet
  facet normal 0.629326 -0.777142 0
    outer loop
      vertex 3.34564 -3.71571 0
      vertex 2.93892 -4.04507 5
      vertex 2.93892 -4.04507 0
    endloop
  endfacet
  facet normal 0.629326 -0.777142 0
    outer loop
      vertex 3.34564 -3.71571 0
      vertex 3.34564 -3.71571 5
      vertex 2.93892 -4.04507 5
    endloop
  endfacet
  facet normal 0.707107 -0.707107 0
    outer loop
      vertex 3.71571 -3.34564 0
      vertex 3.34564 -3.71571 5
      vertex 3.34564 -3.71571 0
    endloop
  endfacet
  facet normal 0.707107 -0.707107 0
    outer loop
      vertex 3.71571 -3.34564 0
      vertex 3.71571 -3.34564 5
      vertex 3.34564 -3.71571 5
    endloop
  endfacet
  facet normal 0.777142 -0.629326 0
    outer loop
      vertex 4.04507 -2.93892 0
      vertex 3.71571 -3.34564 5
      vertex 3.71571 -3.34564 0
    endloop
  endfacet
  facet normal 0.777142 -0.629326 0
    outer loop
      vertex 4.04507 -2.93892 0
      vertex 4.04507 -2.93892 5
      vertex 3.71571 -3.34564 5
    endloop
  endfacet
  facet normal 0.83866 -0.544655 0
    outer loop
      vertex 4.33012 -2.5 0
      vertex 4.04507 -2.93892 5
      vertex 4.04507 -2.93892 0
    endloop
  endfacet
  facet normal 0.83866 -0.544655 0
    outer loop
      vertex 4.33012 -2.5 0
      vertex 4.33012 -2.5 5
      vertex 4.04507 -2.93892 5
    endloop
  endfacet
  facet normal 0.891008 -0.453988 0
    outer loop
      vertex 4.56772 -2.03368 0
      vertex 4.33012 -2.5 5
      vertex 4.33012 -2.5 0
    endloop
  endfacet
  facet normal 0.891008 -0.453988 0
    outer loop
      vertex 4.56772 -2.03368 0
      vertex 4.56772 -2.03368 5
      vertex 4.33012 -2.5 5
    endloop
  endfacet
  facet normal 0.93358 -0.358368 0
    outer loop
      vertex 4.75528 -1.54507 0
      vertex 4.56772 -2.03368 5
      vertex 4.56772 -2.03368 0
    endloop
  endfacet
  facet normal 0.93358 -0.358368 0
    outer loop
      vertex 4.75528 -1.54507 0
      vertex 4.75528 -1.54507 5
      vertex 4.56772 -2.03368 5
    endloop
  endfacet
  facet normal 0.965928 -0.258812 0
    outer loop
      vertex 4.89073 -1.03955 0
      vertex 4.75528 -1.54507 5
      vertex 4.75528 -1.54507 0
    endloop
  endfacet
  facet normal 0.965928 -0.258812 0
    outer loop
      vertex 4.89073 -1.03955 0
      vertex 4.89073 -1.03955 5
      vertex 4.75528 -1.54507 5
    endloop
  endfacet
  facet normal 0.987689 -0.15643 0
    outer loop
      vertex 4.9726 -0.522629 0
      vertex 4.89073 -1.03955 5
      vertex 4.89073 -1.03955 0
    endloop
  endfacet
  facet normal 0.987689 -0.15643 0
    outer loop
      vertex 4.9726 -0.522629 0
      vertex 4.9726 -0.522629 5
      vertex 4.89073 -1.03955 5
    endloop
  endfacet
  facet normal 0.998629 -0.0523553 0
    outer loop
      vertex 5 0 0
      vertex 4.9726 -0.522629 5
      vertex 4.9726 -0.522629 0
    endloop
  endfacet
  facet normal 0.998629 -0.0523553 0
    outer loop
      vertex 5 0 0
      vertex 5 0 5
      vertex 4.9726 -0.522629 5
    endloop
  endfacet
  facet normal 0.998629 0.0523553 0
    outer loop
      vertex 4.9726 0.522629 0
      vertex 5 0 5
      vertex 5 0 0
    endloop
  endfacet
  facet normal 0.998629 0.0523553 -0
    outer loop
      vertex 4.9726 0.522629 0
      vertex 4.9726 0.522629 5
      vertex 5 0 5
    endloop
  endfacet
  facet normal 0.987689 0.15643 0
    outer loop
      vertex 4.89073 1.03955 0
      vertex 4.9726 0.522629 5
      vertex 4.9726 0.522629 0
    endloop
  endfacet
  facet normal 0.987689 0.15643 -0
    outer loop
      vertex 4.89073 1.03955 0
      vertex 4.89073 1.03955 5
      vertex 4.9726 0.522629 5
    endloop
  endfacet
  facet normal 0.965928 0.258812 0
    outer loop
      vertex 4.75528 1.54507 0
      vertex 4.89073 1.03955 5
      vertex 4.89073 1.03955 0
    endloop
  endfacet
  facet normal 0.965928 0.258812 -0
    outer loop
      vertex 4.75528 1.54507 0
      vertex 4.75528 1.54507 5
      vertex 4.89073 1.03955 5
    endloop
  endfacet
  facet normal 0.93358 0.358368 0
    outer loop
      vertex 4.56772 2.03368 0
      vertex 4.75528 1.54507 5
      vertex 4.75528 1.54507 0
    endloop
  endfacet
  facet normal 0.93358 0.358368 -0
    outer loop
      vertex 4.56772 2.03368 0
      vertex 4.56772 2.03368 5
      vertex 4.75528 1.54507 5
    endloop
  endfacet
  facet normal 0.891008 0.453988 0
    outer loop
      vertex 4.33012 2.5 0
      vertex 4.56772 2.03368 5
      vertex 4.56772 2.03368 0
    endloop
  endfacet
  facet normal 0.891008 0.453988 -0
    outer loop
      vertex 4.33012 2.5 0
      vertex 4.33012 2.5 5
      vertex 4.56772 2.03368 5
    endloop
  endfacet
  facet normal 0.83866 0.544655 0
    outer loop
      vertex 4.04507 2.93892 0
      vertex 4.33012 2.5 5
      vertex 4.33012 2.5 0
    endloop
  endfacet
  facet normal 0.83866 0.544655 -0
    outer loop
      vertex 4.04507 2.93892 0
      vertex 4.04507 2.93892 5
      vertex 4.33012 2.5 5
    endloop
  endfacet
  facet normal 0.777142 0.629326 0
    outer loop
      vertex 3.71571 3.34564 0
      vertex 4.04507 2.93892 5
      vertex 4.04507 2.93892 0
    endloop
  endfacet
  facet normal 0.777142 0.629326 -0
    outer loop
      vertex 3.71571 3.34564 0
      vertex 3.71571 3.34564 5
      vertex 4.04507 2.93892 5
    endloop
  endfacet
  facet normal 0.707107 0.707107 0
    outer loop
      vertex 3.34564 3.71571 0
      vertex 3.71571 3.34564 5
      vertex 3.71571 3.34564 0
    endloop
  endfacet
  facet normal 0.707107 0.707107 -0
    outer loop
      vertex 3.34564 3.71571 0
      vertex 3.34564 3.71571 5
      vertex 3.71571 3.34564 5
    endloop
  endfacet
  facet normal 0.629326 0.777142 0
    outer loop
      vertex 2.93892 4.04507 0
      vertex 3.34564 3.71571 5
      vertex 3.34564 3.71571 0
    endloop
  endfacet
  facet normal 0.629326 0.777142 -0
    outer loop
      vertex 2.93892 4.04507 0
      vertex 2.93892 4.04507 5
      vertex 3.34564 3.71571 5
    endloop
  endfacet
  facet normal 0.544655 0.83866 0
    outer loop
      vertex 2.5 4.33012 0
      vertex 2.93892 4.04507 5
      vertex 2.93892 4.04507 0
    endloop
  endfacet
  facet normal 0.544655 0.83866 -0
    outer loop
      vertex 2.5 4.33012 0
      vertex 2.5 4.33012 5
      vertex 2.93892 4.04507 5
    endloop
  endfacet
  facet normal 0.453988 0.891008 0
    outer loop
      vertex 2.03368 4.56772 0
      vertex 2.5 4.33012 5
      vertex 2.5 4.33012 0
    endloop
  endfacet
  facet normal 0.453988 0.891008 -0
    outer loop
      vertex 2.03368 4.56772 0
      vertex 2.03368 4.56772 5
      vertex 2.5 4.33012 5
    endloop
  endfacet
  facet normal 0.358368 0.93358 0
    outer loop
      vertex 1.54507 4.75528 0
      vertex 2.03368 4.56772 5
      vertex 2.03368 4.56772 0
    endloop
  endfacet
  facet normal 0.358368 0.93358 -0
    outer loop
      vertex 1.54507 4.75528 0
      vertex 1.54507 4.75528 5
      vertex 2.03368 4.56772 5
    endloop
  endfacet
  facet normal 0.258812 0.965928 0
    outer loop
      vertex 1.03955 4.89073 0
      vertex 1.54507 4.75528 5
      vertex 1.54507 4.75528 0
    endloop
  endfacet
  facet normal 0.258812 0.965928 -0
    outer loop
      vertex 1.03955 4.89073 0
      vertex 1.03955 4.89073 5
      vertex 1.54507 4.75528 5
    endloop
  endfacet
  facet normal 0.15643 0.987689 0
    outer loop
      vertex 0.522629 4.9726 0
      vertex 1.03955 4.89073 5
      vertex 1.03955 4.89073 0
    endloop
  endfacet
  facet normal 0.15643 0.987689 -0
    outer loop
      vertex 0.522629 4.9726 0
      vertex 0.522629 4.9726 5
      vertex 1.03955 4.89073 5
    endloop
  endfacet
  facet normal 0.0523553 0.998629 0
    outer loop
      vertex 0 5 0
      vertex 0.522629 4.9726 5
      vertex 0.522629 4.9726 0
    endloop
  endfacet
  facet normal 0.0523553 0.998629 -0
    outer loop
      vertex 0 5 0
      vertex 0 5 5
      vertex 0.522629 4.9726 5
    endloop
  endfacet
  facet normal -0.0523553 0.998629 0
    outer loop
      vertex -0.522629 4.9726 0
      vertex 0 5 5
      vertex 0 5 0
    endloop
  endfacet
  facet normal -0.0523553 0.998629 0
    outer loop
      vertex -0.522629 4.9726 0
      vertex -0.522629 4.9726 5
      vertex 0 5 5
    endloop
  endfacet
  facet normal -0.15643 0.987689 0
    outer loop
      vertex -1.03955 4.89073 0
      vertex -0.522629 4.9726 5
      vertex -0.522629 4.9726 0
    endloop
  endfacet
  facet normal -0.15643 0.987689 0
    outer loop
      vertex -1.03955 4.89073 0
      vertex -1.03955 4.89073 5
      vertex -0.522629 4.9726 5
    endloop
  endfacet
  facet normal -0.258812 0.965928 0
    outer loop
      vertex -1.54507 4.75528 0
      vertex -1.03955 4.89073 5
      vertex -1.03955 4.89073 0
    endloop
  endfacet
  facet normal -0.258812 0.965928 0
    outer loop
      vertex -1.54507 4.75528 0
      vertex -1.54507 4.75528 5
      vertex -1.03955 4.89073 5
    endloop
  endfacet
  facet normal -0.358368 0.93358 0
    outer loop
      vertex -2.03368 4.56772 0
      vertex -1.54507 4.75528 5
      vertex -1.54507 4.75528 0
    endloop
  endfacet
  facet normal -0.358368 0.93358 0
    outer loop
      vertex -2.03368 4.56772 0
      vertex -2.03368 4.56772 5
      vertex -1.54507 4.75528 5
    endloop
  endfacet
  facet normal -0.453988 0.891008 0
    outer loop
      vertex -2.5 4.33012 0
      vertex -2.03368 4.56772 5
      vertex -2.03368 4.56772 0
    endloop
  endfacet
  facet normal -0.453988 0.891008 0
    outer loop
      vertex -2.5 4.33012 0
      vertex -2.5 4.33012 5
      vertex -2.03368 4.56772 5
    endloop
  endfacet
  facet normal -0.544655 0.83866 0
    outer loop
      vertex -2.93892 4.04507 0
      vertex -2.5 4.33012 5
      vertex -2.5 4.33012 0
    endloop
  endfacet
  facet normal -0.544655 0.83866 0
    outer loop
      vertex -2.93892 4.04507 0
      vertex -2.93892 4.04507 5
      vertex -2.5 4.33012 5
    endloop
  endfacet
  facet normal -0.629326 0.777142 0
    outer loop
      vertex -3.34564 3.71571 0
      vertex -2.93892 4.04507 5
      vertex -2.93892 4.04507 0
    endloop
  endfacet
  facet normal -0.629326 0.777142 0
    outer loop
      vertex -3.34564 3.71571 0
      vertex -3.34564 3.71571 5
      vertex -2.93892 4.04507 5
    endloop
  endfacet
  facet normal -0.707107 0.707107 0
    outer loop
      vertex -3.71571 3.34564 0
      vertex -3.34564 3.71571 5
      vertex -3.34564 3.71571 0
    endloop
  endfacet
  facet normal -0.707107 0.707107 0
    outer loop
      vertex -3.71571 3.34564 0
      vertex -3.71571 3.34564 5
      vertex -3.34564 3.71571 5
    endloop
  endfacet
  facet normal -0.777142 0.629326 0
    outer loop
      vertex -4.04507 2.93892 0
      vertex -3.71571 3.34564 5
      vertex -3.71571 3.34564 0
    endloop
  endfacet
  facet normal -0.777142 0.629326 0
    outer loop
      vertex -4.04507 2.93892 0
      vertex -4.04507 2.93892 5
      vertex -3.71571 3.34564 5
    endloop
  endfacet
  facet normal -0.83866 0.544655 0
    outer loop
      vertex -4.33012 2.5 0
      vertex -4.04507 2.93892 5
      vertex -4.04507 2.93892 0
    endloop
  endfacet
  facet normal -0.83866 0.544655 0
    outer loop
      vertex -4.33012 2.5 0
      vertex -4.33012 2.5 5
      vertex -4.04507 2.93892 5
    endloop
  endfacet
  facet normal -0.891008 0.453988 0
    outer loop
      vertex -4.56772 2.03368 0
      vertex -4.33012 2.5 5
      vertex -4.33012 2.5 0
    endloop
  endfacet
  facet normal -0.891008 0.453988 0
    outer loop
      vertex -4.56772 2.03368 0
      vertex -4.56772 2.03368 5
      vertex -4.33012 2.5 5
    endloop
  endfacet
  facet normal -0.93358 0.358368 0
    outer loop
      vertex -4.75528 1.54507 0
      vertex -4.56772 2.03368 5
      vertex -4.56772 2.03368 0
    endloop
  endfacet
  facet normal -0.93358 0.358368 0
    outer loop
      vertex -4.75528 1.54507 0
      vertex -4.75528 1.54507 5
      vertex -4.56772 2.03368 5
    endloop
  endfacet
  facet normal -0.965928 0.258812 0
    outer loop
      vertex -4.89073 1.03955 0
      vertex -4.75528 1.54507 5
      vertex -4.75528 1.54507 0
    endloop
  endfacet
  facet normal -0.965928 0.258812 0
    outer loop
      vertex -4.89073 1.03955 0
      vertex -4.89073 1.03955 5
      vertex -4.75528 1.54507 5
    endloop
  endfacet
  facet normal -0.987689 0.15643 0
    outer loop
      vertex -4.9726 0.522629 0
      vertex -4.89073 1.03955 5
      vertex -4.89073 1.03955 0
    endloop
  endfacet
  facet normal -0.987689 0.15643 0
    outer loop
      vertex -4.9726 0.522629 0
      vertex -4.9726 0.522629 5
      vertex -4.89073 1.03955 5
    endloop
  endfacet
  facet normal -0.998629 0.0523553 0
    outer loop
      vertex -5 0 0
      vertex -4.9726 0.522629 5
      vertex -4.9726 0.522629 0
    endloop
  endfacet
  facet normal -0.998629 0.0523553 0
    outer loop
      vertex -5 0 0
      vertex -5 0 5
      vertex -4.9726 0.522629 5
    endloop
  endfacet
  facet normal -0.998629 -0.0523553 0
    outer loop
      vertex -4.9726 -0.522629 0
      vertex -5 0 5
      vertex -5 0 0
    endloop
  endfacet
  facet normal -0.998629 -0.0523553 0
    outer loop
      vertex -4.9726 -0.522629 0
      vertex -4.9726 -0.522629 5
      vertex -5 0 5
    endloop
  endfacet
  facet normal -0.987689 -0.15643 0
    outer loop
      vertex -4.89073 -1.03955 0
      vertex -4.9726 -0.522629 5
      vertex -4.9726 -0.522629 0
    endloop
  endfacet
  facet normal -0.987689 -0.15643 0
    outer loop
      vertex -4.89073 -1.03955 0
      vertex -4.89073 -1.03955 5
      vertex -4.9726 -0.522629 5
    endloop
  endfacet
  facet normal -0.965928 -0.258812 0
    outer loop
      vertex -4.75528 -1.54507 0
      vertex -4.89073 -1.03955 5
      vertex -4.89073 -1.03955 0
    endloop
  endfacet
  facet normal -0.965928 -0.258812 0
    outer loop
      vertex -4.75528 -1.54507 0
      vertex -4.75528 -1.54507 5
      vertex -4.89073 -1.03955 5
    endloop
  endfacet
  facet normal -0.93358 -0.358368 0
    outer loop
      vertex -4.56772 -2.03368 0
      vertex -4.75528 -1.54507 5
      vertex -4.75528 -1.54507 0
    endloop
  endfacet
  facet normal -0.93358 -0.358368 0
    outer loop
      vertex -4.56772 -2.03368 0
      vertex -4.56772 -2.03368 5
      vertex -4.75528 -1.54507 5
    endloop
  endfacet
  facet normal -0.891008 -0.453988 0
    outer loop
      vertex -4.33012 -2.5 0
      vertex -4.56772 -2.03368 5
      vertex -4.56772 -2.03368 0
    endloop
  endfacet
  facet normal -0.891008 -0.453988 0
    outer loop
      vertex -4.33012 -2.5 0
      vertex -4.33012 -2.5 5
      vertex -4.56772 -2.03368 5
    endloop
  endfacet
  facet normal -0.83866 -0.544655 0
    outer loop
      vertex -4.04507 -2.93892 0
      vertex -4.33012 -2.5 5
      vertex -4.33012 -2.5 0
    endloop
  endfacet
  facet normal -0.83866 -0.544655 0
    outer loop
      vertex -4.04507 -2.93892 0
      vertex -4.04507 -2.93892 5
      vertex -4.33012 -2.5 5
    endloop
  endfacet
  facet normal -0.777142 -0.629326 0
    outer loop
      vertex -3.71571 -3.34564 0
      vertex -4.04507 -2.93892 5
      vertex -4.04507 -2.93892 0
    endloop
  endfacet
  facet normal -0.777142 -0.629326 0
    outer loop
      vertex -3.71571 -3.34564 0
      vertex -3.71571 -3.34564 5
      vertex -4.04507 -2.93892 5
    endloop
  endfacet
  facet normal -0.707107 -0.707107 0
    outer loop
      vertex -3.34564 -3.71571 0
      vertex -3.71571 -3.34564 5
      vertex -3.71571 -3.34564 0
    endloop
  endfacet
  facet normal -0.707107 -0.707107 0
    outer loop
      vertex -3.34564 -3.71571 0
      vertex -3.34564 -3.71571 5
      vertex -3.71571 -3.34564 5
    endloop
  endfacet
  facet normal -0.629326 -0.777142 0
    outer loop
      vertex -2.93892 -4.04507 0
      vertex -3.34564 -3.71571 5
      vertex -3.34564 -3.71571 0
    endloop
  endfacet
  facet normal -0.629326 -0.777142 0
    outer loop
      vertex -2.93892 -4.04507 0
      vertex -2.93892 -4.04507 5
      vertex -3.34564 -3.71571 5
    endloop
  endfacet
  facet normal -0.544655 -0.83866 0
    outer loop
      vertex -2.5 -4.33012 0
      vertex -2.93892 -4.04507 5
      vertex -2.93892 -4.04507 0
    endloop
  endfacet
  facet normal -0.544655 -0.83866 0
    outer loop
      vertex -2.5 -4.33012 0
      vertex -2.5 -4.33012 5
      vertex -2.93892 -4.04507 5
    endloop
  endfacet
  facet normal -0.453988 -0.891008 0
    outer loop
      vertex -2.03368 -4.56772 0
      vertex -2.5 -4.33012 5
      vertex -2.5 -4.33012 0
    endloop
  endfacet
  facet normal -0.453988 -0.891008 0
    outer loop
      vertex -2.03368 -4.56772 0
      vertex -2.03368 -4.56772 5
      vertex -2.5 -4.33012 5
    endloop
  endfacet
  facet normal -0.358368 -0.93358 0
    outer loop
      vertex -1.54507 -4.75528 0
      vertex -2.03368 -4.56772 5
      vertex -2.03368 -4.56772 0
    endloop
  endfacet
  facet normal -0.358368 -0.93358 0
    outer loop
      vertex -1.54507 -4.75528 0
      vertex -1.54507 -4.75528 5
      vertex -2.03368 -4.56772 5
    endloop
  endfacet
  facet normal -0.258812 -0.965928 0
    outer loop
      vertex -1.03955 -4.89073 0
      vertex -1.54507 -4.75528 5
      vertex -1.54507 -4.75528 0
    endloop
  endfacet
  facet normal -0.258812 -0.965928 0
    outer loop
      vertex -1.03955 -4.89073 0
      vertex -1.03955 -4.89073 5
      vertex -1.54507 -4.75528 5
    endloop
  endfacet
  facet normal -0.15643 -0.987689 0
    outer loop
      vertex -0.522629 -4.9726 0
      vertex -1.03955 -4.89073 5
      vertex -1.03955 -4.89073 0
    endloop
  endfacet
  facet normal -0.15643 -0.987689 0
    outer loop
      vertex -0.522629 -4.9726 0
      vertex -0.522629 -4.9726 5
      vertex -1.03955 -4.89073 5
    endloop
  endfacet
  facet normal -0.0523553 -0.998629 0
    outer loop
      vertex 0 -5 0
      vertex -0.522629 -4.9726 5
      vertex -0.522629 -4.9726 0
    endloop
  endfacet
  facet normal -0.0523553 -0.998629 0
    outer loop
      vertex 0 -5 0
      vertex 0 -5 5
      vertex -0.522629 -4.9726 5
    endloop
  endfacet
  facet normal 0.0523553 -0.998629 0
    outer loop
      vertex 0.522629 -4.9726 0
      vertex 0 -5 5
      vertex 0 -5 0
    endloop
  endfacet
  facet normal 0.0523553 -0.998629 0
    outer loop
      vertex 0.522629 -4.9726 0
      vertex 0.522629 -4.9726 5
      vertex 0 -5 5
    endloop
  endfacet
  facet normal 0.156422 0.98769 -0
    outer loop
      vertex -0.540558 -2.54318 0
      vertex -0.540558 -2.54318 5
      vertex -0.271759 -2.58575 0
    endloop
  endfacet
  facet normal 0.156422 0.98769 0
    outer loop
      vertex -0.271759 -2.58575 5
      vertex -0.271759 -2.58575 0
      vertex -0.540558 -2.54318 5
    endloop
  endfacet
  facet normal 0.25886 0.965915 -0
    outer loop
      vertex -0.803436 -2.47273 0
      vertex -0.803436 -2.47273 5
      vertex -0.540558 -2.54318 0
    endloop
  endfacet
  facet normal 0.25886 0.965915 0
    outer loop
      vertex -0.540558 -2.54318 5
      vertex -0.540558 -2.54318 0
      vertex -0.803436 -2.47273 5
    endloop
  endfacet
  facet normal 0.358336 0.933593 -0
    outer loop
      vertex -1.05751 -2.37521 0
      vertex -1.05751 -2.37521 5
      vertex -0.803436 -2.47273 0
    endloop
  endfacet
  facet normal 0.358336 0.933593 0
    outer loop
      vertex -0.803436 -2.47273 5
      vertex -0.803436 -2.47273 0
      vertex -1.05751 -2.37521 5
    endloop
  endfacet
  facet normal 0.453991 0.891006 -0
    outer loop
      vertex -1.29999 -2.25166 0
      vertex -1.29999 -2.25166 5
      vertex -1.05751 -2.37521 0
    endloop
  endfacet
  facet normal 0.453991 0.891006 0
    outer loop
      vertex -1.05751 -2.37521 5
      vertex -1.05751 -2.37521 0
      vertex -1.29999 -2.25166 5
    endloop
  endfacet
  facet normal 0.544637 0.838672 -0
    outer loop
      vertex -1.52823 -2.10344 0
      vertex -1.52823 -2.10344 5
      vertex -1.29999 -2.25166 0
    endloop
  endfacet
  facet normal 0.544637 0.838672 0
    outer loop
      vertex -1.29999 -2.25166 5
      vertex -1.29999 -2.25166 0
      vertex -1.52823 -2.10344 5
    endloop
  endfacet
  facet normal 0.629322 0.777145 -0
    outer loop
      vertex -1.73973 -1.93217 0
      vertex -1.73973 -1.93217 5
      vertex -1.52823 -2.10344 0
    endloop
  endfacet
  facet normal 0.629322 0.777145 0
    outer loop
      vertex -1.52823 -2.10344 5
      vertex -1.52823 -2.10344 0
      vertex -1.73973 -1.93217 5
    endloop
  endfacet
  facet normal 0.707107 0.707107 -0
    outer loop
      vertex -1.93217 -1.73973 0
      vertex -1.93217 -1.73973 5
      vertex -1.73973 -1.93217 0
    endloop
  endfacet
  facet normal 0.707107 0.707107 0
    outer loop
      vertex -1.73973 -1.93217 5
      vertex -1.73973 -1.93217 0
      vertex -1.93217 -1.73973 5
    endloop
  endfacet
  facet normal 0.777145 0.629322 -0
    outer loop
      vertex -2.10344 -1.52823 0
      vertex -2.10344 -1.52823 5
      vertex -1.93217 -1.73973 0
    endloop
  endfacet
  facet normal 0.777145 0.629322 0
    outer loop
      vertex -1.93217 -1.73973 5
      vertex -1.93217 -1.73973 0
      vertex -2.10344 -1.52823 5
    endloop
  endfacet
  facet normal 0.838672 0.544637 -0
    outer loop
      vertex -2.25166 -1.29999 0
      vertex -2.25166 -1.29999 5
      vertex -2.10344 -1.52823 0
    endloop
  endfacet
  facet normal 0.838672 0.544637 0
    outer loop
      vertex -2.10344 -1.52823 5
      vertex -2.10344 -1.52823 0
      vertex -2.25166 -1.29999 5
    endloop
  endfacet
  facet normal 0.891006 0.453991 -0
    outer loop
      vertex -2.37521 -1.05751 0
      vertex -2.37521 -1.05751 5
      vertex -2.25166 -1.29999 0
    endloop
  endfacet
  facet normal 0.891006 0.453991 0
    outer loop
      vertex -2.25166 -1.29999 5
      vertex -2.25166 -1.29999 0
      vertex -2.37521 -1.05751 5
    endloop
  endfacet
  facet normal 0.933593 0.358336 -0
    outer loop
      vertex -2.47273 -0.803436 0
      vertex -2.47273 -0.803436 5
      vertex -2.37521 -1.05751 0
    endloop
  endfacet
  facet normal 0.933593 0.358336 0
    outer loop
      vertex -2.37521 -1.05751 5
      vertex -2.37521 -1.05751 0
      vertex -2.47273 -0.803436 5
    endloop
  endfacet
  facet normal 0.965915 0.25886 -0
    outer loop
      vertex -2.54318 -0.540558 0
      vertex -2.54318 -0.540558 5
      vertex -2.47273 -0.803436 0
    endloop
  endfacet
  facet normal 0.965915 0.25886 0
    outer loop
      vertex -2.47273 -0.803436 5
      vertex -2.47273 -0.803436 0
      vertex -2.54318 -0.540558 5
    endloop
  endfacet
  facet normal 0.98769 0.156422 -0
    outer loop
      vertex -2.58575 -0.271759 0
      vertex -2.58575 -0.271759 5
      vertex -2.54318 -0.540558 0
    endloop
  endfacet
  facet normal 0.98769 0.156422 0
    outer loop
      vertex -2.54318 -0.540558 5
      vertex -2.54318 -0.540558 0
      vertex -2.58575 -0.271759 5
    endloop
  endfacet
  facet normal 0.99863 0.0523276 -0
    outer loop
      vertex -2.59999 0 0
      vertex -2.59999 0 5
      vertex -2.58575 -0.271759 0
    endloop
  endfacet
  facet normal 0.99863 0.0523276 0
    outer loop
      vertex -2.58575 -0.271759 5
      vertex -2.58575 -0.271759 0
      vertex -2.59999 0 5
    endloop
  endfacet
  facet normal 0.99863 -0.0523276 0
    outer loop
      vertex -2.58575 0.271759 0
      vertex -2.58575 0.271759 5
      vertex -2.59999 0 0
    endloop
  endfacet
  facet normal 0.99863 -0.0523276 0
    outer loop
      vertex -2.59999 0 5
      vertex -2.59999 0 0
      vertex -2.58575 0.271759 5
    endloop
  endfacet
  facet normal 0.98769 -0.156422 0
    outer loop
      vertex -2.54318 0.540558 0
      vertex -2.54318 0.540558 5
      vertex -2.58575 0.271759 0
    endloop
  endfacet
  facet normal 0.98769 -0.156422 0
    outer loop
      vertex -2.58575 0.271759 5
      vertex -2.58575 0.271759 0
      vertex -2.54318 0.540558 5
    endloop
  endfacet
  facet normal 0.965915 -0.25886 0
    outer loop
      vertex -2.47273 0.803436 0
      vertex -2.47273 0.803436 5
      vertex -2.54318 0.540558 0
    endloop
  endfacet
  facet normal 0.965915 -0.25886 0
    outer loop
      vertex -2.54318 0.540558 5
      vertex -2.54318 0.540558 0
      vertex -2.47273 0.803436 5
    endloop
  endfacet
  facet normal 0.933593 -0.358336 0
    outer loop
      vertex -2.37521 1.05751 0
      vertex -2.37521 1.05751 5
      vertex -2.47273 0.803436 0
    endloop
  endfacet
  facet normal 0.933593 -0.358336 0
    outer loop
      vertex -2.47273 0.803436 5
      vertex -2.47273 0.803436 0
      vertex -2.37521 1.05751 5
    endloop
  endfacet
  facet normal 0.891006 -0.453991 0
    outer loop
      vertex -2.25166 1.29999 0
      vertex -2.25166 1.29999 5
      vertex -2.37521 1.05751 0
    endloop
  endfacet
  facet normal 0.891006 -0.453991 0
    outer loop
      vertex -2.37521 1.05751 5
      vertex -2.37521 1.05751 0
      vertex -2.25166 1.29999 5
    endloop
  endfacet
  facet normal 0.838672 -0.544637 0
    outer loop
      vertex -2.10344 1.52823 0
      vertex -2.10344 1.52823 5
      vertex -2.25166 1.29999 0
    endloop
  endfacet
  facet normal 0.838672 -0.544637 0
    outer loop
      vertex -2.25166 1.29999 5
      vertex -2.25166 1.29999 0
      vertex -2.10344 1.52823 5
    endloop
  endfacet
  facet normal 0.777145 -0.629322 0
    outer loop
      vertex -1.93217 1.73973 0
      vertex -1.93217 1.73973 5
      vertex -2.10344 1.52823 0
    endloop
  endfacet
  facet normal 0.777145 -0.629322 0
    outer loop
      vertex -2.10344 1.52823 5
      vertex -2.10344 1.52823 0
      vertex -1.93217 1.73973 5
    endloop
  endfacet
  facet normal 0.707107 -0.707107 0
    outer loop
      vertex -1.73973 1.93217 0
      vertex -1.73973 1.93217 5
      vertex -1.93217 1.73973 0
    endloop
  endfacet
  facet normal 0.707107 -0.707107 0
    outer loop
      vertex -1.93217 1.73973 5
      vertex -1.93217 1.73973 0
      vertex -1.73973 1.93217 5
    endloop
  endfacet
  facet normal 0.629322 -0.777145 0
    outer loop
      vertex -1.52823 2.10344 0
      vertex -1.52823 2.10344 5
      vertex -1.73973 1.93217 0
    endloop
  endfacet
  facet normal 0.629322 -0.777145 0
    outer loop
      vertex -1.73973 1.93217 5
      vertex -1.73973 1.93217 0
      vertex -1.52823 2.10344 5
    endloop
  endfacet
  facet normal 0.544637 -0.838672 0
    outer loop
      vertex -1.29999 2.25166 0
      vertex -1.29999 2.25166 5
      vertex -1.52823 2.10344 0
    endloop
  endfacet
  facet normal 0.544637 -0.838672 0
    outer loop
      vertex -1.52823 2.10344 5
      vertex -1.52823 2.10344 0
      vertex -1.29999 2.25166 5
    endloop
  endfacet
  facet normal 0.453991 -0.891006 0
    outer loop
      vertex -1.05751 2.37521 0
      vertex -1.05751 2.37521 5
      vertex -1.29999 2.25166 0
    endloop
  endfacet
  facet normal 0.453991 -0.891006 0
    outer loop
      vertex -1.29999 2.25166 5
      vertex -1.29999 2.25166 0
      vertex -1.05751 2.37521 5
    endloop
  endfacet
  facet normal 0.358336 -0.933593 0
    outer loop
      vertex -0.803436 2.47273 0
      vertex -0.803436 2.47273 5
      vertex -1.05751 2.37521 0
    endloop
  endfacet
  facet normal 0.358336 -0.933593 0
    outer loop
      vertex -1.05751 2.37521 5
      vertex -1.05751 2.37521 0
      vertex -0.803436 2.47273 5
    endloop
  endfacet
  facet normal 0.25886 -0.965915 0
    outer loop
      vertex -0.540558 2.54318 0
      vertex -0.540558 2.54318 5
      vertex -0.803436 2.47273 0
    endloop
  endfacet
  facet normal 0.25886 -0.965915 0
    outer loop
      vertex -0.803436 2.47273 5
      vertex -0.803436 2.47273 0
      vertex -0.540558 2.54318 5
    endloop
  endfacet
  facet normal 0.156422 -0.98769 0
    outer loop
      vertex -0.271759 2.58575 0
      vertex -0.271759 2.58575 5
      vertex -0.540558 2.54318 0
    endloop
  endfacet
  facet normal 0.156422 -0.98769 0
    outer loop
      vertex -0.540558 2.54318 5
      vertex -0.540558 2.54318 0
      vertex -0.271759 2.58575 5
    endloop
  endfacet
  facet normal 0.0523276 -0.99863 0
    outer loop
      vertex 0 2.59999 0
      vertex 0 2.59999 5
      vertex -0.271759 2.58575 0
    endloop
  endfacet
  facet normal 0.0523276 -0.99863 0
    outer loop
      vertex -0.271759 2.58575 5
      vertex -0.271759 2.58575 0
      vertex 0 2.59999 5
    endloop
  endfacet
  facet normal -0.0523276 -0.99863 0
    outer loop
      vertex 0.271759 2.58575 0
      vertex 0.271759 2.58575 5
      vertex 0 2.59999 0
    endloop
  endfacet
  facet normal -0.0523276 -0.99863 -0
    outer loop
      vertex 0 2.59999 5
      vertex 0 2.59999 0
      vertex 0.271759 2.58575 5
    endloop
  endfacet
  facet normal -0.156422 -0.98769 0
    outer loop
      vertex 0.540558 2.54318 0
      vertex 0.540558 2.54318 5
      vertex 0.271759 2.58575 0
    endloop
  endfacet
  facet normal -0.156422 -0.98769 -0
    outer loop
      vertex 0.271759 2.58575 5
      vertex 0.271759 2.58575 0
      vertex 0.540558 2.54318 5
    endloop
  endfacet
  facet normal -0.25886 -0.965915 0
    outer loop
      vertex 0.803436 2.47273 0
      vertex 0.803436 2.47273 5
      vertex 0.540558 2.54318 0
    endloop
  endfacet
  facet normal -0.25886 -0.965915 -0
    outer loop
      vertex 0.540558 2.54318 5
      vertex 0.540558 2.54318 0
      vertex 0.803436 2.47273 5
    endloop
  endfacet
  facet normal -0.358336 -0.933593 0
    outer loop
      vertex 1.05751 2.37521 0
      vertex 1.05751 2.37521 5
      vertex 0.803436 2.47273 0
    endloop
  endfacet
  facet normal -0.358336 -0.933593 -0
    outer loop
      vertex 0.803436 2.47273 5
      vertex 0.803436 2.47273 0
      vertex 1.05751 2.37521 5
    endloop
  endfacet
  facet normal -0.453991 -0.891006 0
    outer loop
      vertex 1.29999 2.25166 0
      vertex 1.29999 2.25166 5
      vertex 1.05751 2.37521 0
    endloop
  endfacet
  facet normal -0.453991 -0.891006 -0
    outer loop
      vertex 1.05751 2.37521 5
      vertex 1.05751 2.37521 0
      vertex 1.29999 2.25166 5
    endloop
  endfacet
  facet normal -0.544637 -0.838672 0
    outer loop
      vertex 1.52823 2.10344 0
      vertex 1.52823 2.10344 5
      vertex 1.29999 2.25166 0
    endloop
  endfacet
  facet normal -0.544637 -0.838672 -0
    outer loop
      vertex 1.29999 2.25166 5
      vertex 1.29999 2.25166 0
      vertex 1.52823 2.10344 5
    endloop
  endfacet
  facet normal -0.629322 -0.777145 0
    outer loop
      vertex 1.73973 1.93217 0
      vertex 1.73973 1.93217 5
      vertex 1.52823 2.10344 0
    endloop
  endfacet
  facet normal -0.629322 -0.777145 -0
    outer loop
      vertex 1.52823 2.10344 5
      vertex 1.52823 2.10344 0
      vertex 1.73973 1.93217 5
    endloop
  endfacet
  facet normal -0.707107 -0.707107 0
    outer loop
      vertex 1.93217 1.73973 0
      vertex 1.93217 1.73973 5
      vertex 1.73973 1.93217 0
    endloop
  endfacet
  facet normal -0.707107 -0.707107 -0
    outer loop
      vertex 1.73973 1.93217 5
      vertex 1.73973 1.93217 0
      vertex 1.93217 1.73973 5
    endloop
  endfacet
  facet normal -0.777145 -0.629322 0
    outer loop
      vertex 2.10344 1.52823 0
      vertex 2.10344 1.52823 5
      vertex 1.93217 1.73973 0
    endloop
  endfacet
  facet normal -0.777145 -0.629322 -0
    outer loop
      vertex 1.93217 1.73973 5
      vertex 1.93217 1.73973 0
      vertex 2.10344 1.52823 5
    endloop
  endfacet
  facet normal -0.838672 -0.544637 0
    outer loop
      vertex 2.25166 1.29999 0
      vertex 2.25166 1.29999 5
      vertex 2.10344 1.52823 0
    endloop
  endfacet
  facet normal -0.838672 -0.544637 -0
    outer loop
      vertex 2.10344 1.52823 5
      vertex 2.10344 1.52823 0
      vertex 2.25166 1.29999 5
    endloop
  endfacet
  facet normal -0.891006 -0.453991 0
    outer loop
      vertex 2.37521 1.05751 0
      vertex 2.37521 1.05751 5
      vertex 2.25166 1.29999 0
    endloop
  endfacet
  facet normal -0.891006 -0.453991 -0
    outer loop
      vertex 2.25166 1.29999 5
      vertex 2.25166 1.29999 0
      vertex 2.37521 1.05751 5
    endloop
  endfacet
  facet normal -0.933593 -0.358336 0
    outer loop
      vertex 2.47273 0.803436 0
      vertex 2.47273 0.803436 5
      vertex 2.37521 1.05751 0
    endloop
  endfacet
  facet normal -0.933593 -0.358336 -0
    outer loop
      vertex 2.37521 1.05751 5
      vertex 2.37521 1.05751 0
      vertex 2.47273 0.803436 5
    endloop
  endfacet
  facet normal -0.965915 -0.25886 0
    outer loop
      vertex 2.54318 0.540558 0
      vertex 2.54318 0.540558 5
      vertex 2.47273 0.803436 0
    endloop
  endfacet
  facet normal -0.965915 -0.25886 -0
    outer loop
      vertex 2.47273 0.803436 5
      vertex 2.47273 0.803436 0
      vertex 2.54318 0.540558 5
    endloop
  endfacet
  facet normal -0.98769 -0.156422 0
    outer loop
      vertex 2.58575 0.271759 0
      vertex 2.58575 0.271759 5
      vertex 2.54318 0.540558 0
    endloop
  endfacet
  facet normal -0.98769 -0.156422 -0
    outer loop
      vertex 2.54318 0.540558 5
      vertex 2.54318 0.540558 0
      vertex 2.58575 0.271759 5
    endloop
  endfacet
  facet normal -0.99863 -0.0523276 0
    outer loop
      vertex 2.59999 0 0
      vertex 2.59999 0 5
      vertex 2.58575 0.271759 0
    endloop
  endfacet
  facet normal -0.99863 -0.0523276 -0
    outer loop
      vertex 2.58575 0.271759 5
      vertex 2.58575 0.271759 0
      vertex 2.59999 0 5
    endloop
  endfacet
  facet normal -0.99863 0.0523276 0
    outer loop
      vertex 2.58575 -0.271759 0
      vertex 2.58575 -0.271759 5
      vertex 2.59999 0 0
    endloop
  endfacet
  facet normal -0.99863 0.0523276 0
    outer loop
      vertex 2.59999 0 5
      vertex 2.59999 0 0
      vertex 2.58575 -0.271759 5
    endloop
  endfacet
  facet normal -0.98769 0.156422 0
    outer loop
      vertex 2.54318 -0.540558 0
      vertex 2.54318 -0.540558 5
      vertex 2.58575 -0.271759 0
    endloop
  endfacet
  facet normal -0.98769 0.156422 0
    outer loop
      vertex 2.58575 -0.271759 5
      vertex 2.58575 -0.271759 0
      vertex 2.54318 -0.540558 5
    endloop
  endfacet
  facet normal -0.965915 0.25886 0
    outer loop
      vertex 2.47273 -0.803436 0
      vertex 2.47273 -0.803436 5
      vertex 2.54318 -0.540558 0
    endloop
  endfacet
  facet normal -0.965915 0.25886 0
    outer loop
      vertex 2.54318 -0.540558 5
      vertex 2.54318 -0.540558 0
      vertex 2.47273 -0.803436 5
    endloop
  endfacet
  facet normal -0.933593 0.358336 0
    outer loop
      vertex 2.37521 -1.05751 0
      vertex 2.37521 -1.05751 5
      vertex 2.47273 -0.803436 0
    endloop
  endfacet
  facet normal -0.933593 0.358336 0
    outer loop
      vertex 2.47273 -0.803436 5
      vertex 2.47273 -0.803436 0
      vertex 2.37521 -1.05751 5
    endloop
  endfacet
  facet normal -0.891006 0.453991 0
    outer loop
      vertex 2.25166 -1.29999 0
      vertex 2.25166 -1.29999 5
      vertex 2.37521 -1.05751 0
    endloop
  endfacet
  facet normal -0.891006 0.453991 0
    outer loop
      vertex 2.37521 -1.05751 5
      vertex 2.37521 -1.05751 0
      vertex 2.25166 -1.29999 5
    endloop
  endfacet
  facet normal -0.838672 0.544637 0
    outer loop
      vertex 2.10344 -1.52823 0
      vertex 2.10344 -1.52823 5
      vertex 2.25166 -1.29999 0
    endloop
  endfacet
  facet normal -0.838672 0.544637 0
    outer loop
      vertex 2.25166 -1.29999 5
      vertex 2.25166 -1.29999 0
      vertex 2.10344 -1.52823 5
    endloop
  endfacet
  facet normal -0.777145 0.629322 0
    outer loop
      vertex 1.93217 -1.73973 0
      vertex 1.93217 -1.73973 5
      vertex 2.10344 -1.52823 0
    endloop
  endfacet
  facet normal -0.777145 0.629322 0
    outer loop
      vertex 2.10344 -1.52823 5
      vertex 2.10344 -1.52823 0
      vertex 1.93217 -1.73973 5
    endloop
  endfacet
  facet normal -0.707107 0.707107 0
    outer loop
      vertex 1.73973 -1.93217 0
      vertex 1.73973 -1.93217 5
      vertex 1.93217 -1.73973 0
    endloop
  endfacet
  facet normal -0.707107 0.707107 0
    outer loop
      vertex 1.93217 -1.73973 5
      vertex 1.93217 -1.73973 0
      vertex 1.73973 -1.93217 5
    endloop
  endfacet
  facet normal -0.629322 0.777145 0
    outer loop
      vertex 1.52823 -2.10344 0
      vertex 1.52823 -2.10344 5
      vertex 1.73973 -1.93217 0
    endloop
  endfacet
  facet normal -0.629322 0.777145 0
    outer loop
      vertex 1.73973 -1.93217 5
      vertex 1.73973 -1.93217 0
      vertex 1.52823 -2.10344 5
    endloop
  endfacet
  facet normal -0.544637 0.838672 0
    outer loop
      vertex 1.29999 -2.25166 0
      vertex 1.29999 -2.25166 5
      vertex 1.52823 -2.10344 0
    endloop
  endfacet
  facet normal -0.544637 0.838672 0
    outer loop
      vertex 1.52823 -2.10344 5
      vertex 1.52823 -2.10344 0
      vertex 1.29999 -2.25166 5
    endloop
  endfacet
  facet normal -0.453991 0.891006 0
    outer loop
      vertex 1.05751 -2.37521 0
      vertex 1.05751 -2.37521 5
      vertex 1.29999 -2.25166 0
    endloop
  endfacet
  facet normal -0.453991 0.891006 0
    outer loop
      vertex 1.29999 -2.25166 5
      vertex 1.29999 -2.25166 0
      vertex 1.05751 -2.37521 5
    endloop
  endfacet
  facet normal -0.358336 0.933593 0
    outer loop
      vertex 0.803436 -2.47273 0
      vertex 0.803436 -2.47273 5
      vertex 1.05751 -2.37521 0
    endloop
  endfacet
  facet normal -0.358336 0.933593 0
    outer loop
      vertex 1.05751 -2.37521 5
      vertex 1.05751 -2.37521 0
      vertex 0.803436 -2.47273 5
    endloop
  endfacet
  facet normal -0.25886 0.965915 0
    outer loop
      vertex 0.540558 -2.54318 0
      vertex 0.540558 -2.54318 5
      vertex 0.803436 -2.47273 0
    endloop
  endfacet
  facet normal -0.25886 0.965915 0
    outer loop
      vertex 0.803436 -2.47273 5
      vertex 0.803436 -2.47273 0
      vertex 0.540558 -2.54318 5
    endloop
  endfacet
  facet normal -0.156422 0.98769 0
    outer loop
      vertex 0.271759 -2.58575 0
      vertex 0.271759 -2.58575 5
      vertex 0.540558 -2.54318 0
    endloop
  endfacet
  facet normal -0.156422 0.98769 0
    outer loop
      vertex 0.540558 -2.54318 5
      vertex 0.540558 -2.54318 0
      vertex 0.271759 -2.58575 5
    endloop
  endfacet
  facet normal -0.0523276 0.99863 0
    outer loop
      vertex 0 -2.59999 0
      vertex 0 -2.59999 5
      vertex 0.271759 -2.58575 0
    endloop
  endfacet
  facet normal -0.0523276 0.99863 0
    outer loop
      vertex 0.271759 -2.58575 5
      vertex 0.271759 -2.58575 0
      vertex 0 -2.59999 5
    endloop
  endfacet
  facet normal 0.0523276 0.99863 -0
    outer loop
      vertex -0.271759 -2.58575 0
      vertex -0.271759 -2.58575 5
      vertex 0 -2.59999 0
    endloop
  endfacet
  facet normal 0.0523276 0.99863 0
    outer loop
      vertex 0 -2.59999 5
      vertex 0 -2.59999 0
      vertex -0.271759 -2.58575 5
    endloop
  endfacet
endsolid OpenSCAD_Model
