<?xml version="1.0" standalone="no"?>
<!DOCTYPE svg PUBLIC "-//W3C//DTD SVG 1.1//EN" "http://www.w3.org/Graphics/SVG/1.1/DTD/svg11.dtd">
<svg width="42mm" height="42mm" viewBox="-21 -21 42 42" xmlns="http://www.w3.org/2000/svg" version="1.1">
<title>OpenSCAD Model</title>
<path d="
M 0.888489,20.0982 L 0.987122,20.0936 L 1.08575,20.0885 L 1.12718,20.0862 L 1.23529,20.0382 L 1.28223,19.9398
 L 1.29387,19.8302 L 1.31894,19.7226 L 1.35703,19.6177 L 1.4077,19.5162 L 1.50349,19.4092 L 1.62051,19.3269
 L 1.75302,19.2709 L 1.8952,19.2424 L 2.04022,19.2426 L 2.18111,19.2717 L 2.31192,19.3295 L 2.42677,19.4159
 L 2.49608,19.5055 L 2.55392,19.601 L 2.59961,19.7016 L 2.63246,19.8068 L 2.69756,19.8942 L 2.81306,19.9201
 L 2.85417,19.9143 L 2.95189,19.9001 L 3.04955,19.8853 L 3.09055,19.879 L 3.19342,19.8206 L 3.23048,19.7181
 L 3.23134,19.6079 L 3.24576,19.4984 L 3.27336,19.3902 L 3.31384,19.2843 L 3.39868,19.1683 L 3.50708,19.075
 L 3.63347,19.0063 L 3.77217,18.964 L 3.9165,18.95 L 4.05957,18.9651 L 4.19542,19.0099 L 4.31818,19.0845
 L 4.39594,19.1669 L 4.46286,19.2563 L 4.51819,19.352 L 4.5612,19.4534 L 4.63454,19.534 L 4.75204,19.5485
 L 4.79237,19.5387 L 4.88823,19.5149 L 4.98396,19.4907 L 5.02415,19.4803 L 5.1208,19.4122 L 5.14764,19.3065
 L 5.1377,19.1968 L 5.1413,19.0863 L 5.15817,18.976 L 5.18808,18.8666 L 5.26114,18.7429 L 5.35988,18.6394
 L 5.47891,18.5586 L 5.61279,18.5029 L 5.75507,18.4749 L 5.89893,18.4759 L 6.0385,18.5071 L 6.16798,18.5694
 L 6.25345,18.6437 L 6.32881,18.7261 L 6.39326,18.8159 L 6.446,18.9127 L 6.52689,18.9856 L 6.64525,18.9886
 L 6.68442,18.9749 L 6.77748,18.9418 L 6.87039,18.9083 L 6.90936,18.8941 L 6.99887,18.8168 L 7.01523,18.709
 L 6.99457,18.6008 L 6.98734,18.4905 L 6.99332,18.379 L 7.01234,18.2672 L 7.07294,18.137 L 7.16106,18.0243
 L 7.27159,17.9323 L 7.39938,17.8637 L 7.53821,17.8218 L 7.68147,17.8087 L 7.82344,17.8261 L 7.9584,17.8754
 L 8.05075,17.941 L 8.13382,18.0156 L 8.20676,18.0987 L 8.26872,18.1898 L 8.35637,18.2545 L 8.47444,18.2458
 L 8.5121,18.2283 L 8.60147,18.1863 L 8.69064,18.1439 L 8.72803,18.1258 L 8.80954,18.0401 L 8.81525,17.9313
 L 8.78409,17.8256 L 8.76607,17.7166 L 8.76109,17.6051 L 8.76909,17.4919 L 8.81662,17.3564 L 8.89326,17.2356
 L 8.99425,17.1332 L 9.1147,17.0524 L 9.24876,16.9971 L 9.39005,16.9701 L 9.53304,16.9734 L 9.67218,17.0092
 L 9.77051,17.0655 L 9.86049,17.1316 L 9.94122,17.2071 L 10.0118,17.2917 L 10.1054,17.3475 L 10.222,17.3273
 L 10.2578,17.3062 L 10.3426,17.2556 L 10.4272,17.2047 L 10.4626,17.1831 L 10.5354,17.0898 L 10.5304,16.9809
 L 10.489,16.8788 L 10.4604,16.772 L 10.4445,16.6615 L 10.4414,16.5482 L 10.4754,16.4086 L 10.5398,16.2809
 L 10.6303,16.1691 L 10.7422,16.0769 L 10.8702,16.0087 L 11.0082,15.968 L 11.1508,15.9573 L 11.2928,15.9793
 L 11.3962,16.0257 L 11.4922,16.0826 L 11.5799,16.1498 L 11.6585,16.2271 L 11.7571,16.2735 L 11.8712,16.2419
 L 11.9047,16.2174 L 11.9842,16.1588 L 12.0633,16.0998 L 12.0965,16.0748 L 12.1597,15.9748 L 12.1441,15.867
 L 12.0929,15.7694 L 12.054,15.666 L 12.0273,15.5576 L 12.0131,15.4451 L 12.0333,15.3028 L 12.0849,15.1694
 L 12.1639,15.0493 L 12.2663,14.9466 L 12.387,14.8662 L 12.5203,14.8121 L 12.6612,14.7875 L 12.8047,14.7955
 L 12.9121,14.8315 L 13.0132,14.8787 L 13.1071,14.937 L 13.1929,15.0062 L 13.2955,15.0427 L 13.406,15.0001
 L 13.437,14.9725 L 13.5103,14.9063 L 13.5833,14.8398 L 13.6139,14.8117 L 13.667,14.7061 L 13.6408,14.6002
 L 13.5804,14.5081 L 13.5315,14.409 L 13.4943,14.3038 L 13.4691,14.1932 L 13.4753,14.0497 L 13.5136,13.9119
 L 13.5804,13.7845 L 13.6723,13.6723 L 13.7845,13.5804 L 13.9119,13.5136 L 14.0497,13.4753 L 14.1932,13.4691
 L 14.3036,13.4944 L 14.4089,13.5316 L 14.5081,13.5804 L 14.6002,13.6408 L 14.706,13.6671 L 14.8117,13.6139
 L 14.8398,13.5833 L 14.9063,13.5103 L 14.9725,13.437 L 15.0001,13.406 L 15.0426,13.2957 L 15.0062,13.1929
 L 14.937,13.1072 L 14.8786,13.0134 L 14.8314,12.9122 L 14.7955,12.8047 L 14.7875,12.6612 L 14.8121,12.5203
 L 14.8662,12.387 L 14.9466,12.2663 L 15.0493,12.1639 L 15.1694,12.0849 L 15.3028,12.0333 L 15.4451,12.0131
 L 15.5575,12.0275 L 15.6659,12.0541 L 15.7694,12.0929 L 15.867,12.1441 L 15.9748,12.1598 L 16.0748,12.0965
 L 16.0998,12.0633 L 16.1588,11.9842 L 16.2174,11.9047 L 16.2419,11.8712 L 16.2734,11.7572 L 16.2271,11.6585
 L 16.1498,11.58 L 16.0825,11.4923 L 16.0256,11.3963 L 15.9793,11.2928 L 15.9573,11.1508 L 15.968,11.0082
 L 16.0087,10.8702 L 16.0769,10.7422 L 16.1691,10.6303 L 16.2809,10.5398 L 16.4086,10.4754 L 16.5482,10.4414
 L 16.6615,10.4447 L 16.772,10.4605 L 16.8787,10.489 L 16.9809,10.5304 L 17.0897,10.5355 L 17.1831,10.4626
 L 17.2047,10.4272 L 17.2556,10.3426 L 17.3062,10.2578 L 17.3273,10.222 L 17.3474,10.1055 L 17.2917,10.0118
 L 17.2071,9.94127 L 17.1315,9.86063 L 17.0654,9.77066 L 17.0092,9.67218 L 16.9734,9.53304 L 16.9701,9.39005
 L 16.9971,9.24876 L 17.0524,9.1147 L 17.1332,8.99425 L 17.2356,8.89326 L 17.3564,8.81662 L 17.4919,8.76909
 L 17.605,8.76125 L 17.7165,8.7662 L 17.8256,8.78413 L 17.9313,8.81525 L 18.0401,8.80966 L 18.1258,8.72803
 L 18.1439,8.69064 L 18.1863,8.60147 L 18.2283,8.5121 L 18.2458,8.47444 L 18.2544,8.35649 L 18.1898,8.26872
 L 18.0986,8.2068 L 18.0155,8.13396 L 17.9409,8.0509 L 17.8754,7.9584 L 17.8261,7.82344 L 17.8087,7.68147
 L 17.8218,7.53821 L 17.8637,7.39938 L 17.9323,7.27159 L 18.0243,7.16106 L 18.137,7.07294 L 18.2672,7.01234
 L 18.379,6.99347 L 18.4904,6.98747 L 18.6007,6.99463 L 18.709,7.01523 L 18.8167,6.99901 L 18.8941,6.90936
 L 18.9083,6.87039 L 18.9418,6.77748 L 18.9749,6.68442 L 18.9886,6.64525 L 18.9856,6.52701 L 18.9127,6.446
 L 18.8159,6.39331 L 18.7261,6.32896 L 18.6437,6.25362 L 18.5694,6.16798 L 18.5071,6.0385 L 18.4759,5.89893
 L 18.4749,5.75507 L 18.5029,5.61279 L 18.5586,5.47891 L 18.6394,5.35988 L 18.7429,5.26114 L 18.8666,5.18808
 L 18.9759,5.15834 L 19.0863,5.14145 L 19.1968,5.13774 L 19.3065,5.14764 L 19.4121,5.12094 L 19.4803,5.02415
 L 19.4907,4.98396 L 19.5149,4.88823 L 19.5387,4.79237 L 19.5485,4.75204 L 19.5339,4.63467 L 19.4534,4.5612
 L 19.3519,4.51825 L 19.2562,4.46301 L 19.1669,4.3961 L 19.0845,4.31818 L 19.0099,4.19542 L 18.9651,4.05957
 L 18.95,3.9165 L 18.964,3.77217 L 19.0063,3.63347 L 19.075,3.50708 L 19.1683,3.39868 L 19.2843,3.31384
 L 19.3902,3.27353 L 19.4983,3.24591 L 19.6079,3.2314 L 19.7181,3.23048 L 19.8206,3.19356 L 19.879,3.09055
 L 19.8853,3.04955 L 19.9001,2.95189 L 19.9143,2.85417 L 19.9201,2.81306 L 19.8941,2.69769 L 19.8068,2.63246
 L 19.7016,2.59966 L 19.601,2.55408 L 19.5055,2.49625 L 19.4159,2.42677 L 19.3295,2.31192 L 19.2717,2.18111
 L 19.2426,2.04022 L 19.2424,1.8952 L 19.2709,1.75302 L 19.3269,1.62051 L 19.4092,1.50349 L 19.5162,1.4077
 L 19.6177,1.35721 L 19.7226,1.31911 L 19.8302,1.29393 L 19.9398,1.28223 L 20.0382,1.23543 L 20.0862,1.12718
 L 20.0885,1.08575 L 20.0936,0.987122 L 20.0982,0.888489 L 20.0999,0.847015 L 20.0628,0.734741 L 19.9695,0.678375
 L 19.8616,0.656052 L 19.7569,0.620544 L 19.6562,0.572357 L 19.5602,0.511993 L 19.4631,0.406158 L 19.3927,0.281647
 L 19.35,0.144287 L 19.3355,-0 L 19.35,-0.144287 L 19.3927,-0.281647 L 19.4631,-0.406158 L 19.5602,-0.511993
 L 19.6562,-0.572189 L 19.7569,-0.620392 L 19.8616,-0.655991 L 19.9695,-0.678375 L 20.0628,-0.734589 L 20.0999,-0.847015
 L 20.0982,-0.888489 L 20.0936,-0.987122 L 20.0885,-1.08575 L 20.0862,-1.12718 L 20.0382,-1.23529 L 19.9398,-1.28223
 L 19.8302,-1.29387 L 19.7226,-1.31894 L 19.6177,-1.35703 L 19.5162,-1.4077 L 19.4092,-1.50349 L 19.3269,-1.62051
 L 19.2709,-1.75302 L 19.2424,-1.8952 L 19.2426,-2.04022 L 19.2717,-2.18111 L 19.3295,-2.31192 L 19.4159,-2.42677
 L 19.5055,-2.49608 L 19.601,-2.55392 L 19.7016,-2.59961 L 19.8068,-2.63246 L 19.8942,-2.69756 L 19.9201,-2.81306
 L 19.9143,-2.85417 L 19.9001,-2.95189 L 19.8853,-3.04955 L 19.879,-3.09055 L 19.8206,-3.19342 L 19.7181,-3.23048
 L 19.6079,-3.23134 L 19.4984,-3.24576 L 19.3902,-3.27336 L 19.2843,-3.31384 L 19.1683,-3.39868 L 19.075,-3.50708
 L 19.0063,-3.63347 L 18.964,-3.77217 L 18.95,-3.9165 L 18.9651,-4.05957 L 19.0099,-4.19542 L 19.0845,-4.31818
 L 19.1669,-4.39594 L 19.2563,-4.46286 L 19.352,-4.51819 L 19.4534,-4.5612 L 19.534,-4.63454 L 19.5485,-4.75204
 L 19.5387,-4.79237 L 19.5149,-4.88823 L 19.4907,-4.98396 L 19.4803,-5.02415 L 19.4122,-5.1208 L 19.3065,-5.14764
 L 19.1968,-5.1377 L 19.0863,-5.1413 L 18.976,-5.15817 L 18.8666,-5.18808 L 18.7429,-5.26114 L 18.6394,-5.35988
 L 18.5586,-5.47891 L 18.5029,-5.61279 L 18.4749,-5.75507 L 18.4759,-5.89893 L 18.5071,-6.0385 L 18.5694,-6.16798
 L 18.6437,-6.25345 L 18.7261,-6.32881 L 18.8159,-6.39326 L 18.9127,-6.446 L 18.9856,-6.52689 L 18.9886,-6.64525
 L 18.9749,-6.68442 L 18.9418,-6.77748 L 18.9083,-6.87039 L 18.8941,-6.90936 L 18.8168,-6.99887 L 18.709,-7.01523
 L 18.6008,-6.99457 L 18.4905,-6.98734 L 18.379,-6.99332 L 18.2672,-7.01234 L 18.137,-7.07294 L 18.0243,-7.16106
 L 17.9323,-7.27159 L 17.8637,-7.39938 L 17.8218,-7.53821 L 17.8087,-7.68147 L 17.8261,-7.82344 L 17.8754,-7.9584
 L 17.941,-8.05075 L 18.0156,-8.13382 L 18.0987,-8.20676 L 18.1898,-8.26872 L 18.2545,-8.35637 L 18.2458,-8.47444
 L 18.2283,-8.5121 L 18.1863,-8.60147 L 18.1439,-8.69064 L 18.1258,-8.72803 L 18.0401,-8.80954 L 17.9313,-8.81525
 L 17.8256,-8.78409 L 17.7166,-8.76607 L 17.6051,-8.76109 L 17.4919,-8.76909 L 17.3564,-8.81662 L 17.2356,-8.89326
 L 17.1332,-8.99425 L 17.0524,-9.1147 L 16.9971,-9.24876 L 16.9701,-9.39005 L 16.9734,-9.53304 L 17.0092,-9.67218
 L 17.0655,-9.77051 L 17.1316,-9.86049 L 17.2071,-9.94122 L 17.2917,-10.0118 L 17.3475,-10.1054 L 17.3273,-10.222
 L 17.3062,-10.2578 L 17.2556,-10.3426 L 17.2047,-10.4272 L 17.1831,-10.4626 L 17.0898,-10.5354 L 16.9809,-10.5304
 L 16.8788,-10.489 L 16.772,-10.4604 L 16.6615,-10.4445 L 16.5482,-10.4414 L 16.4086,-10.4754 L 16.2809,-10.5398
 L 16.1691,-10.6303 L 16.0769,-10.7422 L 16.0087,-10.8702 L 15.968,-11.0082 L 15.9573,-11.1508 L 15.9793,-11.2928
 L 16.0257,-11.3962 L 16.0826,-11.4922 L 16.1498,-11.5799 L 16.2271,-11.6585 L 16.2735,-11.7571 L 16.2419,-11.8712
 L 16.2174,-11.9047 L 16.1588,-11.9842 L 16.0998,-12.0633 L 16.0748,-12.0965 L 15.9748,-12.1597 L 15.867,-12.1441
 L 15.7694,-12.0929 L 15.666,-12.054 L 15.5576,-12.0273 L 15.4451,-12.0131 L 15.3028,-12.0333 L 15.1694,-12.0849
 L 15.0493,-12.1639 L 14.9466,-12.2663 L 14.8662,-12.387 L 14.8121,-12.5203 L 14.7875,-12.6612 L 14.7955,-12.8047
 L 14.8315,-12.9121 L 14.8787,-13.0132 L 14.937,-13.1071 L 15.0062,-13.1929 L 15.0427,-13.2955 L 15.0001,-13.406
 L 14.9725,-13.437 L 14.9063,-13.5103 L 14.8398,-13.5833 L 14.8117,-13.6139 L 14.7061,-13.667 L 14.6002,-13.6408
 L 14.5081,-13.5804 L 14.409,-13.5315 L 14.3038,-13.4943 L 14.1932,-13.4691 L 14.0497,-13.4753 L 13.9119,-13.5136
 L 13.7845,-13.5804 L 13.6723,-13.6723 L 13.5804,-13.7845 L 13.5136,-13.9119 L 13.4753,-14.0497 L 13.4691,-14.1932
 L 13.4944,-14.3036 L 13.5316,-14.4089 L 13.5804,-14.5081 L 13.6408,-14.6002 L 13.6671,-14.706 L 13.6139,-14.8117
 L 13.5833,-14.8398 L 13.5103,-14.9063 L 13.437,-14.9725 L 13.406,-15.0001 L 13.2957,-15.0426 L 13.1929,-15.0062
 L 13.1072,-14.937 L 13.0134,-14.8786 L 12.9122,-14.8314 L 12.8047,-14.7955 L 12.6612,-14.7875 L 12.5203,-14.8121
 L 12.387,-14.8662 L 12.2663,-14.9466 L 12.1639,-15.0493 L 12.0849,-15.1694 L 12.0333,-15.3028 L 12.0131,-15.4451
 L 12.0275,-15.5575 L 12.0541,-15.6659 L 12.0929,-15.7694 L 12.1441,-15.867 L 12.1598,-15.9748 L 12.0965,-16.0748
 L 12.0633,-16.0998 L 11.9842,-16.1588 L 11.9047,-16.2174 L 11.8712,-16.2419 L 11.7572,-16.2734 L 11.6585,-16.2271
 L 11.58,-16.1498 L 11.4923,-16.0825 L 11.3963,-16.0256 L 11.2928,-15.9793 L 11.1508,-15.9573 L 11.0082,-15.968
 L 10.8702,-16.0087 L 10.7422,-16.0769 L 10.6303,-16.1691 L 10.5398,-16.2809 L 10.4754,-16.4086 L 10.4414,-16.5482
 L 10.4447,-16.6615 L 10.4605,-16.772 L 10.489,-16.8787 L 10.5304,-16.9809 L 10.5355,-17.0897 L 10.4626,-17.1831
 L 10.4272,-17.2047 L 10.3426,-17.2556 L 10.2578,-17.3062 L 10.222,-17.3273 L 10.1055,-17.3474 L 10.0118,-17.2917
 L 9.94127,-17.2071 L 9.86063,-17.1315 L 9.77066,-17.0654 L 9.67218,-17.0092 L 9.53304,-16.9734 L 9.39005,-16.9701
 L 9.24876,-16.9971 L 9.1147,-17.0524 L 8.99425,-17.1332 L 8.89326,-17.2356 L 8.81662,-17.3564 L 8.76909,-17.4919
 L 8.76125,-17.605 L 8.7662,-17.7165 L 8.78413,-17.8256 L 8.81525,-17.9313 L 8.80966,-18.0401 L 8.72803,-18.1258
 L 8.69064,-18.1439 L 8.60147,-18.1863 L 8.5121,-18.2283 L 8.47444,-18.2458 L 8.35649,-18.2544 L 8.26872,-18.1898
 L 8.2068,-18.0986 L 8.13396,-18.0155 L 8.0509,-17.9409 L 7.9584,-17.8754 L 7.82344,-17.8261 L 7.68147,-17.8087
 L 7.53821,-17.8218 L 7.39938,-17.8637 L 7.27159,-17.9323 L 7.16106,-18.0243 L 7.07294,-18.137 L 7.01234,-18.2672
 L 6.99347,-18.379 L 6.98747,-18.4904 L 6.99463,-18.6007 L 7.01523,-18.709 L 6.99901,-18.8167 L 6.90936,-18.8941
 L 6.87039,-18.9083 L 6.77748,-18.9418 L 6.68442,-18.9749 L 6.64525,-18.9886 L 6.52701,-18.9856 L 6.446,-18.9127
 L 6.39331,-18.8159 L 6.32896,-18.7261 L 6.25362,-18.6437 L 6.16798,-18.5694 L 6.0385,-18.5071 L 5.89893,-18.4759
 L 5.75507,-18.4749 L 5.61279,-18.5029 L 5.47891,-18.5586 L 5.35988,-18.6394 L 5.26114,-18.7429 L 5.18808,-18.8666
 L 5.15834,-18.9759 L 5.14145,-19.0863 L 5.13774,-19.1968 L 5.14764,-19.3065 L 5.12094,-19.4121 L 5.02415,-19.4803
 L 4.98396,-19.4907 L 4.88823,-19.5149 L 4.79237,-19.5387 L 4.75204,-19.5485 L 4.63467,-19.5339 L 4.5612,-19.4534
 L 4.51825,-19.3519 L 4.46301,-19.2562 L 4.3961,-19.1669 L 4.31818,-19.0845 L 4.19542,-19.0099 L 4.05957,-18.9651
 L 3.9165,-18.95 L 3.77217,-18.964 L 3.63347,-19.0063 L 3.50708,-19.075 L 3.39868,-19.1683 L 3.31384,-19.2843
 L 3.27353,-19.3902 L 3.24591,-19.4983 L 3.2314,-19.6079 L 3.23048,-19.7181 L 3.19356,-19.8206 L 3.09055,-19.879
 L 3.04955,-19.8853 L 2.95189,-19.9001 L 2.85417,-19.9143 L 2.81306,-19.9201 L 2.69769,-19.8941 L 2.63246,-19.8068
 L 2.59966,-19.7016 L 2.55408,-19.601 L 2.49625,-19.5055 L 2.42677,-19.4159 L 2.31192,-19.3295 L 2.18111,-19.2717
 L 2.04022,-19.2426 L 1.8952,-19.2424 L 1.75302,-19.2709 L 1.62051,-19.3269 L 1.50349,-19.4092 L 1.4077,-19.5162
 L 1.35721,-19.6177 L 1.31911,-19.7226 L 1.29393,-19.8302 L 1.28223,-19.9398 L 1.23543,-20.0382 L 1.12718,-20.0862
 L 1.08575,-20.0885 L 0.987122,-20.0936 L 0.888489,-20.0982 L 0.847015,-20.0999 L 0.734741,-20.0628 L 0.678375,-19.9695
 L 0.656052,-19.8616 L 0.620544,-19.7569 L 0.572357,-19.6562 L 0.511993,-19.5602 L 0.406158,-19.4631 L 0.281647,-19.3927
 L 0.144287,-19.35 L 0,-19.3355 L -0.144287,-19.35 L -0.281647,-19.3927 L -0.406158,-19.4631 L -0.511993,-19.5602
 L -0.572189,-19.6562 L -0.620392,-19.7569 L -0.655991,-19.8616 L -0.678375,-19.9695 L -0.734589,-20.0628 L -0.847015,-20.0999
 L -0.888489,-20.0982 L -0.987122,-20.0936 L -1.08575,-20.0885 L -1.12718,-20.0862 L -1.23529,-20.0382 L -1.28223,-19.9398
 L -1.29387,-19.8302 L -1.31894,-19.7226 L -1.35703,-19.6177 L -1.4077,-19.5162 L -1.50349,-19.4092 L -1.62051,-19.3269
 L -1.75302,-19.2709 L -1.8952,-19.2424 L -2.04022,-19.2426 L -2.18111,-19.2717 L -2.31192,-19.3295 L -2.42677,-19.4159
 L -2.49608,-19.5055 L -2.55392,-19.601 L -2.59961,-19.7016 L -2.63246,-19.8068 L -2.69756,-19.8942 L -2.81306,-19.9201
 L -2.85417,-19.9143 L -2.95189,-19.9001 L -3.04955,-19.8853 L -3.09055,-19.879 L -3.19342,-19.8206 L -3.23048,-19.7181
 L -3.23134,-19.6079 L -3.24576,-19.4984 L -3.27336,-19.3902 L -3.31384,-19.2843 L -3.39868,-19.1683 L -3.50708,-19.075
 L -3.63347,-19.0063 L -3.77217,-18.964 L -3.9165,-18.95 L -4.05957,-18.9651 L -4.19542,-19.0099 L -4.31818,-19.0845
 L -4.39594,-19.1669 L -4.46286,-19.2563 L -4.51819,-19.352 L -4.5612,-19.4534 L -4.63454,-19.534 L -4.75204,-19.5485
 L -4.79237,-19.5387 L -4.88823,-19.5149 L -4.98396,-19.4907 L -5.02415,-19.4803 L -5.1208,-19.4122 L -5.14764,-19.3065
 L -5.1377,-19.1968 L -5.1413,-19.0863 L -5.15817,-18.976 L -5.18808,-18.8666 L -5.26114,-18.7429 L -5.35988,-18.6394
 L -5.47891,-18.5586 L -5.61279,-18.5029 L -5.75507,-18.4749 L -5.89893,-18.4759 L -6.0385,-18.5071 L -6.16798,-18.5694
 L -6.25345,-18.6437 L -6.32881,-18.7261 L -6.39326,-18.8159 L -6.446,-18.9127 L -6.52689,-18.9856 L -6.64525,-18.9886
 L -6.68442,-18.9749 L -6.77748,-18.9418 L -6.87039,-18.9083 L -6.90936,-18.8941 L -6.99887,-18.8168 L -7.01523,-18.709
 L -6.99457,-18.6008 L -6.98734,-18.4905 L -6.99332,-18.379 L -7.01234,-18.2672 L -7.07294,-18.137 L -7.16106,-18.0243
 L -7.27159,-17.9323 L -7.39938,-17.8637 L -7.53821,-17.8218 L -7.68147,-17.8087 L -7.82344,-17.8261 L -7.9584,-17.8754
 L -8.05075,-17.941 L -8.13382,-18.0156 L -8.20676,-18.0987 L -8.26872,-18.1898 L -8.35637,-18.2545 L -8.47444,-18.2458
 L -8.5121,-18.2283 L -8.60147,-18.1863 L -8.69064,-18.1439 L -8.72803,-18.1258 L -8.80954,-18.0401 L -8.81525,-17.9313
 L -8.78409,-17.8256 L -8.76607,-17.7166 L -8.76109,-17.6051 L -8.76909,-17.4919 L -8.81662,-17.3564 L -8.89326,-17.2356
 L -8.99425,-17.1332 L -9.1147,-17.0524 L -9.24876,-16.9971 L -9.39005,-16.9701 L -9.53304,-16.9734 L -9.67218,-17.0092
 L -9.77051,-17.0655 L -9.86049,-17.1316 L -9.94122,-17.2071 L -10.0118,-17.2917 L -10.1054,-17.3475 L -10.222,-17.3273
 L -10.2578,-17.3062 L -10.3426,-17.2556 L -10.4272,-17.2047 L -10.4626,-17.1831 L -10.5354,-17.0898 L -10.5304,-16.9809
 L -10.489,-16.8788 L -10.4604,-16.772 L -10.4445,-16.6615 L -10.4414,-16.5482 L -10.4754,-16.4086 L -10.5398,-16.2809
 L -10.6303,-16.1691 L -10.7422,-16.0769 L -10.8702,-16.0087 L -11.0082,-15.968 L -11.1508,-15.9573 L -11.2928,-15.9793
 L -11.3962,-16.0257 L -11.4922,-16.0826 L -11.5799,-16.1498 L -11.6585,-16.2271 L -11.7571,-16.2735 L -11.8712,-16.2419
 L -11.9047,-16.2174 L -11.9842,-16.1588 L -12.0633,-16.0998 L -12.0965,-16.0748 L -12.1597,-15.9748 L -12.1441,-15.867
 L -12.0929,-15.7694 L -12.054,-15.666 L -12.0273,-15.5576 L -12.0131,-15.4451 L -12.0333,-15.3028 L -12.0849,-15.1694
 L -12.1639,-15.0493 L -12.2663,-14.9466 L -12.387,-14.8662 L -12.5203,-14.8121 L -12.6612,-14.7875 L -12.8047,-14.7955
 L -12.9121,-14.8315 L -13.0132,-14.8787 L -13.1071,-14.937 L -13.1929,-15.0062 L -13.2955,-15.0427 L -13.406,-15.0001
 L -13.437,-14.9725 L -13.5103,-14.9063 L -13.5833,-14.8398 L -13.6139,-14.8117 L -13.667,-14.7061 L -13.6408,-14.6002
 L -13.5804,-14.5081 L -13.5315,-14.409 L -13.4943,-14.3038 L -13.4691,-14.1932 L -13.4753,-14.0497 L -13.5136,-13.9119
 L -13.5804,-13.7845 L -13.6723,-13.6723 L -13.7845,-13.5804 L -13.9119,-13.5136 L -14.0497,-13.4753 L -14.1932,-13.4691
 L -14.3036,-13.4944 L -14.4089,-13.5316 L -14.5081,-13.5804 L -14.6002,-13.6408 L -14.706,-13.6671 L -14.8117,-13.6139
 L -14.8398,-13.5833 L -14.9063,-13.5103 L -14.9725,-13.437 L -15.0001,-13.406 L -15.0426,-13.2957 L -15.0062,-13.1929
 L -14.937,-13.1072 L -14.8786,-13.0134 L -14.8314,-12.9122 L -14.7955,-12.8047 L -14.7875,-12.6612 L -14.8121,-12.5203
 L -14.8662,-12.387 L -14.9466,-12.2663 L -15.0493,-12.1639 L -15.1694,-12.0849 L -15.3028,-12.0333 L -15.4451,-12.0131
 L -15.5575,-12.0275 L -15.6659,-12.0541 L -15.7694,-12.0929 L -15.867,-12.1441 L -15.9748,-12.1598 L -16.0748,-12.0965
 L -16.0998,-12.0633 L -16.1588,-11.9842 L -16.2174,-11.9047 L -16.2419,-11.8712 L -16.2734,-11.7572 L -16.2271,-11.6585
 L -16.1498,-11.58 L -16.0825,-11.4923 L -16.0256,-11.3963 L -15.9793,-11.2928 L -15.9573,-11.1508 L -15.968,-11.0082
 L -16.0087,-10.8702 L -16.0769,-10.7422 L -16.1691,-10.6303 L -16.2809,-10.5398 L -16.4086,-10.4754 L -16.5482,-10.4414
 L -16.6615,-10.4447 L -16.772,-10.4605 L -16.8787,-10.489 L -16.9809,-10.5304 L -17.0897,-10.5355 L -17.1831,-10.4626
 L -17.2047,-10.4272 L -17.2556,-10.3426 L -17.3062,-10.2578 L -17.3273,-10.222 L -17.3474,-10.1055 L -17.2917,-10.0118
 L -17.2071,-9.94127 L -17.1315,-9.86063 L -17.0654,-9.77066 L -17.0092,-9.67218 L -16.9734,-9.53304 L -16.9701,-9.39005
 L -16.9971,-9.24876 L -17.0524,-9.1147 L -17.1332,-8.99425 L -17.2356,-8.89326 L -17.3564,-8.81662 L -17.4919,-8.76909
 L -17.605,-8.76125 L -17.7165,-8.7662 L -17.8256,-8.78413 L -17.9313,-8.81525 L -18.0401,-8.80966 L -18.1258,-8.72803
 L -18.1439,-8.69064 L -18.1863,-8.60147 L -18.2283,-8.5121 L -18.2458,-8.47444 L -18.2544,-8.35649 L -18.1898,-8.26872
 L -18.0986,-8.2068 L -18.0155,-8.13396 L -17.9409,-8.0509 L -17.8754,-7.9584 L -17.8261,-7.82344 L -17.8087,-7.68147
 L -17.8218,-7.53821 L -17.8637,-7.39938 L -17.9323,-7.27159 L -18.0243,-7.16106 L -18.137,-7.07294 L -18.2672,-7.01234
 L -18.379,-6.99347 L -18.4904,-6.98747 L -18.6007,-6.99463 L -18.709,-7.01523 L -18.8167,-6.99901 L -18.8941,-6.90936
 L -18.9083,-6.87039 L -18.9418,-6.77748 L -18.9749,-6.68442 L -18.9886,-6.64525 L -18.9856,-6.52701 L -18.9127,-6.446
 L -18.8159,-6.39331 L -18.7261,-6.32896 L -18.6437,-6.25362 L -18.5694,-6.16798 L -18.5071,-6.0385 L -18.4759,-5.89893
 L -18.4749,-5.75507 L -18.5029,-5.61279 L -18.5586,-5.47891 L -18.6394,-5.35988 L -18.7429,-5.26114 L -18.8666,-5.18808
 L -18.9759,-5.15834 L -19.0863,-5.14145 L -19.1968,-5.13774 L -19.3065,-5.14764 L -19.4121,-5.12094 L -19.4803,-5.02415
 L -19.4907,-4.98396 L -19.5149,-4.88823 L -19.5387,-4.79237 L -19.5485,-4.75204 L -19.5339,-4.63467 L -19.4534,-4.5612
 L -19.3519,-4.51825 L -19.2562,-4.46301 L -19.1669,-4.3961 L -19.0845,-4.31818 L -19.0099,-4.19542 L -18.9651,-4.05957
 L -18.95,-3.9165 L -18.964,-3.77217 L -19.0063,-3.63347 L -19.075,-3.50708 L -19.1683,-3.39868 L -19.2843,-3.31384
 L -19.3902,-3.27353 L -19.4983,-3.24591 L -19.6079,-3.2314 L -19.7181,-3.23048 L -19.8206,-3.19356 L -19.879,-3.09055
 L -19.8853,-3.04955 L -19.9001,-2.95189 L -19.9143,-2.85417 L -19.9201,-2.81306 L -19.8941,-2.69769 L -19.8068,-2.63246
 L -19.7016,-2.59966 L -19.601,-2.55408 L -19.5055,-2.49625 L -19.4159,-2.42677 L -19.3295,-2.31192 L -19.2717,-2.18111
 L -19.2426,-2.04022 L -19.2424,-1.8952 L -19.2709,-1.75302 L -19.3269,-1.62051 L -19.4092,-1.50349 L -19.5162,-1.4077
 L -19.6177,-1.35721 L -19.7226,-1.31911 L -19.8302,-1.29393 L -19.9398,-1.28223 L -20.0382,-1.23543 L -20.0862,-1.12718
 L -20.0885,-1.08575 L -20.0936,-0.987122 L -20.0982,-0.888489 L -20.0999,-0.847015 L -20.0628,-0.734741 L -19.9695,-0.678375
 L -19.8616,-0.656052 L -19.7569,-0.620544 L -19.6562,-0.572357 L -19.5602,-0.511993 L -19.4631,-0.406158 L -19.3927,-0.281647
 L -19.35,-0.144287 L -19.3355,-0 L -19.35,0.144287 L -19.3927,0.281647 L -19.4631,0.406158 L -19.5602,0.511993
 L -19.6562,0.572189 L -19.7569,0.620392 L -19.8616,0.655991 L -19.9695,0.678375 L -20.0628,0.734589 L -20.0999,0.847015
 L -20.0982,0.888489 L -20.0936,0.987122 L -20.0885,1.08575 L -20.0862,1.12718 L -20.0382,1.23529 L -19.9398,1.28223
 L -19.8302,1.29387 L -19.7226,1.31894 L -19.6177,1.35703 L -19.5162,1.4077 L -19.4092,1.50349 L -19.3269,1.62051
 L -19.2709,1.75302 L -19.2424,1.8952 L -19.2426,2.04022 L -19.2717,2.18111 L -19.3295,2.31192 L -19.4159,2.42677
 L -19.5055,2.49608 L -19.601,2.55392 L -19.7016,2.59961 L -19.8068,2.63246 L -19.8942,2.69756 L -19.9201,2.81306
 L -19.9143,2.85417 L -19.9001,2.95189 L -19.8853,3.04955 L -19.879,3.09055 L -19.8206,3.19342 L -19.7181,3.23048
 L -19.6079,3.23134 L -19.4984,3.24576 L -19.3902,3.27336 L -19.2843,3.31384 L -19.1683,3.39868 L -19.075,3.50708
 L -19.0063,3.63347 L -18.964,3.77217 L -18.95,3.9165 L -18.9651,4.05957 L -19.0099,4.19542 L -19.0845,4.31818
 L -19.1669,4.39594 L -19.2563,4.46286 L -19.352,4.51819 L -19.4534,4.5612 L -19.534,4.63454 L -19.5485,4.75204
 L -19.5387,4.79237 L -19.5149,4.88823 L -19.4907,4.98396 L -19.4803,5.02415 L -19.4122,5.1208 L -19.3065,5.14764
 L -19.1968,5.1377 L -19.0863,5.1413 L -18.976,5.15817 L -18.8666,5.18808 L -18.7429,5.26114 L -18.6394,5.35988
 L -18.5586,5.47891 L -18.5029,5.61279 L -18.4749,5.75507 L -18.4759,5.89893 L -18.5071,6.0385 L -18.5694,6.16798
 L -18.6437,6.25345 L -18.7261,6.32881 L -18.8159,6.39326 L -18.9127,6.446 L -18.9856,6.52689 L -18.9886,6.64525
 L -18.9749,6.68442 L -18.9418,6.77748 L -18.9083,6.87039 L -18.8941,6.90936 L -18.8168,6.99887 L -18.709,7.01523
 L -18.6008,6.99457 L -18.4905,6.98734 L -18.379,6.99332 L -18.2672,7.01234 L -18.137,7.07294 L -18.0243,7.16106
 L -17.9323,7.27159 L -17.8637,7.39938 L -17.8218,7.53821 L -17.8087,7.68147 L -17.8261,7.82344 L -17.8754,7.9584
 L -17.941,8.05075 L -18.0156,8.13382 L -18.0987,8.20676 L -18.1898,8.26872 L -18.2545,8.35637 L -18.2458,8.47444
 L -18.2283,8.5121 L -18.1863,8.60147 L -18.1439,8.69064 L -18.1258,8.72803 L -18.0401,8.80954 L -17.9313,8.81525
 L -17.8256,8.78409 L -17.7166,8.76607 L -17.6051,8.76109 L -17.4919,8.76909 L -17.3564,8.81662 L -17.2356,8.89326
 L -17.1332,8.99425 L -17.0524,9.1147 L -16.9971,9.24876 L -16.9701,9.39005 L -16.9734,9.53304 L -17.0092,9.67218
 L -17.0655,9.77051 L -17.1316,9.86049 L -17.2071,9.94122 L -17.2917,10.0118 L -17.3475,10.1054 L -17.3273,10.222
 L -17.3062,10.2578 L -17.2556,10.3426 L -17.2047,10.4272 L -17.1831,10.4626 L -17.0898,10.5354 L -16.9809,10.5304
 L -16.8788,10.489 L -16.772,10.4604 L -16.6615,10.4445 L -16.5482,10.4414 L -16.4086,10.4754 L -16.2809,10.5398
 L -16.1691,10.6303 L -16.0769,10.7422 L -16.0087,10.8702 L -15.968,11.0082 L -15.9573,11.1508 L -15.9793,11.2928
 L -16.0257,11.3962 L -16.0826,11.4922 L -16.1498,11.5799 L -16.2271,11.6585 L -16.2735,11.7571 L -16.2419,11.8712
 L -16.2174,11.9047 L -16.1588,11.9842 L -16.0998,12.0633 L -16.0748,12.0965 L -15.9748,12.1597 L -15.867,12.1441
 L -15.7694,12.0929 L -15.666,12.054 L -15.5576,12.0273 L -15.4451,12.0131 L -15.3028,12.0333 L -15.1694,12.0849
 L -15.0493,12.1639 L -14.9466,12.2663 L -14.8662,12.387 L -14.8121,12.5203 L -14.7875,12.6612 L -14.7955,12.8047
 L -14.8315,12.9121 L -14.8787,13.0132 L -14.937,13.1071 L -15.0062,13.1929 L -15.0427,13.2955 L -15.0001,13.406
 L -14.9725,13.437 L -14.9063,13.5103 L -14.8398,13.5833 L -14.8117,13.6139 L -14.7061,13.667 L -14.6002,13.6408
 L -14.5081,13.5804 L -14.409,13.5315 L -14.3038,13.4943 L -14.1932,13.4691 L -14.0497,13.4753 L -13.9119,13.5136
 L -13.7845,13.5804 L -13.6723,13.6723 L -13.5804,13.7845 L -13.5136,13.9119 L -13.4753,14.0497 L -13.4691,14.1932
 L -13.4944,14.3036 L -13.5316,14.4089 L -13.5804,14.5081 L -13.6408,14.6002 L -13.6671,14.706 L -13.6139,14.8117
 L -13.5833,14.8398 L -13.5103,14.9063 L -13.437,14.9725 L -13.406,15.0001 L -13.2957,15.0426 L -13.1929,15.0062
 L -13.1072,14.937 L -13.0134,14.8786 L -12.9122,14.8314 L -12.8047,14.7955 L -12.6612,14.7875 L -12.5203,14.8121
 L -12.387,14.8662 L -12.2663,14.9466 L -12.1639,15.0493 L -12.0849,15.1694 L -12.0333,15.3028 L -12.0131,15.4451
 L -12.0275,15.5575 L -12.0541,15.6659 L -12.0929,15.7694 L -12.1441,15.867 L -12.1598,15.9748 L -12.0965,16.0748
 L -12.0633,16.0998 L -11.9842,16.1588 L -11.9047,16.2174 L -11.8712,16.2419 L -11.7572,16.2734 L -11.6585,16.2271
 L -11.58,16.1498 L -11.4923,16.0825 L -11.3963,16.0256 L -11.2928,15.9793 L -11.1508,15.9573 L -11.0082,15.968
 L -10.8702,16.0087 L -10.7422,16.0769 L -10.6303,16.1691 L -10.5398,16.2809 L -10.4754,16.4086 L -10.4414,16.5482
 L -10.4447,16.6615 L -10.4605,16.772 L -10.489,16.8787 L -10.5304,16.9809 L -10.5355,17.0897 L -10.4626,17.1831
 L -10.4272,17.2047 L -10.3426,17.2556 L -10.2578,17.3062 L -10.222,17.3273 L -10.1055,17.3474 L -10.0118,17.2917
 L -9.94127,17.2071 L -9.86063,17.1315 L -9.77066,17.0654 L -9.67218,17.0092 L -9.53304,16.9734 L -9.39005,16.9701
 L -9.24876,16.9971 L -9.1147,17.0524 L -8.99425,17.1332 L -8.89326,17.2356 L -8.81662,17.3564 L -8.76909,17.4919
 L -8.76125,17.605 L -8.7662,17.7165 L -8.78413,17.8256 L -8.81525,17.9313 L -8.80966,18.0401 L -8.72803,18.1258
 L -8.69064,18.1439 L -8.60147,18.1863 L -8.5121,18.2283 L -8.47444,18.2458 L -8.35649,18.2544 L -8.26872,18.1898
 L -8.2068,18.0986 L -8.13396,18.0155 L -8.0509,17.9409 L -7.9584,17.8754 L -7.82344,17.8261 L -7.68147,17.8087
 L -7.53821,17.8218 L -7.39938,17.8637 L -7.27159,17.9323 L -7.16106,18.0243 L -7.07294,18.137 L -7.01234,18.2672
 L -6.99347,18.379 L -6.98747,18.4904 L -6.99463,18.6007 L -7.01523,18.709 L -6.99901,18.8167 L -6.90936,18.8941
 L -6.87039,18.9083 L -6.77748,18.9418 L -6.68442,18.9749 L -6.64525,18.9886 L -6.52701,18.9856 L -6.446,18.9127
 L -6.39331,18.8159 L -6.32896,18.7261 L -6.25362,18.6437 L -6.16798,18.5694 L -6.0385,18.5071 L -5.89893,18.4759
 L -5.75507,18.4749 L -5.61279,18.5029 L -5.47891,18.5586 L -5.35988,18.6394 L -5.26114,18.7429 L -5.18808,18.8666
 L -5.15834,18.9759 L -5.14145,19.0863 L -5.13774,19.1968 L -5.14764,19.3065 L -5.12094,19.4121 L -5.02415,19.4803
 L -4.98396,19.4907 L -4.88823,19.5149 L -4.79237,19.5387 L -4.75204,19.5485 L -4.63467,19.5339 L -4.5612,19.4534
 L -4.51825,19.3519 L -4.46301,19.2562 L -4.3961,19.1669 L -4.31818,19.0845 L -4.19542,19.0099 L -4.05957,18.9651
 L -3.9165,18.95 L -3.77217,18.964 L -3.63347,19.0063 L -3.50708,19.075 L -3.39868,19.1683 L -3.31384,19.2843
 L -3.27353,19.3902 L -3.24591,19.4983 L -3.2314,19.6079 L -3.23048,19.7181 L -3.19356,19.8206 L -3.09055,19.879
 L -3.04955,19.8853 L -2.95189,19.9001 L -2.85417,19.9143 L -2.81306,19.9201 L -2.69769,19.8941 L -2.63246,19.8068
 L -2.59966,19.7016 L -2.55408,19.601 L -2.49625,19.5055 L -2.42677,19.4159 L -2.31192,19.3295 L -2.18111,19.2717
 L -2.04022,19.2426 L -1.8952,19.2424 L -1.75302,19.2709 L -1.62051,19.3269 L -1.50349,19.4092 L -1.4077,19.5162
 L -1.35721,19.6177 L -1.31911,19.7226 L -1.29393,19.8302 L -1.28223,19.9398 L -1.23543,20.0382 L -1.12718,20.0862
 L -1.08575,20.0885 L -0.987122,20.0936 L -0.888489,20.0982 L -0.847015,20.0999 L -0.734741,20.0628 L -0.678375,19.9695
 L -0.656052,19.8616 L -0.620544,19.7569 L -0.572357,19.6562 L -0.511993,19.5602 L -0.406158,19.4631 L -0.281647,19.3927
 L -0.144287,19.35 L 0,19.3355 L 0.144287,19.35 L 0.281647,19.3927 L 0.406158,19.4631 L 0.511993,19.5602
 L 0.572189,19.6562 L 0.620392,19.7569 L 0.655991,19.8616 L 0.678375,19.9695 L 0.734589,20.0628 L 0.847015,20.0999
 z
M -0.0999908,-0 L 0,-0.0999908 L 0.0999908,-0 L 0,0.0999908 z
" stroke="black" fill="lightgray" stroke-width="0.5"/>
</svg>
