  0
SECTION
  2
BLOCKS
  0
ENDSEC
  0
SECTION
  2
ENTITIES
  0
LINE
  8
0
 10
20
 20
21
 11
-20
 21
21
  0
LINE
  8
0
 10
-20
 20
21
 11
-20
 21
0
  0
LINE
  8
0
 10
-20
 20
0
 11
20
 21
0
  0
LINE
  8
0
 10
20
 20
0
 11
20
 21
21
  0
LINE
  8
0
 10
15.7837
 20
19.6657
 11
16.2163
 21
19.6657
  0
LINE
  8
0
 10
16.2163
 20
19.6657
 11
16.5663
 21
19.4114
  0
LINE
  8
0
 10
16.5663
 20
19.4114
 11
16.7
 21
19
  0
LINE
  8
0
 10
16.7
 20
19
 11
16.5663
 21
18.5885
  0
LINE
  8
0
 10
16.5663
 20
18.5885
 11
16.2163
 21
18.3343
  0
LINE
  8
0
 10
16.2163
 20
18.3343
 11
15.7837
 21
18.3343
  0
LINE
  8
0
 10
15.7837
 20
18.3343
 11
15.4337
 21
18.5885
  0
LINE
  8
0
 10
15.4337
 20
18.5885
 11
15.3
 21
19
  0
LINE
  8
0
 10
15.3
 20
19
 11
15.4337
 21
19.4114
  0
LINE
  8
0
 10
15.4337
 20
19.4114
 11
15.7837
 21
19.6657
  0
LINE
  8
0
 10
5.78368
 20
18.3343
 11
5.43369
 21
18.5885
  0
LINE
  8
0
 10
5.43369
 20
18.5885
 11
5.29999
 21
19
  0
LINE
  8
0
 10
5.29999
 20
19
 11
5.43369
 21
19.4114
  0
LINE
  8
0
 10
5.43369
 20
19.4114
 11
5.78368
 21
19.6657
  0
LINE
  8
0
 10
5.78368
 20
19.6657
 11
6.21631
 21
19.6657
  0
LINE
  8
0
 10
6.21631
 20
19.6657
 11
6.5663
 21
19.4114
  0
LINE
  8
0
 10
6.5663
 20
19.4114
 11
6.7
 21
19
  0
LINE
  8
0
 10
6.7
 20
19
 11
6.5663
 21
18.5885
  0
LINE
  8
0
 10
6.5663
 20
18.5885
 11
6.21631
 21
18.3343
  0
LINE
  8
0
 10
6.21631
 20
18.3343
 11
5.78368
 21
18.3343
  0
LINE
  8
0
 10
-14.7163
 20
17.8343
 11
-15.0663
 21
18.0885
  0
LINE
  8
0
 10
-15.0663
 20
18.0885
 11
-15.2
 21
18.5
  0
LINE
  8
0
 10
-15.2
 20
18.5
 11
-15.0663
 21
18.9114
  0
LINE
  8
0
 10
-15.0663
 20
18.9114
 11
-14.7163
 21
19.1657
  0
LINE
  8
0
 10
-14.7163
 20
19.1657
 11
-14.2837
 21
19.1657
  0
LINE
  8
0
 10
-14.2837
 20
19.1657
 11
-13.9337
 21
18.9114
  0
LINE
  8
0
 10
-13.9337
 20
18.9114
 11
-13.8
 21
18.5
  0
LINE
  8
0
 10
-13.8
 20
18.5
 11
-13.9337
 21
18.0885
  0
LINE
  8
0
 10
-13.9337
 20
18.0885
 11
-14.2837
 21
17.8343
  0
LINE
  8
0
 10
-14.2837
 20
17.8343
 11
-14.7163
 21
17.8343
  0
LINE
  8
0
 10
14.2837
 20
12.8343
 11
13.9337
 21
13.0885
  0
LINE
  8
0
 10
13.9337
 20
13.0885
 11
13.8
 21
13.5
  0
LINE
  8
0
 10
13.8
 20
13.5
 11
13.9337
 21
13.9114
  0
LINE
  8
0
 10
13.9337
 20
13.9114
 11
14.2837
 21
14.1657
  0
LINE
  8
0
 10
14.2837
 20
14.1657
 11
14.7163
 21
14.1657
  0
LINE
  8
0
 10
14.7163
 20
14.1657
 11
15.0663
 21
13.9114
  0
LINE
  8
0
 10
15.0663
 20
13.9114
 11
15.2
 21
13.5
  0
LINE
  8
0
 10
15.2
 20
13.5
 11
15.0663
 21
13.0885
  0
LINE
  8
0
 10
15.0663
 20
13.0885
 11
14.7163
 21
12.8343
  0
LINE
  8
0
 10
14.7163
 20
12.8343
 11
14.2837
 21
12.8343
  0
LINE
  8
0
 10
14.2837
 20
7.83426
 11
13.9337
 21
8.08855
  0
LINE
  8
0
 10
13.9337
 20
8.08855
 11
13.8
 21
8.5
  0
LINE
  8
0
 10
13.8
 20
8.5
 11
13.9337
 21
8.91144
  0
LINE
  8
0
 10
13.9337
 20
8.91144
 11
14.2837
 21
9.16573
  0
LINE
  8
0
 10
14.2837
 20
9.16573
 11
14.7163
 21
9.16573
  0
LINE
  8
0
 10
14.7163
 20
9.16573
 11
15.0663
 21
8.91144
  0
LINE
  8
0
 10
15.0663
 20
8.91144
 11
15.2
 21
8.5
  0
LINE
  8
0
 10
15.2
 20
8.5
 11
15.0663
 21
8.08855
  0
LINE
  8
0
 10
15.0663
 20
8.08855
 11
14.7163
 21
7.83426
  0
LINE
  8
0
 10
14.7163
 20
7.83426
 11
14.2837
 21
7.83426
  0
LINE
  8
0
 10
-14.7163
 20
2.83426
 11
-15.0663
 21
3.08855
  0
LINE
  8
0
 10
-15.0663
 20
3.08855
 11
-15.2
 21
3.5
  0
LINE
  8
0
 10
-15.2
 20
3.5
 11
-15.0663
 21
3.91144
  0
LINE
  8
0
 10
-15.0663
 20
3.91144
 11
-14.7163
 21
4.16573
  0
LINE
  8
0
 10
-14.7163
 20
4.16573
 11
-14.2837
 21
4.16573
  0
LINE
  8
0
 10
-14.2837
 20
4.16573
 11
-13.9337
 21
3.91144
  0
LINE
  8
0
 10
-13.9337
 20
3.91144
 11
-13.8
 21
3.5
  0
LINE
  8
0
 10
-13.8
 20
3.5
 11
-13.9337
 21
3.08855
  0
LINE
  8
0
 10
-13.9337
 20
3.08855
 11
-14.2837
 21
2.83426
  0
LINE
  8
0
 10
-14.2837
 20
2.83426
 11
-14.7163
 21
2.83426
  0
LINE
  8
0
 10
11.2163
 20
18.3343
 11
10.7837
 21
18.3343
  0
LINE
  8
0
 10
10.7837
 20
18.3343
 11
10.4337
 21
18.5885
  0
LINE
  8
0
 10
10.4337
 20
18.5885
 11
10.3
 21
19
  0
LINE
  8
0
 10
10.3
 20
19
 11
10.4337
 21
19.4114
  0
LINE
  8
0
 10
10.4337
 20
19.4114
 11
10.7837
 21
19.6657
  0
LINE
  8
0
 10
10.7837
 20
19.6657
 11
11.2163
 21
19.6657
  0
LINE
  8
0
 10
11.2163
 20
19.6657
 11
11.5663
 21
19.4114
  0
LINE
  8
0
 10
11.5663
 20
19.4114
 11
11.7
 21
19
  0
LINE
  8
0
 10
11.7
 20
19
 11
11.5663
 21
18.5885
  0
LINE
  8
0
 10
11.5663
 20
18.5885
 11
11.2163
 21
18.3343
  0
ENDSEC
  0
SECTION
  2
OBJECTS
  0
DICTIONARY
  0
ENDSEC
  0
EOF
