  0
SECTION
  2
BLOCKS
  0
ENDSEC
  0
SECTION
  2
ENTITIES
  0
LINE
  8
0
 10
20.6079
 20
-21.3781
 11
20.8067
 21
-21.3135
  0
LINE
  8
0
 10
20.8067
 20
-21.3135
 11
20.9878
 21
-21.209
  0
LINE
  8
0
 10
20.9878
 20
-21.209
 11
21.1431
 21
-21.0691
  0
LINE
  8
0
 10
21.1431
 20
-21.0691
 11
21.266
 21
-20.9
  0
LINE
  8
0
 10
21.266
 20
-20.9
 11
21.351
 21
-20.709
  0
LINE
  8
0
 10
21.351
 20
-20.709
 11
21.4
 21
-20.4
  0
LINE
  8
0
 10
21.4
 20
-20.4
 11
21.4
 21
-3.79999
  0
LINE
  8
0
 10
21.4
 20
-3.79999
 11
19
 21
-3.79999
  0
LINE
  8
0
 10
19
 20
-3.79999
 11
19
 21
-3.77917
  0
LINE
  8
0
 10
19
 20
-3.77917
 11
18.6028
 21
-3.77917
  0
LINE
  8
0
 10
18.6028
 20
-3.77917
 11
17.8257
 21
-3.61401
  0
LINE
  8
0
 10
17.8257
 20
-3.61401
 11
17.1
 21
-3.29089
  0
LINE
  8
0
 10
17.1
 20
-3.29089
 11
16.4573
 21
-2.82394
  0
LINE
  8
0
 10
16.4573
 20
-2.82394
 11
15.9257
 21
-2.23358
  0
LINE
  8
0
 10
15.9257
 20
-2.23358
 11
15.5285
 21
-1.54559
  0
LINE
  8
0
 10
15.5285
 20
-1.54559
 11
15.2831
 21
-0.790054
  0
LINE
  8
0
 10
15.2831
 20
-0.790054
 11
15.2
 21
0
  0
LINE
  8
0
 10
15.2
 20
0
 11
15.2831
 21
0.790054
  0
LINE
  8
0
 10
15.2831
 20
0.790054
 11
15.5285
 21
1.54559
  0
LINE
  8
0
 10
15.5285
 20
1.54559
 11
15.9257
 21
2.23358
  0
LINE
  8
0
 10
15.9257
 20
2.23358
 11
16.4573
 21
2.82394
  0
LINE
  8
0
 10
16.4573
 20
2.82394
 11
17.1
 21
3.29089
  0
LINE
  8
0
 10
17.1
 20
3.29089
 11
17.8257
 21
3.61401
  0
LINE
  8
0
 10
17.8257
 20
3.61401
 11
18.6028
 21
3.77917
  0
LINE
  8
0
 10
18.6028
 20
3.77917
 11
19
 21
3.77917
  0
LINE
  8
0
 10
19
 20
3.77917
 11
19
 21
3.79999
  0
LINE
  8
0
 10
19
 20
3.79999
 11
21.4
 21
3.79999
  0
LINE
  8
0
 10
21.4
 20
3.79999
 11
21.4
 21
20.4
  0
LINE
  8
0
 10
21.4
 20
20.4
 11
21.3781
 21
20.6079
  0
LINE
  8
0
 10
21.3781
 20
20.6079
 11
21.3135
 21
20.8067
  0
LINE
  8
0
 10
21.3135
 20
20.8067
 11
21.209
 21
20.9878
  0
LINE
  8
0
 10
21.209
 20
20.9878
 11
21.0691
 21
21.1431
  0
LINE
  8
0
 10
21.0691
 20
21.1431
 11
20.9
 21
21.266
  0
LINE
  8
0
 10
20.9
 20
21.266
 11
20.709
 21
21.351
  0
LINE
  8
0
 10
20.709
 20
21.351
 11
20.4
 21
21.4
  0
LINE
  8
0
 10
20.4
 20
21.4
 11
-20.4
 21
21.4
  0
LINE
  8
0
 10
-20.4
 20
21.4
 11
-20.6079
 21
21.3781
  0
LINE
  8
0
 10
-20.6079
 20
21.3781
 11
-20.8067
 21
21.3135
  0
LINE
  8
0
 10
-20.8067
 20
21.3135
 11
-20.9878
 21
21.209
  0
LINE
  8
0
 10
-20.9878
 20
21.209
 11
-21.1431
 21
21.0691
  0
LINE
  8
0
 10
-21.1431
 20
21.0691
 11
-21.266
 21
20.9
  0
LINE
  8
0
 10
-21.266
 20
20.9
 11
-21.351
 21
20.709
  0
LINE
  8
0
 10
-21.351
 20
20.709
 11
-21.4
 21
20.4
  0
LINE
  8
0
 10
-21.4
 20
20.4
 11
-21.4
 21
3.79999
  0
LINE
  8
0
 10
-21.4
 20
3.79999
 11
-19
 21
3.79999
  0
LINE
  8
0
 10
-19
 20
3.79999
 11
-19
 21
3.77917
  0
LINE
  8
0
 10
-19
 20
3.77917
 11
-18.6028
 21
3.77917
  0
LINE
  8
0
 10
-18.6028
 20
3.77917
 11
-17.8257
 21
3.61401
  0
LINE
  8
0
 10
-17.8257
 20
3.61401
 11
-17.1
 21
3.29089
  0
LINE
  8
0
 10
-17.1
 20
3.29089
 11
-16.4573
 21
2.82394
  0
LINE
  8
0
 10
-16.4573
 20
2.82394
 11
-15.9257
 21
2.23358
  0
LINE
  8
0
 10
-15.9257
 20
2.23358
 11
-15.5285
 21
1.54559
  0
LINE
  8
0
 10
-15.5285
 20
1.54559
 11
-15.2831
 21
0.790054
  0
LINE
  8
0
 10
-15.2831
 20
0.790054
 11
-15.2
 21
0
  0
LINE
  8
0
 10
-15.2
 20
0
 11
-15.2831
 21
-0.790054
  0
LINE
  8
0
 10
-15.2831
 20
-0.790054
 11
-15.5285
 21
-1.54559
  0
LINE
  8
0
 10
-15.5285
 20
-1.54559
 11
-15.9257
 21
-2.23358
  0
LINE
  8
0
 10
-15.9257
 20
-2.23358
 11
-16.4573
 21
-2.82394
  0
LINE
  8
0
 10
-16.4573
 20
-2.82394
 11
-17.1
 21
-3.29089
  0
LINE
  8
0
 10
-17.1
 20
-3.29089
 11
-17.8257
 21
-3.61401
  0
LINE
  8
0
 10
-17.8257
 20
-3.61401
 11
-18.6028
 21
-3.77917
  0
LINE
  8
0
 10
-18.6028
 20
-3.77917
 11
-19
 21
-3.77917
  0
LINE
  8
0
 10
-19
 20
-3.77917
 11
-19
 21
-3.79999
  0
LINE
  8
0
 10
-19
 20
-3.79999
 11
-21.4
 21
-3.79999
  0
LINE
  8
0
 10
-21.4
 20
-3.79999
 11
-21.4
 21
-20.4
  0
LINE
  8
0
 10
-21.4
 20
-20.4
 11
-21.3781
 21
-20.6079
  0
LINE
  8
0
 10
-21.3781
 20
-20.6079
 11
-21.3135
 21
-20.8067
  0
LINE
  8
0
 10
-21.3135
 20
-20.8067
 11
-21.209
 21
-20.9878
  0
LINE
  8
0
 10
-21.209
 20
-20.9878
 11
-21.0691
 21
-21.1431
  0
LINE
  8
0
 10
-21.0691
 20
-21.1431
 11
-20.9
 21
-21.266
  0
LINE
  8
0
 10
-20.9
 20
-21.266
 11
-20.709
 21
-21.351
  0
LINE
  8
0
 10
-20.709
 20
-21.351
 11
-20.4
 21
-21.4
  0
LINE
  8
0
 10
-20.4
 20
-21.4
 11
20.4
 21
-21.4
  0
LINE
  8
0
 10
20.4
 20
-21.4
 11
20.6079
 21
-21.3781
  0
ENDSEC
  0
SECTION
  2
OBJECTS
  0
DICTIONARY
  0
ENDSEC
  0
EOF
