solid OpenSCAD_Model
  facet normal 0 0 -1
    outer loop
      vertex 20.8067 -21.3135 0
      vertex 20.6079 -21.3781 0
      vertex 20.4 -21.4 0
    endloop
  endfacet
  facet normal 0 0 -1
    outer loop
      vertex 21.351 -20.709 0
      vertex 21.266 -20.9 0
      vertex 21.1431 -21.0691 0
    endloop
  endfacet
  facet normal 0 0 -1
    outer loop
      vertex 20.8067 -21.3135 0
      vertex 21.1431 -21.0691 0
      vertex 20.9878 -21.209 0
    endloop
  endfacet
  facet normal 0 0 -1
    outer loop
      vertex 20.8067 -21.3135 0
      vertex 21.351 -20.709 0
      vertex 21.1431 -21.0691 0
    endloop
  endfacet
  facet normal -0 0 -1
    outer loop
      vertex 20.8067 -21.3135 0
      vertex 20.4 -21.4 0
      vertex 21.351 -20.709 0
    endloop
  endfacet
  facet normal -0 0 -1
    outer loop
      vertex 21.351 -20.709 0
      vertex 20.4 -21.4 0
      vertex 21.4 -20.4 0
    endloop
  endfacet
  facet normal 0 0 -1
    outer loop
      vertex 21.4 -20.4 0
      vertex 19 -3.79999 0
      vertex 21.4 -3.79999 0
    endloop
  endfacet
  facet normal 0 0 -1
    outer loop
      vertex 21.4 -20.4 0
      vertex 18.6028 -3.77917 0
      vertex 19 -3.79999 0
    endloop
  endfacet
  facet normal 0 0 -1
    outer loop
      vertex 21.4 -20.4 0
      vertex 17.8257 -3.61401 0
      vertex 18.6028 -3.77917 0
    endloop
  endfacet
  facet normal -0 -0 -1
    outer loop
      vertex 19 -3.77917 0
      vertex 19 -3.79999 0
      vertex 18.6028 -3.77917 0
    endloop
  endfacet
  facet normal -0 0 -1
    outer loop
      vertex 21.4 -20.4 0
      vertex 20.4 -21.4 0
      vertex 17.8257 -3.61401 0
    endloop
  endfacet
  facet normal -0 -0 -1
    outer loop
      vertex 17.8257 -3.61401 0
      vertex 20.4 -21.4 0
      vertex 17.1 -3.29089 0
    endloop
  endfacet
  facet normal -0 -0 -1
    outer loop
      vertex 17.1 -3.29089 0
      vertex 20.4 -21.4 0
      vertex 16.4573 -2.82394 0
    endloop
  endfacet
  facet normal -0 -0 -1
    outer loop
      vertex 16.4573 -2.82394 0
      vertex 20.4 -21.4 0
      vertex 15.9257 -2.23358 0
    endloop
  endfacet
  facet normal -0 0 -1
    outer loop
      vertex 15.9257 2.23358 0
      vertex 15.5285 1.54559 0
      vertex -15.9257 2.23358 0
    endloop
  endfacet
  facet normal 0 0 -1
    outer loop
      vertex -20.8067 21.3135 0
      vertex -21.1431 21.0691 0
      vertex -20.9878 21.209 0
    endloop
  endfacet
  facet normal 0 0 -1
    outer loop
      vertex -20.8067 21.3135 0
      vertex -20.6079 21.3781 0
      vertex -20.4 21.4 0
    endloop
  endfacet
  facet normal 0 -0 -1
    outer loop
      vertex -21.1431 21.0691 0
      vertex -20.8067 21.3135 0
      vertex -21.351 20.709 0
    endloop
  endfacet
  facet normal 0 0 -1
    outer loop
      vertex -21.4 3.79999 0
      vertex -21.4 20.4 0
      vertex -19 3.79999 0
    endloop
  endfacet
  facet normal -0 -0 -1
    outer loop
      vertex 20.9 21.266 0
      vertex 21.0691 21.1431 0
      vertex 20.709 21.351 0
    endloop
  endfacet
  facet normal 0 0 -1
    outer loop
      vertex 21.3135 20.8067 0
      vertex 21.3781 20.6079 0
      vertex 21.4 20.4 0
    endloop
  endfacet
  facet normal -0 -0 -1
    outer loop
      vertex 21.209 20.9878 0
      vertex 21.3135 20.8067 0
      vertex 21.0691 21.1431 0
    endloop
  endfacet
  facet normal 0 0 -1
    outer loop
      vertex 20.709 21.351 0
      vertex 21.3135 20.8067 0
      vertex 21.4 20.4 0
    endloop
  endfacet
  facet normal 0 0 -1
    outer loop
      vertex 17.8257 3.61401 0
      vertex 20.4 21.4 0
      vertex 21.4 20.4 0
    endloop
  endfacet
  facet normal -0 0 -1
    outer loop
      vertex 18.6028 3.77917 0
      vertex 17.8257 3.61401 0
      vertex 21.4 20.4 0
    endloop
  endfacet
  facet normal 0 0 -1
    outer loop
      vertex 19 3.77917 0
      vertex 18.6028 3.77917 0
      vertex 19 3.79999 0
    endloop
  endfacet
  facet normal -0 0 -1
    outer loop
      vertex 19 3.79999 0
      vertex 18.6028 3.77917 0
      vertex 21.4 20.4 0
    endloop
  endfacet
  facet normal 0 0 -1
    outer loop
      vertex 21.4 3.79999 0
      vertex 19 3.79999 0
      vertex 21.4 20.4 0
    endloop
  endfacet
  facet normal 0 0 -1
    outer loop
      vertex 20.709 21.351 0
      vertex 21.0691 21.1431 0
      vertex 21.3135 20.8067 0
    endloop
  endfacet
  facet normal 0 0 -1
    outer loop
      vertex 20.4 21.4 0
      vertex 20.709 21.351 0
      vertex 21.4 20.4 0
    endloop
  endfacet
  facet normal 0 0 -1
    outer loop
      vertex 17.1 3.29089 0
      vertex 20.4 21.4 0
      vertex 17.8257 3.61401 0
    endloop
  endfacet
  facet normal -0 0 -1
    outer loop
      vertex 17.1 3.29089 0
      vertex 16.4573 2.82394 0
      vertex 20.4 21.4 0
    endloop
  endfacet
  facet normal 0 0 -1
    outer loop
      vertex 20.4 21.4 0
      vertex 16.4573 2.82394 0
      vertex 15.9257 2.23358 0
    endloop
  endfacet
  facet normal 0 0 -1
    outer loop
      vertex -20.4 21.4 0
      vertex 20.4 21.4 0
      vertex 15.9257 2.23358 0
    endloop
  endfacet
  facet normal 0 0 -1
    outer loop
      vertex -21.4 20.4 0
      vertex -17.8257 3.61401 0
      vertex -18.6028 3.77917 0
    endloop
  endfacet
  facet normal 0 0 -1
    outer loop
      vertex -21.351 20.709 0
      vertex -21.266 20.9 0
      vertex -21.1431 21.0691 0
    endloop
  endfacet
  facet normal 0 0 -1
    outer loop
      vertex -20.4 21.4 0
      vertex -21.351 20.709 0
      vertex -20.8067 21.3135 0
    endloop
  endfacet
  facet normal 0 0 -1
    outer loop
      vertex -20.4 21.4 0
      vertex -21.4 20.4 0
      vertex -21.351 20.709 0
    endloop
  endfacet
  facet normal 0 0 -1
    outer loop
      vertex -20.4 21.4 0
      vertex -16.4573 2.82394 0
      vertex -17.1 3.29089 0
    endloop
  endfacet
  facet normal 0 0 -1
    outer loop
      vertex -20.4 21.4 0
      vertex -15.9257 2.23358 0
      vertex -16.4573 2.82394 0
    endloop
  endfacet
  facet normal 0 0 -1
    outer loop
      vertex -20.4 21.4 0
      vertex 15.9257 2.23358 0
      vertex -15.9257 2.23358 0
    endloop
  endfacet
  facet normal 0 0 -1
    outer loop
      vertex -15.9257 2.23358 0
      vertex 15.5285 1.54559 0
      vertex -15.5285 1.54559 0
    endloop
  endfacet
  facet normal 0 0 -1
    outer loop
      vertex -15.5285 -1.54559 0
      vertex 15.2831 -0.790054 0
      vertex 15.5285 -1.54559 0
    endloop
  endfacet
  facet normal 0 0 -1
    outer loop
      vertex -19 3.77917 0
      vertex -19 3.79999 0
      vertex -18.6028 3.77917 0
    endloop
  endfacet
  facet normal 0 0 -1
    outer loop
      vertex -19 3.79999 0
      vertex -21.4 20.4 0
      vertex -18.6028 3.77917 0
    endloop
  endfacet
  facet normal 0 0 -1
    outer loop
      vertex -17.8257 3.61401 0
      vertex -20.4 21.4 0
      vertex -17.1 3.29089 0
    endloop
  endfacet
  facet normal 0 0 -1
    outer loop
      vertex -21.4 20.4 0
      vertex -20.4 21.4 0
      vertex -17.8257 3.61401 0
    endloop
  endfacet
  facet normal -0 0 -1
    outer loop
      vertex 15.5285 1.54559 0
      vertex 15.2831 0.790054 0
      vertex -15.5285 1.54559 0
    endloop
  endfacet
  facet normal 0 0 -1
    outer loop
      vertex -15.2831 0.790054 0
      vertex 15.2831 0.790054 0
      vertex 15.2 0 0
    endloop
  endfacet
  facet normal 0 0 -1
    outer loop
      vertex -15.5285 1.54559 0
      vertex 15.2831 0.790054 0
      vertex -15.2831 0.790054 0
    endloop
  endfacet
  facet normal 0 0 -1
    outer loop
      vertex -15.2 0 0
      vertex -15.2831 0.790054 0
      vertex 15.2 0 0
    endloop
  endfacet
  facet normal 0 0 -1
    outer loop
      vertex -15.2831 -0.790054 0
      vertex -15.2 0 0
      vertex 15.2 0 0
    endloop
  endfacet
  facet normal 0 0 -1
    outer loop
      vertex 15.2831 -0.790054 0
      vertex -15.2831 -0.790054 0
      vertex 15.2 0 0
    endloop
  endfacet
  facet normal -0 0 -1
    outer loop
      vertex 15.2831 -0.790054 0
      vertex -15.5285 -1.54559 0
      vertex -15.2831 -0.790054 0
    endloop
  endfacet
  facet normal 0 0 -1
    outer loop
      vertex -15.9257 -2.23358 0
      vertex -15.5285 -1.54559 0
      vertex 15.5285 -1.54559 0
    endloop
  endfacet
  facet normal 0 0 -1
    outer loop
      vertex 15.9257 -2.23358 0
      vertex -15.9257 -2.23358 0
      vertex 15.5285 -1.54559 0
    endloop
  endfacet
  facet normal -0 0 -1
    outer loop
      vertex 15.9257 -2.23358 0
      vertex -20.4 -21.4 0
      vertex -15.9257 -2.23358 0
    endloop
  endfacet
  facet normal 0 0 -1
    outer loop
      vertex -21.3135 -20.8067 0
      vertex -20.709 -21.351 0
      vertex -21.0691 -21.1431 0
    endloop
  endfacet
  facet normal 0 0 -1
    outer loop
      vertex -21.3135 -20.8067 0
      vertex -21.4 -20.4 0
      vertex -20.709 -21.351 0
    endloop
  endfacet
  facet normal 0 0 -1
    outer loop
      vertex -20.4 -21.4 0
      vertex -21.4 -20.4 0
      vertex -17.8257 -3.61401 0
    endloop
  endfacet
  facet normal 0 0 -1
    outer loop
      vertex -17.8257 -3.61401 0
      vertex -21.4 -20.4 0
      vertex -18.6028 -3.77917 0
    endloop
  endfacet
  facet normal -0 0 -1
    outer loop
      vertex -18.6028 -3.77917 0
      vertex -19 -3.79999 0
      vertex -19 -3.77917 0
    endloop
  endfacet
  facet normal 0 0 -1
    outer loop
      vertex -18.6028 -3.77917 0
      vertex -21.4 -20.4 0
      vertex -19 -3.79999 0
    endloop
  endfacet
  facet normal -0 0 -1
    outer loop
      vertex -19 -3.79999 0
      vertex -21.4 -20.4 0
      vertex -21.4 -3.79999 0
    endloop
  endfacet
  facet normal 0 0 -1
    outer loop
      vertex -21.209 -20.9878 0
      vertex -21.3135 -20.8067 0
      vertex -21.0691 -21.1431 0
    endloop
  endfacet
  facet normal 0 0 -1
    outer loop
      vertex -21.4 -20.4 0
      vertex -21.3135 -20.8067 0
      vertex -21.3781 -20.6079 0
    endloop
  endfacet
  facet normal 0 0 -1
    outer loop
      vertex -21.0691 -21.1431 0
      vertex -20.709 -21.351 0
      vertex -20.9 -21.266 0
    endloop
  endfacet
  facet normal 0 0 -1
    outer loop
      vertex -21.4 -20.4 0
      vertex -20.4 -21.4 0
      vertex -20.709 -21.351 0
    endloop
  endfacet
  facet normal 0 -0 -1
    outer loop
      vertex -17.8257 -3.61401 0
      vertex -17.1 -3.29089 0
      vertex -20.4 -21.4 0
    endloop
  endfacet
  facet normal 0 0 -1
    outer loop
      vertex -20.4 -21.4 0
      vertex -17.1 -3.29089 0
      vertex -16.4573 -2.82394 0
    endloop
  endfacet
  facet normal 0 0 -1
    outer loop
      vertex -15.9257 -2.23358 0
      vertex -20.4 -21.4 0
      vertex -16.4573 -2.82394 0
    endloop
  endfacet
  facet normal 0 -0 -1
    outer loop
      vertex 15.9257 -2.23358 0
      vertex 20.4 -21.4 0
      vertex -20.4 -21.4 0
    endloop
  endfacet
  facet normal 0 0 1
    outer loop
      vertex 20.4 -21.4 1.6
      vertex 20.6079 -21.3781 1.6
      vertex 20.8067 -21.3135 1.6
    endloop
  endfacet
  facet normal 0 0 1
    outer loop
      vertex 21.1431 -21.0691 1.6
      vertex 21.266 -20.9 1.6
      vertex 21.351 -20.709 1.6
    endloop
  endfacet
  facet normal 0 -0 1
    outer loop
      vertex 20.9878 -21.209 1.6
      vertex 21.1431 -21.0691 1.6
      vertex 20.8067 -21.3135 1.6
    endloop
  endfacet
  facet normal 0 -0 1
    outer loop
      vertex 21.1431 -21.0691 1.6
      vertex 21.351 -20.709 1.6
      vertex 20.8067 -21.3135 1.6
    endloop
  endfacet
  facet normal 0 0 1
    outer loop
      vertex 21.351 -20.709 1.6
      vertex 20.4 -21.4 1.6
      vertex 20.8067 -21.3135 1.6
    endloop
  endfacet
  facet normal 0 0 1
    outer loop
      vertex 21.4 -20.4 1.6
      vertex 20.4 -21.4 1.6
      vertex 21.351 -20.709 1.6
    endloop
  endfacet
  facet normal 0 0 1
    outer loop
      vertex 21.4 -3.79999 1.6
      vertex 19 -3.79999 1.6
      vertex 21.4 -20.4 1.6
    endloop
  endfacet
  facet normal 0 0 1
    outer loop
      vertex 19 -3.79999 1.6
      vertex 18.6028 -3.77917 1.6
      vertex 21.4 -20.4 1.6
    endloop
  endfacet
  facet normal 0 0 1
    outer loop
      vertex 18.6028 -3.77917 1.6
      vertex 17.8257 -3.61401 1.6
      vertex 21.4 -20.4 1.6
    endloop
  endfacet
  facet normal -0 0 1
    outer loop
      vertex 18.6028 -3.77917 1.6
      vertex 19 -3.79999 1.6
      vertex 19 -3.77917 1.6
    endloop
  endfacet
  facet normal 0 0 1
    outer loop
      vertex 17.8257 -3.61401 1.6
      vertex 20.4 -21.4 1.6
      vertex 21.4 -20.4 1.6
    endloop
  endfacet
  facet normal 0 0 1
    outer loop
      vertex 17.1 -3.29089 1.6
      vertex 20.4 -21.4 1.6
      vertex 17.8257 -3.61401 1.6
    endloop
  endfacet
  facet normal 0 0 1
    outer loop
      vertex 16.4573 -2.82394 1.6
      vertex 20.4 -21.4 1.6
      vertex 17.1 -3.29089 1.6
    endloop
  endfacet
  facet normal 0 0 1
    outer loop
      vertex 15.9257 -2.23358 1.6
      vertex 20.4 -21.4 1.6
      vertex 16.4573 -2.82394 1.6
    endloop
  endfacet
  facet normal -0 0 1
    outer loop
      vertex -15.9257 2.23358 1.6
      vertex 15.5285 1.54559 1.6
      vertex 15.9257 2.23358 1.6
    endloop
  endfacet
  facet normal -0 0 1
    outer loop
      vertex -20.9878 21.209 1.6
      vertex -21.1431 21.0691 1.6
      vertex -20.8067 21.3135 1.6
    endloop
  endfacet
  facet normal 0 0 1
    outer loop
      vertex -20.4 21.4 1.6
      vertex -20.6079 21.3781 1.6
      vertex -20.8067 21.3135 1.6
    endloop
  endfacet
  facet normal 0 0 1
    outer loop
      vertex -21.351 20.709 1.6
      vertex -20.8067 21.3135 1.6
      vertex -21.1431 21.0691 1.6
    endloop
  endfacet
  facet normal 0 0 1
    outer loop
      vertex -19 3.79999 1.6
      vertex -21.4 20.4 1.6
      vertex -21.4 3.79999 1.6
    endloop
  endfacet
  facet normal 0 0 1
    outer loop
      vertex 20.709 21.351 1.6
      vertex 21.0691 21.1431 1.6
      vertex 20.9 21.266 1.6
    endloop
  endfacet
  facet normal 0 0 1
    outer loop
      vertex 21.4 20.4 1.6
      vertex 21.3781 20.6079 1.6
      vertex 21.3135 20.8067 1.6
    endloop
  endfacet
  facet normal 0 0 1
    outer loop
      vertex 21.0691 21.1431 1.6
      vertex 21.3135 20.8067 1.6
      vertex 21.209 20.9878 1.6
    endloop
  endfacet
  facet normal 0 0 1
    outer loop
      vertex 21.4 20.4 1.6
      vertex 21.3135 20.8067 1.6
      vertex 20.709 21.351 1.6
    endloop
  endfacet
  facet normal 0 0 1
    outer loop
      vertex 21.4 20.4 1.6
      vertex 20.4 21.4 1.6
      vertex 17.8257 3.61401 1.6
    endloop
  endfacet
  facet normal 0 0 1
    outer loop
      vertex 21.4 20.4 1.6
      vertex 17.8257 3.61401 1.6
      vertex 18.6028 3.77917 1.6
    endloop
  endfacet
  facet normal 0 0 1
    outer loop
      vertex 19 3.79999 1.6
      vertex 18.6028 3.77917 1.6
      vertex 19 3.77917 1.6
    endloop
  endfacet
  facet normal 0 0 1
    outer loop
      vertex 21.4 20.4 1.6
      vertex 18.6028 3.77917 1.6
      vertex 19 3.79999 1.6
    endloop
  endfacet
  facet normal 0 0 1
    outer loop
      vertex 21.4 20.4 1.6
      vertex 19 3.79999 1.6
      vertex 21.4 3.79999 1.6
    endloop
  endfacet
  facet normal 0 0 1
    outer loop
      vertex 21.3135 20.8067 1.6
      vertex 21.0691 21.1431 1.6
      vertex 20.709 21.351 1.6
    endloop
  endfacet
  facet normal 0 0 1
    outer loop
      vertex 21.4 20.4 1.6
      vertex 20.709 21.351 1.6
      vertex 20.4 21.4 1.6
    endloop
  endfacet
  facet normal 0 -0 1
    outer loop
      vertex 17.8257 3.61401 1.6
      vertex 20.4 21.4 1.6
      vertex 17.1 3.29089 1.6
    endloop
  endfacet
  facet normal 0 0 1
    outer loop
      vertex 20.4 21.4 1.6
      vertex 16.4573 2.82394 1.6
      vertex 17.1 3.29089 1.6
    endloop
  endfacet
  facet normal 0 0 1
    outer loop
      vertex 15.9257 2.23358 1.6
      vertex 16.4573 2.82394 1.6
      vertex 20.4 21.4 1.6
    endloop
  endfacet
  facet normal 0 -0 1
    outer loop
      vertex 15.9257 2.23358 1.6
      vertex 20.4 21.4 1.6
      vertex -20.4 21.4 1.6
    endloop
  endfacet
  facet normal -0 -0 1
    outer loop
      vertex -18.6028 3.77917 1.6
      vertex -17.8257 3.61401 1.6
      vertex -21.4 20.4 1.6
    endloop
  endfacet
  facet normal 0 0 1
    outer loop
      vertex -21.1431 21.0691 1.6
      vertex -21.266 20.9 1.6
      vertex -21.351 20.709 1.6
    endloop
  endfacet
  facet normal -0 0 1
    outer loop
      vertex -20.8067 21.3135 1.6
      vertex -21.351 20.709 1.6
      vertex -20.4 21.4 1.6
    endloop
  endfacet
  facet normal -0 0 1
    outer loop
      vertex -21.351 20.709 1.6
      vertex -21.4 20.4 1.6
      vertex -20.4 21.4 1.6
    endloop
  endfacet
  facet normal -0 -0 1
    outer loop
      vertex -17.1 3.29089 1.6
      vertex -16.4573 2.82394 1.6
      vertex -20.4 21.4 1.6
    endloop
  endfacet
  facet normal -0 -0 1
    outer loop
      vertex -16.4573 2.82394 1.6
      vertex -15.9257 2.23358 1.6
      vertex -20.4 21.4 1.6
    endloop
  endfacet
  facet normal 0 -0 1
    outer loop
      vertex -15.9257 2.23358 1.6
      vertex 15.9257 2.23358 1.6
      vertex -20.4 21.4 1.6
    endloop
  endfacet
  facet normal 0 -0 1
    outer loop
      vertex -15.5285 1.54559 1.6
      vertex 15.5285 1.54559 1.6
      vertex -15.9257 2.23358 1.6
    endloop
  endfacet
  facet normal 0 0 1
    outer loop
      vertex 15.5285 -1.54559 1.6
      vertex 15.2831 -0.790054 1.6
      vertex -15.5285 -1.54559 1.6
    endloop
  endfacet
  facet normal 0 0 1
    outer loop
      vertex -18.6028 3.77917 1.6
      vertex -19 3.79999 1.6
      vertex -19 3.77917 1.6
    endloop
  endfacet
  facet normal 0 0 1
    outer loop
      vertex -18.6028 3.77917 1.6
      vertex -21.4 20.4 1.6
      vertex -19 3.79999 1.6
    endloop
  endfacet
  facet normal 0 0 1
    outer loop
      vertex -17.1 3.29089 1.6
      vertex -20.4 21.4 1.6
      vertex -17.8257 3.61401 1.6
    endloop
  endfacet
  facet normal 0 0 1
    outer loop
      vertex -17.8257 3.61401 1.6
      vertex -20.4 21.4 1.6
      vertex -21.4 20.4 1.6
    endloop
  endfacet
  facet normal -0 0 1
    outer loop
      vertex -15.5285 1.54559 1.6
      vertex 15.2831 0.790054 1.6
      vertex 15.5285 1.54559 1.6
    endloop
  endfacet
  facet normal 0 -0 1
    outer loop
      vertex 15.2 0 1.6
      vertex 15.2831 0.790054 1.6
      vertex -15.2831 0.790054 1.6
    endloop
  endfacet
  facet normal 0 -0 1
    outer loop
      vertex -15.2831 0.790054 1.6
      vertex 15.2831 0.790054 1.6
      vertex -15.5285 1.54559 1.6
    endloop
  endfacet
  facet normal 0 0 1
    outer loop
      vertex 15.2 0 1.6
      vertex -15.2831 0.790054 1.6
      vertex -15.2 0 1.6
    endloop
  endfacet
  facet normal 0 0 1
    outer loop
      vertex 15.2 0 1.6
      vertex -15.2 0 1.6
      vertex -15.2831 -0.790054 1.6
    endloop
  endfacet
  facet normal 0 0 1
    outer loop
      vertex 15.2 0 1.6
      vertex -15.2831 -0.790054 1.6
      vertex 15.2831 -0.790054 1.6
    endloop
  endfacet
  facet normal -0 0 1
    outer loop
      vertex -15.2831 -0.790054 1.6
      vertex -15.5285 -1.54559 1.6
      vertex 15.2831 -0.790054 1.6
    endloop
  endfacet
  facet normal 0 0 1
    outer loop
      vertex 15.5285 -1.54559 1.6
      vertex -15.5285 -1.54559 1.6
      vertex -15.9257 -2.23358 1.6
    endloop
  endfacet
  facet normal 0 0 1
    outer loop
      vertex 15.5285 -1.54559 1.6
      vertex -15.9257 -2.23358 1.6
      vertex 15.9257 -2.23358 1.6
    endloop
  endfacet
  facet normal -0 0 1
    outer loop
      vertex -15.9257 -2.23358 1.6
      vertex -20.4 -21.4 1.6
      vertex 15.9257 -2.23358 1.6
    endloop
  endfacet
  facet normal -0 -0 1
    outer loop
      vertex -21.0691 -21.1431 1.6
      vertex -20.709 -21.351 1.6
      vertex -21.3135 -20.8067 1.6
    endloop
  endfacet
  facet normal 0 0 1
    outer loop
      vertex -20.709 -21.351 1.6
      vertex -21.4 -20.4 1.6
      vertex -21.3135 -20.8067 1.6
    endloop
  endfacet
  facet normal 0 0 1
    outer loop
      vertex -17.8257 -3.61401 1.6
      vertex -21.4 -20.4 1.6
      vertex -20.4 -21.4 1.6
    endloop
  endfacet
  facet normal -0 0 1
    outer loop
      vertex -18.6028 -3.77917 1.6
      vertex -21.4 -20.4 1.6
      vertex -17.8257 -3.61401 1.6
    endloop
  endfacet
  facet normal -0 0 1
    outer loop
      vertex -19 -3.77917 1.6
      vertex -19 -3.79999 1.6
      vertex -18.6028 -3.77917 1.6
    endloop
  endfacet
  facet normal -0 0 1
    outer loop
      vertex -19 -3.79999 1.6
      vertex -21.4 -20.4 1.6
      vertex -18.6028 -3.77917 1.6
    endloop
  endfacet
  facet normal -0 0 1
    outer loop
      vertex -21.4 -3.79999 1.6
      vertex -21.4 -20.4 1.6
      vertex -19 -3.79999 1.6
    endloop
  endfacet
  facet normal 0 0 1
    outer loop
      vertex -21.0691 -21.1431 1.6
      vertex -21.3135 -20.8067 1.6
      vertex -21.209 -20.9878 1.6
    endloop
  endfacet
  facet normal -0 -0 1
    outer loop
      vertex -21.3781 -20.6079 1.6
      vertex -21.3135 -20.8067 1.6
      vertex -21.4 -20.4 1.6
    endloop
  endfacet
  facet normal -0 -0 1
    outer loop
      vertex -20.9 -21.266 1.6
      vertex -20.709 -21.351 1.6
      vertex -21.0691 -21.1431 1.6
    endloop
  endfacet
  facet normal -0 -0 1
    outer loop
      vertex -20.709 -21.351 1.6
      vertex -20.4 -21.4 1.6
      vertex -21.4 -20.4 1.6
    endloop
  endfacet
  facet normal 0 0 1
    outer loop
      vertex -20.4 -21.4 1.6
      vertex -17.1 -3.29089 1.6
      vertex -17.8257 -3.61401 1.6
    endloop
  endfacet
  facet normal 0 0 1
    outer loop
      vertex -16.4573 -2.82394 1.6
      vertex -17.1 -3.29089 1.6
      vertex -20.4 -21.4 1.6
    endloop
  endfacet
  facet normal -0 0 1
    outer loop
      vertex -16.4573 -2.82394 1.6
      vertex -20.4 -21.4 1.6
      vertex -15.9257 -2.23358 1.6
    endloop
  endfacet
  facet normal 0 0 1
    outer loop
      vertex -20.4 -21.4 1.6
      vertex 20.4 -21.4 1.6
      vertex 15.9257 -2.23358 1.6
    endloop
  endfacet
  facet normal 0.309043 -0.951048 0
    outer loop
      vertex 20.8067 -21.3135 0
      vertex 20.6079 -21.3781 1.6
      vertex 20.6079 -21.3781 0
    endloop
  endfacet
  facet normal 0.309043 -0.951048 0
    outer loop
      vertex 20.8067 -21.3135 0
      vertex 20.8067 -21.3135 1.6
      vertex 20.6079 -21.3781 1.6
    endloop
  endfacet
  facet normal 0.499791 -0.866146 0
    outer loop
      vertex 20.9878 -21.209 0
      vertex 20.8067 -21.3135 1.6
      vertex 20.8067 -21.3135 0
    endloop
  endfacet
  facet normal 0.499791 -0.866146 0
    outer loop
      vertex 20.9878 -21.209 0
      vertex 20.9878 -21.209 1.6
      vertex 20.8067 -21.3135 1.6
    endloop
  endfacet
  facet normal 0.669308 -0.742985 0
    outer loop
      vertex 21.1431 -21.0691 0
      vertex 20.9878 -21.209 1.6
      vertex 20.9878 -21.209 0
    endloop
  endfacet
  facet normal 0.669308 -0.742985 0
    outer loop
      vertex 21.1431 -21.0691 0
      vertex 21.1431 -21.0691 1.6
      vertex 20.9878 -21.209 1.6
    endloop
  endfacet
  facet normal 0.808922 -0.587916 0
    outer loop
      vertex 21.266 -20.9 0
      vertex 21.1431 -21.0691 1.6
      vertex 21.1431 -21.0691 0
    endloop
  endfacet
  facet normal 0.808922 -0.587916 0
    outer loop
      vertex 21.266 -20.9 0
      vertex 21.266 -20.9 1.6
      vertex 21.1431 -21.0691 1.6
    endloop
  endfacet
  facet normal 0.913614 -0.406582 0
    outer loop
      vertex 21.351 -20.709 0
      vertex 21.266 -20.9 1.6
      vertex 21.266 -20.9 0
    endloop
  endfacet
  facet normal 0.913614 -0.406582 0
    outer loop
      vertex 21.351 -20.709 0
      vertex 21.351 -20.709 1.6
      vertex 21.266 -20.9 1.6
    endloop
  endfacet
  facet normal 0.987659 -0.156619 0
    outer loop
      vertex 21.4 -20.4 0
      vertex 21.351 -20.709 1.6
      vertex 21.351 -20.709 0
    endloop
  endfacet
  facet normal 0.987659 -0.156619 0
    outer loop
      vertex 21.4 -20.4 0
      vertex 21.4 -20.4 1.6
      vertex 21.351 -20.709 1.6
    endloop
  endfacet
  facet normal 1 0 0
    outer loop
      vertex 21.4 -3.79999 0
      vertex 21.4 -20.4 1.6
      vertex 21.4 -20.4 0
    endloop
  endfacet
  facet normal 1 0 -0
    outer loop
      vertex 21.4 -3.79999 0
      vertex 21.4 -3.79999 1.6
      vertex 21.4 -20.4 1.6
    endloop
  endfacet
  facet normal 0 1 0
    outer loop
      vertex 19 -3.79999 0
      vertex 21.4 -3.79999 1.6
      vertex 21.4 -3.79999 0
    endloop
  endfacet
  facet normal 0 1 0
    outer loop
      vertex 19 -3.79999 0
      vertex 19 -3.79999 1.6
      vertex 21.4 -3.79999 1.6
    endloop
  endfacet
  facet normal 1 0 0
    outer loop
      vertex 19 -3.77917 0
      vertex 19 -3.79999 1.6
      vertex 19 -3.79999 0
    endloop
  endfacet
  facet normal 1 0 -0
    outer loop
      vertex 19 -3.77917 0
      vertex 19 -3.77917 1.6
      vertex 19 -3.79999 1.6
    endloop
  endfacet
  facet normal 0 1 0
    outer loop
      vertex 18.6028 -3.77917 0
      vertex 19 -3.77917 1.6
      vertex 19 -3.77917 0
    endloop
  endfacet
  facet normal 0 1 0
    outer loop
      vertex 18.6028 -3.77917 0
      vertex 18.6028 -3.77917 1.6
      vertex 19 -3.77917 1.6
    endloop
  endfacet
  facet normal 0.20789 0.978152 0
    outer loop
      vertex 17.8257 -3.61401 0
      vertex 18.6028 -3.77917 1.6
      vertex 18.6028 -3.77917 0
    endloop
  endfacet
  facet normal 0.20789 0.978152 -0
    outer loop
      vertex 17.8257 -3.61401 0
      vertex 17.8257 -3.61401 1.6
      vertex 18.6028 -3.77917 1.6
    endloop
  endfacet
  facet normal 0.406755 0.913537 0
    outer loop
      vertex 17.1 -3.29089 0
      vertex 17.8257 -3.61401 1.6
      vertex 17.8257 -3.61401 0
    endloop
  endfacet
  facet normal 0.406755 0.913537 -0
    outer loop
      vertex 17.1 -3.29089 0
      vertex 17.1 -3.29089 1.6
      vertex 17.8257 -3.61401 1.6
    endloop
  endfacet
  facet normal 0.587786 0.809016 0
    outer loop
      vertex 16.4573 -2.82394 0
      vertex 17.1 -3.29089 1.6
      vertex 17.1 -3.29089 0
    endloop
  endfacet
  facet normal 0.587786 0.809016 -0
    outer loop
      vertex 16.4573 -2.82394 0
      vertex 16.4573 -2.82394 1.6
      vertex 17.1 -3.29089 1.6
    endloop
  endfacet
  facet normal 0.743121 0.669157 0
    outer loop
      vertex 15.9257 -2.23358 0
      vertex 16.4573 -2.82394 1.6
      vertex 16.4573 -2.82394 0
    endloop
  endfacet
  facet normal 0.743121 0.669157 -0
    outer loop
      vertex 15.9257 -2.23358 0
      vertex 15.9257 -2.23358 1.6
      vertex 16.4573 -2.82394 1.6
    endloop
  endfacet
  facet normal 0.866032 0.499989 0
    outer loop
      vertex 15.5285 -1.54559 0
      vertex 15.9257 -2.23358 1.6
      vertex 15.9257 -2.23358 0
    endloop
  endfacet
  facet normal 0.866032 0.499989 -0
    outer loop
      vertex 15.5285 -1.54559 0
      vertex 15.5285 -1.54559 1.6
      vertex 15.9257 -2.23358 1.6
    endloop
  endfacet
  facet normal 0.951089 0.308916 0
    outer loop
      vertex 15.2831 -0.790054 0
      vertex 15.5285 -1.54559 1.6
      vertex 15.5285 -1.54559 0
    endloop
  endfacet
  facet normal 0.951089 0.308916 -0
    outer loop
      vertex 15.2831 -0.790054 0
      vertex 15.2831 -0.790054 1.6
      vertex 15.5285 -1.54559 1.6
    endloop
  endfacet
  facet normal 0.994514 0.104606 0
    outer loop
      vertex 15.2 0 0
      vertex 15.2831 -0.790054 1.6
      vertex 15.2831 -0.790054 0
    endloop
  endfacet
  facet normal 0.994514 0.104606 -0
    outer loop
      vertex 15.2 0 0
      vertex 15.2 0 1.6
      vertex 15.2831 -0.790054 1.6
    endloop
  endfacet
  facet normal 0.994514 -0.104606 0
    outer loop
      vertex 15.2831 0.790054 0
      vertex 15.2 0 1.6
      vertex 15.2 0 0
    endloop
  endfacet
  facet normal 0.994514 -0.104606 0
    outer loop
      vertex 15.2831 0.790054 0
      vertex 15.2831 0.790054 1.6
      vertex 15.2 0 1.6
    endloop
  endfacet
  facet normal 0.951089 -0.308916 0
    outer loop
      vertex 15.5285 1.54559 0
      vertex 15.2831 0.790054 1.6
      vertex 15.2831 0.790054 0
    endloop
  endfacet
  facet normal 0.951089 -0.308916 0
    outer loop
      vertex 15.5285 1.54559 0
      vertex 15.5285 1.54559 1.6
      vertex 15.2831 0.790054 1.6
    endloop
  endfacet
  facet normal 0.866032 -0.499989 0
    outer loop
      vertex 15.9257 2.23358 0
      vertex 15.5285 1.54559 1.6
      vertex 15.5285 1.54559 0
    endloop
  endfacet
  facet normal 0.866032 -0.499989 0
    outer loop
      vertex 15.9257 2.23358 0
      vertex 15.9257 2.23358 1.6
      vertex 15.5285 1.54559 1.6
    endloop
  endfacet
  facet normal 0.743121 -0.669157 0
    outer loop
      vertex 16.4573 2.82394 0
      vertex 15.9257 2.23358 1.6
      vertex 15.9257 2.23358 0
    endloop
  endfacet
  facet normal 0.743121 -0.669157 0
    outer loop
      vertex 16.4573 2.82394 0
      vertex 16.4573 2.82394 1.6
      vertex 15.9257 2.23358 1.6
    endloop
  endfacet
  facet normal 0.587786 -0.809016 0
    outer loop
      vertex 17.1 3.29089 0
      vertex 16.4573 2.82394 1.6
      vertex 16.4573 2.82394 0
    endloop
  endfacet
  facet normal 0.587786 -0.809016 0
    outer loop
      vertex 17.1 3.29089 0
      vertex 17.1 3.29089 1.6
      vertex 16.4573 2.82394 1.6
    endloop
  endfacet
  facet normal 0.406755 -0.913537 0
    outer loop
      vertex 17.8257 3.61401 0
      vertex 17.1 3.29089 1.6
      vertex 17.1 3.29089 0
    endloop
  endfacet
  facet normal 0.406755 -0.913537 0
    outer loop
      vertex 17.8257 3.61401 0
      vertex 17.8257 3.61401 1.6
      vertex 17.1 3.29089 1.6
    endloop
  endfacet
  facet normal 0.20789 -0.978152 0
    outer loop
      vertex 18.6028 3.77917 0
      vertex 17.8257 3.61401 1.6
      vertex 17.8257 3.61401 0
    endloop
  endfacet
  facet normal 0.20789 -0.978152 0
    outer loop
      vertex 18.6028 3.77917 0
      vertex 18.6028 3.77917 1.6
      vertex 17.8257 3.61401 1.6
    endloop
  endfacet
  facet normal 0 -1 0
    outer loop
      vertex 19 3.77917 0
      vertex 18.6028 3.77917 1.6
      vertex 18.6028 3.77917 0
    endloop
  endfacet
  facet normal 0 -1 0
    outer loop
      vertex 19 3.77917 0
      vertex 19 3.77917 1.6
      vertex 18.6028 3.77917 1.6
    endloop
  endfacet
  facet normal 1 0 0
    outer loop
      vertex 19 3.79999 0
      vertex 19 3.77917 1.6
      vertex 19 3.77917 0
    endloop
  endfacet
  facet normal 1 0 -0
    outer loop
      vertex 19 3.79999 0
      vertex 19 3.79999 1.6
      vertex 19 3.77917 1.6
    endloop
  endfacet
  facet normal 0 -1 0
    outer loop
      vertex 21.4 3.79999 0
      vertex 19 3.79999 1.6
      vertex 19 3.79999 0
    endloop
  endfacet
  facet normal 0 -1 0
    outer loop
      vertex 21.4 3.79999 0
      vertex 21.4 3.79999 1.6
      vertex 19 3.79999 1.6
    endloop
  endfacet
  facet normal 1 0 0
    outer loop
      vertex 21.4 20.4 0
      vertex 21.4 3.79999 1.6
      vertex 21.4 3.79999 0
    endloop
  endfacet
  facet normal 1 0 -0
    outer loop
      vertex 21.4 20.4 0
      vertex 21.4 20.4 1.6
      vertex 21.4 3.79999 1.6
    endloop
  endfacet
  facet normal 0.994498 0.104759 0
    outer loop
      vertex 21.3781 20.6079 0
      vertex 21.4 20.4 1.6
      vertex 21.4 20.4 0
    endloop
  endfacet
  facet normal 0.994498 0.104759 -0
    outer loop
      vertex 21.3781 20.6079 0
      vertex 21.3781 20.6079 1.6
      vertex 21.4 20.4 1.6
    endloop
  endfacet
  facet normal 0.951048 0.309043 0
    outer loop
      vertex 21.3135 20.8067 0
      vertex 21.3781 20.6079 1.6
      vertex 21.3781 20.6079 0
    endloop
  endfacet
  facet normal 0.951048 0.309043 -0
    outer loop
      vertex 21.3135 20.8067 0
      vertex 21.3135 20.8067 1.6
      vertex 21.3781 20.6079 1.6
    endloop
  endfacet
  facet normal 0.866146 0.499791 0
    outer loop
      vertex 21.209 20.9878 0
      vertex 21.3135 20.8067 1.6
      vertex 21.3135 20.8067 0
    endloop
  endfacet
  facet normal 0.866146 0.499791 -0
    outer loop
      vertex 21.209 20.9878 0
      vertex 21.209 20.9878 1.6
      vertex 21.3135 20.8067 1.6
    endloop
  endfacet
  facet normal 0.742985 0.669308 0
    outer loop
      vertex 21.0691 21.1431 0
      vertex 21.209 20.9878 1.6
      vertex 21.209 20.9878 0
    endloop
  endfacet
  facet normal 0.742985 0.669308 -0
    outer loop
      vertex 21.0691 21.1431 0
      vertex 21.0691 21.1431 1.6
      vertex 21.209 20.9878 1.6
    endloop
  endfacet
  facet normal 0.587916 0.808922 0
    outer loop
      vertex 20.9 21.266 0
      vertex 21.0691 21.1431 1.6
      vertex 21.0691 21.1431 0
    endloop
  endfacet
  facet normal 0.587916 0.808922 -0
    outer loop
      vertex 20.9 21.266 0
      vertex 20.9 21.266 1.6
      vertex 21.0691 21.1431 1.6
    endloop
  endfacet
  facet normal 0.406582 0.913614 0
    outer loop
      vertex 20.709 21.351 0
      vertex 20.9 21.266 1.6
      vertex 20.9 21.266 0
    endloop
  endfacet
  facet normal 0.406582 0.913614 -0
    outer loop
      vertex 20.709 21.351 0
      vertex 20.709 21.351 1.6
      vertex 20.9 21.266 1.6
    endloop
  endfacet
  facet normal 0.156619 0.987659 0
    outer loop
      vertex 20.4 21.4 0
      vertex 20.709 21.351 1.6
      vertex 20.709 21.351 0
    endloop
  endfacet
  facet normal 0.156619 0.987659 -0
    outer loop
      vertex 20.4 21.4 0
      vertex 20.4 21.4 1.6
      vertex 20.709 21.351 1.6
    endloop
  endfacet
  facet normal 0 1 0
    outer loop
      vertex -20.4 21.4 0
      vertex 20.4 21.4 1.6
      vertex 20.4 21.4 0
    endloop
  endfacet
  facet normal 0 1 0
    outer loop
      vertex -20.4 21.4 0
      vertex -20.4 21.4 1.6
      vertex 20.4 21.4 1.6
    endloop
  endfacet
  facet normal -0.104759 0.994498 0
    outer loop
      vertex -20.6079 21.3781 0
      vertex -20.4 21.4 1.6
      vertex -20.4 21.4 0
    endloop
  endfacet
  facet normal -0.104759 0.994498 0
    outer loop
      vertex -20.6079 21.3781 0
      vertex -20.6079 21.3781 1.6
      vertex -20.4 21.4 1.6
    endloop
  endfacet
  facet normal -0.309043 0.951048 0
    outer loop
      vertex -20.8067 21.3135 0
      vertex -20.6079 21.3781 1.6
      vertex -20.6079 21.3781 0
    endloop
  endfacet
  facet normal -0.309043 0.951048 0
    outer loop
      vertex -20.8067 21.3135 0
      vertex -20.8067 21.3135 1.6
      vertex -20.6079 21.3781 1.6
    endloop
  endfacet
  facet normal -0.499791 0.866146 0
    outer loop
      vertex -20.9878 21.209 0
      vertex -20.8067 21.3135 1.6
      vertex -20.8067 21.3135 0
    endloop
  endfacet
  facet normal -0.499791 0.866146 0
    outer loop
      vertex -20.9878 21.209 0
      vertex -20.9878 21.209 1.6
      vertex -20.8067 21.3135 1.6
    endloop
  endfacet
  facet normal -0.669308 0.742985 0
    outer loop
      vertex -21.1431 21.0691 0
      vertex -20.9878 21.209 1.6
      vertex -20.9878 21.209 0
    endloop
  endfacet
  facet normal -0.669308 0.742985 0
    outer loop
      vertex -21.1431 21.0691 0
      vertex -21.1431 21.0691 1.6
      vertex -20.9878 21.209 1.6
    endloop
  endfacet
  facet normal -0.808922 0.587916 0
    outer loop
      vertex -21.266 20.9 0
      vertex -21.1431 21.0691 1.6
      vertex -21.1431 21.0691 0
    endloop
  endfacet
  facet normal -0.808922 0.587916 0
    outer loop
      vertex -21.266 20.9 0
      vertex -21.266 20.9 1.6
      vertex -21.1431 21.0691 1.6
    endloop
  endfacet
  facet normal -0.913614 0.406582 0
    outer loop
      vertex -21.351 20.709 0
      vertex -21.266 20.9 1.6
      vertex -21.266 20.9 0
    endloop
  endfacet
  facet normal -0.913614 0.406582 0
    outer loop
      vertex -21.351 20.709 0
      vertex -21.351 20.709 1.6
      vertex -21.266 20.9 1.6
    endloop
  endfacet
  facet normal -0.987659 0.156619 0
    outer loop
      vertex -21.4 20.4 0
      vertex -21.351 20.709 1.6
      vertex -21.351 20.709 0
    endloop
  endfacet
  facet normal -0.987659 0.156619 0
    outer loop
      vertex -21.4 20.4 0
      vertex -21.4 20.4 1.6
      vertex -21.351 20.709 1.6
    endloop
  endfacet
  facet normal -1 0 0
    outer loop
      vertex -21.4 3.79999 0
      vertex -21.4 20.4 1.6
      vertex -21.4 20.4 0
    endloop
  endfacet
  facet normal -1 0 0
    outer loop
      vertex -21.4 3.79999 0
      vertex -21.4 3.79999 1.6
      vertex -21.4 20.4 1.6
    endloop
  endfacet
  facet normal 0 -1 0
    outer loop
      vertex -19 3.79999 0
      vertex -21.4 3.79999 1.6
      vertex -21.4 3.79999 0
    endloop
  endfacet
  facet normal 0 -1 0
    outer loop
      vertex -19 3.79999 0
      vertex -19 3.79999 1.6
      vertex -21.4 3.79999 1.6
    endloop
  endfacet
  facet normal -1 0 0
    outer loop
      vertex -19 3.77917 0
      vertex -19 3.79999 1.6
      vertex -19 3.79999 0
    endloop
  endfacet
  facet normal -1 0 0
    outer loop
      vertex -19 3.77917 0
      vertex -19 3.77917 1.6
      vertex -19 3.79999 1.6
    endloop
  endfacet
  facet normal 0 -1 0
    outer loop
      vertex -18.6028 3.77917 0
      vertex -19 3.77917 1.6
      vertex -19 3.77917 0
    endloop
  endfacet
  facet normal 0 -1 0
    outer loop
      vertex -18.6028 3.77917 0
      vertex -18.6028 3.77917 1.6
      vertex -19 3.77917 1.6
    endloop
  endfacet
  facet normal -0.20789 -0.978152 0
    outer loop
      vertex -17.8257 3.61401 0
      vertex -18.6028 3.77917 1.6
      vertex -18.6028 3.77917 0
    endloop
  endfacet
  facet normal -0.20789 -0.978152 0
    outer loop
      vertex -17.8257 3.61401 0
      vertex -17.8257 3.61401 1.6
      vertex -18.6028 3.77917 1.6
    endloop
  endfacet
  facet normal -0.406755 -0.913537 0
    outer loop
      vertex -17.1 3.29089 0
      vertex -17.8257 3.61401 1.6
      vertex -17.8257 3.61401 0
    endloop
  endfacet
  facet normal -0.406755 -0.913537 0
    outer loop
      vertex -17.1 3.29089 0
      vertex -17.1 3.29089 1.6
      vertex -17.8257 3.61401 1.6
    endloop
  endfacet
  facet normal -0.587786 -0.809016 0
    outer loop
      vertex -16.4573 2.82394 0
      vertex -17.1 3.29089 1.6
      vertex -17.1 3.29089 0
    endloop
  endfacet
  facet normal -0.587786 -0.809016 0
    outer loop
      vertex -16.4573 2.82394 0
      vertex -16.4573 2.82394 1.6
      vertex -17.1 3.29089 1.6
    endloop
  endfacet
  facet normal -0.743121 -0.669157 0
    outer loop
      vertex -15.9257 2.23358 0
      vertex -16.4573 2.82394 1.6
      vertex -16.4573 2.82394 0
    endloop
  endfacet
  facet normal -0.743121 -0.669157 0
    outer loop
      vertex -15.9257 2.23358 0
      vertex -15.9257 2.23358 1.6
      vertex -16.4573 2.82394 1.6
    endloop
  endfacet
  facet normal -0.866032 -0.499989 0
    outer loop
      vertex -15.5285 1.54559 0
      vertex -15.9257 2.23358 1.6
      vertex -15.9257 2.23358 0
    endloop
  endfacet
  facet normal -0.866032 -0.499989 0
    outer loop
      vertex -15.5285 1.54559 0
      vertex -15.5285 1.54559 1.6
      vertex -15.9257 2.23358 1.6
    endloop
  endfacet
  facet normal -0.951089 -0.308916 0
    outer loop
      vertex -15.2831 0.790054 0
      vertex -15.5285 1.54559 1.6
      vertex -15.5285 1.54559 0
    endloop
  endfacet
  facet normal -0.951089 -0.308916 0
    outer loop
      vertex -15.2831 0.790054 0
      vertex -15.2831 0.790054 1.6
      vertex -15.5285 1.54559 1.6
    endloop
  endfacet
  facet normal -0.994514 -0.104606 0
    outer loop
      vertex -15.2 0 0
      vertex -15.2831 0.790054 1.6
      vertex -15.2831 0.790054 0
    endloop
  endfacet
  facet normal -0.994514 -0.104606 0
    outer loop
      vertex -15.2 0 0
      vertex -15.2 0 1.6
      vertex -15.2831 0.790054 1.6
    endloop
  endfacet
  facet normal -0.994514 0.104606 0
    outer loop
      vertex -15.2831 -0.790054 0
      vertex -15.2 0 1.6
      vertex -15.2 0 0
    endloop
  endfacet
  facet normal -0.994514 0.104606 0
    outer loop
      vertex -15.2831 -0.790054 0
      vertex -15.2831 -0.790054 1.6
      vertex -15.2 0 1.6
    endloop
  endfacet
  facet normal -0.951089 0.308916 0
    outer loop
      vertex -15.5285 -1.54559 0
      vertex -15.2831 -0.790054 1.6
      vertex -15.2831 -0.790054 0
    endloop
  endfacet
  facet normal -0.951089 0.308916 0
    outer loop
      vertex -15.5285 -1.54559 0
      vertex -15.5285 -1.54559 1.6
      vertex -15.2831 -0.790054 1.6
    endloop
  endfacet
  facet normal -0.866032 0.499989 0
    outer loop
      vertex -15.9257 -2.23358 0
      vertex -15.5285 -1.54559 1.6
      vertex -15.5285 -1.54559 0
    endloop
  endfacet
  facet normal -0.866032 0.499989 0
    outer loop
      vertex -15.9257 -2.23358 0
      vertex -15.9257 -2.23358 1.6
      vertex -15.5285 -1.54559 1.6
    endloop
  endfacet
  facet normal -0.743121 0.669157 0
    outer loop
      vertex -16.4573 -2.82394 0
      vertex -15.9257 -2.23358 1.6
      vertex -15.9257 -2.23358 0
    endloop
  endfacet
  facet normal -0.743121 0.669157 0
    outer loop
      vertex -16.4573 -2.82394 0
      vertex -16.4573 -2.82394 1.6
      vertex -15.9257 -2.23358 1.6
    endloop
  endfacet
  facet normal -0.587786 0.809016 0
    outer loop
      vertex -17.1 -3.29089 0
      vertex -16.4573 -2.82394 1.6
      vertex -16.4573 -2.82394 0
    endloop
  endfacet
  facet normal -0.587786 0.809016 0
    outer loop
      vertex -17.1 -3.29089 0
      vertex -17.1 -3.29089 1.6
      vertex -16.4573 -2.82394 1.6
    endloop
  endfacet
  facet normal -0.406755 0.913537 0
    outer loop
      vertex -17.8257 -3.61401 0
      vertex -17.1 -3.29089 1.6
      vertex -17.1 -3.29089 0
    endloop
  endfacet
  facet normal -0.406755 0.913537 0
    outer loop
      vertex -17.8257 -3.61401 0
      vertex -17.8257 -3.61401 1.6
      vertex -17.1 -3.29089 1.6
    endloop
  endfacet
  facet normal -0.20789 0.978152 0
    outer loop
      vertex -18.6028 -3.77917 0
      vertex -17.8257 -3.61401 1.6
      vertex -17.8257 -3.61401 0
    endloop
  endfacet
  facet normal -0.20789 0.978152 0
    outer loop
      vertex -18.6028 -3.77917 0
      vertex -18.6028 -3.77917 1.6
      vertex -17.8257 -3.61401 1.6
    endloop
  endfacet
  facet normal 0 1 0
    outer loop
      vertex -19 -3.77917 0
      vertex -18.6028 -3.77917 1.6
      vertex -18.6028 -3.77917 0
    endloop
  endfacet
  facet normal 0 1 0
    outer loop
      vertex -19 -3.77917 0
      vertex -19 -3.77917 1.6
      vertex -18.6028 -3.77917 1.6
    endloop
  endfacet
  facet normal -1 0 0
    outer loop
      vertex -19 -3.79999 0
      vertex -19 -3.77917 1.6
      vertex -19 -3.77917 0
    endloop
  endfacet
  facet normal -1 0 0
    outer loop
      vertex -19 -3.79999 0
      vertex -19 -3.79999 1.6
      vertex -19 -3.77917 1.6
    endloop
  endfacet
  facet normal 0 1 0
    outer loop
      vertex -21.4 -3.79999 0
      vertex -19 -3.79999 1.6
      vertex -19 -3.79999 0
    endloop
  endfacet
  facet normal 0 1 0
    outer loop
      vertex -21.4 -3.79999 0
      vertex -21.4 -3.79999 1.6
      vertex -19 -3.79999 1.6
    endloop
  endfacet
  facet normal -1 0 0
    outer loop
      vertex -21.4 -20.4 0
      vertex -21.4 -3.79999 1.6
      vertex -21.4 -3.79999 0
    endloop
  endfacet
  facet normal -1 0 0
    outer loop
      vertex -21.4 -20.4 0
      vertex -21.4 -20.4 1.6
      vertex -21.4 -3.79999 1.6
    endloop
  endfacet
  facet normal -0.994498 -0.104759 0
    outer loop
      vertex -21.3781 -20.6079 0
      vertex -21.4 -20.4 1.6
      vertex -21.4 -20.4 0
    endloop
  endfacet
  facet normal -0.994498 -0.104759 0
    outer loop
      vertex -21.3781 -20.6079 0
      vertex -21.3781 -20.6079 1.6
      vertex -21.4 -20.4 1.6
    endloop
  endfacet
  facet normal -0.951048 -0.309043 0
    outer loop
      vertex -21.3135 -20.8067 0
      vertex -21.3781 -20.6079 1.6
      vertex -21.3781 -20.6079 0
    endloop
  endfacet
  facet normal -0.951048 -0.309043 0
    outer loop
      vertex -21.3135 -20.8067 0
      vertex -21.3135 -20.8067 1.6
      vertex -21.3781 -20.6079 1.6
    endloop
  endfacet
  facet normal -0.866146 -0.499791 0
    outer loop
      vertex -21.209 -20.9878 0
      vertex -21.3135 -20.8067 1.6
      vertex -21.3135 -20.8067 0
    endloop
  endfacet
  facet normal -0.866146 -0.499791 0
    outer loop
      vertex -21.209 -20.9878 0
      vertex -21.209 -20.9878 1.6
      vertex -21.3135 -20.8067 1.6
    endloop
  endfacet
  facet normal -0.742985 -0.669308 0
    outer loop
      vertex -21.0691 -21.1431 0
      vertex -21.209 -20.9878 1.6
      vertex -21.209 -20.9878 0
    endloop
  endfacet
  facet normal -0.742985 -0.669308 0
    outer loop
      vertex -21.0691 -21.1431 0
      vertex -21.0691 -21.1431 1.6
      vertex -21.209 -20.9878 1.6
    endloop
  endfacet
  facet normal -0.587916 -0.808922 0
    outer loop
      vertex -20.9 -21.266 0
      vertex -21.0691 -21.1431 1.6
      vertex -21.0691 -21.1431 0
    endloop
  endfacet
  facet normal -0.587916 -0.808922 0
    outer loop
      vertex -20.9 -21.266 0
      vertex -20.9 -21.266 1.6
      vertex -21.0691 -21.1431 1.6
    endloop
  endfacet
  facet normal -0.406582 -0.913614 0
    outer loop
      vertex -20.709 -21.351 0
      vertex -20.9 -21.266 1.6
      vertex -20.9 -21.266 0
    endloop
  endfacet
  facet normal -0.406582 -0.913614 0
    outer loop
      vertex -20.709 -21.351 0
      vertex -20.709 -21.351 1.6
      vertex -20.9 -21.266 1.6
    endloop
  endfacet
  facet normal -0.156619 -0.987659 0
    outer loop
      vertex -20.4 -21.4 0
      vertex -20.709 -21.351 1.6
      vertex -20.709 -21.351 0
    endloop
  endfacet
  facet normal -0.156619 -0.987659 0
    outer loop
      vertex -20.4 -21.4 0
      vertex -20.4 -21.4 1.6
      vertex -20.709 -21.351 1.6
    endloop
  endfacet
  facet normal 0 -1 0
    outer loop
      vertex 20.4 -21.4 0
      vertex -20.4 -21.4 1.6
      vertex -20.4 -21.4 0
    endloop
  endfacet
  facet normal 0 -1 0
    outer loop
      vertex 20.4 -21.4 0
      vertex 20.4 -21.4 1.6
      vertex -20.4 -21.4 1.6
    endloop
  endfacet
  facet normal 0.104759 -0.994498 0
    outer loop
      vertex 20.6079 -21.3781 0
      vertex 20.4 -21.4 1.6
      vertex 20.4 -21.4 0
    endloop
  endfacet
  facet normal 0.104759 -0.994498 0
    outer loop
      vertex 20.6079 -21.3781 0
      vertex 20.6079 -21.3781 1.6
      vertex 20.4 -21.4 1.6
    endloop
  endfacet
endsolid OpenSCAD_Model
