  0
SECTION
  2
BLOCKS
  0
ENDSEC
  0
SECTION
  2
ENTITIES
  0
LINE
  8
0
 10
3.13951
 20
-49.9013
 11
6.26665
 21
-49.6057
  0
LINE
  8
0
 10
6.26665
 20
-49.6057
 11
9.36906
 21
-49.1143
  0
LINE
  8
0
 10
9.36906
 20
-49.1143
 11
12.4345
 21
-48.4292
  0
LINE
  8
0
 10
12.4345
 20
-48.4292
 11
15.4508
 21
-47.5528
  0
LINE
  8
0
 10
15.4508
 20
-47.5528
 11
18.4062
 21
-46.4888
  0
LINE
  8
0
 10
18.4062
 20
-46.4888
 11
21.289
 21
-45.2413
  0
LINE
  8
0
 10
21.289
 20
-45.2413
 11
24.0877
 21
-43.8153
  0
LINE
  8
0
 10
24.0877
 20
-43.8153
 11
26.7913
 21
-42.2164
  0
LINE
  8
0
 10
26.7913
 20
-42.2164
 11
29.3893
 21
-40.4508
  0
LINE
  8
0
 10
29.3893
 20
-40.4508
 11
31.8712
 21
-38.5257
  0
LINE
  8
0
 10
31.8712
 20
-38.5257
 11
34.2273
 21
-36.4484
  0
LINE
  8
0
 10
34.2273
 20
-36.4484
 11
36.4484
 21
-34.2273
  0
LINE
  8
0
 10
36.4484
 20
-34.2273
 11
38.5257
 21
-31.8712
  0
LINE
  8
0
 10
38.5257
 20
-31.8712
 11
40.4508
 21
-29.3893
  0
LINE
  8
0
 10
40.4508
 20
-29.3893
 11
42.2164
 21
-26.7913
  0
LINE
  8
0
 10
42.2164
 20
-26.7913
 11
43.8153
 21
-24.0877
  0
LINE
  8
0
 10
43.8153
 20
-24.0877
 11
45.2413
 21
-21.289
  0
LINE
  8
0
 10
45.2413
 20
-21.289
 11
46.4888
 21
-18.4062
  0
LINE
  8
0
 10
46.4888
 20
-18.4062
 11
47.5528
 21
-15.4508
  0
LINE
  8
0
 10
47.5528
 20
-15.4508
 11
48.4292
 21
-12.4345
  0
LINE
  8
0
 10
48.4292
 20
-12.4345
 11
49.1143
 21
-9.36906
  0
LINE
  8
0
 10
49.1143
 20
-9.36906
 11
49.6057
 21
-6.26665
  0
LINE
  8
0
 10
49.6057
 20
-6.26665
 11
49.9013
 21
-3.13951
  0
LINE
  8
0
 10
49.9013
 20
-3.13951
 11
50
 21
0
  0
LINE
  8
0
 10
50
 20
0
 11
49.9013
 21
3.13951
  0
LINE
  8
0
 10
49.9013
 20
3.13951
 11
49.6057
 21
6.26665
  0
LINE
  8
0
 10
49.6057
 20
6.26665
 11
49.1143
 21
9.36906
  0
LINE
  8
0
 10
49.1143
 20
9.36906
 11
48.4292
 21
12.4345
  0
LINE
  8
0
 10
48.4292
 20
12.4345
 11
47.5528
 21
15.4508
  0
LINE
  8
0
 10
47.5528
 20
15.4508
 11
46.4888
 21
18.4062
  0
LINE
  8
0
 10
46.4888
 20
18.4062
 11
45.2413
 21
21.289
  0
LINE
  8
0
 10
45.2413
 20
21.289
 11
43.8153
 21
24.0877
  0
LINE
  8
0
 10
43.8153
 20
24.0877
 11
42.2164
 21
26.7913
  0
LINE
  8
0
 10
42.2164
 20
26.7913
 11
40.4508
 21
29.3893
  0
LINE
  8
0
 10
40.4508
 20
29.3893
 11
38.5257
 21
31.8712
  0
LINE
  8
0
 10
38.5257
 20
31.8712
 11
36.4484
 21
34.2273
  0
LINE
  8
0
 10
36.4484
 20
34.2273
 11
34.2273
 21
36.4484
  0
LINE
  8
0
 10
34.2273
 20
36.4484
 11
31.8712
 21
38.5257
  0
LINE
  8
0
 10
31.8712
 20
38.5257
 11
29.3893
 21
40.4508
  0
LINE
  8
0
 10
29.3893
 20
40.4508
 11
26.7913
 21
42.2164
  0
LINE
  8
0
 10
26.7913
 20
42.2164
 11
24.0877
 21
43.8153
  0
LINE
  8
0
 10
24.0877
 20
43.8153
 11
21.289
 21
45.2413
  0
LINE
  8
0
 10
21.289
 20
45.2413
 11
18.4062
 21
46.4888
  0
LINE
  8
0
 10
18.4062
 20
46.4888
 11
15.4508
 21
47.5528
  0
LINE
  8
0
 10
15.4508
 20
47.5528
 11
12.4345
 21
48.4292
  0
LINE
  8
0
 10
12.4345
 20
48.4292
 11
9.36906
 21
49.1143
  0
LINE
  8
0
 10
9.36906
 20
49.1143
 11
6.26665
 21
49.6057
  0
LINE
  8
0
 10
6.26665
 20
49.6057
 11
3.13951
 21
49.9013
  0
LINE
  8
0
 10
3.13951
 20
49.9013
 11
0
 21
50
  0
LINE
  8
0
 10
0
 20
50
 11
-3.13951
 21
49.9013
  0
LINE
  8
0
 10
-3.13951
 20
49.9013
 11
-6.26665
 21
49.6057
  0
LINE
  8
0
 10
-6.26665
 20
49.6057
 11
-9.36906
 21
49.1143
  0
LINE
  8
0
 10
-9.36906
 20
49.1143
 11
-12.4345
 21
48.4292
  0
LINE
  8
0
 10
-12.4345
 20
48.4292
 11
-15.4508
 21
47.5528
  0
LINE
  8
0
 10
-15.4508
 20
47.5528
 11
-18.4062
 21
46.4888
  0
LINE
  8
0
 10
-18.4062
 20
46.4888
 11
-21.289
 21
45.2413
  0
LINE
  8
0
 10
-21.289
 20
45.2413
 11
-24.0877
 21
43.8153
  0
LINE
  8
0
 10
-24.0877
 20
43.8153
 11
-26.7913
 21
42.2164
  0
LINE
  8
0
 10
-26.7913
 20
42.2164
 11
-29.3893
 21
40.4508
  0
LINE
  8
0
 10
-29.3893
 20
40.4508
 11
-31.8712
 21
38.5257
  0
LINE
  8
0
 10
-31.8712
 20
38.5257
 11
-34.2273
 21
36.4484
  0
LINE
  8
0
 10
-34.2273
 20
36.4484
 11
-36.4484
 21
34.2273
  0
LINE
  8
0
 10
-36.4484
 20
34.2273
 11
-38.5257
 21
31.8712
  0
LINE
  8
0
 10
-38.5257
 20
31.8712
 11
-40.4508
 21
29.3893
  0
LINE
  8
0
 10
-40.4508
 20
29.3893
 11
-42.2164
 21
26.7913
  0
LINE
  8
0
 10
-42.2164
 20
26.7913
 11
-43.8153
 21
24.0877
  0
LINE
  8
0
 10
-43.8153
 20
24.0877
 11
-45.2413
 21
21.289
  0
LINE
  8
0
 10
-45.2413
 20
21.289
 11
-46.4888
 21
18.4062
  0
LINE
  8
0
 10
-46.4888
 20
18.4062
 11
-47.5528
 21
15.4508
  0
LINE
  8
0
 10
-47.5528
 20
15.4508
 11
-48.4292
 21
12.4345
  0
LINE
  8
0
 10
-48.4292
 20
12.4345
 11
-49.1143
 21
9.36906
  0
LINE
  8
0
 10
-49.1143
 20
9.36906
 11
-49.6057
 21
6.26665
  0
LINE
  8
0
 10
-49.6057
 20
6.26665
 11
-49.9013
 21
3.13951
  0
LINE
  8
0
 10
-49.9013
 20
3.13951
 11
-50
 21
0
  0
LINE
  8
0
 10
-50
 20
0
 11
-49.9013
 21
-3.13951
  0
LINE
  8
0
 10
-49.9013
 20
-3.13951
 11
-49.6057
 21
-6.26665
  0
LINE
  8
0
 10
-49.6057
 20
-6.26665
 11
-49.1143
 21
-9.36906
  0
LINE
  8
0
 10
-49.1143
 20
-9.36906
 11
-48.4292
 21
-12.4345
  0
LINE
  8
0
 10
-48.4292
 20
-12.4345
 11
-47.5528
 21
-15.4508
  0
LINE
  8
0
 10
-47.5528
 20
-15.4508
 11
-46.4888
 21
-18.4062
  0
LINE
  8
0
 10
-46.4888
 20
-18.4062
 11
-45.2413
 21
-21.289
  0
LINE
  8
0
 10
-45.2413
 20
-21.289
 11
-43.8153
 21
-24.0877
  0
LINE
  8
0
 10
-43.8153
 20
-24.0877
 11
-42.2164
 21
-26.7913
  0
LINE
  8
0
 10
-42.2164
 20
-26.7913
 11
-40.4508
 21
-29.3893
  0
LINE
  8
0
 10
-40.4508
 20
-29.3893
 11
-38.5257
 21
-31.8712
  0
LINE
  8
0
 10
-38.5257
 20
-31.8712
 11
-36.4484
 21
-34.2273
  0
LINE
  8
0
 10
-36.4484
 20
-34.2273
 11
-34.2273
 21
-36.4484
  0
LINE
  8
0
 10
-34.2273
 20
-36.4484
 11
-31.8712
 21
-38.5257
  0
LINE
  8
0
 10
-31.8712
 20
-38.5257
 11
-29.3893
 21
-40.4508
  0
LINE
  8
0
 10
-29.3893
 20
-40.4508
 11
-26.7913
 21
-42.2164
  0
LINE
  8
0
 10
-26.7913
 20
-42.2164
 11
-24.0877
 21
-43.8153
  0
LINE
  8
0
 10
-24.0877
 20
-43.8153
 11
-21.289
 21
-45.2413
  0
LINE
  8
0
 10
-21.289
 20
-45.2413
 11
-18.4062
 21
-46.4888
  0
LINE
  8
0
 10
-18.4062
 20
-46.4888
 11
-15.4508
 21
-47.5528
  0
LINE
  8
0
 10
-15.4508
 20
-47.5528
 11
-12.4345
 21
-48.4292
  0
LINE
  8
0
 10
-12.4345
 20
-48.4292
 11
-9.36906
 21
-49.1143
  0
LINE
  8
0
 10
-9.36906
 20
-49.1143
 11
-6.26665
 21
-49.6057
  0
LINE
  8
0
 10
-6.26665
 20
-49.6057
 11
-3.13951
 21
-49.9013
  0
LINE
  8
0
 10
-3.13951
 20
-49.9013
 11
0
 21
-50
  0
LINE
  8
0
 10
0
 20
-50
 11
3.13951
 21
-49.9013
  0
LINE
  8
0
 10
22.3577
 20
37.2771
 11
22.2516
 21
37.2894
  0
LINE
  8
0
 10
22.2516
 20
37.2894
 11
22.1465
 21
37.3083
  0
LINE
  8
0
 10
22.1465
 20
37.3083
 11
22.0428
 21
37.3338
  0
LINE
  8
0
 10
22.0428
 20
37.3338
 11
21.9409
 21
37.3657
  0
LINE
  8
0
 10
21.9409
 20
37.3657
 11
21.8412
 21
37.404
  0
LINE
  8
0
 10
21.8412
 20
37.404
 11
21.7441
 21
37.4484
  0
LINE
  8
0
 10
21.7441
 20
37.4484
 11
21.65
 21
37.4989
  0
LINE
  8
0
 10
21.65
 20
37.4989
 11
21.5592
 21
37.5552
  0
LINE
  8
0
 10
21.5592
 20
37.5552
 11
21.4722
 21
37.617
  0
LINE
  8
0
 10
21.4722
 20
37.617
 11
21.3892
 21
37.6842
  0
LINE
  8
0
 10
21.3892
 20
37.6842
 11
21.3106
 21
37.7565
  0
LINE
  8
0
 10
21.3106
 20
37.7565
 11
21.2366
 21
37.8336
  0
LINE
  8
0
 10
21.2366
 20
37.8336
 11
21.1677
 21
37.9152
  0
LINE
  8
0
 10
21.1677
 20
37.9152
 11
21.104
 21
38.0009
  0
LINE
  8
0
 10
21.104
 20
38.0009
 11
21.0459
 21
38.0905
  0
LINE
  8
0
 10
21.0459
 20
38.0905
 11
20.9934
 21
38.1835
  0
LINE
  8
0
 10
20.9934
 20
38.1835
 11
20.947
 21
38.2797
  0
LINE
  8
0
 10
20.947
 20
38.2797
 11
20.9066
 21
38.3786
  0
LINE
  8
0
 10
20.9066
 20
38.3786
 11
20.8725
 21
38.4798
  0
LINE
  8
0
 10
20.8725
 20
38.4798
 11
20.8449
 21
38.5829
  0
LINE
  8
0
 10
20.8449
 20
38.5829
 11
20.8238
 21
38.6876
  0
LINE
  8
0
 10
20.8238
 20
38.6876
 11
20.8093
 21
38.7934
  0
LINE
  8
0
 10
20.8093
 20
38.7934
 11
20.8015
 21
38.8999
  0
LINE
  8
0
 10
20.8015
 20
38.8999
 11
20.8004
 21
39.0067
  0
LINE
  8
0
 10
20.8004
 20
39.0067
 11
20.806
 21
39.1134
  0
LINE
  8
0
 10
20.806
 20
39.1134
 11
20.8182
 21
39.2195
  0
LINE
  8
0
 10
20.8182
 20
39.2195
 11
20.8371
 21
39.3246
  0
LINE
  8
0
 10
20.8371
 20
39.3246
 11
20.8626
 21
39.4283
  0
LINE
  8
0
 10
20.8626
 20
39.4283
 11
20.8945
 21
39.5302
  0
LINE
  8
0
 10
20.8945
 20
39.5302
 11
20.9328
 21
39.6299
  0
LINE
  8
0
 10
20.9328
 20
39.6299
 11
20.9773
 21
39.727
  0
LINE
  8
0
 10
20.9773
 20
39.727
 11
21.0278
 21
39.8211
  0
LINE
  8
0
 10
21.0278
 20
39.8211
 11
21.084
 21
39.9119
  0
LINE
  8
0
 10
21.084
 20
39.9119
 11
21.1459
 21
39.9989
  0
LINE
  8
0
 10
21.1459
 20
39.9989
 11
21.2131
 21
40.082
  0
LINE
  8
0
 10
21.2131
 20
40.082
 11
21.2854
 21
40.1606
  0
LINE
  8
0
 10
21.2854
 20
40.1606
 11
21.3625
 21
40.2345
  0
LINE
  8
0
 10
21.3625
 20
40.2345
 11
21.444
 21
40.3034
  0
LINE
  8
0
 10
21.444
 20
40.3034
 11
21.5298
 21
40.3671
  0
LINE
  8
0
 10
21.5298
 20
40.3671
 11
21.6193
 21
40.4252
  0
LINE
  8
0
 10
21.6193
 20
40.4252
 11
21.7124
 21
40.4777
  0
LINE
  8
0
 10
21.7124
 20
40.4777
 11
21.8085
 21
40.5242
  0
LINE
  8
0
 10
21.8085
 20
40.5242
 11
21.9074
 21
40.5645
  0
LINE
  8
0
 10
21.9074
 20
40.5645
 11
22.0086
 21
40.5986
  0
LINE
  8
0
 10
22.0086
 20
40.5986
 11
22.1118
 21
40.6262
  0
LINE
  8
0
 10
22.1118
 20
40.6262
 11
22.2165
 21
40.6473
  0
LINE
  8
0
 10
22.2165
 20
40.6473
 11
22.3223
 21
40.6618
  0
LINE
  8
0
 10
22.3223
 20
40.6618
 11
22.4288
 21
40.6696
  0
LINE
  8
0
 10
22.4288
 20
40.6696
 11
22.5356
 21
40.6708
  0
LINE
  8
0
 10
22.5356
 20
40.6708
 11
22.6422
 21
40.6652
  0
LINE
  8
0
 10
22.6422
 20
40.6652
 11
22.7483
 21
40.6529
  0
LINE
  8
0
 10
22.7483
 20
40.6529
 11
22.8534
 21
40.634
  0
LINE
  8
0
 10
22.8534
 20
40.634
 11
22.9572
 21
40.6085
  0
LINE
  8
0
 10
22.9572
 20
40.6085
 11
23.0591
 21
40.5766
  0
LINE
  8
0
 10
23.0591
 20
40.5766
 11
23.1588
 21
40.5383
  0
LINE
  8
0
 10
23.1588
 20
40.5383
 11
23.2559
 21
40.4939
  0
LINE
  8
0
 10
23.2559
 20
40.4939
 11
23.35
 21
40.4434
  0
LINE
  8
0
 10
23.35
 20
40.4434
 11
23.4408
 21
40.3871
  0
LINE
  8
0
 10
23.4408
 20
40.3871
 11
23.5278
 21
40.3252
  0
LINE
  8
0
 10
23.5278
 20
40.3252
 11
23.6108
 21
40.258
  0
LINE
  8
0
 10
23.6108
 20
40.258
 11
23.6894
 21
40.1857
  0
LINE
  8
0
 10
23.6894
 20
40.1857
 11
23.7633
 21
40.1087
  0
LINE
  8
0
 10
23.7633
 20
40.1087
 11
23.8323
 21
40.0271
  0
LINE
  8
0
 10
23.8323
 20
40.0271
 11
23.896
 21
39.9413
  0
LINE
  8
0
 10
23.896
 20
39.9413
 11
23.9541
 21
39.8518
  0
LINE
  8
0
 10
23.9541
 20
39.8518
 11
24.0065
 21
39.7587
  0
LINE
  8
0
 10
24.0065
 20
39.7587
 11
24.053
 21
39.6626
  0
LINE
  8
0
 10
24.053
 20
39.6626
 11
24.0934
 21
39.5637
  0
LINE
  8
0
 10
24.0934
 20
39.5637
 11
24.1274
 21
39.4625
  0
LINE
  8
0
 10
24.1274
 20
39.4625
 11
24.1551
 21
39.3593
  0
LINE
  8
0
 10
24.1551
 20
39.3593
 11
24.1762
 21
39.2546
  0
LINE
  8
0
 10
24.1762
 20
39.2546
 11
24.1907
 21
39.1488
  0
LINE
  8
0
 10
24.1907
 20
39.1488
 11
24.1985
 21
39.0423
  0
LINE
  8
0
 10
24.1985
 20
39.0423
 11
24.1996
 21
38.9355
  0
LINE
  8
0
 10
24.1996
 20
38.9355
 11
24.194
 21
38.8289
  0
LINE
  8
0
 10
24.194
 20
38.8289
 11
24.1818
 21
38.7228
  0
LINE
  8
0
 10
24.1818
 20
38.7228
 11
24.1628
 21
38.6177
  0
LINE
  8
0
 10
24.1628
 20
38.6177
 11
24.1374
 21
38.514
  0
LINE
  8
0
 10
24.1374
 20
38.514
 11
24.1054
 21
38.4121
  0
LINE
  8
0
 10
24.1054
 20
38.4121
 11
24.0672
 21
38.3124
  0
LINE
  8
0
 10
24.0672
 20
38.3124
 11
24.0227
 21
38.2153
  0
LINE
  8
0
 10
24.0227
 20
38.2153
 11
23.9722
 21
38.1211
  0
LINE
  8
0
 10
23.9722
 20
38.1211
 11
23.916
 21
38.0304
  0
LINE
  8
0
 10
23.916
 20
38.0304
 11
23.8541
 21
37.9433
  0
LINE
  8
0
 10
23.8541
 20
37.9433
 11
23.7869
 21
37.8603
  0
LINE
  8
0
 10
23.7869
 20
37.8603
 11
23.7146
 21
37.7817
  0
LINE
  8
0
 10
23.7146
 20
37.7817
 11
23.6375
 21
37.7078
  0
LINE
  8
0
 10
23.6375
 20
37.7078
 11
23.5559
 21
37.6389
  0
LINE
  8
0
 10
23.5559
 20
37.6389
 11
23.4702
 21
37.5752
  0
LINE
  8
0
 10
23.4702
 20
37.5752
 11
23.3806
 21
37.517
  0
LINE
  8
0
 10
23.3806
 20
37.517
 11
23.2876
 21
37.4646
  0
LINE
  8
0
 10
23.2876
 20
37.4646
 11
23.1915
 21
37.4181
  0
LINE
  8
0
 10
23.1915
 20
37.4181
 11
23.0926
 21
37.3778
  0
LINE
  8
0
 10
23.0926
 20
37.3778
 11
22.9913
 21
37.3437
  0
LINE
  8
0
 10
22.9913
 20
37.3437
 11
22.8882
 21
37.3161
  0
LINE
  8
0
 10
22.8882
 20
37.3161
 11
22.7835
 21
37.2949
  0
LINE
  8
0
 10
22.7835
 20
37.2949
 11
22.6777
 21
37.2804
  0
LINE
  8
0
 10
22.6777
 20
37.2804
 11
22.5712
 21
37.2726
  0
LINE
  8
0
 10
22.5712
 20
37.2726
 11
22.4644
 21
37.2715
  0
LINE
  8
0
 10
22.4644
 20
37.2715
 11
22.3577
 21
37.2771
  0
LINE
  8
0
 10
-22.5712
 20
37.2726
 11
-22.6777
 21
37.2804
  0
LINE
  8
0
 10
-22.6777
 20
37.2804
 11
-22.7835
 21
37.2949
  0
LINE
  8
0
 10
-22.7835
 20
37.2949
 11
-22.8882
 21
37.3161
  0
LINE
  8
0
 10
-22.8882
 20
37.3161
 11
-22.9913
 21
37.3437
  0
LINE
  8
0
 10
-22.9913
 20
37.3437
 11
-23.0926
 21
37.3778
  0
LINE
  8
0
 10
-23.0926
 20
37.3778
 11
-23.1915
 21
37.4181
  0
LINE
  8
0
 10
-23.1915
 20
37.4181
 11
-23.2876
 21
37.4646
  0
LINE
  8
0
 10
-23.2876
 20
37.4646
 11
-23.3806
 21
37.517
  0
LINE
  8
0
 10
-23.3806
 20
37.517
 11
-23.4702
 21
37.5752
  0
LINE
  8
0
 10
-23.4702
 20
37.5752
 11
-23.5559
 21
37.6389
  0
LINE
  8
0
 10
-23.5559
 20
37.6389
 11
-23.6375
 21
37.7078
  0
LINE
  8
0
 10
-23.6375
 20
37.7078
 11
-23.7146
 21
37.7817
  0
LINE
  8
0
 10
-23.7146
 20
37.7817
 11
-23.7869
 21
37.8603
  0
LINE
  8
0
 10
-23.7869
 20
37.8603
 11
-23.8541
 21
37.9433
  0
LINE
  8
0
 10
-23.8541
 20
37.9433
 11
-23.916
 21
38.0304
  0
LINE
  8
0
 10
-23.916
 20
38.0304
 11
-23.9722
 21
38.1211
  0
LINE
  8
0
 10
-23.9722
 20
38.1211
 11
-24.0227
 21
38.2153
  0
LINE
  8
0
 10
-24.0227
 20
38.2153
 11
-24.0672
 21
38.3124
  0
LINE
  8
0
 10
-24.0672
 20
38.3124
 11
-24.1054
 21
38.4121
  0
LINE
  8
0
 10
-24.1054
 20
38.4121
 11
-24.1374
 21
38.514
  0
LINE
  8
0
 10
-24.1374
 20
38.514
 11
-24.1628
 21
38.6177
  0
LINE
  8
0
 10
-24.1628
 20
38.6177
 11
-24.1818
 21
38.7228
  0
LINE
  8
0
 10
-24.1818
 20
38.7228
 11
-24.194
 21
38.8289
  0
LINE
  8
0
 10
-24.194
 20
38.8289
 11
-24.1996
 21
38.9355
  0
LINE
  8
0
 10
-24.1996
 20
38.9355
 11
-24.1985
 21
39.0423
  0
LINE
  8
0
 10
-24.1985
 20
39.0423
 11
-24.1907
 21
39.1488
  0
LINE
  8
0
 10
-24.1907
 20
39.1488
 11
-24.1762
 21
39.2546
  0
LINE
  8
0
 10
-24.1762
 20
39.2546
 11
-24.1551
 21
39.3593
  0
LINE
  8
0
 10
-24.1551
 20
39.3593
 11
-24.1274
 21
39.4625
  0
LINE
  8
0
 10
-24.1274
 20
39.4625
 11
-24.0934
 21
39.5637
  0
LINE
  8
0
 10
-24.0934
 20
39.5637
 11
-24.053
 21
39.6626
  0
LINE
  8
0
 10
-24.053
 20
39.6626
 11
-24.0065
 21
39.7587
  0
LINE
  8
0
 10
-24.0065
 20
39.7587
 11
-23.9541
 21
39.8518
  0
LINE
  8
0
 10
-23.9541
 20
39.8518
 11
-23.896
 21
39.9413
  0
LINE
  8
0
 10
-23.896
 20
39.9413
 11
-23.8323
 21
40.0271
  0
LINE
  8
0
 10
-23.8323
 20
40.0271
 11
-23.7633
 21
40.1087
  0
LINE
  8
0
 10
-23.7633
 20
40.1087
 11
-23.6894
 21
40.1857
  0
LINE
  8
0
 10
-23.6894
 20
40.1857
 11
-23.6108
 21
40.258
  0
LINE
  8
0
 10
-23.6108
 20
40.258
 11
-23.5278
 21
40.3252
  0
LINE
  8
0
 10
-23.5278
 20
40.3252
 11
-23.4408
 21
40.3871
  0
LINE
  8
0
 10
-23.4408
 20
40.3871
 11
-23.35
 21
40.4434
  0
LINE
  8
0
 10
-23.35
 20
40.4434
 11
-23.2559
 21
40.4939
  0
LINE
  8
0
 10
-23.2559
 20
40.4939
 11
-23.1588
 21
40.5383
  0
LINE
  8
0
 10
-23.1588
 20
40.5383
 11
-23.0591
 21
40.5766
  0
LINE
  8
0
 10
-23.0591
 20
40.5766
 11
-22.9572
 21
40.6085
  0
LINE
  8
0
 10
-22.9572
 20
40.6085
 11
-22.8534
 21
40.634
  0
LINE
  8
0
 10
-22.8534
 20
40.634
 11
-22.7483
 21
40.6529
  0
LINE
  8
0
 10
-22.7483
 20
40.6529
 11
-22.6422
 21
40.6652
  0
LINE
  8
0
 10
-22.6422
 20
40.6652
 11
-22.5356
 21
40.6708
  0
LINE
  8
0
 10
-22.5356
 20
40.6708
 11
-22.4288
 21
40.6696
  0
LINE
  8
0
 10
-22.4288
 20
40.6696
 11
-22.3223
 21
40.6618
  0
LINE
  8
0
 10
-22.3223
 20
40.6618
 11
-22.2165
 21
40.6473
  0
LINE
  8
0
 10
-22.2165
 20
40.6473
 11
-22.1118
 21
40.6262
  0
LINE
  8
0
 10
-22.1118
 20
40.6262
 11
-22.0086
 21
40.5986
  0
LINE
  8
0
 10
-22.0086
 20
40.5986
 11
-21.9074
 21
40.5645
  0
LINE
  8
0
 10
-21.9074
 20
40.5645
 11
-21.8085
 21
40.5242
  0
LINE
  8
0
 10
-21.8085
 20
40.5242
 11
-21.7124
 21
40.4777
  0
LINE
  8
0
 10
-21.7124
 20
40.4777
 11
-21.6193
 21
40.4252
  0
LINE
  8
0
 10
-21.6193
 20
40.4252
 11
-21.5298
 21
40.3671
  0
LINE
  8
0
 10
-21.5298
 20
40.3671
 11
-21.444
 21
40.3034
  0
LINE
  8
0
 10
-21.444
 20
40.3034
 11
-21.3625
 21
40.2345
  0
LINE
  8
0
 10
-21.3625
 20
40.2345
 11
-21.2854
 21
40.1606
  0
LINE
  8
0
 10
-21.2854
 20
40.1606
 11
-21.2131
 21
40.082
  0
LINE
  8
0
 10
-21.2131
 20
40.082
 11
-21.1459
 21
39.9989
  0
LINE
  8
0
 10
-21.1459
 20
39.9989
 11
-21.084
 21
39.9119
  0
LINE
  8
0
 10
-21.084
 20
39.9119
 11
-21.0278
 21
39.8211
  0
LINE
  8
0
 10
-21.0278
 20
39.8211
 11
-20.9773
 21
39.727
  0
LINE
  8
0
 10
-20.9773
 20
39.727
 11
-20.9328
 21
39.6299
  0
LINE
  8
0
 10
-20.9328
 20
39.6299
 11
-20.8945
 21
39.5302
  0
LINE
  8
0
 10
-20.8945
 20
39.5302
 11
-20.8626
 21
39.4283
  0
LINE
  8
0
 10
-20.8626
 20
39.4283
 11
-20.8371
 21
39.3246
  0
LINE
  8
0
 10
-20.8371
 20
39.3246
 11
-20.8182
 21
39.2195
  0
LINE
  8
0
 10
-20.8182
 20
39.2195
 11
-20.806
 21
39.1134
  0
LINE
  8
0
 10
-20.806
 20
39.1134
 11
-20.8004
 21
39.0067
  0
LINE
  8
0
 10
-20.8004
 20
39.0067
 11
-20.8015
 21
38.8999
  0
LINE
  8
0
 10
-20.8015
 20
38.8999
 11
-20.8093
 21
38.7934
  0
LINE
  8
0
 10
-20.8093
 20
38.7934
 11
-20.8238
 21
38.6876
  0
LINE
  8
0
 10
-20.8238
 20
38.6876
 11
-20.8449
 21
38.5829
  0
LINE
  8
0
 10
-20.8449
 20
38.5829
 11
-20.8725
 21
38.4798
  0
LINE
  8
0
 10
-20.8725
 20
38.4798
 11
-20.9066
 21
38.3786
  0
LINE
  8
0
 10
-20.9066
 20
38.3786
 11
-20.947
 21
38.2797
  0
LINE
  8
0
 10
-20.947
 20
38.2797
 11
-20.9934
 21
38.1835
  0
LINE
  8
0
 10
-20.9934
 20
38.1835
 11
-21.0459
 21
38.0905
  0
LINE
  8
0
 10
-21.0459
 20
38.0905
 11
-21.104
 21
38.0009
  0
LINE
  8
0
 10
-21.104
 20
38.0009
 11
-21.1677
 21
37.9152
  0
LINE
  8
0
 10
-21.1677
 20
37.9152
 11
-21.2366
 21
37.8336
  0
LINE
  8
0
 10
-21.2366
 20
37.8336
 11
-21.3106
 21
37.7565
  0
LINE
  8
0
 10
-21.3106
 20
37.7565
 11
-21.3892
 21
37.6842
  0
LINE
  8
0
 10
-21.3892
 20
37.6842
 11
-21.4722
 21
37.617
  0
LINE
  8
0
 10
-21.4722
 20
37.617
 11
-21.5592
 21
37.5552
  0
LINE
  8
0
 10
-21.5592
 20
37.5552
 11
-21.65
 21
37.4989
  0
LINE
  8
0
 10
-21.65
 20
37.4989
 11
-21.7441
 21
37.4484
  0
LINE
  8
0
 10
-21.7441
 20
37.4484
 11
-21.8412
 21
37.404
  0
LINE
  8
0
 10
-21.8412
 20
37.404
 11
-21.9409
 21
37.3657
  0
LINE
  8
0
 10
-21.9409
 20
37.3657
 11
-22.0428
 21
37.3338
  0
LINE
  8
0
 10
-22.0428
 20
37.3338
 11
-22.1465
 21
37.3083
  0
LINE
  8
0
 10
-22.1465
 20
37.3083
 11
-22.2516
 21
37.2894
  0
LINE
  8
0
 10
-22.2516
 20
37.2894
 11
-22.3577
 21
37.2771
  0
LINE
  8
0
 10
-22.3577
 20
37.2771
 11
-22.4644
 21
37.2715
  0
LINE
  8
0
 10
-22.4644
 20
37.2715
 11
-22.5712
 21
37.2726
  0
LINE
  8
0
 10
-45.1067
 20
-1.69664
 11
-45.2131
 21
-1.68658
  0
LINE
  8
0
 10
-45.2131
 20
-1.68658
 11
-45.3185
 21
-1.66988
  0
LINE
  8
0
 10
-45.3185
 20
-1.66988
 11
-45.4228
 21
-1.64659
  0
LINE
  8
0
 10
-45.4228
 20
-1.64659
 11
-45.5253
 21
-1.61679
  0
LINE
  8
0
 10
-45.5253
 20
-1.61679
 11
-45.6258
 21
-1.58061
  0
LINE
  8
0
 10
-45.6258
 20
-1.58061
 11
-45.7238
 21
-1.53819
  0
LINE
  8
0
 10
-45.7238
 20
-1.53819
 11
-45.819
 21
-1.48972
  0
LINE
  8
0
 10
-45.819
 20
-1.48972
 11
-45.9109
 21
-1.43535
  0
LINE
  8
0
 10
-45.9109
 20
-1.43535
 11
-45.9992
 21
-1.37532
  0
LINE
  8
0
 10
-45.9992
 20
-1.37532
 11
-46.0836
 21
-1.30986
  0
LINE
  8
0
 10
-46.0836
 20
-1.30986
 11
-46.1637
 21
-1.23924
  0
LINE
  8
0
 10
-46.1637
 20
-1.23924
 11
-46.2392
 21
-1.16373
  0
LINE
  8
0
 10
-46.2392
 20
-1.16373
 11
-46.3099
 21
-1.08362
  0
LINE
  8
0
 10
-46.3099
 20
-1.08362
 11
-46.3753
 21
-0.999222
  0
LINE
  8
0
 10
-46.3753
 20
-0.999222
 11
-46.4353
 21
-0.910904
  0
LINE
  8
0
 10
-46.4353
 20
-0.910904
 11
-46.4897
 21
-0.81897
  0
LINE
  8
0
 10
-46.4897
 20
-0.81897
 11
-46.5382
 21
-0.723816
  0
LINE
  8
0
 10
-46.5382
 20
-0.723816
 11
-46.5806
 21
-0.625809
  0
LINE
  8
0
 10
-46.5806
 20
-0.625809
 11
-46.6168
 21
-0.525314
  0
LINE
  8
0
 10
-46.6168
 20
-0.525314
 11
-46.6466
 21
-0.42276
  0
LINE
  8
0
 10
-46.6466
 20
-0.42276
 11
-46.6699
 21
-0.318542
  0
LINE
  8
0
 10
-46.6699
 20
-0.318542
 11
-46.6866
 21
-0.213058
  0
LINE
  8
0
 10
-46.6866
 20
-0.213058
 11
-46.6966
 21
-0.106735
  0
LINE
  8
0
 10
-46.6966
 20
-0.106735
 11
-46.7
 21
0
  0
LINE
  8
0
 10
-46.7
 20
0
 11
-46.6966
 21
0.106735
  0
LINE
  8
0
 10
-46.6966
 20
0.106735
 11
-46.6866
 21
0.213058
  0
LINE
  8
0
 10
-46.6866
 20
0.213058
 11
-46.6699
 21
0.318542
  0
LINE
  8
0
 10
-46.6699
 20
0.318542
 11
-46.6466
 21
0.42276
  0
LINE
  8
0
 10
-46.6466
 20
0.42276
 11
-46.6168
 21
0.525314
  0
LINE
  8
0
 10
-46.6168
 20
0.525314
 11
-46.5806
 21
0.625809
  0
LINE
  8
0
 10
-46.5806
 20
0.625809
 11
-46.5382
 21
0.723816
  0
LINE
  8
0
 10
-46.5382
 20
0.723816
 11
-46.4897
 21
0.81897
  0
LINE
  8
0
 10
-46.4897
 20
0.81897
 11
-46.4353
 21
0.910904
  0
LINE
  8
0
 10
-46.4353
 20
0.910904
 11
-46.3753
 21
0.999222
  0
LINE
  8
0
 10
-46.3753
 20
0.999222
 11
-46.3099
 21
1.08362
  0
LINE
  8
0
 10
-46.3099
 20
1.08362
 11
-46.2392
 21
1.16373
  0
LINE
  8
0
 10
-46.2392
 20
1.16373
 11
-46.1637
 21
1.23924
  0
LINE
  8
0
 10
-46.1637
 20
1.23924
 11
-46.0836
 21
1.30986
  0
LINE
  8
0
 10
-46.0836
 20
1.30986
 11
-45.9992
 21
1.37532
  0
LINE
  8
0
 10
-45.9992
 20
1.37532
 11
-45.9109
 21
1.43535
  0
LINE
  8
0
 10
-45.9109
 20
1.43535
 11
-45.819
 21
1.48972
  0
LINE
  8
0
 10
-45.819
 20
1.48972
 11
-45.7238
 21
1.53819
  0
LINE
  8
0
 10
-45.7238
 20
1.53819
 11
-45.6258
 21
1.58061
  0
LINE
  8
0
 10
-45.6258
 20
1.58061
 11
-45.5253
 21
1.61679
  0
LINE
  8
0
 10
-45.5253
 20
1.61679
 11
-45.4228
 21
1.64659
  0
LINE
  8
0
 10
-45.4228
 20
1.64659
 11
-45.3185
 21
1.66988
  0
LINE
  8
0
 10
-45.3185
 20
1.66988
 11
-45.2131
 21
1.68658
  0
LINE
  8
0
 10
-45.2131
 20
1.68658
 11
-45.1067
 21
1.69664
  0
LINE
  8
0
 10
-45.1067
 20
1.69664
 11
-45
 21
1.7
  0
LINE
  8
0
 10
-45
 20
1.7
 11
-44.8932
 21
1.69664
  0
LINE
  8
0
 10
-44.8932
 20
1.69664
 11
-44.7869
 21
1.68658
  0
LINE
  8
0
 10
-44.7869
 20
1.68658
 11
-44.6814
 21
1.66988
  0
LINE
  8
0
 10
-44.6814
 20
1.66988
 11
-44.5772
 21
1.64659
  0
LINE
  8
0
 10
-44.5772
 20
1.64659
 11
-44.4747
 21
1.61679
  0
LINE
  8
0
 10
-44.4747
 20
1.61679
 11
-44.3742
 21
1.58061
  0
LINE
  8
0
 10
-44.3742
 20
1.58061
 11
-44.2762
 21
1.53819
  0
LINE
  8
0
 10
-44.2762
 20
1.53819
 11
-44.181
 21
1.48972
  0
LINE
  8
0
 10
-44.181
 20
1.48972
 11
-44.0891
 21
1.43535
  0
LINE
  8
0
 10
-44.0891
 20
1.43535
 11
-44.0008
 21
1.37532
  0
LINE
  8
0
 10
-44.0008
 20
1.37532
 11
-43.9164
 21
1.30986
  0
LINE
  8
0
 10
-43.9164
 20
1.30986
 11
-43.8363
 21
1.23924
  0
LINE
  8
0
 10
-43.8363
 20
1.23924
 11
-43.7607
 21
1.16373
  0
LINE
  8
0
 10
-43.7607
 20
1.16373
 11
-43.6901
 21
1.08362
  0
LINE
  8
0
 10
-43.6901
 20
1.08362
 11
-43.6247
 21
0.999222
  0
LINE
  8
0
 10
-43.6247
 20
0.999222
 11
-43.5646
 21
0.910904
  0
LINE
  8
0
 10
-43.5646
 20
0.910904
 11
-43.5103
 21
0.81897
  0
LINE
  8
0
 10
-43.5103
 20
0.81897
 11
-43.4618
 21
0.723816
  0
LINE
  8
0
 10
-43.4618
 20
0.723816
 11
-43.4194
 21
0.625809
  0
LINE
  8
0
 10
-43.4194
 20
0.625809
 11
-43.3832
 21
0.525314
  0
LINE
  8
0
 10
-43.3832
 20
0.525314
 11
-43.3534
 21
0.42276
  0
LINE
  8
0
 10
-43.3534
 20
0.42276
 11
-43.3301
 21
0.318542
  0
LINE
  8
0
 10
-43.3301
 20
0.318542
 11
-43.3134
 21
0.213058
  0
LINE
  8
0
 10
-43.3134
 20
0.213058
 11
-43.3033
 21
0.106735
  0
LINE
  8
0
 10
-43.3033
 20
0.106735
 11
-43.3
 21
0
  0
LINE
  8
0
 10
-43.3
 20
0
 11
-43.3033
 21
-0.106735
  0
LINE
  8
0
 10
-43.3033
 20
-0.106735
 11
-43.3134
 21
-0.213058
  0
LINE
  8
0
 10
-43.3134
 20
-0.213058
 11
-43.3301
 21
-0.318542
  0
LINE
  8
0
 10
-43.3301
 20
-0.318542
 11
-43.3534
 21
-0.42276
  0
LINE
  8
0
 10
-43.3534
 20
-0.42276
 11
-43.3832
 21
-0.525314
  0
LINE
  8
0
 10
-43.3832
 20
-0.525314
 11
-43.4194
 21
-0.625809
  0
LINE
  8
0
 10
-43.4194
 20
-0.625809
 11
-43.4618
 21
-0.723816
  0
LINE
  8
0
 10
-43.4618
 20
-0.723816
 11
-43.5103
 21
-0.81897
  0
LINE
  8
0
 10
-43.5103
 20
-0.81897
 11
-43.5646
 21
-0.910904
  0
LINE
  8
0
 10
-43.5646
 20
-0.910904
 11
-43.6247
 21
-0.999222
  0
LINE
  8
0
 10
-43.6247
 20
-0.999222
 11
-43.6901
 21
-1.08362
  0
LINE
  8
0
 10
-43.6901
 20
-1.08362
 11
-43.7607
 21
-1.16373
  0
LINE
  8
0
 10
-43.7607
 20
-1.16373
 11
-43.8363
 21
-1.23924
  0
LINE
  8
0
 10
-43.8363
 20
-1.23924
 11
-43.9164
 21
-1.30986
  0
LINE
  8
0
 10
-43.9164
 20
-1.30986
 11
-44.0008
 21
-1.37532
  0
LINE
  8
0
 10
-44.0008
 20
-1.37532
 11
-44.0891
 21
-1.43535
  0
LINE
  8
0
 10
-44.0891
 20
-1.43535
 11
-44.181
 21
-1.48972
  0
LINE
  8
0
 10
-44.181
 20
-1.48972
 11
-44.2762
 21
-1.53819
  0
LINE
  8
0
 10
-44.2762
 20
-1.53819
 11
-44.3742
 21
-1.58061
  0
LINE
  8
0
 10
-44.3742
 20
-1.58061
 11
-44.4747
 21
-1.61679
  0
LINE
  8
0
 10
-44.4747
 20
-1.61679
 11
-44.5772
 21
-1.64659
  0
LINE
  8
0
 10
-44.5772
 20
-1.64659
 11
-44.6814
 21
-1.66988
  0
LINE
  8
0
 10
-44.6814
 20
-1.66988
 11
-44.7869
 21
-1.68658
  0
LINE
  8
0
 10
-44.7869
 20
-1.68658
 11
-44.8932
 21
-1.69664
  0
LINE
  8
0
 10
-44.8932
 20
-1.69664
 11
-45
 21
-1.7
  0
LINE
  8
0
 10
-45
 20
-1.7
 11
-45.1067
 21
-1.69664
  0
LINE
  8
0
 10
44.8932
 20
-1.69664
 11
44.7869
 21
-1.68658
  0
LINE
  8
0
 10
44.7869
 20
-1.68658
 11
44.6814
 21
-1.66988
  0
LINE
  8
0
 10
44.6814
 20
-1.66988
 11
44.5772
 21
-1.64659
  0
LINE
  8
0
 10
44.5772
 20
-1.64659
 11
44.4747
 21
-1.61679
  0
LINE
  8
0
 10
44.4747
 20
-1.61679
 11
44.3742
 21
-1.58061
  0
LINE
  8
0
 10
44.3742
 20
-1.58061
 11
44.2762
 21
-1.53819
  0
LINE
  8
0
 10
44.2762
 20
-1.53819
 11
44.181
 21
-1.48972
  0
LINE
  8
0
 10
44.181
 20
-1.48972
 11
44.0891
 21
-1.43535
  0
LINE
  8
0
 10
44.0891
 20
-1.43535
 11
44.0008
 21
-1.37532
  0
LINE
  8
0
 10
44.0008
 20
-1.37532
 11
43.9164
 21
-1.30986
  0
LINE
  8
0
 10
43.9164
 20
-1.30986
 11
43.8363
 21
-1.23924
  0
LINE
  8
0
 10
43.8363
 20
-1.23924
 11
43.7607
 21
-1.16373
  0
LINE
  8
0
 10
43.7607
 20
-1.16373
 11
43.6901
 21
-1.08362
  0
LINE
  8
0
 10
43.6901
 20
-1.08362
 11
43.6247
 21
-0.999222
  0
LINE
  8
0
 10
43.6247
 20
-0.999222
 11
43.5646
 21
-0.910904
  0
LINE
  8
0
 10
43.5646
 20
-0.910904
 11
43.5103
 21
-0.81897
  0
LINE
  8
0
 10
43.5103
 20
-0.81897
 11
43.4618
 21
-0.723816
  0
LINE
  8
0
 10
43.4618
 20
-0.723816
 11
43.4194
 21
-0.625809
  0
LINE
  8
0
 10
43.4194
 20
-0.625809
 11
43.3832
 21
-0.525314
  0
LINE
  8
0
 10
43.3832
 20
-0.525314
 11
43.3534
 21
-0.42276
  0
LINE
  8
0
 10
43.3534
 20
-0.42276
 11
43.3301
 21
-0.318542
  0
LINE
  8
0
 10
43.3301
 20
-0.318542
 11
43.3134
 21
-0.213058
  0
LINE
  8
0
 10
43.3134
 20
-0.213058
 11
43.3033
 21
-0.106735
  0
LINE
  8
0
 10
43.3033
 20
-0.106735
 11
43.3
 21
0
  0
LINE
  8
0
 10
43.3
 20
0
 11
43.3033
 21
0.106735
  0
LINE
  8
0
 10
43.3033
 20
0.106735
 11
43.3134
 21
0.213058
  0
LINE
  8
0
 10
43.3134
 20
0.213058
 11
43.3301
 21
0.318542
  0
LINE
  8
0
 10
43.3301
 20
0.318542
 11
43.3534
 21
0.42276
  0
LINE
  8
0
 10
43.3534
 20
0.42276
 11
43.3832
 21
0.525314
  0
LINE
  8
0
 10
43.3832
 20
0.525314
 11
43.4194
 21
0.625809
  0
LINE
  8
0
 10
43.4194
 20
0.625809
 11
43.4618
 21
0.723816
  0
LINE
  8
0
 10
43.4618
 20
0.723816
 11
43.5103
 21
0.81897
  0
LINE
  8
0
 10
43.5103
 20
0.81897
 11
43.5646
 21
0.910904
  0
LINE
  8
0
 10
43.5646
 20
0.910904
 11
43.6247
 21
0.999222
  0
LINE
  8
0
 10
43.6247
 20
0.999222
 11
43.6901
 21
1.08362
  0
LINE
  8
0
 10
43.6901
 20
1.08362
 11
43.7607
 21
1.16373
  0
LINE
  8
0
 10
43.7607
 20
1.16373
 11
43.8363
 21
1.23924
  0
LINE
  8
0
 10
43.8363
 20
1.23924
 11
43.9164
 21
1.30986
  0
LINE
  8
0
 10
43.9164
 20
1.30986
 11
44.0008
 21
1.37532
  0
LINE
  8
0
 10
44.0008
 20
1.37532
 11
44.0891
 21
1.43535
  0
LINE
  8
0
 10
44.0891
 20
1.43535
 11
44.181
 21
1.48972
  0
LINE
  8
0
 10
44.181
 20
1.48972
 11
44.2762
 21
1.53819
  0
LINE
  8
0
 10
44.2762
 20
1.53819
 11
44.3742
 21
1.58061
  0
LINE
  8
0
 10
44.3742
 20
1.58061
 11
44.4747
 21
1.61679
  0
LINE
  8
0
 10
44.4747
 20
1.61679
 11
44.5772
 21
1.64659
  0
LINE
  8
0
 10
44.5772
 20
1.64659
 11
44.6814
 21
1.66988
  0
LINE
  8
0
 10
44.6814
 20
1.66988
 11
44.7869
 21
1.68658
  0
LINE
  8
0
 10
44.7869
 20
1.68658
 11
44.8932
 21
1.69664
  0
LINE
  8
0
 10
44.8932
 20
1.69664
 11
45
 21
1.7
  0
LINE
  8
0
 10
45
 20
1.7
 11
45.1067
 21
1.69664
  0
LINE
  8
0
 10
45.1067
 20
1.69664
 11
45.2131
 21
1.68658
  0
LINE
  8
0
 10
45.2131
 20
1.68658
 11
45.3185
 21
1.66988
  0
LINE
  8
0
 10
45.3185
 20
1.66988
 11
45.4228
 21
1.64659
  0
LINE
  8
0
 10
45.4228
 20
1.64659
 11
45.5253
 21
1.61679
  0
LINE
  8
0
 10
45.5253
 20
1.61679
 11
45.6258
 21
1.58061
  0
LINE
  8
0
 10
45.6258
 20
1.58061
 11
45.7238
 21
1.53819
  0
LINE
  8
0
 10
45.7238
 20
1.53819
 11
45.819
 21
1.48972
  0
LINE
  8
0
 10
45.819
 20
1.48972
 11
45.9109
 21
1.43535
  0
LINE
  8
0
 10
45.9109
 20
1.43535
 11
45.9992
 21
1.37532
  0
LINE
  8
0
 10
45.9992
 20
1.37532
 11
46.0836
 21
1.30986
  0
LINE
  8
0
 10
46.0836
 20
1.30986
 11
46.1637
 21
1.23924
  0
LINE
  8
0
 10
46.1637
 20
1.23924
 11
46.2392
 21
1.16373
  0
LINE
  8
0
 10
46.2392
 20
1.16373
 11
46.3099
 21
1.08362
  0
LINE
  8
0
 10
46.3099
 20
1.08362
 11
46.3753
 21
0.999222
  0
LINE
  8
0
 10
46.3753
 20
0.999222
 11
46.4353
 21
0.910904
  0
LINE
  8
0
 10
46.4353
 20
0.910904
 11
46.4897
 21
0.81897
  0
LINE
  8
0
 10
46.4897
 20
0.81897
 11
46.5382
 21
0.723816
  0
LINE
  8
0
 10
46.5382
 20
0.723816
 11
46.5806
 21
0.625809
  0
LINE
  8
0
 10
46.5806
 20
0.625809
 11
46.6168
 21
0.525314
  0
LINE
  8
0
 10
46.6168
 20
0.525314
 11
46.6466
 21
0.42276
  0
LINE
  8
0
 10
46.6466
 20
0.42276
 11
46.6699
 21
0.318542
  0
LINE
  8
0
 10
46.6699
 20
0.318542
 11
46.6866
 21
0.213058
  0
LINE
  8
0
 10
46.6866
 20
0.213058
 11
46.6966
 21
0.106735
  0
LINE
  8
0
 10
46.6966
 20
0.106735
 11
46.7
 21
0
  0
LINE
  8
0
 10
46.7
 20
0
 11
46.6966
 21
-0.106735
  0
LINE
  8
0
 10
46.6966
 20
-0.106735
 11
46.6866
 21
-0.213058
  0
LINE
  8
0
 10
46.6866
 20
-0.213058
 11
46.6699
 21
-0.318542
  0
LINE
  8
0
 10
46.6699
 20
-0.318542
 11
46.6466
 21
-0.42276
  0
LINE
  8
0
 10
46.6466
 20
-0.42276
 11
46.6168
 21
-0.525314
  0
LINE
  8
0
 10
46.6168
 20
-0.525314
 11
46.5806
 21
-0.625809
  0
LINE
  8
0
 10
46.5806
 20
-0.625809
 11
46.5382
 21
-0.723816
  0
LINE
  8
0
 10
46.5382
 20
-0.723816
 11
46.4897
 21
-0.81897
  0
LINE
  8
0
 10
46.4897
 20
-0.81897
 11
46.4353
 21
-0.910904
  0
LINE
  8
0
 10
46.4353
 20
-0.910904
 11
46.3753
 21
-0.999222
  0
LINE
  8
0
 10
46.3753
 20
-0.999222
 11
46.3099
 21
-1.08362
  0
LINE
  8
0
 10
46.3099
 20
-1.08362
 11
46.2392
 21
-1.16373
  0
LINE
  8
0
 10
46.2392
 20
-1.16373
 11
46.1637
 21
-1.23924
  0
LINE
  8
0
 10
46.1637
 20
-1.23924
 11
46.0836
 21
-1.30986
  0
LINE
  8
0
 10
46.0836
 20
-1.30986
 11
45.9992
 21
-1.37532
  0
LINE
  8
0
 10
45.9992
 20
-1.37532
 11
45.9109
 21
-1.43535
  0
LINE
  8
0
 10
45.9109
 20
-1.43535
 11
45.819
 21
-1.48972
  0
LINE
  8
0
 10
45.819
 20
-1.48972
 11
45.7238
 21
-1.53819
  0
LINE
  8
0
 10
45.7238
 20
-1.53819
 11
45.6258
 21
-1.58061
  0
LINE
  8
0
 10
45.6258
 20
-1.58061
 11
45.5253
 21
-1.61679
  0
LINE
  8
0
 10
45.5253
 20
-1.61679
 11
45.4228
 21
-1.64659
  0
LINE
  8
0
 10
45.4228
 20
-1.64659
 11
45.3185
 21
-1.66988
  0
LINE
  8
0
 10
45.3185
 20
-1.66988
 11
45.2131
 21
-1.68658
  0
LINE
  8
0
 10
45.2131
 20
-1.68658
 11
45.1067
 21
-1.69664
  0
LINE
  8
0
 10
45.1067
 20
-1.69664
 11
45
 21
-1.7
  0
LINE
  8
0
 10
45
 20
-1.7
 11
44.8932
 21
-1.69664
  0
LINE
  8
0
 10
-22.6422
 20
-40.6652
 11
-22.7483
 21
-40.6529
  0
LINE
  8
0
 10
-22.7483
 20
-40.6529
 11
-22.8534
 21
-40.634
  0
LINE
  8
0
 10
-22.8534
 20
-40.634
 11
-22.9572
 21
-40.6085
  0
LINE
  8
0
 10
-22.9572
 20
-40.6085
 11
-23.0591
 21
-40.5766
  0
LINE
  8
0
 10
-23.0591
 20
-40.5766
 11
-23.1588
 21
-40.5383
  0
LINE
  8
0
 10
-23.1588
 20
-40.5383
 11
-23.2559
 21
-40.4939
  0
LINE
  8
0
 10
-23.2559
 20
-40.4939
 11
-23.35
 21
-40.4434
  0
LINE
  8
0
 10
-23.35
 20
-40.4434
 11
-23.4408
 21
-40.3871
  0
LINE
  8
0
 10
-23.4408
 20
-40.3871
 11
-23.5278
 21
-40.3252
  0
LINE
  8
0
 10
-23.5278
 20
-40.3252
 11
-23.6108
 21
-40.258
  0
LINE
  8
0
 10
-23.6108
 20
-40.258
 11
-23.6894
 21
-40.1857
  0
LINE
  8
0
 10
-23.6894
 20
-40.1857
 11
-23.7633
 21
-40.1087
  0
LINE
  8
0
 10
-23.7633
 20
-40.1087
 11
-23.8323
 21
-40.0271
  0
LINE
  8
0
 10
-23.8323
 20
-40.0271
 11
-23.896
 21
-39.9413
  0
LINE
  8
0
 10
-23.896
 20
-39.9413
 11
-23.9541
 21
-39.8518
  0
LINE
  8
0
 10
-23.9541
 20
-39.8518
 11
-24.0065
 21
-39.7587
  0
LINE
  8
0
 10
-24.0065
 20
-39.7587
 11
-24.053
 21
-39.6626
  0
LINE
  8
0
 10
-24.053
 20
-39.6626
 11
-24.0934
 21
-39.5637
  0
LINE
  8
0
 10
-24.0934
 20
-39.5637
 11
-24.1274
 21
-39.4625
  0
LINE
  8
0
 10
-24.1274
 20
-39.4625
 11
-24.1551
 21
-39.3593
  0
LINE
  8
0
 10
-24.1551
 20
-39.3593
 11
-24.1762
 21
-39.2546
  0
LINE
  8
0
 10
-24.1762
 20
-39.2546
 11
-24.1907
 21
-39.1488
  0
LINE
  8
0
 10
-24.1907
 20
-39.1488
 11
-24.1985
 21
-39.0423
  0
LINE
  8
0
 10
-24.1985
 20
-39.0423
 11
-24.1996
 21
-38.9355
  0
LINE
  8
0
 10
-24.1996
 20
-38.9355
 11
-24.194
 21
-38.8289
  0
LINE
  8
0
 10
-24.194
 20
-38.8289
 11
-24.1818
 21
-38.7228
  0
LINE
  8
0
 10
-24.1818
 20
-38.7228
 11
-24.1628
 21
-38.6177
  0
LINE
  8
0
 10
-24.1628
 20
-38.6177
 11
-24.1374
 21
-38.514
  0
LINE
  8
0
 10
-24.1374
 20
-38.514
 11
-24.1054
 21
-38.4121
  0
LINE
  8
0
 10
-24.1054
 20
-38.4121
 11
-24.0672
 21
-38.3124
  0
LINE
  8
0
 10
-24.0672
 20
-38.3124
 11
-24.0227
 21
-38.2153
  0
LINE
  8
0
 10
-24.0227
 20
-38.2153
 11
-23.9722
 21
-38.1211
  0
LINE
  8
0
 10
-23.9722
 20
-38.1211
 11
-23.916
 21
-38.0304
  0
LINE
  8
0
 10
-23.916
 20
-38.0304
 11
-23.8541
 21
-37.9433
  0
LINE
  8
0
 10
-23.8541
 20
-37.9433
 11
-23.7869
 21
-37.8603
  0
LINE
  8
0
 10
-23.7869
 20
-37.8603
 11
-23.7146
 21
-37.7817
  0
LINE
  8
0
 10
-23.7146
 20
-37.7817
 11
-23.6375
 21
-37.7078
  0
LINE
  8
0
 10
-23.6375
 20
-37.7078
 11
-23.5559
 21
-37.6389
  0
LINE
  8
0
 10
-23.5559
 20
-37.6389
 11
-23.4702
 21
-37.5752
  0
LINE
  8
0
 10
-23.4702
 20
-37.5752
 11
-23.3806
 21
-37.517
  0
LINE
  8
0
 10
-23.3806
 20
-37.517
 11
-23.2876
 21
-37.4646
  0
LINE
  8
0
 10
-23.2876
 20
-37.4646
 11
-23.1915
 21
-37.4181
  0
LINE
  8
0
 10
-23.1915
 20
-37.4181
 11
-23.0926
 21
-37.3778
  0
LINE
  8
0
 10
-23.0926
 20
-37.3778
 11
-22.9913
 21
-37.3437
  0
LINE
  8
0
 10
-22.9913
 20
-37.3437
 11
-22.8882
 21
-37.3161
  0
LINE
  8
0
 10
-22.8882
 20
-37.3161
 11
-22.7835
 21
-37.2949
  0
LINE
  8
0
 10
-22.7835
 20
-37.2949
 11
-22.6777
 21
-37.2804
  0
LINE
  8
0
 10
-22.6777
 20
-37.2804
 11
-22.5712
 21
-37.2726
  0
LINE
  8
0
 10
-22.5712
 20
-37.2726
 11
-22.4644
 21
-37.2715
  0
LINE
  8
0
 10
-22.4644
 20
-37.2715
 11
-22.3577
 21
-37.2771
  0
LINE
  8
0
 10
-22.3577
 20
-37.2771
 11
-22.2516
 21
-37.2894
  0
LINE
  8
0
 10
-22.2516
 20
-37.2894
 11
-22.1465
 21
-37.3083
  0
LINE
  8
0
 10
-22.1465
 20
-37.3083
 11
-22.0428
 21
-37.3338
  0
LINE
  8
0
 10
-22.0428
 20
-37.3338
 11
-21.9409
 21
-37.3657
  0
LINE
  8
0
 10
-21.9409
 20
-37.3657
 11
-21.8412
 21
-37.404
  0
LINE
  8
0
 10
-21.8412
 20
-37.404
 11
-21.7441
 21
-37.4484
  0
LINE
  8
0
 10
-21.7441
 20
-37.4484
 11
-21.65
 21
-37.4989
  0
LINE
  8
0
 10
-21.65
 20
-37.4989
 11
-21.5592
 21
-37.5552
  0
LINE
  8
0
 10
-21.5592
 20
-37.5552
 11
-21.4722
 21
-37.617
  0
LINE
  8
0
 10
-21.4722
 20
-37.617
 11
-21.3892
 21
-37.6842
  0
LINE
  8
0
 10
-21.3892
 20
-37.6842
 11
-21.3106
 21
-37.7565
  0
LINE
  8
0
 10
-21.3106
 20
-37.7565
 11
-21.2366
 21
-37.8336
  0
LINE
  8
0
 10
-21.2366
 20
-37.8336
 11
-21.1677
 21
-37.9152
  0
LINE
  8
0
 10
-21.1677
 20
-37.9152
 11
-21.104
 21
-38.0009
  0
LINE
  8
0
 10
-21.104
 20
-38.0009
 11
-21.0459
 21
-38.0905
  0
LINE
  8
0
 10
-21.0459
 20
-38.0905
 11
-20.9934
 21
-38.1835
  0
LINE
  8
0
 10
-20.9934
 20
-38.1835
 11
-20.947
 21
-38.2797
  0
LINE
  8
0
 10
-20.947
 20
-38.2797
 11
-20.9066
 21
-38.3786
  0
LINE
  8
0
 10
-20.9066
 20
-38.3786
 11
-20.8725
 21
-38.4798
  0
LINE
  8
0
 10
-20.8725
 20
-38.4798
 11
-20.8449
 21
-38.5829
  0
LINE
  8
0
 10
-20.8449
 20
-38.5829
 11
-20.8238
 21
-38.6876
  0
LINE
  8
0
 10
-20.8238
 20
-38.6876
 11
-20.8093
 21
-38.7934
  0
LINE
  8
0
 10
-20.8093
 20
-38.7934
 11
-20.8015
 21
-38.8999
  0
LINE
  8
0
 10
-20.8015
 20
-38.8999
 11
-20.8004
 21
-39.0067
  0
LINE
  8
0
 10
-20.8004
 20
-39.0067
 11
-20.806
 21
-39.1134
  0
LINE
  8
0
 10
-20.806
 20
-39.1134
 11
-20.8182
 21
-39.2195
  0
LINE
  8
0
 10
-20.8182
 20
-39.2195
 11
-20.8371
 21
-39.3246
  0
LINE
  8
0
 10
-20.8371
 20
-39.3246
 11
-20.8626
 21
-39.4283
  0
LINE
  8
0
 10
-20.8626
 20
-39.4283
 11
-20.8945
 21
-39.5302
  0
LINE
  8
0
 10
-20.8945
 20
-39.5302
 11
-20.9328
 21
-39.6299
  0
LINE
  8
0
 10
-20.9328
 20
-39.6299
 11
-20.9773
 21
-39.727
  0
LINE
  8
0
 10
-20.9773
 20
-39.727
 11
-21.0278
 21
-39.8211
  0
LINE
  8
0
 10
-21.0278
 20
-39.8211
 11
-21.084
 21
-39.9119
  0
LINE
  8
0
 10
-21.084
 20
-39.9119
 11
-21.1459
 21
-39.9989
  0
LINE
  8
0
 10
-21.1459
 20
-39.9989
 11
-21.2131
 21
-40.082
  0
LINE
  8
0
 10
-21.2131
 20
-40.082
 11
-21.2854
 21
-40.1606
  0
LINE
  8
0
 10
-21.2854
 20
-40.1606
 11
-21.3625
 21
-40.2345
  0
LINE
  8
0
 10
-21.3625
 20
-40.2345
 11
-21.444
 21
-40.3034
  0
LINE
  8
0
 10
-21.444
 20
-40.3034
 11
-21.5298
 21
-40.3671
  0
LINE
  8
0
 10
-21.5298
 20
-40.3671
 11
-21.6193
 21
-40.4252
  0
LINE
  8
0
 10
-21.6193
 20
-40.4252
 11
-21.7124
 21
-40.4777
  0
LINE
  8
0
 10
-21.7124
 20
-40.4777
 11
-21.8085
 21
-40.5242
  0
LINE
  8
0
 10
-21.8085
 20
-40.5242
 11
-21.9074
 21
-40.5645
  0
LINE
  8
0
 10
-21.9074
 20
-40.5645
 11
-22.0086
 21
-40.5986
  0
LINE
  8
0
 10
-22.0086
 20
-40.5986
 11
-22.1118
 21
-40.6262
  0
LINE
  8
0
 10
-22.1118
 20
-40.6262
 11
-22.2165
 21
-40.6473
  0
LINE
  8
0
 10
-22.2165
 20
-40.6473
 11
-22.3223
 21
-40.6618
  0
LINE
  8
0
 10
-22.3223
 20
-40.6618
 11
-22.4288
 21
-40.6696
  0
LINE
  8
0
 10
-22.4288
 20
-40.6696
 11
-22.5356
 21
-40.6708
  0
LINE
  8
0
 10
-22.5356
 20
-40.6708
 11
-22.6422
 21
-40.6652
  0
LINE
  8
0
 10
22.4288
 20
-40.6696
 11
22.3223
 21
-40.6618
  0
LINE
  8
0
 10
22.3223
 20
-40.6618
 11
22.2165
 21
-40.6473
  0
LINE
  8
0
 10
22.2165
 20
-40.6473
 11
22.1118
 21
-40.6262
  0
LINE
  8
0
 10
22.1118
 20
-40.6262
 11
22.0086
 21
-40.5986
  0
LINE
  8
0
 10
22.0086
 20
-40.5986
 11
21.9074
 21
-40.5645
  0
LINE
  8
0
 10
21.9074
 20
-40.5645
 11
21.8085
 21
-40.5242
  0
LINE
  8
0
 10
21.8085
 20
-40.5242
 11
21.7124
 21
-40.4777
  0
LINE
  8
0
 10
21.7124
 20
-40.4777
 11
21.6193
 21
-40.4252
  0
LINE
  8
0
 10
21.6193
 20
-40.4252
 11
21.5298
 21
-40.3671
  0
LINE
  8
0
 10
21.5298
 20
-40.3671
 11
21.444
 21
-40.3034
  0
LINE
  8
0
 10
21.444
 20
-40.3034
 11
21.3625
 21
-40.2345
  0
LINE
  8
0
 10
21.3625
 20
-40.2345
 11
21.2854
 21
-40.1606
  0
LINE
  8
0
 10
21.2854
 20
-40.1606
 11
21.2131
 21
-40.082
  0
LINE
  8
0
 10
21.2131
 20
-40.082
 11
21.1459
 21
-39.9989
  0
LINE
  8
0
 10
21.1459
 20
-39.9989
 11
21.084
 21
-39.9119
  0
LINE
  8
0
 10
21.084
 20
-39.9119
 11
21.0278
 21
-39.8211
  0
LINE
  8
0
 10
21.0278
 20
-39.8211
 11
20.9773
 21
-39.727
  0
LINE
  8
0
 10
20.9773
 20
-39.727
 11
20.9328
 21
-39.6299
  0
LINE
  8
0
 10
20.9328
 20
-39.6299
 11
20.8945
 21
-39.5302
  0
LINE
  8
0
 10
20.8945
 20
-39.5302
 11
20.8626
 21
-39.4283
  0
LINE
  8
0
 10
20.8626
 20
-39.4283
 11
20.8371
 21
-39.3246
  0
LINE
  8
0
 10
20.8371
 20
-39.3246
 11
20.8182
 21
-39.2195
  0
LINE
  8
0
 10
20.8182
 20
-39.2195
 11
20.806
 21
-39.1134
  0
LINE
  8
0
 10
20.806
 20
-39.1134
 11
20.8004
 21
-39.0067
  0
LINE
  8
0
 10
20.8004
 20
-39.0067
 11
20.8015
 21
-38.8999
  0
LINE
  8
0
 10
20.8015
 20
-38.8999
 11
20.8093
 21
-38.7934
  0
LINE
  8
0
 10
20.8093
 20
-38.7934
 11
20.8238
 21
-38.6876
  0
LINE
  8
0
 10
20.8238
 20
-38.6876
 11
20.8449
 21
-38.5829
  0
LINE
  8
0
 10
20.8449
 20
-38.5829
 11
20.8725
 21
-38.4798
  0
LINE
  8
0
 10
20.8725
 20
-38.4798
 11
20.9066
 21
-38.3786
  0
LINE
  8
0
 10
20.9066
 20
-38.3786
 11
20.947
 21
-38.2797
  0
LINE
  8
0
 10
20.947
 20
-38.2797
 11
20.9934
 21
-38.1835
  0
LINE
  8
0
 10
20.9934
 20
-38.1835
 11
21.0459
 21
-38.0905
  0
LINE
  8
0
 10
21.0459
 20
-38.0905
 11
21.104
 21
-38.0009
  0
LINE
  8
0
 10
21.104
 20
-38.0009
 11
21.1677
 21
-37.9152
  0
LINE
  8
0
 10
21.1677
 20
-37.9152
 11
21.2366
 21
-37.8336
  0
LINE
  8
0
 10
21.2366
 20
-37.8336
 11
21.3106
 21
-37.7565
  0
LINE
  8
0
 10
21.3106
 20
-37.7565
 11
21.3892
 21
-37.6842
  0
LINE
  8
0
 10
21.3892
 20
-37.6842
 11
21.4722
 21
-37.617
  0
LINE
  8
0
 10
21.4722
 20
-37.617
 11
21.5592
 21
-37.5552
  0
LINE
  8
0
 10
21.5592
 20
-37.5552
 11
21.65
 21
-37.4989
  0
LINE
  8
0
 10
21.65
 20
-37.4989
 11
21.7441
 21
-37.4484
  0
LINE
  8
0
 10
21.7441
 20
-37.4484
 11
21.8412
 21
-37.404
  0
LINE
  8
0
 10
21.8412
 20
-37.404
 11
21.9409
 21
-37.3657
  0
LINE
  8
0
 10
21.9409
 20
-37.3657
 11
22.0428
 21
-37.3338
  0
LINE
  8
0
 10
22.0428
 20
-37.3338
 11
22.1465
 21
-37.3083
  0
LINE
  8
0
 10
22.1465
 20
-37.3083
 11
22.2516
 21
-37.2894
  0
LINE
  8
0
 10
22.2516
 20
-37.2894
 11
22.3577
 21
-37.2771
  0
LINE
  8
0
 10
22.3577
 20
-37.2771
 11
22.4644
 21
-37.2715
  0
LINE
  8
0
 10
22.4644
 20
-37.2715
 11
22.5712
 21
-37.2726
  0
LINE
  8
0
 10
22.5712
 20
-37.2726
 11
22.6777
 21
-37.2804
  0
LINE
  8
0
 10
22.6777
 20
-37.2804
 11
22.7835
 21
-37.2949
  0
LINE
  8
0
 10
22.7835
 20
-37.2949
 11
22.8882
 21
-37.3161
  0
LINE
  8
0
 10
22.8882
 20
-37.3161
 11
22.9913
 21
-37.3437
  0
LINE
  8
0
 10
22.9913
 20
-37.3437
 11
23.0926
 21
-37.3778
  0
LINE
  8
0
 10
23.0926
 20
-37.3778
 11
23.1915
 21
-37.4181
  0
LINE
  8
0
 10
23.1915
 20
-37.4181
 11
23.2876
 21
-37.4646
  0
LINE
  8
0
 10
23.2876
 20
-37.4646
 11
23.3806
 21
-37.517
  0
LINE
  8
0
 10
23.3806
 20
-37.517
 11
23.4702
 21
-37.5752
  0
LINE
  8
0
 10
23.4702
 20
-37.5752
 11
23.5559
 21
-37.6389
  0
LINE
  8
0
 10
23.5559
 20
-37.6389
 11
23.6375
 21
-37.7078
  0
LINE
  8
0
 10
23.6375
 20
-37.7078
 11
23.7146
 21
-37.7817
  0
LINE
  8
0
 10
23.7146
 20
-37.7817
 11
23.7869
 21
-37.8603
  0
LINE
  8
0
 10
23.7869
 20
-37.8603
 11
23.8541
 21
-37.9433
  0
LINE
  8
0
 10
23.8541
 20
-37.9433
 11
23.916
 21
-38.0304
  0
LINE
  8
0
 10
23.916
 20
-38.0304
 11
23.9722
 21
-38.1211
  0
LINE
  8
0
 10
23.9722
 20
-38.1211
 11
24.0227
 21
-38.2153
  0
LINE
  8
0
 10
24.0227
 20
-38.2153
 11
24.0672
 21
-38.3124
  0
LINE
  8
0
 10
24.0672
 20
-38.3124
 11
24.1054
 21
-38.4121
  0
LINE
  8
0
 10
24.1054
 20
-38.4121
 11
24.1374
 21
-38.514
  0
LINE
  8
0
 10
24.1374
 20
-38.514
 11
24.1628
 21
-38.6177
  0
LINE
  8
0
 10
24.1628
 20
-38.6177
 11
24.1818
 21
-38.7228
  0
LINE
  8
0
 10
24.1818
 20
-38.7228
 11
24.194
 21
-38.8289
  0
LINE
  8
0
 10
24.194
 20
-38.8289
 11
24.1996
 21
-38.9355
  0
LINE
  8
0
 10
24.1996
 20
-38.9355
 11
24.1985
 21
-39.0423
  0
LINE
  8
0
 10
24.1985
 20
-39.0423
 11
24.1907
 21
-39.1488
  0
LINE
  8
0
 10
24.1907
 20
-39.1488
 11
24.1762
 21
-39.2546
  0
LINE
  8
0
 10
24.1762
 20
-39.2546
 11
24.1551
 21
-39.3593
  0
LINE
  8
0
 10
24.1551
 20
-39.3593
 11
24.1274
 21
-39.4625
  0
LINE
  8
0
 10
24.1274
 20
-39.4625
 11
24.0934
 21
-39.5637
  0
LINE
  8
0
 10
24.0934
 20
-39.5637
 11
24.053
 21
-39.6626
  0
LINE
  8
0
 10
24.053
 20
-39.6626
 11
24.0065
 21
-39.7587
  0
LINE
  8
0
 10
24.0065
 20
-39.7587
 11
23.9541
 21
-39.8518
  0
LINE
  8
0
 10
23.9541
 20
-39.8518
 11
23.896
 21
-39.9413
  0
LINE
  8
0
 10
23.896
 20
-39.9413
 11
23.8323
 21
-40.0271
  0
LINE
  8
0
 10
23.8323
 20
-40.0271
 11
23.7633
 21
-40.1087
  0
LINE
  8
0
 10
23.7633
 20
-40.1087
 11
23.6894
 21
-40.1857
  0
LINE
  8
0
 10
23.6894
 20
-40.1857
 11
23.6108
 21
-40.258
  0
LINE
  8
0
 10
23.6108
 20
-40.258
 11
23.5278
 21
-40.3252
  0
LINE
  8
0
 10
23.5278
 20
-40.3252
 11
23.4408
 21
-40.3871
  0
LINE
  8
0
 10
23.4408
 20
-40.3871
 11
23.35
 21
-40.4434
  0
LINE
  8
0
 10
23.35
 20
-40.4434
 11
23.2559
 21
-40.4939
  0
LINE
  8
0
 10
23.2559
 20
-40.4939
 11
23.1588
 21
-40.5383
  0
LINE
  8
0
 10
23.1588
 20
-40.5383
 11
23.0591
 21
-40.5766
  0
LINE
  8
0
 10
23.0591
 20
-40.5766
 11
22.9572
 21
-40.6085
  0
LINE
  8
0
 10
22.9572
 20
-40.6085
 11
22.8534
 21
-40.634
  0
LINE
  8
0
 10
22.8534
 20
-40.634
 11
22.7483
 21
-40.6529
  0
LINE
  8
0
 10
22.7483
 20
-40.6529
 11
22.6422
 21
-40.6652
  0
LINE
  8
0
 10
22.6422
 20
-40.6652
 11
22.5356
 21
-40.6708
  0
LINE
  8
0
 10
22.5356
 20
-40.6708
 11
22.4288
 21
-40.6696
  0
ENDSEC
  0
SECTION
  2
OBJECTS
  0
DICTIONARY
  0
ENDSEC
  0
EOF
